M48
INCH,TZ
T10C0.024
T11C0.025
T12C0.032
T13C0.035
T14C0.039
T15C0.040
T16C0.118
T17C0.060
T18C0.120
%
T10
X038250Y-48600
X038250Y-49600
X038250Y-51600
X038250Y-52600
X038250Y-53600
T11
X037450Y-48150
X037450Y-48800
X037450Y-49400
X037450Y-51300
X037450Y-52000
X038100Y-43900
X038100Y-44650
X038100Y-45300
X038200Y-50750
X038300Y-59900
X038300Y-62950
X038350Y-57400
X038350Y-58000
X038350Y-58550
X038350Y-59200
X038750Y-50050
X038800Y-50750
X039650Y-50000
X039750Y-60150
X039969Y-59556
X040047Y-58729
X040350Y-47800
X040835Y-54044
X041300Y-48050
X041500Y-48600
X041700Y-58050
X041750Y-49500
X042150Y-49750
X042200Y-60050
X042291Y-56052
X042700Y-48000
X043500Y-44900
X043800Y-58750
X043850Y-45475
X044150Y-44900
X044275Y-46375
X044500Y-46775
X044500Y-53600
X044550Y-52700
X044575Y-54516
X044650Y-52250
X044700Y-47200
X044725Y-47700
X044750Y-48150
X044825Y-48600
X044900Y-49650
X045400Y-50700
X045600Y-59700
X046050Y-52750
X046050Y-62200
X046375Y-48725
X046400Y-48100
X046475Y-47400
X046600Y-58900
X046600Y-59600
X046650Y-49250
X046900Y-47550
X047125Y-51900
X047200Y-48550
X047200Y-49250
X047200Y-60050
X047700Y-48550
X047750Y-49250
X047950Y-44425
X048100Y-47650
X048100Y-48200
X048300Y-51900
X048350Y-49250
X048500Y-54800
X048550Y-54050
X048600Y-52750
X048700Y-59800
X048800Y-61100
X048950Y-48050
X048950Y-48650
X048950Y-49250
X049000Y-62200
X049200Y-51900
X049931Y-54501
X050000Y-45000
X050600Y-43200
X050600Y-45000
X050640Y-59304
X050950Y-43550
X050950Y-51300
X050994Y-56706
X051050Y-42050
X051150Y-49650
X051450Y-47725
X051750Y-42600
X051800Y-45525
X052000Y-45050
X052250Y-47700
X052600Y-48000
X052687Y-59304
X053050Y-47800
X053200Y-52825
X053238Y-55013
X053575Y-53650
X053650Y-49250
X053650Y-50000
X053650Y-50800
X053650Y-51700
X053950Y-54300
X054300Y-62250
X054700Y-54250
X054700Y-59950
X054800Y-45000
X054800Y-45550
X054925Y-44400
X055400Y-44725
X055465Y-59945
X055600Y-45150
X055600Y-54250
X055700Y-51350
X055850Y-60750
X056050Y-42000
X056450Y-54236
X056450Y-49075
X057473Y-59394
X057800Y-51300
X057800Y-52000
X058000Y-56600
X058050Y-50025
X058250Y-42550
X058625Y-49825
X058700Y-42150
X058850Y-52000
X059025Y-50600
X059150Y-43300
X059325Y-51000
X059402Y-59276
X060032Y-54827
X060100Y-52000
X060350Y-51200
X060500Y-52825
X060650Y-53500
X060850Y-54400
X061000Y-49000
X061253Y-60220
X061750Y-54400
X061850Y-58850
X061850Y-59600
X061900Y-60250
X062050Y-42325
X062100Y-45950
X062100Y-49250
X062200Y-47850
X062454Y-59927
X062500Y-54400
X062650Y-43600
X062800Y-43150
X062800Y-46000
X062850Y-49400
X062950Y-45600
X062975Y-48325
X063150Y-47725
X063300Y-54450
X063500Y-45925
X063825Y-50650
X063875Y-51125
X064541Y-59218
X064950Y-49900
X065075Y-45500
X065150Y-56450
X065600Y-50275
X065875Y-48950
X066200Y-49400
X066391Y-59179
X067200Y-54450
X067550Y-43825
X068400Y-59900
X069600Y-57550
X069600Y-58450
X069600Y-59350
X069600Y-60050
X069750Y-63000
X067913Y-69685
X067913Y-72638
X069291Y-72638
X047323Y-71636
X047323Y-76636
X049323Y-70386
X049323Y-70886
X049323Y-72386
X049323Y-75886
X051323Y-70386
X051823Y-76636
T12
X067000Y-47850
X067000Y-49850
X067000Y-51075
X067000Y-53075
X070000Y-47850
X070000Y-49850
X070000Y-51075
X070000Y-53075
T13
X037717Y-42048
X037717Y-43048
X038717Y-42048
X038717Y-43048
X039717Y-42048
X039717Y-43048
X039717Y-44048
X039717Y-45048
X040717Y-42048
X040717Y-43048
X040717Y-44048
X040717Y-45048
X041717Y-42048
X041717Y-43048
X041717Y-44048
X041717Y-45048
X042717Y-42048
X042717Y-43048
X042717Y-44048
X042717Y-45048
X043717Y-42048
X043717Y-43048
X044717Y-42048
X044717Y-43048
X045717Y-42048
X045717Y-43048
X046717Y-42048
X046717Y-43048
X047717Y-42048
X047717Y-43048
X048717Y-42048
X048717Y-43048
X049717Y-42048
X049717Y-43048
T14
X038300Y-46150
X038300Y-47150
T15
X040800Y-47000
X040800Y-61311
X040800Y-62311
X040950Y-51350
X041800Y-47000
X041800Y-61311
X041800Y-62311
X041950Y-51350
X042213Y-57256
X042213Y-58256
X042213Y-59256
X042800Y-47000
X042800Y-61311
X042800Y-62311
X042950Y-51350
X043354Y-57256
X043354Y-58256
X043354Y-59256
X043800Y-61311
X043800Y-62311
X044800Y-61311
X044800Y-62311
X049703Y-61311
X049703Y-62311
X050703Y-61311
X050703Y-62311
X051112Y-57832
X051112Y-58832
X051112Y-59832
X051703Y-61311
X051703Y-62311
X052254Y-57832
X052254Y-58832
X052254Y-59832
X052703Y-61311
X052703Y-62311
X053703Y-61311
X053703Y-62311
X056050Y-49850
X056050Y-50850
X056050Y-51850
X056250Y-44750
X056250Y-45750
X056250Y-46750
X056250Y-47750
X056497Y-61311
X056497Y-62311
X057050Y-49850
X057050Y-50850
X057050Y-51850
X057250Y-44750
X057250Y-45750
X057250Y-46750
X057250Y-47750
X057497Y-61311
X057497Y-62311
X057828Y-57882
X057828Y-58882
X057828Y-59882
X058497Y-61311
X058497Y-62311
X058969Y-57882
X058969Y-58882
X058969Y-59882
X059497Y-61311
X059497Y-62311
X060497Y-61311
X060497Y-62311
X063150Y-42075
X063486Y-61311
X063486Y-62311
X064150Y-42075
X064486Y-61311
X064486Y-62311
X064875Y-57700
X064875Y-58700
X064875Y-59700
X065150Y-42075
X065486Y-61311
X065486Y-62311
X066025Y-57700
X066025Y-58700
X066025Y-59700
X066150Y-42075
X066486Y-61311
X066486Y-62311
X067486Y-61311
X067486Y-62311
X069725Y-41800
X069725Y-42800
X069725Y-43800
X069725Y-44800
X073319Y-70244
X073319Y-71244
X073319Y-72244
X073319Y-73244
X073319Y-74244
X074319Y-70244
X074319Y-71244
X074319Y-72244
X074319Y-73244
X074319Y-74244
X050573Y-71636
X050573Y-72636
X050573Y-73636
X052823Y-69386
X052823Y-70386
X052823Y-71386
X052823Y-72386
X052823Y-73386
X053823Y-69386
X053823Y-70386
X053823Y-71386
X053823Y-72386
X053823Y-73386
T16
X046969Y-56417
X068426Y-46182
T17
X061811Y-69276
X061811Y-71276
X061811Y-73213
X061811Y-75213
X042323Y-68136
X042323Y-70136
X042323Y-73136
X042323Y-75136
T18
X058858Y-67716
X058858Y-76575
X074606Y-67716
X074606Y-76575
X038189Y-67520
X038189Y-76378
X055906Y-67520
X055906Y-76378
M30

