G04 (created by PCBNEW (2013-mar-13)-testing) date Thu 04 Apr 2013 08:28:40 PM CEST*
%MOIN*%
G04 Gerber Fmt 3.4, Leading zero omitted, Abs format*
%FSLAX34Y34*%
G01*
G70*
G90*
G04 APERTURE LIST*
%ADD10C,2.3622e-06*%
%ADD11R,0.0177787X0.0787787*%
%ADD12R,0.0787787X0.0177787*%
%ADD13C,0.0550787*%
%ADD14R,0.0551787X0.0236787*%
%ADD15R,0.0236787X0.0551787*%
%ADD16R,0.0800787X0.0600787*%
%ADD17R,0.0600787X0.0800787*%
%ADD18R,0.0350787X0.0550787*%
%ADD19R,0.0550787X0.0350787*%
%ADD20O,0.118779X0.0593787*%
%ADD21R,0.0600787X0.0600787*%
%ADD22C,0.0600787*%
%ADD23R,0.0314787X0.0314787*%
%ADD24R,0.0591787X0.0106787*%
%ADD25R,0.00987874X0.0591787*%
%ADD26C,0.0472787*%
%ADD27R,0.216579X0.0787787*%
%ADD28C,0.0591787*%
%ADD29C,0.157579*%
G04 APERTURE END LIST*
G54D10*
G54D11*
X60957Y-46904D03*
X61272Y-46904D03*
X61587Y-46904D03*
X61902Y-46904D03*
X62217Y-46904D03*
X62532Y-46904D03*
X62847Y-46904D03*
X63162Y-46904D03*
X63160Y-50670D03*
X60950Y-50670D03*
X61270Y-50670D03*
X61590Y-50670D03*
X61900Y-50670D03*
X62220Y-50670D03*
X62530Y-50670D03*
X62850Y-50670D03*
G54D12*
X63950Y-47688D03*
X63950Y-48002D03*
X63950Y-48318D03*
X63950Y-48632D03*
X63950Y-48948D03*
X63950Y-49262D03*
X63950Y-49578D03*
X63950Y-49892D03*
X60170Y-47690D03*
X60170Y-48000D03*
X60170Y-48320D03*
X60170Y-48630D03*
X60170Y-48940D03*
X60170Y-49260D03*
X60170Y-49580D03*
X60170Y-49900D03*
G54D13*
X70000Y-51075D03*
X70000Y-53075D03*
X67000Y-51075D03*
X67000Y-53075D03*
X70000Y-47850D03*
X70000Y-49850D03*
X67000Y-47850D03*
X67000Y-49850D03*
G54D14*
X41674Y-56250D03*
X43774Y-56250D03*
X41674Y-55750D03*
X41674Y-55250D03*
X41674Y-54750D03*
X43774Y-55750D03*
X43774Y-55250D03*
X43774Y-54750D03*
G54D15*
X68575Y-44475D03*
X68575Y-42375D03*
X68075Y-44475D03*
X67575Y-44475D03*
X67075Y-44475D03*
X68075Y-42375D03*
X67575Y-42375D03*
X67075Y-42375D03*
G54D14*
X64357Y-56661D03*
X66457Y-56661D03*
X64357Y-56161D03*
X64357Y-55661D03*
X64357Y-55161D03*
X66457Y-56161D03*
X66457Y-55661D03*
X66457Y-55161D03*
X57368Y-56718D03*
X59468Y-56718D03*
X57368Y-56218D03*
X57368Y-55718D03*
X57368Y-55218D03*
X59468Y-56218D03*
X59468Y-55718D03*
X59468Y-55218D03*
X50416Y-56707D03*
X52516Y-56707D03*
X50416Y-56207D03*
X50416Y-55707D03*
X50416Y-55207D03*
X52516Y-56207D03*
X52516Y-55707D03*
X52516Y-55207D03*
G54D16*
X52900Y-41950D03*
X52900Y-43250D03*
X52900Y-45350D03*
X52900Y-44050D03*
X53950Y-45350D03*
X53950Y-44050D03*
X53800Y-46300D03*
X53800Y-47600D03*
G54D17*
X56100Y-42775D03*
X57400Y-42775D03*
G54D16*
X54800Y-46300D03*
X54800Y-47600D03*
X55100Y-43300D03*
X55100Y-42000D03*
X53950Y-41950D03*
X53950Y-43250D03*
X51900Y-50650D03*
X51900Y-49350D03*
G54D17*
X49350Y-52600D03*
X50650Y-52600D03*
G54D16*
X47200Y-53850D03*
X47200Y-52550D03*
X44150Y-51400D03*
X44150Y-50100D03*
G54D18*
X49398Y-58123D03*
X50148Y-58123D03*
G54D19*
X52057Y-54482D03*
X52057Y-53732D03*
X52687Y-54482D03*
X52687Y-53732D03*
X51387Y-54482D03*
X51387Y-53732D03*
X50718Y-54482D03*
X50718Y-53732D03*
G54D18*
X63971Y-58785D03*
X63221Y-58785D03*
X63221Y-57288D03*
X63971Y-57288D03*
X67671Y-58037D03*
X66921Y-58037D03*
G54D19*
X49498Y-60309D03*
X49498Y-59559D03*
G54D18*
X48965Y-55170D03*
X49715Y-55170D03*
X48965Y-55957D03*
X49715Y-55957D03*
X50148Y-58871D03*
X49398Y-58871D03*
X49398Y-57375D03*
X50148Y-57375D03*
X53967Y-58123D03*
X53217Y-58123D03*
X55956Y-55850D03*
X56706Y-55850D03*
G54D19*
X53946Y-60269D03*
X53946Y-59519D03*
G54D18*
X53967Y-55682D03*
X53217Y-55682D03*
X53967Y-56430D03*
X53217Y-56430D03*
X53217Y-58871D03*
X53967Y-58871D03*
X53967Y-57375D03*
X53217Y-57375D03*
X62787Y-56068D03*
X63537Y-56068D03*
X67947Y-55320D03*
X67197Y-55320D03*
X67986Y-56147D03*
X67236Y-56147D03*
X66921Y-58785D03*
X67671Y-58785D03*
X67671Y-57288D03*
X66921Y-57288D03*
G54D19*
X67769Y-60183D03*
X67769Y-59433D03*
X57237Y-54256D03*
X57237Y-53506D03*
X57945Y-54256D03*
X57945Y-53506D03*
X59323Y-54256D03*
X59323Y-53506D03*
X58614Y-54256D03*
X58614Y-53506D03*
G54D18*
X56232Y-57976D03*
X56982Y-57976D03*
X60682Y-57346D03*
X59932Y-57346D03*
G54D19*
X56174Y-60162D03*
X56174Y-59412D03*
G54D18*
X55956Y-55062D03*
X56706Y-55062D03*
X41288Y-58453D03*
X40538Y-58453D03*
X56982Y-58685D03*
X56232Y-58685D03*
X56232Y-57267D03*
X56982Y-57267D03*
X60682Y-58094D03*
X59932Y-58094D03*
G54D19*
X60622Y-60241D03*
X60622Y-59491D03*
G54D18*
X60958Y-55614D03*
X60208Y-55614D03*
X60958Y-56362D03*
X60208Y-56362D03*
X59932Y-58842D03*
X60682Y-58842D03*
G54D19*
X66025Y-43825D03*
X66025Y-43075D03*
G54D18*
X62787Y-55320D03*
X63537Y-55320D03*
G54D19*
X63202Y-60183D03*
X63202Y-59433D03*
G54D18*
X63221Y-58037D03*
X63971Y-58037D03*
G54D19*
X65643Y-54435D03*
X65643Y-53685D03*
X66391Y-54435D03*
X66391Y-53685D03*
X66150Y-45250D03*
X66150Y-44500D03*
G54D18*
X64675Y-50925D03*
X65425Y-50925D03*
G54D19*
X64895Y-54435D03*
X64895Y-53685D03*
X65375Y-47675D03*
X65375Y-48425D03*
X64147Y-54435D03*
X64147Y-53685D03*
G54D18*
X63400Y-42975D03*
X64150Y-42975D03*
X59700Y-42975D03*
X60450Y-42975D03*
G54D19*
X48200Y-53100D03*
X48200Y-52350D03*
X52950Y-46275D03*
X52950Y-47025D03*
G54D18*
X40144Y-55500D03*
X40894Y-55500D03*
G54D19*
X41543Y-54025D03*
X41543Y-53275D03*
X42291Y-54025D03*
X42291Y-53275D03*
X43866Y-54025D03*
X43866Y-53275D03*
X43118Y-54025D03*
X43118Y-53275D03*
G54D18*
X40538Y-57705D03*
X41288Y-57705D03*
G54D19*
X40519Y-59969D03*
X40519Y-59219D03*
G54D18*
X40144Y-54752D03*
X40894Y-54752D03*
X44989Y-56957D03*
X44239Y-56957D03*
X44239Y-58453D03*
X44989Y-58453D03*
X45304Y-56012D03*
X44554Y-56012D03*
X45304Y-55264D03*
X44554Y-55264D03*
G54D19*
X44968Y-59930D03*
X44968Y-59180D03*
G54D18*
X44989Y-57705D03*
X44239Y-57705D03*
X40538Y-56957D03*
X41288Y-56957D03*
G54D20*
X38300Y-47150D03*
X38300Y-46150D03*
G54D21*
X67485Y-61311D03*
G54D22*
X67485Y-62311D03*
X66485Y-61311D03*
X66485Y-62311D03*
X65485Y-61311D03*
X65485Y-62311D03*
X64485Y-61311D03*
X64485Y-62311D03*
X63485Y-61311D03*
X63485Y-62311D03*
G54D21*
X53702Y-61311D03*
G54D22*
X53702Y-62311D03*
X52702Y-61311D03*
X52702Y-62311D03*
X51702Y-61311D03*
X51702Y-62311D03*
X50702Y-61311D03*
X50702Y-62311D03*
X49702Y-61311D03*
X49702Y-62311D03*
G54D21*
X60496Y-61311D03*
G54D22*
X60496Y-62311D03*
X59496Y-61311D03*
X59496Y-62311D03*
X58496Y-61311D03*
X58496Y-62311D03*
X57496Y-61311D03*
X57496Y-62311D03*
X56496Y-61311D03*
X56496Y-62311D03*
G54D21*
X44800Y-61311D03*
G54D22*
X44800Y-62311D03*
X43800Y-61311D03*
X43800Y-62311D03*
X42800Y-61311D03*
X42800Y-62311D03*
X41800Y-61311D03*
X41800Y-62311D03*
X40800Y-61311D03*
X40800Y-62311D03*
G54D21*
X57250Y-47750D03*
G54D22*
X56250Y-47750D03*
X57250Y-46750D03*
X56250Y-46750D03*
X57250Y-45750D03*
X56250Y-45750D03*
X57250Y-44750D03*
X56250Y-44750D03*
G54D21*
X40800Y-47000D03*
G54D22*
X41800Y-47000D03*
X42800Y-47000D03*
G54D21*
X66025Y-57700D03*
G54D22*
X66025Y-58700D03*
X66025Y-59700D03*
G54D21*
X64875Y-57700D03*
G54D22*
X64875Y-58700D03*
X64875Y-59700D03*
G54D21*
X42950Y-51350D03*
G54D22*
X41950Y-51350D03*
X40950Y-51350D03*
G54D21*
X42212Y-57256D03*
G54D22*
X42212Y-58256D03*
X42212Y-59256D03*
G54D21*
X43354Y-57256D03*
G54D22*
X43354Y-58256D03*
X43354Y-59256D03*
G54D21*
X51112Y-57831D03*
G54D22*
X51112Y-58831D03*
X51112Y-59831D03*
G54D21*
X52253Y-57831D03*
G54D22*
X52253Y-58831D03*
X52253Y-59831D03*
G54D21*
X57827Y-57881D03*
G54D22*
X57827Y-58881D03*
X57827Y-59881D03*
G54D21*
X58969Y-57881D03*
G54D22*
X58969Y-58881D03*
X58969Y-59881D03*
G54D23*
X65275Y-46895D03*
X65275Y-46305D03*
X63975Y-46945D03*
X63975Y-46355D03*
G54D24*
X50462Y-48948D03*
X50462Y-49145D03*
X50462Y-49342D03*
X50462Y-49539D03*
X50462Y-49736D03*
X50462Y-49933D03*
X50462Y-50130D03*
X50462Y-50326D03*
X50462Y-47374D03*
X45738Y-47374D03*
X45738Y-50326D03*
X50462Y-48752D03*
X50462Y-48555D03*
X50462Y-48358D03*
X50462Y-48161D03*
X50462Y-47964D03*
X50462Y-47767D03*
X50462Y-47570D03*
X45738Y-47570D03*
X45738Y-47767D03*
X45738Y-47964D03*
X45738Y-48161D03*
X45738Y-48358D03*
X45738Y-48555D03*
X45738Y-48752D03*
X45738Y-48948D03*
X45738Y-49145D03*
X45738Y-49342D03*
X45738Y-49539D03*
X45738Y-49736D03*
X45738Y-49933D03*
X45738Y-50130D03*
G54D25*
X49576Y-51212D03*
X49380Y-51212D03*
X49183Y-51212D03*
X48986Y-51212D03*
X48789Y-51212D03*
X48592Y-51212D03*
X48002Y-51212D03*
X47608Y-51212D03*
X47411Y-51212D03*
X48395Y-51212D03*
X48198Y-51212D03*
X47805Y-51212D03*
X47214Y-51212D03*
X47017Y-51212D03*
X46820Y-51212D03*
X46624Y-51212D03*
X49576Y-46488D03*
X49380Y-46488D03*
X49183Y-46488D03*
X48986Y-46488D03*
X48789Y-46488D03*
X48592Y-46488D03*
X48395Y-46488D03*
X48198Y-46488D03*
X48002Y-46488D03*
X47805Y-46488D03*
X47608Y-46488D03*
X47411Y-46488D03*
X47214Y-46488D03*
X47017Y-46488D03*
X46820Y-46488D03*
X46624Y-46488D03*
G54D26*
X38250Y-48600D03*
X38250Y-49600D03*
X38250Y-51600D03*
X38250Y-52600D03*
X38250Y-53600D03*
G54D21*
X57050Y-51850D03*
G54D22*
X56050Y-51850D03*
X57050Y-50850D03*
X56050Y-50850D03*
X57050Y-49850D03*
X56050Y-49850D03*
G54D27*
X64125Y-44350D03*
X60425Y-44350D03*
G54D21*
X66150Y-42075D03*
G54D22*
X65150Y-42075D03*
X64150Y-42075D03*
X63150Y-42075D03*
G54D21*
X69725Y-44800D03*
G54D22*
X69725Y-43800D03*
X69725Y-42800D03*
X69725Y-41800D03*
G54D28*
X37716Y-43047D03*
X37716Y-42047D03*
X38716Y-43047D03*
X38716Y-42047D03*
X39716Y-43047D03*
X39716Y-42047D03*
X40716Y-43047D03*
X40716Y-42047D03*
X41716Y-43047D03*
X41716Y-42047D03*
X42716Y-43047D03*
X42716Y-42047D03*
X43716Y-43047D03*
X43716Y-42047D03*
X44716Y-43047D03*
X44716Y-42047D03*
X45716Y-43047D03*
X45716Y-42047D03*
X46716Y-43047D03*
X46716Y-42047D03*
X47716Y-43047D03*
X47716Y-42047D03*
X48716Y-43047D03*
X48716Y-42047D03*
X49716Y-43047D03*
X49716Y-42047D03*
X39716Y-44047D03*
X39716Y-45047D03*
X40716Y-44047D03*
X40716Y-45047D03*
X41716Y-44047D03*
X41716Y-45047D03*
X42716Y-44047D03*
X42716Y-45047D03*
G54D29*
X46968Y-56417D03*
X68425Y-46181D03*
M02*
