G04 (created by PCBNEW (2013-mar-13)-testing) date Thu 04 Apr 2013 06:32:20 PM CEST*
%MOIN*%
G04 Gerber Fmt 3.4, Leading zero omitted, Abs format*
%FSLAX34Y34*%
G01*
G70*
G90*
G04 APERTURE LIST*
%ADD10C,2.3622e-06*%
%ADD11C,0.0550787*%
%ADD12R,0.0800787X0.0600787*%
%ADD13R,0.0600787X0.0800787*%
%ADD14R,0.0550787X0.0350787*%
%ADD15R,0.0350787X0.0550787*%
%ADD16R,0.0600787X0.0600787*%
%ADD17C,0.0600787*%
%ADD18C,0.0472787*%
%ADD19R,0.00987874X0.0217787*%
%ADD20R,0.00987874X0.0492787*%
%ADD21R,0.0701787X0.0650787*%
%ADD22R,0.0421787X0.0650787*%
%ADD23C,0.0591787*%
%ADD24C,0.157579*%
G04 APERTURE END LIST*
G54D10*
G54D11*
X70000Y-51075D03*
X70000Y-53075D03*
X67000Y-51075D03*
X67000Y-53075D03*
X70000Y-47850D03*
X70000Y-49850D03*
X67000Y-47850D03*
X67000Y-49850D03*
G54D12*
X39400Y-60950D03*
X39400Y-62250D03*
X38300Y-62250D03*
X38300Y-60950D03*
X68500Y-60950D03*
X68500Y-62250D03*
X69500Y-62250D03*
X69500Y-60950D03*
X62000Y-61050D03*
X62000Y-62350D03*
X55100Y-62250D03*
X55100Y-60950D03*
X46850Y-62200D03*
X46850Y-60900D03*
X48050Y-60900D03*
X48050Y-62200D03*
G54D13*
X44150Y-50000D03*
X42850Y-50000D03*
X44150Y-48900D03*
X42850Y-48900D03*
X47450Y-45050D03*
X48750Y-45050D03*
G54D14*
X51899Y-56017D03*
X51899Y-55267D03*
X51112Y-55307D03*
X51112Y-56057D03*
X53198Y-60269D03*
X53198Y-59519D03*
X49498Y-60309D03*
X49498Y-59559D03*
X50206Y-59559D03*
X50206Y-60309D03*
X53946Y-59519D03*
X53946Y-60269D03*
X56922Y-59412D03*
X56922Y-60162D03*
X67769Y-59512D03*
X67769Y-60262D03*
X66942Y-60262D03*
X66942Y-59512D03*
X58733Y-56107D03*
X58733Y-55357D03*
X57985Y-55357D03*
X57985Y-56107D03*
X56174Y-60162D03*
X56174Y-59412D03*
X59914Y-60398D03*
X59914Y-59648D03*
X60662Y-59648D03*
X60662Y-60398D03*
X50650Y-52275D03*
X50650Y-53025D03*
X63950Y-59433D03*
X63950Y-60183D03*
X42050Y-48225D03*
X42050Y-48975D03*
G54D15*
X40875Y-50300D03*
X41625Y-50300D03*
G54D14*
X64777Y-55339D03*
X64777Y-56089D03*
X65175Y-46750D03*
X65175Y-46000D03*
X64300Y-46750D03*
X64300Y-46000D03*
X65918Y-56089D03*
X65918Y-55339D03*
X44150Y-51025D03*
X44150Y-51775D03*
X45950Y-51325D03*
X45950Y-52075D03*
G54D15*
X51625Y-49900D03*
X52375Y-49900D03*
X51575Y-48600D03*
X52325Y-48600D03*
G54D14*
X47250Y-52450D03*
X47250Y-53200D03*
X63202Y-60183D03*
X63202Y-59433D03*
X43314Y-55481D03*
X43314Y-54731D03*
X42409Y-54731D03*
X42409Y-55481D03*
X41346Y-59219D03*
X41346Y-59969D03*
X40559Y-59969D03*
X40559Y-59219D03*
X39850Y-52725D03*
X39850Y-53475D03*
X45007Y-59180D03*
X45007Y-59930D03*
X39850Y-52175D03*
X39850Y-51425D03*
G54D15*
X41825Y-52200D03*
X41075Y-52200D03*
G54D14*
X39650Y-47275D03*
X39650Y-46525D03*
X44259Y-59930D03*
X44259Y-59180D03*
G54D16*
X67485Y-61311D03*
G54D17*
X67485Y-62311D03*
X66485Y-61311D03*
X66485Y-62311D03*
X65485Y-61311D03*
X65485Y-62311D03*
X64485Y-61311D03*
X64485Y-62311D03*
X63485Y-61311D03*
X63485Y-62311D03*
G54D16*
X53702Y-61311D03*
G54D17*
X53702Y-62311D03*
X52702Y-61311D03*
X52702Y-62311D03*
X51702Y-61311D03*
X51702Y-62311D03*
X50702Y-61311D03*
X50702Y-62311D03*
X49702Y-61311D03*
X49702Y-62311D03*
G54D16*
X60496Y-61311D03*
G54D17*
X60496Y-62311D03*
X59496Y-61311D03*
X59496Y-62311D03*
X58496Y-61311D03*
X58496Y-62311D03*
X57496Y-61311D03*
X57496Y-62311D03*
X56496Y-61311D03*
X56496Y-62311D03*
G54D16*
X44800Y-61311D03*
G54D17*
X44800Y-62311D03*
X43800Y-61311D03*
X43800Y-62311D03*
X42800Y-61311D03*
X42800Y-62311D03*
X41800Y-61311D03*
X41800Y-62311D03*
X40800Y-61311D03*
X40800Y-62311D03*
G54D16*
X57250Y-47750D03*
G54D17*
X56250Y-47750D03*
X57250Y-46750D03*
X56250Y-46750D03*
X57250Y-45750D03*
X56250Y-45750D03*
X57250Y-44750D03*
X56250Y-44750D03*
G54D16*
X40800Y-47000D03*
G54D17*
X41800Y-47000D03*
X42800Y-47000D03*
G54D16*
X66025Y-57700D03*
G54D17*
X66025Y-58700D03*
X66025Y-59700D03*
G54D16*
X64875Y-57700D03*
G54D17*
X64875Y-58700D03*
X64875Y-59700D03*
G54D16*
X42950Y-51350D03*
G54D17*
X41950Y-51350D03*
X40950Y-51350D03*
G54D16*
X42212Y-57256D03*
G54D17*
X42212Y-58256D03*
X42212Y-59256D03*
G54D16*
X43354Y-57256D03*
G54D17*
X43354Y-58256D03*
X43354Y-59256D03*
G54D16*
X51112Y-57831D03*
G54D17*
X51112Y-58831D03*
X51112Y-59831D03*
G54D16*
X52253Y-57831D03*
G54D17*
X52253Y-58831D03*
X52253Y-59831D03*
G54D16*
X57827Y-57881D03*
G54D17*
X57827Y-58881D03*
X57827Y-59881D03*
G54D16*
X58969Y-57881D03*
G54D17*
X58969Y-58881D03*
X58969Y-59881D03*
G54D18*
X38250Y-48600D03*
X38250Y-49600D03*
X38250Y-51600D03*
X38250Y-52600D03*
X38250Y-53600D03*
G54D16*
X57050Y-51850D03*
G54D17*
X56050Y-51850D03*
X57050Y-50850D03*
X56050Y-50850D03*
X57050Y-49850D03*
X56050Y-49850D03*
G54D19*
X41141Y-49601D03*
X40944Y-49601D03*
X40747Y-49601D03*
G54D20*
X40550Y-49463D03*
G54D19*
X40353Y-49601D03*
X40156Y-49601D03*
X39959Y-49601D03*
X39959Y-48499D03*
G54D20*
X40156Y-48637D03*
G54D19*
X40353Y-48499D03*
X40550Y-48499D03*
X40747Y-48499D03*
X40944Y-48499D03*
X41141Y-48499D03*
G54D21*
X40855Y-49050D03*
G54D22*
X40099Y-49050D03*
G54D14*
X37450Y-49975D03*
X37450Y-50725D03*
G54D16*
X66150Y-42075D03*
G54D17*
X65150Y-42075D03*
X64150Y-42075D03*
X63150Y-42075D03*
G54D16*
X69725Y-44800D03*
G54D17*
X69725Y-43800D03*
X69725Y-42800D03*
X69725Y-41800D03*
G54D23*
X37716Y-43047D03*
X37716Y-42047D03*
X38716Y-43047D03*
X38716Y-42047D03*
X39716Y-43047D03*
X39716Y-42047D03*
X40716Y-43047D03*
X40716Y-42047D03*
X41716Y-43047D03*
X41716Y-42047D03*
X42716Y-43047D03*
X42716Y-42047D03*
X43716Y-43047D03*
X43716Y-42047D03*
X44716Y-43047D03*
X44716Y-42047D03*
X45716Y-43047D03*
X45716Y-42047D03*
X46716Y-43047D03*
X46716Y-42047D03*
X47716Y-43047D03*
X47716Y-42047D03*
X48716Y-43047D03*
X48716Y-42047D03*
X49716Y-43047D03*
X49716Y-42047D03*
X39716Y-44047D03*
X39716Y-45047D03*
X40716Y-44047D03*
X40716Y-45047D03*
X41716Y-44047D03*
X41716Y-45047D03*
X42716Y-44047D03*
X42716Y-45047D03*
G54D24*
X46968Y-56417D03*
X68425Y-46181D03*
M02*
