G04 (created by PCBNEW (2013-mar-13)-testing) date Thu 04 Apr 2013 06:32:20 PM CEST*
%MOIN*%
G04 Gerber Fmt 3.4, Leading zero omitted, Abs format*
%FSLAX34Y34*%
G01*
G70*
G90*
G04 APERTURE LIST*
%ADD10C,2.3622e-06*%
%ADD11C,0.012*%
%ADD12C,0.006*%
%ADD13C,0.005*%
%ADD14C,0.01*%
%ADD15C,0.0026*%
%ADD16C,0.004*%
%ADD17C,0.015*%
%ADD18C,0.0098*%
%ADD19C,0.008*%
%ADD20C,0.00590551*%
%ADD21C,0.0035*%
%ADD22C,0.0071*%
%ADD23R,0.0177787X0.0787787*%
%ADD24R,0.0787787X0.0177787*%
%ADD25C,0.0550787*%
%ADD26R,0.0551787X0.0236787*%
%ADD27R,0.0236787X0.0551787*%
%ADD28R,0.0800787X0.0600787*%
%ADD29R,0.0600787X0.0800787*%
%ADD30R,0.0350787X0.0550787*%
%ADD31R,0.0550787X0.0350787*%
%ADD32O,0.118779X0.0593787*%
%ADD33R,0.0600787X0.0600787*%
%ADD34C,0.0600787*%
%ADD35R,0.0314787X0.0314787*%
%ADD36R,0.0591787X0.0106787*%
%ADD37R,0.00987874X0.0591787*%
%ADD38C,0.0472787*%
%ADD39R,0.216579X0.0787787*%
%ADD40C,0.0591787*%
%ADD41C,0.157579*%
G04 APERTURE END LIST*
G54D10*
G54D11*
X54504Y-51314D02*
X54504Y-51114D01*
X54923Y-51028D02*
X54923Y-51314D01*
X54123Y-51314D01*
X54123Y-51028D01*
X54123Y-50857D02*
X54123Y-50514D01*
X54923Y-50685D02*
X54123Y-50685D01*
X54504Y-50114D02*
X54504Y-50314D01*
X54923Y-50314D02*
X54123Y-50314D01*
X54123Y-50028D01*
X68342Y-61523D02*
X68342Y-60723D01*
X68485Y-60723D01*
X68571Y-60761D01*
X68628Y-60838D01*
X68657Y-60914D01*
X68685Y-61066D01*
X68685Y-61180D01*
X68657Y-61333D01*
X68628Y-61409D01*
X68571Y-61485D01*
X68485Y-61523D01*
X68342Y-61523D01*
X61585Y-61497D02*
X61557Y-61535D01*
X61471Y-61573D01*
X61414Y-61573D01*
X61328Y-61535D01*
X61271Y-61459D01*
X61242Y-61383D01*
X61214Y-61230D01*
X61214Y-61116D01*
X61242Y-60964D01*
X61271Y-60888D01*
X61328Y-60811D01*
X61414Y-60773D01*
X61471Y-60773D01*
X61557Y-60811D01*
X61585Y-60850D01*
X54742Y-61054D02*
X54828Y-61092D01*
X54857Y-61130D01*
X54885Y-61207D01*
X54885Y-61321D01*
X54857Y-61397D01*
X54828Y-61435D01*
X54771Y-61473D01*
X54542Y-61473D01*
X54542Y-60673D01*
X54742Y-60673D01*
X54800Y-60711D01*
X54828Y-60750D01*
X54857Y-60826D01*
X54857Y-60902D01*
X54828Y-60978D01*
X54800Y-61016D01*
X54742Y-61054D01*
X54542Y-61054D01*
X45657Y-61295D02*
X45942Y-61295D01*
X45600Y-61523D02*
X45800Y-60723D01*
X46000Y-61523D01*
X37321Y-56250D02*
X37884Y-55987D01*
X37321Y-55800D02*
X38503Y-55800D01*
X38503Y-56100D01*
X38446Y-56175D01*
X38390Y-56212D01*
X38278Y-56250D01*
X38109Y-56250D01*
X37996Y-56212D01*
X37940Y-56175D01*
X37884Y-56100D01*
X37884Y-55800D01*
X37321Y-56925D02*
X37940Y-56925D01*
X38053Y-56887D01*
X38109Y-56812D01*
X38109Y-56662D01*
X38053Y-56587D01*
X37378Y-56925D02*
X37321Y-56850D01*
X37321Y-56662D01*
X37378Y-56587D01*
X37490Y-56550D01*
X37603Y-56550D01*
X37715Y-56587D01*
X37771Y-56662D01*
X37771Y-56850D01*
X37828Y-56925D01*
X37378Y-57262D02*
X37321Y-57337D01*
X37321Y-57487D01*
X37378Y-57562D01*
X37490Y-57600D01*
X37546Y-57600D01*
X37659Y-57562D01*
X37715Y-57487D01*
X37715Y-57375D01*
X37771Y-57300D01*
X37884Y-57262D01*
X37940Y-57262D01*
X38053Y-57300D01*
X38109Y-57375D01*
X38109Y-57487D01*
X38053Y-57562D01*
X37321Y-58274D02*
X38503Y-58274D01*
X37378Y-58274D02*
X37321Y-58199D01*
X37321Y-58049D01*
X37378Y-57974D01*
X37434Y-57937D01*
X37546Y-57899D01*
X37884Y-57899D01*
X37996Y-57937D01*
X38053Y-57974D01*
X38109Y-58049D01*
X38109Y-58199D01*
X38053Y-58274D01*
X37321Y-58987D02*
X37940Y-58987D01*
X38053Y-58949D01*
X38109Y-58874D01*
X38109Y-58724D01*
X38053Y-58649D01*
X37378Y-58987D02*
X37321Y-58912D01*
X37321Y-58724D01*
X37378Y-58649D01*
X37490Y-58612D01*
X37603Y-58612D01*
X37715Y-58649D01*
X37771Y-58724D01*
X37771Y-58912D01*
X37828Y-58987D01*
X38109Y-59699D02*
X36928Y-59699D01*
X37378Y-59699D02*
X37321Y-59624D01*
X37321Y-59474D01*
X37378Y-59399D01*
X37434Y-59362D01*
X37546Y-59324D01*
X37884Y-59324D01*
X37996Y-59362D01*
X38053Y-59399D01*
X38109Y-59474D01*
X38109Y-59624D01*
X38053Y-59699D01*
G54D12*
X60960Y-50780D02*
X60960Y-50330D01*
X63140Y-50780D02*
X63140Y-50340D01*
X60960Y-50780D02*
X63140Y-50780D01*
X60490Y-49900D02*
X60060Y-49900D01*
X60480Y-47690D02*
X60060Y-47690D01*
X60060Y-47680D02*
X60050Y-49900D01*
X64030Y-47700D02*
X64040Y-49870D01*
X63340Y-47270D02*
X60510Y-47270D01*
X64030Y-49880D02*
X63620Y-49880D01*
X63580Y-47520D02*
X63580Y-50300D01*
X60500Y-50320D02*
X63540Y-50320D01*
X60500Y-47270D02*
X60500Y-50270D01*
X63170Y-46820D02*
X60950Y-46820D01*
X60950Y-46820D02*
X60950Y-47270D01*
X63350Y-47274D02*
X63580Y-47504D01*
X63170Y-46822D02*
X63170Y-47274D01*
X63580Y-47700D02*
X64032Y-47700D01*
X63364Y-47682D02*
G75*
G03X63364Y-47682I-188J0D01*
G74*
G01*
G54D13*
X69500Y-52075D02*
G75*
G03X69500Y-52075I-1000J0D01*
G74*
G01*
X67000Y-50575D02*
X70000Y-50575D01*
X70000Y-50575D02*
X70000Y-53575D01*
X70000Y-53575D02*
X67000Y-53575D01*
X67000Y-50575D02*
X67000Y-53575D01*
X69500Y-48850D02*
G75*
G03X69500Y-48850I-1000J0D01*
G74*
G01*
X67000Y-47350D02*
X70000Y-47350D01*
X70000Y-47350D02*
X70000Y-50350D01*
X70000Y-50350D02*
X67000Y-50350D01*
X67000Y-47350D02*
X67000Y-50350D01*
X43424Y-56550D02*
X43474Y-56550D01*
X43474Y-56550D02*
X43474Y-54450D01*
X41974Y-54450D02*
X41974Y-56550D01*
X41974Y-56550D02*
X43424Y-56550D01*
X42524Y-56550D02*
X42524Y-56350D01*
X42524Y-56350D02*
X42924Y-56350D01*
X42924Y-56350D02*
X42924Y-56550D01*
X41974Y-54450D02*
X43474Y-54450D01*
X68875Y-42725D02*
X68875Y-42675D01*
X68875Y-42675D02*
X66775Y-42675D01*
X66775Y-44175D02*
X68875Y-44175D01*
X68875Y-44175D02*
X68875Y-42725D01*
X68875Y-43625D02*
X68675Y-43625D01*
X68675Y-43625D02*
X68675Y-43225D01*
X68675Y-43225D02*
X68875Y-43225D01*
X66775Y-44175D02*
X66775Y-42675D01*
X66107Y-56961D02*
X66157Y-56961D01*
X66157Y-56961D02*
X66157Y-54861D01*
X64657Y-54861D02*
X64657Y-56961D01*
X64657Y-56961D02*
X66107Y-56961D01*
X65207Y-56961D02*
X65207Y-56761D01*
X65207Y-56761D02*
X65607Y-56761D01*
X65607Y-56761D02*
X65607Y-56961D01*
X64657Y-54861D02*
X66157Y-54861D01*
X59118Y-57018D02*
X59168Y-57018D01*
X59168Y-57018D02*
X59168Y-54918D01*
X57668Y-54918D02*
X57668Y-57018D01*
X57668Y-57018D02*
X59118Y-57018D01*
X58218Y-57018D02*
X58218Y-56818D01*
X58218Y-56818D02*
X58618Y-56818D01*
X58618Y-56818D02*
X58618Y-57018D01*
X57668Y-54918D02*
X59168Y-54918D01*
X52166Y-57007D02*
X52216Y-57007D01*
X52216Y-57007D02*
X52216Y-54907D01*
X50716Y-54907D02*
X50716Y-57007D01*
X50716Y-57007D02*
X52166Y-57007D01*
X51266Y-57007D02*
X51266Y-56807D01*
X51266Y-56807D02*
X51666Y-56807D01*
X51666Y-56807D02*
X51666Y-57007D01*
X50716Y-54907D02*
X52216Y-54907D01*
X53350Y-41600D02*
X52450Y-41600D01*
X52450Y-41600D02*
X52450Y-42250D01*
X53350Y-42950D02*
X53350Y-43600D01*
X53350Y-43600D02*
X52450Y-43600D01*
X52450Y-43600D02*
X52450Y-42950D01*
X53350Y-42250D02*
X53350Y-41600D01*
X52450Y-45700D02*
X53350Y-45700D01*
X53350Y-45700D02*
X53350Y-45050D01*
X52450Y-44350D02*
X52450Y-43700D01*
X52450Y-43700D02*
X53350Y-43700D01*
X53350Y-43700D02*
X53350Y-44350D01*
X52450Y-45050D02*
X52450Y-45700D01*
X53500Y-45700D02*
X54400Y-45700D01*
X54400Y-45700D02*
X54400Y-45050D01*
X53500Y-44350D02*
X53500Y-43700D01*
X53500Y-43700D02*
X54400Y-43700D01*
X54400Y-43700D02*
X54400Y-44350D01*
X53500Y-45050D02*
X53500Y-45700D01*
X54250Y-45950D02*
X53350Y-45950D01*
X53350Y-45950D02*
X53350Y-46600D01*
X54250Y-47300D02*
X54250Y-47950D01*
X54250Y-47950D02*
X53350Y-47950D01*
X53350Y-47950D02*
X53350Y-47300D01*
X54250Y-46600D02*
X54250Y-45950D01*
X55750Y-42325D02*
X55750Y-43225D01*
X55750Y-43225D02*
X56400Y-43225D01*
X57100Y-42325D02*
X57750Y-42325D01*
X57750Y-42325D02*
X57750Y-43225D01*
X57750Y-43225D02*
X57100Y-43225D01*
X56400Y-42325D02*
X55750Y-42325D01*
X55250Y-45950D02*
X54350Y-45950D01*
X54350Y-45950D02*
X54350Y-46600D01*
X55250Y-47300D02*
X55250Y-47950D01*
X55250Y-47950D02*
X54350Y-47950D01*
X54350Y-47950D02*
X54350Y-47300D01*
X55250Y-46600D02*
X55250Y-45950D01*
X54650Y-43650D02*
X55550Y-43650D01*
X55550Y-43650D02*
X55550Y-43000D01*
X54650Y-42300D02*
X54650Y-41650D01*
X54650Y-41650D02*
X55550Y-41650D01*
X55550Y-41650D02*
X55550Y-42300D01*
X54650Y-43000D02*
X54650Y-43650D01*
X54400Y-41600D02*
X53500Y-41600D01*
X53500Y-41600D02*
X53500Y-42250D01*
X54400Y-42950D02*
X54400Y-43600D01*
X54400Y-43600D02*
X53500Y-43600D01*
X53500Y-43600D02*
X53500Y-42950D01*
X54400Y-42250D02*
X54400Y-41600D01*
X51450Y-51000D02*
X52350Y-51000D01*
X52350Y-51000D02*
X52350Y-50350D01*
X51450Y-49650D02*
X51450Y-49000D01*
X51450Y-49000D02*
X52350Y-49000D01*
X52350Y-49000D02*
X52350Y-49650D01*
X51450Y-50350D02*
X51450Y-51000D01*
X49000Y-52150D02*
X49000Y-53050D01*
X49000Y-53050D02*
X49650Y-53050D01*
X50350Y-52150D02*
X51000Y-52150D01*
X51000Y-52150D02*
X51000Y-53050D01*
X51000Y-53050D02*
X50350Y-53050D01*
X49650Y-52150D02*
X49000Y-52150D01*
X46750Y-54200D02*
X47650Y-54200D01*
X47650Y-54200D02*
X47650Y-53550D01*
X46750Y-52850D02*
X46750Y-52200D01*
X46750Y-52200D02*
X47650Y-52200D01*
X47650Y-52200D02*
X47650Y-52850D01*
X46750Y-53550D02*
X46750Y-54200D01*
X43700Y-51750D02*
X44600Y-51750D01*
X44600Y-51750D02*
X44600Y-51100D01*
X43700Y-50400D02*
X43700Y-49750D01*
X43700Y-49750D02*
X44600Y-49750D01*
X44600Y-49750D02*
X44600Y-50400D01*
X43700Y-51100D02*
X43700Y-51750D01*
X49173Y-58423D02*
G75*
G03X49173Y-58423I-50J0D01*
G74*
G01*
X49573Y-58423D02*
X49173Y-58423D01*
X49173Y-58423D02*
X49173Y-57823D01*
X49173Y-57823D02*
X49573Y-57823D01*
X49973Y-57823D02*
X50373Y-57823D01*
X50373Y-57823D02*
X50373Y-58423D01*
X50373Y-58423D02*
X49973Y-58423D01*
X52407Y-54757D02*
G75*
G03X52407Y-54757I-50J0D01*
G74*
G01*
X52357Y-54307D02*
X52357Y-54707D01*
X52357Y-54707D02*
X51757Y-54707D01*
X51757Y-54707D02*
X51757Y-54307D01*
X51757Y-53907D02*
X51757Y-53507D01*
X51757Y-53507D02*
X52357Y-53507D01*
X52357Y-53507D02*
X52357Y-53907D01*
X53037Y-54757D02*
G75*
G03X53037Y-54757I-50J0D01*
G74*
G01*
X52987Y-54307D02*
X52987Y-54707D01*
X52987Y-54707D02*
X52387Y-54707D01*
X52387Y-54707D02*
X52387Y-54307D01*
X52387Y-53907D02*
X52387Y-53507D01*
X52387Y-53507D02*
X52987Y-53507D01*
X52987Y-53507D02*
X52987Y-53907D01*
X51737Y-54757D02*
G75*
G03X51737Y-54757I-50J0D01*
G74*
G01*
X51687Y-54307D02*
X51687Y-54707D01*
X51687Y-54707D02*
X51087Y-54707D01*
X51087Y-54707D02*
X51087Y-54307D01*
X51087Y-53907D02*
X51087Y-53507D01*
X51087Y-53507D02*
X51687Y-53507D01*
X51687Y-53507D02*
X51687Y-53907D01*
X51068Y-54757D02*
G75*
G03X51068Y-54757I-50J0D01*
G74*
G01*
X51018Y-54307D02*
X51018Y-54707D01*
X51018Y-54707D02*
X50418Y-54707D01*
X50418Y-54707D02*
X50418Y-54307D01*
X50418Y-53907D02*
X50418Y-53507D01*
X50418Y-53507D02*
X51018Y-53507D01*
X51018Y-53507D02*
X51018Y-53907D01*
X64296Y-58485D02*
G75*
G03X64296Y-58485I-50J0D01*
G74*
G01*
X63796Y-58485D02*
X64196Y-58485D01*
X64196Y-58485D02*
X64196Y-59085D01*
X64196Y-59085D02*
X63796Y-59085D01*
X63396Y-59085D02*
X62996Y-59085D01*
X62996Y-59085D02*
X62996Y-58485D01*
X62996Y-58485D02*
X63396Y-58485D01*
X62996Y-57588D02*
G75*
G03X62996Y-57588I-50J0D01*
G74*
G01*
X63396Y-57588D02*
X62996Y-57588D01*
X62996Y-57588D02*
X62996Y-56988D01*
X62996Y-56988D02*
X63396Y-56988D01*
X63796Y-56988D02*
X64196Y-56988D01*
X64196Y-56988D02*
X64196Y-57588D01*
X64196Y-57588D02*
X63796Y-57588D01*
X67996Y-57737D02*
G75*
G03X67996Y-57737I-50J0D01*
G74*
G01*
X67496Y-57737D02*
X67896Y-57737D01*
X67896Y-57737D02*
X67896Y-58337D01*
X67896Y-58337D02*
X67496Y-58337D01*
X67096Y-58337D02*
X66696Y-58337D01*
X66696Y-58337D02*
X66696Y-57737D01*
X66696Y-57737D02*
X67096Y-57737D01*
X49848Y-60584D02*
G75*
G03X49848Y-60584I-50J0D01*
G74*
G01*
X49798Y-60134D02*
X49798Y-60534D01*
X49798Y-60534D02*
X49198Y-60534D01*
X49198Y-60534D02*
X49198Y-60134D01*
X49198Y-59734D02*
X49198Y-59334D01*
X49198Y-59334D02*
X49798Y-59334D01*
X49798Y-59334D02*
X49798Y-59734D01*
X48740Y-55470D02*
G75*
G03X48740Y-55470I-50J0D01*
G74*
G01*
X49140Y-55470D02*
X48740Y-55470D01*
X48740Y-55470D02*
X48740Y-54870D01*
X48740Y-54870D02*
X49140Y-54870D01*
X49540Y-54870D02*
X49940Y-54870D01*
X49940Y-54870D02*
X49940Y-55470D01*
X49940Y-55470D02*
X49540Y-55470D01*
X48740Y-56257D02*
G75*
G03X48740Y-56257I-50J0D01*
G74*
G01*
X49140Y-56257D02*
X48740Y-56257D01*
X48740Y-56257D02*
X48740Y-55657D01*
X48740Y-55657D02*
X49140Y-55657D01*
X49540Y-55657D02*
X49940Y-55657D01*
X49940Y-55657D02*
X49940Y-56257D01*
X49940Y-56257D02*
X49540Y-56257D01*
X50473Y-58571D02*
G75*
G03X50473Y-58571I-50J0D01*
G74*
G01*
X49973Y-58571D02*
X50373Y-58571D01*
X50373Y-58571D02*
X50373Y-59171D01*
X50373Y-59171D02*
X49973Y-59171D01*
X49573Y-59171D02*
X49173Y-59171D01*
X49173Y-59171D02*
X49173Y-58571D01*
X49173Y-58571D02*
X49573Y-58571D01*
X49173Y-57675D02*
G75*
G03X49173Y-57675I-50J0D01*
G74*
G01*
X49573Y-57675D02*
X49173Y-57675D01*
X49173Y-57675D02*
X49173Y-57075D01*
X49173Y-57075D02*
X49573Y-57075D01*
X49973Y-57075D02*
X50373Y-57075D01*
X50373Y-57075D02*
X50373Y-57675D01*
X50373Y-57675D02*
X49973Y-57675D01*
X54292Y-57823D02*
G75*
G03X54292Y-57823I-50J0D01*
G74*
G01*
X53792Y-57823D02*
X54192Y-57823D01*
X54192Y-57823D02*
X54192Y-58423D01*
X54192Y-58423D02*
X53792Y-58423D01*
X53392Y-58423D02*
X52992Y-58423D01*
X52992Y-58423D02*
X52992Y-57823D01*
X52992Y-57823D02*
X53392Y-57823D01*
X55731Y-56150D02*
G75*
G03X55731Y-56150I-50J0D01*
G74*
G01*
X56131Y-56150D02*
X55731Y-56150D01*
X55731Y-56150D02*
X55731Y-55550D01*
X55731Y-55550D02*
X56131Y-55550D01*
X56531Y-55550D02*
X56931Y-55550D01*
X56931Y-55550D02*
X56931Y-56150D01*
X56931Y-56150D02*
X56531Y-56150D01*
X54296Y-60544D02*
G75*
G03X54296Y-60544I-50J0D01*
G74*
G01*
X54246Y-60094D02*
X54246Y-60494D01*
X54246Y-60494D02*
X53646Y-60494D01*
X53646Y-60494D02*
X53646Y-60094D01*
X53646Y-59694D02*
X53646Y-59294D01*
X53646Y-59294D02*
X54246Y-59294D01*
X54246Y-59294D02*
X54246Y-59694D01*
X54292Y-55382D02*
G75*
G03X54292Y-55382I-50J0D01*
G74*
G01*
X53792Y-55382D02*
X54192Y-55382D01*
X54192Y-55382D02*
X54192Y-55982D01*
X54192Y-55982D02*
X53792Y-55982D01*
X53392Y-55982D02*
X52992Y-55982D01*
X52992Y-55982D02*
X52992Y-55382D01*
X52992Y-55382D02*
X53392Y-55382D01*
X54292Y-56130D02*
G75*
G03X54292Y-56130I-50J0D01*
G74*
G01*
X53792Y-56130D02*
X54192Y-56130D01*
X54192Y-56130D02*
X54192Y-56730D01*
X54192Y-56730D02*
X53792Y-56730D01*
X53392Y-56730D02*
X52992Y-56730D01*
X52992Y-56730D02*
X52992Y-56130D01*
X52992Y-56130D02*
X53392Y-56130D01*
X52992Y-59171D02*
G75*
G03X52992Y-59171I-50J0D01*
G74*
G01*
X53392Y-59171D02*
X52992Y-59171D01*
X52992Y-59171D02*
X52992Y-58571D01*
X52992Y-58571D02*
X53392Y-58571D01*
X53792Y-58571D02*
X54192Y-58571D01*
X54192Y-58571D02*
X54192Y-59171D01*
X54192Y-59171D02*
X53792Y-59171D01*
X54292Y-57075D02*
G75*
G03X54292Y-57075I-50J0D01*
G74*
G01*
X53792Y-57075D02*
X54192Y-57075D01*
X54192Y-57075D02*
X54192Y-57675D01*
X54192Y-57675D02*
X53792Y-57675D01*
X53392Y-57675D02*
X52992Y-57675D01*
X52992Y-57675D02*
X52992Y-57075D01*
X52992Y-57075D02*
X53392Y-57075D01*
X62562Y-56368D02*
G75*
G03X62562Y-56368I-50J0D01*
G74*
G01*
X62962Y-56368D02*
X62562Y-56368D01*
X62562Y-56368D02*
X62562Y-55768D01*
X62562Y-55768D02*
X62962Y-55768D01*
X63362Y-55768D02*
X63762Y-55768D01*
X63762Y-55768D02*
X63762Y-56368D01*
X63762Y-56368D02*
X63362Y-56368D01*
X68272Y-55020D02*
G75*
G03X68272Y-55020I-50J0D01*
G74*
G01*
X67772Y-55020D02*
X68172Y-55020D01*
X68172Y-55020D02*
X68172Y-55620D01*
X68172Y-55620D02*
X67772Y-55620D01*
X67372Y-55620D02*
X66972Y-55620D01*
X66972Y-55620D02*
X66972Y-55020D01*
X66972Y-55020D02*
X67372Y-55020D01*
X68311Y-55847D02*
G75*
G03X68311Y-55847I-50J0D01*
G74*
G01*
X67811Y-55847D02*
X68211Y-55847D01*
X68211Y-55847D02*
X68211Y-56447D01*
X68211Y-56447D02*
X67811Y-56447D01*
X67411Y-56447D02*
X67011Y-56447D01*
X67011Y-56447D02*
X67011Y-55847D01*
X67011Y-55847D02*
X67411Y-55847D01*
X66696Y-59085D02*
G75*
G03X66696Y-59085I-50J0D01*
G74*
G01*
X67096Y-59085D02*
X66696Y-59085D01*
X66696Y-59085D02*
X66696Y-58485D01*
X66696Y-58485D02*
X67096Y-58485D01*
X67496Y-58485D02*
X67896Y-58485D01*
X67896Y-58485D02*
X67896Y-59085D01*
X67896Y-59085D02*
X67496Y-59085D01*
X67996Y-56988D02*
G75*
G03X67996Y-56988I-50J0D01*
G74*
G01*
X67496Y-56988D02*
X67896Y-56988D01*
X67896Y-56988D02*
X67896Y-57588D01*
X67896Y-57588D02*
X67496Y-57588D01*
X67096Y-57588D02*
X66696Y-57588D01*
X66696Y-57588D02*
X66696Y-56988D01*
X66696Y-56988D02*
X67096Y-56988D01*
X68119Y-60458D02*
G75*
G03X68119Y-60458I-50J0D01*
G74*
G01*
X68069Y-60008D02*
X68069Y-60408D01*
X68069Y-60408D02*
X67469Y-60408D01*
X67469Y-60408D02*
X67469Y-60008D01*
X67469Y-59608D02*
X67469Y-59208D01*
X67469Y-59208D02*
X68069Y-59208D01*
X68069Y-59208D02*
X68069Y-59608D01*
X57587Y-54531D02*
G75*
G03X57587Y-54531I-50J0D01*
G74*
G01*
X57537Y-54081D02*
X57537Y-54481D01*
X57537Y-54481D02*
X56937Y-54481D01*
X56937Y-54481D02*
X56937Y-54081D01*
X56937Y-53681D02*
X56937Y-53281D01*
X56937Y-53281D02*
X57537Y-53281D01*
X57537Y-53281D02*
X57537Y-53681D01*
X58295Y-54531D02*
G75*
G03X58295Y-54531I-50J0D01*
G74*
G01*
X58245Y-54081D02*
X58245Y-54481D01*
X58245Y-54481D02*
X57645Y-54481D01*
X57645Y-54481D02*
X57645Y-54081D01*
X57645Y-53681D02*
X57645Y-53281D01*
X57645Y-53281D02*
X58245Y-53281D01*
X58245Y-53281D02*
X58245Y-53681D01*
X59673Y-54531D02*
G75*
G03X59673Y-54531I-50J0D01*
G74*
G01*
X59623Y-54081D02*
X59623Y-54481D01*
X59623Y-54481D02*
X59023Y-54481D01*
X59023Y-54481D02*
X59023Y-54081D01*
X59023Y-53681D02*
X59023Y-53281D01*
X59023Y-53281D02*
X59623Y-53281D01*
X59623Y-53281D02*
X59623Y-53681D01*
X58964Y-54531D02*
G75*
G03X58964Y-54531I-50J0D01*
G74*
G01*
X58914Y-54081D02*
X58914Y-54481D01*
X58914Y-54481D02*
X58314Y-54481D01*
X58314Y-54481D02*
X58314Y-54081D01*
X58314Y-53681D02*
X58314Y-53281D01*
X58314Y-53281D02*
X58914Y-53281D01*
X58914Y-53281D02*
X58914Y-53681D01*
X56007Y-58276D02*
G75*
G03X56007Y-58276I-50J0D01*
G74*
G01*
X56407Y-58276D02*
X56007Y-58276D01*
X56007Y-58276D02*
X56007Y-57676D01*
X56007Y-57676D02*
X56407Y-57676D01*
X56807Y-57676D02*
X57207Y-57676D01*
X57207Y-57676D02*
X57207Y-58276D01*
X57207Y-58276D02*
X56807Y-58276D01*
X61007Y-57046D02*
G75*
G03X61007Y-57046I-50J0D01*
G74*
G01*
X60507Y-57046D02*
X60907Y-57046D01*
X60907Y-57046D02*
X60907Y-57646D01*
X60907Y-57646D02*
X60507Y-57646D01*
X60107Y-57646D02*
X59707Y-57646D01*
X59707Y-57646D02*
X59707Y-57046D01*
X59707Y-57046D02*
X60107Y-57046D01*
X56524Y-60437D02*
G75*
G03X56524Y-60437I-50J0D01*
G74*
G01*
X56474Y-59987D02*
X56474Y-60387D01*
X56474Y-60387D02*
X55874Y-60387D01*
X55874Y-60387D02*
X55874Y-59987D01*
X55874Y-59587D02*
X55874Y-59187D01*
X55874Y-59187D02*
X56474Y-59187D01*
X56474Y-59187D02*
X56474Y-59587D01*
X55731Y-55362D02*
G75*
G03X55731Y-55362I-50J0D01*
G74*
G01*
X56131Y-55362D02*
X55731Y-55362D01*
X55731Y-55362D02*
X55731Y-54762D01*
X55731Y-54762D02*
X56131Y-54762D01*
X56531Y-54762D02*
X56931Y-54762D01*
X56931Y-54762D02*
X56931Y-55362D01*
X56931Y-55362D02*
X56531Y-55362D01*
X41613Y-58153D02*
G75*
G03X41613Y-58153I-50J0D01*
G74*
G01*
X41113Y-58153D02*
X41513Y-58153D01*
X41513Y-58153D02*
X41513Y-58753D01*
X41513Y-58753D02*
X41113Y-58753D01*
X40713Y-58753D02*
X40313Y-58753D01*
X40313Y-58753D02*
X40313Y-58153D01*
X40313Y-58153D02*
X40713Y-58153D01*
X57307Y-58385D02*
G75*
G03X57307Y-58385I-50J0D01*
G74*
G01*
X56807Y-58385D02*
X57207Y-58385D01*
X57207Y-58385D02*
X57207Y-58985D01*
X57207Y-58985D02*
X56807Y-58985D01*
X56407Y-58985D02*
X56007Y-58985D01*
X56007Y-58985D02*
X56007Y-58385D01*
X56007Y-58385D02*
X56407Y-58385D01*
X56007Y-57567D02*
G75*
G03X56007Y-57567I-50J0D01*
G74*
G01*
X56407Y-57567D02*
X56007Y-57567D01*
X56007Y-57567D02*
X56007Y-56967D01*
X56007Y-56967D02*
X56407Y-56967D01*
X56807Y-56967D02*
X57207Y-56967D01*
X57207Y-56967D02*
X57207Y-57567D01*
X57207Y-57567D02*
X56807Y-57567D01*
X61007Y-57794D02*
G75*
G03X61007Y-57794I-50J0D01*
G74*
G01*
X60507Y-57794D02*
X60907Y-57794D01*
X60907Y-57794D02*
X60907Y-58394D01*
X60907Y-58394D02*
X60507Y-58394D01*
X60107Y-58394D02*
X59707Y-58394D01*
X59707Y-58394D02*
X59707Y-57794D01*
X59707Y-57794D02*
X60107Y-57794D01*
X60972Y-60516D02*
G75*
G03X60972Y-60516I-50J0D01*
G74*
G01*
X60922Y-60066D02*
X60922Y-60466D01*
X60922Y-60466D02*
X60322Y-60466D01*
X60322Y-60466D02*
X60322Y-60066D01*
X60322Y-59666D02*
X60322Y-59266D01*
X60322Y-59266D02*
X60922Y-59266D01*
X60922Y-59266D02*
X60922Y-59666D01*
X61283Y-55314D02*
G75*
G03X61283Y-55314I-50J0D01*
G74*
G01*
X60783Y-55314D02*
X61183Y-55314D01*
X61183Y-55314D02*
X61183Y-55914D01*
X61183Y-55914D02*
X60783Y-55914D01*
X60383Y-55914D02*
X59983Y-55914D01*
X59983Y-55914D02*
X59983Y-55314D01*
X59983Y-55314D02*
X60383Y-55314D01*
X61283Y-56062D02*
G75*
G03X61283Y-56062I-50J0D01*
G74*
G01*
X60783Y-56062D02*
X61183Y-56062D01*
X61183Y-56062D02*
X61183Y-56662D01*
X61183Y-56662D02*
X60783Y-56662D01*
X60383Y-56662D02*
X59983Y-56662D01*
X59983Y-56662D02*
X59983Y-56062D01*
X59983Y-56062D02*
X60383Y-56062D01*
X59707Y-59142D02*
G75*
G03X59707Y-59142I-50J0D01*
G74*
G01*
X60107Y-59142D02*
X59707Y-59142D01*
X59707Y-59142D02*
X59707Y-58542D01*
X59707Y-58542D02*
X60107Y-58542D01*
X60507Y-58542D02*
X60907Y-58542D01*
X60907Y-58542D02*
X60907Y-59142D01*
X60907Y-59142D02*
X60507Y-59142D01*
X66375Y-44100D02*
G75*
G03X66375Y-44100I-50J0D01*
G74*
G01*
X66325Y-43650D02*
X66325Y-44050D01*
X66325Y-44050D02*
X65725Y-44050D01*
X65725Y-44050D02*
X65725Y-43650D01*
X65725Y-43250D02*
X65725Y-42850D01*
X65725Y-42850D02*
X66325Y-42850D01*
X66325Y-42850D02*
X66325Y-43250D01*
X62562Y-55620D02*
G75*
G03X62562Y-55620I-50J0D01*
G74*
G01*
X62962Y-55620D02*
X62562Y-55620D01*
X62562Y-55620D02*
X62562Y-55020D01*
X62562Y-55020D02*
X62962Y-55020D01*
X63362Y-55020D02*
X63762Y-55020D01*
X63762Y-55020D02*
X63762Y-55620D01*
X63762Y-55620D02*
X63362Y-55620D01*
X63552Y-60458D02*
G75*
G03X63552Y-60458I-50J0D01*
G74*
G01*
X63502Y-60008D02*
X63502Y-60408D01*
X63502Y-60408D02*
X62902Y-60408D01*
X62902Y-60408D02*
X62902Y-60008D01*
X62902Y-59608D02*
X62902Y-59208D01*
X62902Y-59208D02*
X63502Y-59208D01*
X63502Y-59208D02*
X63502Y-59608D01*
X62996Y-58337D02*
G75*
G03X62996Y-58337I-50J0D01*
G74*
G01*
X63396Y-58337D02*
X62996Y-58337D01*
X62996Y-58337D02*
X62996Y-57737D01*
X62996Y-57737D02*
X63396Y-57737D01*
X63796Y-57737D02*
X64196Y-57737D01*
X64196Y-57737D02*
X64196Y-58337D01*
X64196Y-58337D02*
X63796Y-58337D01*
X65993Y-54710D02*
G75*
G03X65993Y-54710I-50J0D01*
G74*
G01*
X65943Y-54260D02*
X65943Y-54660D01*
X65943Y-54660D02*
X65343Y-54660D01*
X65343Y-54660D02*
X65343Y-54260D01*
X65343Y-53860D02*
X65343Y-53460D01*
X65343Y-53460D02*
X65943Y-53460D01*
X65943Y-53460D02*
X65943Y-53860D01*
X66741Y-54710D02*
G75*
G03X66741Y-54710I-50J0D01*
G74*
G01*
X66691Y-54260D02*
X66691Y-54660D01*
X66691Y-54660D02*
X66091Y-54660D01*
X66091Y-54660D02*
X66091Y-54260D01*
X66091Y-53860D02*
X66091Y-53460D01*
X66091Y-53460D02*
X66691Y-53460D01*
X66691Y-53460D02*
X66691Y-53860D01*
X66500Y-45525D02*
G75*
G03X66500Y-45525I-50J0D01*
G74*
G01*
X66450Y-45075D02*
X66450Y-45475D01*
X66450Y-45475D02*
X65850Y-45475D01*
X65850Y-45475D02*
X65850Y-45075D01*
X65850Y-44675D02*
X65850Y-44275D01*
X65850Y-44275D02*
X66450Y-44275D01*
X66450Y-44275D02*
X66450Y-44675D01*
X64450Y-51225D02*
G75*
G03X64450Y-51225I-50J0D01*
G74*
G01*
X64850Y-51225D02*
X64450Y-51225D01*
X64450Y-51225D02*
X64450Y-50625D01*
X64450Y-50625D02*
X64850Y-50625D01*
X65250Y-50625D02*
X65650Y-50625D01*
X65650Y-50625D02*
X65650Y-51225D01*
X65650Y-51225D02*
X65250Y-51225D01*
X65245Y-54710D02*
G75*
G03X65245Y-54710I-50J0D01*
G74*
G01*
X65195Y-54260D02*
X65195Y-54660D01*
X65195Y-54660D02*
X64595Y-54660D01*
X64595Y-54660D02*
X64595Y-54260D01*
X64595Y-53860D02*
X64595Y-53460D01*
X64595Y-53460D02*
X65195Y-53460D01*
X65195Y-53460D02*
X65195Y-53860D01*
X65125Y-47400D02*
G75*
G03X65125Y-47400I-50J0D01*
G74*
G01*
X65075Y-47850D02*
X65075Y-47450D01*
X65075Y-47450D02*
X65675Y-47450D01*
X65675Y-47450D02*
X65675Y-47850D01*
X65675Y-48250D02*
X65675Y-48650D01*
X65675Y-48650D02*
X65075Y-48650D01*
X65075Y-48650D02*
X65075Y-48250D01*
X64497Y-54710D02*
G75*
G03X64497Y-54710I-50J0D01*
G74*
G01*
X64447Y-54260D02*
X64447Y-54660D01*
X64447Y-54660D02*
X63847Y-54660D01*
X63847Y-54660D02*
X63847Y-54260D01*
X63847Y-53860D02*
X63847Y-53460D01*
X63847Y-53460D02*
X64447Y-53460D01*
X64447Y-53460D02*
X64447Y-53860D01*
X63175Y-43275D02*
G75*
G03X63175Y-43275I-50J0D01*
G74*
G01*
X63575Y-43275D02*
X63175Y-43275D01*
X63175Y-43275D02*
X63175Y-42675D01*
X63175Y-42675D02*
X63575Y-42675D01*
X63975Y-42675D02*
X64375Y-42675D01*
X64375Y-42675D02*
X64375Y-43275D01*
X64375Y-43275D02*
X63975Y-43275D01*
X59475Y-43275D02*
G75*
G03X59475Y-43275I-50J0D01*
G74*
G01*
X59875Y-43275D02*
X59475Y-43275D01*
X59475Y-43275D02*
X59475Y-42675D01*
X59475Y-42675D02*
X59875Y-42675D01*
X60275Y-42675D02*
X60675Y-42675D01*
X60675Y-42675D02*
X60675Y-43275D01*
X60675Y-43275D02*
X60275Y-43275D01*
X48550Y-53375D02*
G75*
G03X48550Y-53375I-50J0D01*
G74*
G01*
X48500Y-52925D02*
X48500Y-53325D01*
X48500Y-53325D02*
X47900Y-53325D01*
X47900Y-53325D02*
X47900Y-52925D01*
X47900Y-52525D02*
X47900Y-52125D01*
X47900Y-52125D02*
X48500Y-52125D01*
X48500Y-52125D02*
X48500Y-52525D01*
X52700Y-46000D02*
G75*
G03X52700Y-46000I-50J0D01*
G74*
G01*
X52650Y-46450D02*
X52650Y-46050D01*
X52650Y-46050D02*
X53250Y-46050D01*
X53250Y-46050D02*
X53250Y-46450D01*
X53250Y-46850D02*
X53250Y-47250D01*
X53250Y-47250D02*
X52650Y-47250D01*
X52650Y-47250D02*
X52650Y-46850D01*
X39919Y-55800D02*
G75*
G03X39919Y-55800I-50J0D01*
G74*
G01*
X40319Y-55800D02*
X39919Y-55800D01*
X39919Y-55800D02*
X39919Y-55200D01*
X39919Y-55200D02*
X40319Y-55200D01*
X40719Y-55200D02*
X41119Y-55200D01*
X41119Y-55200D02*
X41119Y-55800D01*
X41119Y-55800D02*
X40719Y-55800D01*
X41893Y-54300D02*
G75*
G03X41893Y-54300I-50J0D01*
G74*
G01*
X41843Y-53850D02*
X41843Y-54250D01*
X41843Y-54250D02*
X41243Y-54250D01*
X41243Y-54250D02*
X41243Y-53850D01*
X41243Y-53450D02*
X41243Y-53050D01*
X41243Y-53050D02*
X41843Y-53050D01*
X41843Y-53050D02*
X41843Y-53450D01*
X42641Y-54300D02*
G75*
G03X42641Y-54300I-50J0D01*
G74*
G01*
X42591Y-53850D02*
X42591Y-54250D01*
X42591Y-54250D02*
X41991Y-54250D01*
X41991Y-54250D02*
X41991Y-53850D01*
X41991Y-53450D02*
X41991Y-53050D01*
X41991Y-53050D02*
X42591Y-53050D01*
X42591Y-53050D02*
X42591Y-53450D01*
X44216Y-54300D02*
G75*
G03X44216Y-54300I-50J0D01*
G74*
G01*
X44166Y-53850D02*
X44166Y-54250D01*
X44166Y-54250D02*
X43566Y-54250D01*
X43566Y-54250D02*
X43566Y-53850D01*
X43566Y-53450D02*
X43566Y-53050D01*
X43566Y-53050D02*
X44166Y-53050D01*
X44166Y-53050D02*
X44166Y-53450D01*
X43468Y-54300D02*
G75*
G03X43468Y-54300I-50J0D01*
G74*
G01*
X43418Y-53850D02*
X43418Y-54250D01*
X43418Y-54250D02*
X42818Y-54250D01*
X42818Y-54250D02*
X42818Y-53850D01*
X42818Y-53450D02*
X42818Y-53050D01*
X42818Y-53050D02*
X43418Y-53050D01*
X43418Y-53050D02*
X43418Y-53450D01*
X40313Y-58005D02*
G75*
G03X40313Y-58005I-50J0D01*
G74*
G01*
X40713Y-58005D02*
X40313Y-58005D01*
X40313Y-58005D02*
X40313Y-57405D01*
X40313Y-57405D02*
X40713Y-57405D01*
X41113Y-57405D02*
X41513Y-57405D01*
X41513Y-57405D02*
X41513Y-58005D01*
X41513Y-58005D02*
X41113Y-58005D01*
X40869Y-60244D02*
G75*
G03X40869Y-60244I-50J0D01*
G74*
G01*
X40819Y-59794D02*
X40819Y-60194D01*
X40819Y-60194D02*
X40219Y-60194D01*
X40219Y-60194D02*
X40219Y-59794D01*
X40219Y-59394D02*
X40219Y-58994D01*
X40219Y-58994D02*
X40819Y-58994D01*
X40819Y-58994D02*
X40819Y-59394D01*
X39919Y-55052D02*
G75*
G03X39919Y-55052I-50J0D01*
G74*
G01*
X40319Y-55052D02*
X39919Y-55052D01*
X39919Y-55052D02*
X39919Y-54452D01*
X39919Y-54452D02*
X40319Y-54452D01*
X40719Y-54452D02*
X41119Y-54452D01*
X41119Y-54452D02*
X41119Y-55052D01*
X41119Y-55052D02*
X40719Y-55052D01*
X45314Y-56657D02*
G75*
G03X45314Y-56657I-50J0D01*
G74*
G01*
X44814Y-56657D02*
X45214Y-56657D01*
X45214Y-56657D02*
X45214Y-57257D01*
X45214Y-57257D02*
X44814Y-57257D01*
X44414Y-57257D02*
X44014Y-57257D01*
X44014Y-57257D02*
X44014Y-56657D01*
X44014Y-56657D02*
X44414Y-56657D01*
X44014Y-58753D02*
G75*
G03X44014Y-58753I-50J0D01*
G74*
G01*
X44414Y-58753D02*
X44014Y-58753D01*
X44014Y-58753D02*
X44014Y-58153D01*
X44014Y-58153D02*
X44414Y-58153D01*
X44814Y-58153D02*
X45214Y-58153D01*
X45214Y-58153D02*
X45214Y-58753D01*
X45214Y-58753D02*
X44814Y-58753D01*
X45629Y-55712D02*
G75*
G03X45629Y-55712I-50J0D01*
G74*
G01*
X45129Y-55712D02*
X45529Y-55712D01*
X45529Y-55712D02*
X45529Y-56312D01*
X45529Y-56312D02*
X45129Y-56312D01*
X44729Y-56312D02*
X44329Y-56312D01*
X44329Y-56312D02*
X44329Y-55712D01*
X44329Y-55712D02*
X44729Y-55712D01*
X45629Y-54964D02*
G75*
G03X45629Y-54964I-50J0D01*
G74*
G01*
X45129Y-54964D02*
X45529Y-54964D01*
X45529Y-54964D02*
X45529Y-55564D01*
X45529Y-55564D02*
X45129Y-55564D01*
X44729Y-55564D02*
X44329Y-55564D01*
X44329Y-55564D02*
X44329Y-54964D01*
X44329Y-54964D02*
X44729Y-54964D01*
X45318Y-60205D02*
G75*
G03X45318Y-60205I-50J0D01*
G74*
G01*
X45268Y-59755D02*
X45268Y-60155D01*
X45268Y-60155D02*
X44668Y-60155D01*
X44668Y-60155D02*
X44668Y-59755D01*
X44668Y-59355D02*
X44668Y-58955D01*
X44668Y-58955D02*
X45268Y-58955D01*
X45268Y-58955D02*
X45268Y-59355D01*
X45314Y-57405D02*
G75*
G03X45314Y-57405I-50J0D01*
G74*
G01*
X44814Y-57405D02*
X45214Y-57405D01*
X45214Y-57405D02*
X45214Y-58005D01*
X45214Y-58005D02*
X44814Y-58005D01*
X44414Y-58005D02*
X44014Y-58005D01*
X44014Y-58005D02*
X44014Y-57405D01*
X44014Y-57405D02*
X44414Y-57405D01*
X40313Y-57257D02*
G75*
G03X40313Y-57257I-50J0D01*
G74*
G01*
X40713Y-57257D02*
X40313Y-57257D01*
X40313Y-57257D02*
X40313Y-56657D01*
X40313Y-56657D02*
X40713Y-56657D01*
X41113Y-56657D02*
X41513Y-56657D01*
X41513Y-56657D02*
X41513Y-57257D01*
X41513Y-57257D02*
X41113Y-57257D01*
G54D14*
X37800Y-45650D02*
X37800Y-47650D01*
X39550Y-45650D02*
X39550Y-47650D01*
X37050Y-47650D02*
X37050Y-45650D01*
X37050Y-47650D02*
X39550Y-47650D01*
X37050Y-45650D02*
X39550Y-45650D01*
G54D11*
X67985Y-62811D02*
X62985Y-62811D01*
X62985Y-62811D02*
X62985Y-60811D01*
X62985Y-60811D02*
X67985Y-60811D01*
X67985Y-60811D02*
X67985Y-62811D01*
X54202Y-62811D02*
X49202Y-62811D01*
X49202Y-62811D02*
X49202Y-60811D01*
X49202Y-60811D02*
X54202Y-60811D01*
X54202Y-60811D02*
X54202Y-62811D01*
X60996Y-62811D02*
X55996Y-62811D01*
X55996Y-62811D02*
X55996Y-60811D01*
X55996Y-60811D02*
X60996Y-60811D01*
X60996Y-60811D02*
X60996Y-62811D01*
X45300Y-62811D02*
X40300Y-62811D01*
X40300Y-62811D02*
X40300Y-60811D01*
X40300Y-60811D02*
X45300Y-60811D01*
X45300Y-60811D02*
X45300Y-62811D01*
X55750Y-48250D02*
X55750Y-44250D01*
X55750Y-44250D02*
X57750Y-44250D01*
X57750Y-44250D02*
X57750Y-48250D01*
X57750Y-48250D02*
X55750Y-48250D01*
G54D12*
X40300Y-47500D02*
X40300Y-46500D01*
X40300Y-46500D02*
X43300Y-46500D01*
X43300Y-46500D02*
X43300Y-47500D01*
X43300Y-47500D02*
X40300Y-47500D01*
X41300Y-46500D02*
X41300Y-47500D01*
X65525Y-57200D02*
X66525Y-57200D01*
X66525Y-57200D02*
X66525Y-60200D01*
X66525Y-60200D02*
X65525Y-60200D01*
X65525Y-60200D02*
X65525Y-57200D01*
X66525Y-58200D02*
X65525Y-58200D01*
X64375Y-57200D02*
X65375Y-57200D01*
X65375Y-57200D02*
X65375Y-60200D01*
X65375Y-60200D02*
X64375Y-60200D01*
X64375Y-60200D02*
X64375Y-57200D01*
X65375Y-58200D02*
X64375Y-58200D01*
X43450Y-50850D02*
X43450Y-51850D01*
X43450Y-51850D02*
X40450Y-51850D01*
X40450Y-51850D02*
X40450Y-50850D01*
X40450Y-50850D02*
X43450Y-50850D01*
X42450Y-51850D02*
X42450Y-50850D01*
X41712Y-56756D02*
X42712Y-56756D01*
X42712Y-56756D02*
X42712Y-59756D01*
X42712Y-59756D02*
X41712Y-59756D01*
X41712Y-59756D02*
X41712Y-56756D01*
X42712Y-57756D02*
X41712Y-57756D01*
X42854Y-56756D02*
X43854Y-56756D01*
X43854Y-56756D02*
X43854Y-59756D01*
X43854Y-59756D02*
X42854Y-59756D01*
X42854Y-59756D02*
X42854Y-56756D01*
X43854Y-57756D02*
X42854Y-57756D01*
X50612Y-57331D02*
X51612Y-57331D01*
X51612Y-57331D02*
X51612Y-60331D01*
X51612Y-60331D02*
X50612Y-60331D01*
X50612Y-60331D02*
X50612Y-57331D01*
X51612Y-58331D02*
X50612Y-58331D01*
X51753Y-57331D02*
X52753Y-57331D01*
X52753Y-57331D02*
X52753Y-60331D01*
X52753Y-60331D02*
X51753Y-60331D01*
X51753Y-60331D02*
X51753Y-57331D01*
X52753Y-58331D02*
X51753Y-58331D01*
X57327Y-57381D02*
X58327Y-57381D01*
X58327Y-57381D02*
X58327Y-60381D01*
X58327Y-60381D02*
X57327Y-60381D01*
X57327Y-60381D02*
X57327Y-57381D01*
X58327Y-58381D02*
X57327Y-58381D01*
X58469Y-57381D02*
X59469Y-57381D01*
X59469Y-57381D02*
X59469Y-60381D01*
X59469Y-60381D02*
X58469Y-60381D01*
X58469Y-60381D02*
X58469Y-57381D01*
X59469Y-58381D02*
X58469Y-58381D01*
G54D15*
X65098Y-46423D02*
X65452Y-46423D01*
X65452Y-46423D02*
X65452Y-46266D01*
X65098Y-46266D02*
X65452Y-46266D01*
X65098Y-46423D02*
X65098Y-46266D01*
X65098Y-46934D02*
X65452Y-46934D01*
X65452Y-46934D02*
X65452Y-46777D01*
X65098Y-46777D02*
X65452Y-46777D01*
X65098Y-46934D02*
X65098Y-46777D01*
X65098Y-46600D02*
X65157Y-46600D01*
X65157Y-46600D02*
X65157Y-46482D01*
X65098Y-46482D02*
X65157Y-46482D01*
X65098Y-46600D02*
X65098Y-46482D01*
X65393Y-46600D02*
X65452Y-46600D01*
X65452Y-46600D02*
X65452Y-46482D01*
X65393Y-46482D02*
X65452Y-46482D01*
X65393Y-46600D02*
X65393Y-46482D01*
X65216Y-46600D02*
X65334Y-46600D01*
X65334Y-46600D02*
X65334Y-46482D01*
X65216Y-46482D02*
X65334Y-46482D01*
X65216Y-46600D02*
X65216Y-46482D01*
G54D16*
X65118Y-46423D02*
X65118Y-46777D01*
X65432Y-46423D02*
X65432Y-46777D01*
G54D15*
X63798Y-46473D02*
X64152Y-46473D01*
X64152Y-46473D02*
X64152Y-46316D01*
X63798Y-46316D02*
X64152Y-46316D01*
X63798Y-46473D02*
X63798Y-46316D01*
X63798Y-46984D02*
X64152Y-46984D01*
X64152Y-46984D02*
X64152Y-46827D01*
X63798Y-46827D02*
X64152Y-46827D01*
X63798Y-46984D02*
X63798Y-46827D01*
X63798Y-46650D02*
X63857Y-46650D01*
X63857Y-46650D02*
X63857Y-46532D01*
X63798Y-46532D02*
X63857Y-46532D01*
X63798Y-46650D02*
X63798Y-46532D01*
X64093Y-46650D02*
X64152Y-46650D01*
X64152Y-46650D02*
X64152Y-46532D01*
X64093Y-46532D02*
X64152Y-46532D01*
X64093Y-46650D02*
X64093Y-46532D01*
X63916Y-46650D02*
X64034Y-46650D01*
X64034Y-46650D02*
X64034Y-46532D01*
X63916Y-46532D02*
X64034Y-46532D01*
X63916Y-46650D02*
X63916Y-46532D01*
G54D16*
X63818Y-46473D02*
X63818Y-46827D01*
X64132Y-46473D02*
X64132Y-46827D01*
G54D17*
X50069Y-50622D02*
X50069Y-46881D01*
X46131Y-50819D02*
X49872Y-50819D01*
X49872Y-50819D02*
X50069Y-50622D01*
X46131Y-46881D02*
X50069Y-46881D01*
X46131Y-50819D02*
X46131Y-46881D01*
G54D11*
X49869Y-50419D02*
G75*
G03X49869Y-50419I-188J0D01*
G74*
G01*
G54D18*
X39449Y-47801D02*
X39449Y-55399D01*
X39449Y-55399D02*
X37051Y-55399D01*
X37051Y-55399D02*
X37051Y-47801D01*
X37051Y-47801D02*
X39449Y-47801D01*
G54D19*
X57550Y-49350D02*
X57550Y-52350D01*
X55550Y-52350D02*
X55550Y-49350D01*
X55550Y-49350D02*
X57550Y-49350D01*
X57550Y-52350D02*
X55550Y-52350D01*
G54D20*
X64225Y-45000D02*
X64225Y-44850D01*
X64225Y-43700D02*
X64225Y-43850D01*
X60325Y-43700D02*
X60325Y-43850D01*
X60325Y-45000D02*
X60325Y-44850D01*
X60025Y-45350D02*
X60025Y-44850D01*
X60025Y-43350D02*
X60025Y-43850D01*
X64525Y-43350D02*
X64525Y-43850D01*
X64525Y-45350D02*
X64525Y-44850D01*
X64225Y-43700D02*
X63975Y-43450D01*
X63975Y-43450D02*
X60575Y-43450D01*
X60575Y-43450D02*
X60325Y-43700D01*
X60325Y-45000D02*
X60575Y-45250D01*
X60575Y-45250D02*
X63975Y-45250D01*
X63975Y-45250D02*
X64225Y-45000D01*
X60025Y-43350D02*
X64525Y-43350D01*
X64525Y-45350D02*
X60025Y-45350D01*
G54D14*
X62650Y-41575D02*
X66650Y-41575D01*
X62650Y-42575D02*
X66650Y-42575D01*
X66650Y-42575D02*
X66650Y-41575D01*
X62650Y-41575D02*
X62650Y-42575D01*
X70225Y-41300D02*
X70225Y-45300D01*
X69225Y-41300D02*
X69225Y-45300D01*
X69225Y-45300D02*
X70225Y-45300D01*
X70225Y-41300D02*
X69225Y-41300D01*
G54D18*
X52480Y-41260D02*
X52480Y-45590D01*
X52480Y-45590D02*
X65472Y-45590D01*
X65472Y-45590D02*
X65472Y-41260D01*
X66456Y-57008D02*
X66456Y-48543D01*
X66456Y-48543D02*
X70393Y-48543D01*
X62125Y-63307D02*
X62125Y-57008D01*
X62125Y-57008D02*
X70393Y-57008D01*
X36929Y-41260D02*
X36929Y-63307D01*
X36929Y-63307D02*
X70393Y-63307D01*
X70393Y-63307D02*
X70393Y-41260D01*
X70393Y-41260D02*
X36929Y-41260D01*
G54D19*
X59452Y-47521D02*
X58952Y-47521D01*
X59404Y-47102D02*
X59428Y-47121D01*
X59452Y-47178D01*
X59452Y-47216D01*
X59428Y-47273D01*
X59380Y-47311D01*
X59333Y-47330D01*
X59238Y-47349D01*
X59166Y-47349D01*
X59071Y-47330D01*
X59023Y-47311D01*
X58976Y-47273D01*
X58952Y-47216D01*
X58952Y-47178D01*
X58976Y-47121D01*
X59000Y-47102D01*
X59452Y-46721D02*
X59452Y-46949D01*
X59452Y-46835D02*
X58952Y-46835D01*
X59023Y-46873D01*
X59071Y-46911D01*
X59095Y-46949D01*
X58952Y-46473D02*
X58952Y-46435D01*
X58976Y-46397D01*
X59000Y-46378D01*
X59047Y-46359D01*
X59142Y-46340D01*
X59261Y-46340D01*
X59357Y-46359D01*
X59404Y-46378D01*
X59428Y-46397D01*
X59452Y-46435D01*
X59452Y-46473D01*
X59428Y-46511D01*
X59404Y-46530D01*
X59357Y-46549D01*
X59261Y-46569D01*
X59142Y-46569D01*
X59047Y-46549D01*
X59000Y-46530D01*
X58976Y-46511D01*
X58952Y-46473D01*
X59452Y-45959D02*
X59452Y-46188D01*
X59452Y-46073D02*
X58952Y-46073D01*
X59023Y-46111D01*
X59071Y-46149D01*
X59095Y-46188D01*
X67585Y-51917D02*
X67642Y-51936D01*
X67738Y-51936D01*
X67776Y-51917D01*
X67795Y-51898D01*
X67814Y-51860D01*
X67814Y-51822D01*
X67795Y-51784D01*
X67776Y-51765D01*
X67738Y-51746D01*
X67661Y-51727D01*
X67623Y-51708D01*
X67604Y-51689D01*
X67585Y-51651D01*
X67585Y-51613D01*
X67604Y-51575D01*
X67623Y-51555D01*
X67661Y-51536D01*
X67757Y-51536D01*
X67814Y-51555D01*
X67947Y-51536D02*
X68042Y-51936D01*
X68119Y-51651D01*
X68195Y-51936D01*
X68290Y-51536D01*
X68652Y-51936D02*
X68423Y-51936D01*
X68538Y-51936D02*
X68538Y-51536D01*
X68500Y-51594D01*
X68461Y-51632D01*
X68423Y-51651D01*
X68900Y-51536D02*
X68938Y-51536D01*
X68976Y-51555D01*
X68995Y-51575D01*
X69014Y-51613D01*
X69033Y-51689D01*
X69033Y-51784D01*
X69014Y-51860D01*
X68995Y-51898D01*
X68976Y-51917D01*
X68938Y-51936D01*
X68900Y-51936D01*
X68861Y-51917D01*
X68842Y-51898D01*
X68823Y-51860D01*
X68804Y-51784D01*
X68804Y-51689D01*
X68823Y-51613D01*
X68842Y-51575D01*
X68861Y-51555D01*
X68900Y-51536D01*
X69185Y-51575D02*
X69204Y-51555D01*
X69242Y-51536D01*
X69338Y-51536D01*
X69376Y-51555D01*
X69395Y-51575D01*
X69414Y-51613D01*
X69414Y-51651D01*
X69395Y-51708D01*
X69166Y-51936D01*
X69414Y-51936D01*
X67585Y-48692D02*
X67642Y-48711D01*
X67738Y-48711D01*
X67776Y-48692D01*
X67795Y-48673D01*
X67814Y-48635D01*
X67814Y-48597D01*
X67795Y-48559D01*
X67776Y-48540D01*
X67738Y-48521D01*
X67661Y-48502D01*
X67623Y-48483D01*
X67604Y-48464D01*
X67585Y-48426D01*
X67585Y-48388D01*
X67604Y-48350D01*
X67623Y-48330D01*
X67661Y-48311D01*
X67757Y-48311D01*
X67814Y-48330D01*
X67947Y-48311D02*
X68042Y-48711D01*
X68119Y-48426D01*
X68195Y-48711D01*
X68290Y-48311D01*
X68652Y-48711D02*
X68423Y-48711D01*
X68538Y-48711D02*
X68538Y-48311D01*
X68500Y-48369D01*
X68461Y-48407D01*
X68423Y-48426D01*
X68900Y-48311D02*
X68938Y-48311D01*
X68976Y-48330D01*
X68995Y-48350D01*
X69014Y-48388D01*
X69033Y-48464D01*
X69033Y-48559D01*
X69014Y-48635D01*
X68995Y-48673D01*
X68976Y-48692D01*
X68938Y-48711D01*
X68900Y-48711D01*
X68861Y-48692D01*
X68842Y-48673D01*
X68823Y-48635D01*
X68804Y-48559D01*
X68804Y-48464D01*
X68823Y-48388D01*
X68842Y-48350D01*
X68861Y-48330D01*
X68900Y-48311D01*
X69414Y-48711D02*
X69185Y-48711D01*
X69300Y-48711D02*
X69300Y-48311D01*
X69261Y-48369D01*
X69223Y-48407D01*
X69185Y-48426D01*
G54D12*
X44732Y-54671D02*
X45096Y-54671D01*
X45139Y-54650D01*
X45160Y-54628D01*
X45182Y-54585D01*
X45182Y-54500D01*
X45160Y-54457D01*
X45139Y-54435D01*
X45096Y-54414D01*
X44732Y-54414D01*
X44732Y-54242D02*
X44732Y-53964D01*
X44903Y-54114D01*
X44903Y-54049D01*
X44925Y-54007D01*
X44946Y-53985D01*
X44989Y-53964D01*
X45096Y-53964D01*
X45139Y-53985D01*
X45160Y-54007D01*
X45182Y-54049D01*
X45182Y-54178D01*
X45160Y-54221D01*
X45139Y-54242D01*
X44732Y-53685D02*
X44732Y-53642D01*
X44753Y-53600D01*
X44775Y-53578D01*
X44817Y-53557D01*
X44903Y-53535D01*
X45010Y-53535D01*
X45096Y-53557D01*
X45139Y-53578D01*
X45160Y-53600D01*
X45182Y-53642D01*
X45182Y-53685D01*
X45160Y-53728D01*
X45139Y-53750D01*
X45096Y-53771D01*
X45010Y-53792D01*
X44903Y-53792D01*
X44817Y-53771D01*
X44775Y-53750D01*
X44753Y-53728D01*
X44732Y-53685D01*
X45182Y-53107D02*
X45182Y-53364D01*
X45182Y-53235D02*
X44732Y-53235D01*
X44796Y-53278D01*
X44839Y-53321D01*
X44860Y-53364D01*
X66978Y-41532D02*
X66978Y-41896D01*
X67000Y-41939D01*
X67021Y-41960D01*
X67064Y-41982D01*
X67150Y-41982D01*
X67192Y-41960D01*
X67214Y-41939D01*
X67235Y-41896D01*
X67235Y-41532D01*
X67685Y-41982D02*
X67428Y-41982D01*
X67557Y-41982D02*
X67557Y-41532D01*
X67514Y-41596D01*
X67471Y-41639D01*
X67428Y-41660D01*
X67964Y-41532D02*
X68007Y-41532D01*
X68050Y-41553D01*
X68071Y-41575D01*
X68092Y-41617D01*
X68114Y-41703D01*
X68114Y-41810D01*
X68092Y-41896D01*
X68071Y-41939D01*
X68050Y-41960D01*
X68007Y-41982D01*
X67964Y-41982D01*
X67921Y-41960D01*
X67900Y-41939D01*
X67878Y-41896D01*
X67857Y-41810D01*
X67857Y-41703D01*
X67878Y-41617D01*
X67900Y-41575D01*
X67921Y-41553D01*
X67964Y-41532D01*
X68285Y-41575D02*
X68307Y-41553D01*
X68350Y-41532D01*
X68457Y-41532D01*
X68500Y-41553D01*
X68521Y-41575D01*
X68542Y-41617D01*
X68542Y-41660D01*
X68521Y-41725D01*
X68264Y-41982D01*
X68542Y-41982D01*
X67028Y-53732D02*
X67028Y-54096D01*
X67050Y-54139D01*
X67071Y-54160D01*
X67114Y-54182D01*
X67200Y-54182D01*
X67242Y-54160D01*
X67264Y-54139D01*
X67285Y-54096D01*
X67285Y-53732D01*
X67692Y-53732D02*
X67607Y-53732D01*
X67564Y-53753D01*
X67542Y-53775D01*
X67500Y-53839D01*
X67478Y-53925D01*
X67478Y-54096D01*
X67500Y-54139D01*
X67521Y-54160D01*
X67564Y-54182D01*
X67650Y-54182D01*
X67692Y-54160D01*
X67714Y-54139D01*
X67735Y-54096D01*
X67735Y-53989D01*
X67714Y-53946D01*
X67692Y-53925D01*
X67650Y-53903D01*
X67564Y-53903D01*
X67521Y-53925D01*
X67500Y-53946D01*
X67478Y-53989D01*
X68014Y-53732D02*
X68057Y-53732D01*
X68100Y-53753D01*
X68121Y-53775D01*
X68142Y-53817D01*
X68164Y-53903D01*
X68164Y-54010D01*
X68142Y-54096D01*
X68121Y-54139D01*
X68100Y-54160D01*
X68057Y-54182D01*
X68014Y-54182D01*
X67971Y-54160D01*
X67950Y-54139D01*
X67928Y-54096D01*
X67907Y-54010D01*
X67907Y-53903D01*
X67928Y-53817D01*
X67950Y-53775D01*
X67971Y-53753D01*
X68014Y-53732D01*
X68592Y-54182D02*
X68335Y-54182D01*
X68464Y-54182D02*
X68464Y-53732D01*
X68421Y-53796D01*
X68378Y-53839D01*
X68335Y-53860D01*
X60932Y-54671D02*
X61296Y-54671D01*
X61339Y-54650D01*
X61360Y-54628D01*
X61382Y-54585D01*
X61382Y-54500D01*
X61360Y-54457D01*
X61339Y-54435D01*
X61296Y-54414D01*
X60932Y-54414D01*
X60932Y-53985D02*
X60932Y-54199D01*
X61146Y-54221D01*
X61125Y-54199D01*
X61103Y-54157D01*
X61103Y-54049D01*
X61125Y-54007D01*
X61146Y-53985D01*
X61189Y-53964D01*
X61296Y-53964D01*
X61339Y-53985D01*
X61360Y-54007D01*
X61382Y-54049D01*
X61382Y-54157D01*
X61360Y-54199D01*
X61339Y-54221D01*
X60932Y-53685D02*
X60932Y-53642D01*
X60953Y-53600D01*
X60975Y-53578D01*
X61017Y-53557D01*
X61103Y-53535D01*
X61210Y-53535D01*
X61296Y-53557D01*
X61339Y-53578D01*
X61360Y-53600D01*
X61382Y-53642D01*
X61382Y-53685D01*
X61360Y-53728D01*
X61339Y-53750D01*
X61296Y-53771D01*
X61210Y-53792D01*
X61103Y-53792D01*
X61017Y-53771D01*
X60975Y-53750D01*
X60953Y-53728D01*
X60932Y-53685D01*
X61382Y-53107D02*
X61382Y-53364D01*
X61382Y-53235D02*
X60932Y-53235D01*
X60996Y-53278D01*
X61039Y-53321D01*
X61060Y-53364D01*
X53882Y-54821D02*
X54246Y-54821D01*
X54289Y-54800D01*
X54310Y-54778D01*
X54332Y-54735D01*
X54332Y-54650D01*
X54310Y-54607D01*
X54289Y-54585D01*
X54246Y-54564D01*
X53882Y-54564D01*
X54032Y-54157D02*
X54332Y-54157D01*
X53860Y-54264D02*
X54182Y-54371D01*
X54182Y-54092D01*
X53882Y-53835D02*
X53882Y-53792D01*
X53903Y-53750D01*
X53925Y-53728D01*
X53967Y-53707D01*
X54053Y-53685D01*
X54160Y-53685D01*
X54246Y-53707D01*
X54289Y-53728D01*
X54310Y-53750D01*
X54332Y-53792D01*
X54332Y-53835D01*
X54310Y-53878D01*
X54289Y-53900D01*
X54246Y-53921D01*
X54160Y-53942D01*
X54053Y-53942D01*
X53967Y-53921D01*
X53925Y-53900D01*
X53903Y-53878D01*
X53882Y-53835D01*
X54332Y-53257D02*
X54332Y-53514D01*
X54332Y-53385D02*
X53882Y-53385D01*
X53946Y-53428D01*
X53989Y-53471D01*
X54010Y-53514D01*
G54D13*
X52321Y-42985D02*
X52321Y-43128D01*
X52021Y-43128D01*
X52321Y-42728D02*
X52321Y-42899D01*
X52321Y-42814D02*
X52021Y-42814D01*
X52064Y-42842D01*
X52092Y-42871D01*
X52107Y-42899D01*
X52021Y-42542D02*
X52021Y-42514D01*
X52035Y-42485D01*
X52050Y-42471D01*
X52078Y-42457D01*
X52135Y-42442D01*
X52207Y-42442D01*
X52264Y-42457D01*
X52292Y-42471D01*
X52307Y-42485D01*
X52321Y-42514D01*
X52321Y-42542D01*
X52307Y-42571D01*
X52292Y-42585D01*
X52264Y-42599D01*
X52207Y-42614D01*
X52135Y-42614D01*
X52078Y-42599D01*
X52050Y-42585D01*
X52035Y-42571D01*
X52021Y-42542D01*
X52050Y-42328D02*
X52035Y-42314D01*
X52021Y-42285D01*
X52021Y-42214D01*
X52035Y-42185D01*
X52050Y-42171D01*
X52078Y-42157D01*
X52107Y-42157D01*
X52150Y-42171D01*
X52321Y-42342D01*
X52321Y-42157D01*
X51621Y-44985D02*
X51621Y-45128D01*
X51321Y-45128D01*
X51621Y-44728D02*
X51621Y-44899D01*
X51621Y-44814D02*
X51321Y-44814D01*
X51364Y-44842D01*
X51392Y-44871D01*
X51407Y-44899D01*
X51321Y-44542D02*
X51321Y-44514D01*
X51335Y-44485D01*
X51350Y-44471D01*
X51378Y-44457D01*
X51435Y-44442D01*
X51507Y-44442D01*
X51564Y-44457D01*
X51592Y-44471D01*
X51607Y-44485D01*
X51621Y-44514D01*
X51621Y-44542D01*
X51607Y-44571D01*
X51592Y-44585D01*
X51564Y-44599D01*
X51507Y-44614D01*
X51435Y-44614D01*
X51378Y-44599D01*
X51350Y-44585D01*
X51335Y-44571D01*
X51321Y-44542D01*
X51421Y-44185D02*
X51621Y-44185D01*
X51307Y-44257D02*
X51521Y-44328D01*
X51521Y-44142D01*
X52371Y-45035D02*
X52371Y-45178D01*
X52071Y-45178D01*
X52371Y-44778D02*
X52371Y-44949D01*
X52371Y-44864D02*
X52071Y-44864D01*
X52114Y-44892D01*
X52142Y-44921D01*
X52157Y-44949D01*
X52071Y-44592D02*
X52071Y-44564D01*
X52085Y-44535D01*
X52100Y-44521D01*
X52128Y-44507D01*
X52185Y-44492D01*
X52257Y-44492D01*
X52314Y-44507D01*
X52342Y-44521D01*
X52357Y-44535D01*
X52371Y-44564D01*
X52371Y-44592D01*
X52357Y-44621D01*
X52342Y-44635D01*
X52314Y-44649D01*
X52257Y-44664D01*
X52185Y-44664D01*
X52128Y-44649D01*
X52100Y-44635D01*
X52085Y-44621D01*
X52071Y-44592D01*
X52071Y-44221D02*
X52071Y-44364D01*
X52214Y-44378D01*
X52200Y-44364D01*
X52185Y-44335D01*
X52185Y-44264D01*
X52200Y-44235D01*
X52214Y-44221D01*
X52242Y-44207D01*
X52314Y-44207D01*
X52342Y-44221D01*
X52357Y-44235D01*
X52371Y-44264D01*
X52371Y-44335D01*
X52357Y-44364D01*
X52342Y-44378D01*
X54092Y-48985D02*
X54107Y-49000D01*
X54121Y-49042D01*
X54121Y-49071D01*
X54107Y-49114D01*
X54078Y-49142D01*
X54050Y-49157D01*
X53992Y-49171D01*
X53950Y-49171D01*
X53892Y-49157D01*
X53864Y-49142D01*
X53835Y-49114D01*
X53821Y-49071D01*
X53821Y-49042D01*
X53835Y-49000D01*
X53850Y-48985D01*
X54121Y-48700D02*
X54121Y-48871D01*
X54121Y-48785D02*
X53821Y-48785D01*
X53864Y-48814D01*
X53892Y-48842D01*
X53907Y-48871D01*
X54121Y-48414D02*
X54121Y-48585D01*
X54121Y-48500D02*
X53821Y-48500D01*
X53864Y-48528D01*
X53892Y-48557D01*
X53907Y-48585D01*
X53821Y-48314D02*
X53821Y-48114D01*
X54121Y-48242D01*
X56464Y-42092D02*
X56450Y-42107D01*
X56407Y-42121D01*
X56378Y-42121D01*
X56335Y-42107D01*
X56307Y-42078D01*
X56292Y-42050D01*
X56278Y-41992D01*
X56278Y-41950D01*
X56292Y-41892D01*
X56307Y-41864D01*
X56335Y-41835D01*
X56378Y-41821D01*
X56407Y-41821D01*
X56450Y-41835D01*
X56464Y-41850D01*
X56750Y-42121D02*
X56578Y-42121D01*
X56664Y-42121D02*
X56664Y-41821D01*
X56635Y-41864D01*
X56607Y-41892D01*
X56578Y-41907D01*
X56935Y-41821D02*
X56964Y-41821D01*
X56992Y-41835D01*
X57007Y-41850D01*
X57021Y-41878D01*
X57035Y-41935D01*
X57035Y-42007D01*
X57021Y-42064D01*
X57007Y-42092D01*
X56992Y-42107D01*
X56964Y-42121D01*
X56935Y-42121D01*
X56907Y-42107D01*
X56892Y-42092D01*
X56878Y-42064D01*
X56864Y-42007D01*
X56864Y-41935D01*
X56878Y-41878D01*
X56892Y-41850D01*
X56907Y-41835D01*
X56935Y-41821D01*
X57150Y-41850D02*
X57164Y-41835D01*
X57192Y-41821D01*
X57264Y-41821D01*
X57292Y-41835D01*
X57307Y-41850D01*
X57321Y-41878D01*
X57321Y-41907D01*
X57307Y-41950D01*
X57135Y-42121D01*
X57321Y-42121D01*
X54792Y-48885D02*
X54807Y-48900D01*
X54821Y-48942D01*
X54821Y-48971D01*
X54807Y-49014D01*
X54778Y-49042D01*
X54750Y-49057D01*
X54692Y-49071D01*
X54650Y-49071D01*
X54592Y-49057D01*
X54564Y-49042D01*
X54535Y-49014D01*
X54521Y-48971D01*
X54521Y-48942D01*
X54535Y-48900D01*
X54550Y-48885D01*
X54821Y-48600D02*
X54821Y-48771D01*
X54821Y-48685D02*
X54521Y-48685D01*
X54564Y-48714D01*
X54592Y-48742D01*
X54607Y-48771D01*
X54821Y-48314D02*
X54821Y-48485D01*
X54821Y-48400D02*
X54521Y-48400D01*
X54564Y-48428D01*
X54592Y-48457D01*
X54607Y-48485D01*
X54650Y-48142D02*
X54635Y-48171D01*
X54621Y-48185D01*
X54592Y-48200D01*
X54578Y-48200D01*
X54550Y-48185D01*
X54535Y-48171D01*
X54521Y-48142D01*
X54521Y-48085D01*
X54535Y-48057D01*
X54550Y-48042D01*
X54578Y-48028D01*
X54592Y-48028D01*
X54621Y-48042D01*
X54635Y-48057D01*
X54650Y-48085D01*
X54650Y-48142D01*
X54664Y-48171D01*
X54678Y-48185D01*
X54707Y-48200D01*
X54764Y-48200D01*
X54792Y-48185D01*
X54807Y-48171D01*
X54821Y-48142D01*
X54821Y-48085D01*
X54807Y-48057D01*
X54792Y-48042D01*
X54764Y-48028D01*
X54707Y-48028D01*
X54678Y-48042D01*
X54664Y-48057D01*
X54650Y-48085D01*
X55914Y-43721D02*
X55771Y-43721D01*
X55771Y-43421D01*
X56171Y-43721D02*
X56000Y-43721D01*
X56085Y-43721D02*
X56085Y-43421D01*
X56057Y-43464D01*
X56028Y-43492D01*
X56000Y-43507D01*
X56357Y-43421D02*
X56385Y-43421D01*
X56414Y-43435D01*
X56428Y-43450D01*
X56442Y-43478D01*
X56457Y-43535D01*
X56457Y-43607D01*
X56442Y-43664D01*
X56428Y-43692D01*
X56414Y-43707D01*
X56385Y-43721D01*
X56357Y-43721D01*
X56328Y-43707D01*
X56314Y-43692D01*
X56300Y-43664D01*
X56285Y-43607D01*
X56285Y-43535D01*
X56300Y-43478D01*
X56314Y-43450D01*
X56328Y-43435D01*
X56357Y-43421D01*
X56742Y-43721D02*
X56571Y-43721D01*
X56657Y-43721D02*
X56657Y-43421D01*
X56628Y-43464D01*
X56600Y-43492D01*
X56571Y-43507D01*
X54714Y-44021D02*
X54571Y-44021D01*
X54571Y-43721D01*
X54971Y-44021D02*
X54800Y-44021D01*
X54885Y-44021D02*
X54885Y-43721D01*
X54857Y-43764D01*
X54828Y-43792D01*
X54800Y-43807D01*
X55157Y-43721D02*
X55185Y-43721D01*
X55214Y-43735D01*
X55228Y-43750D01*
X55242Y-43778D01*
X55257Y-43835D01*
X55257Y-43907D01*
X55242Y-43964D01*
X55228Y-43992D01*
X55214Y-44007D01*
X55185Y-44021D01*
X55157Y-44021D01*
X55128Y-44007D01*
X55114Y-43992D01*
X55100Y-43964D01*
X55085Y-43907D01*
X55085Y-43835D01*
X55100Y-43778D01*
X55114Y-43750D01*
X55128Y-43735D01*
X55157Y-43721D01*
X55357Y-43721D02*
X55542Y-43721D01*
X55442Y-43835D01*
X55485Y-43835D01*
X55514Y-43850D01*
X55528Y-43864D01*
X55542Y-43892D01*
X55542Y-43964D01*
X55528Y-43992D01*
X55514Y-44007D01*
X55485Y-44021D01*
X55400Y-44021D01*
X55371Y-44007D01*
X55357Y-43992D01*
X52792Y-50385D02*
X52807Y-50400D01*
X52821Y-50442D01*
X52821Y-50471D01*
X52807Y-50514D01*
X52778Y-50542D01*
X52750Y-50557D01*
X52692Y-50571D01*
X52650Y-50571D01*
X52592Y-50557D01*
X52564Y-50542D01*
X52535Y-50514D01*
X52521Y-50471D01*
X52521Y-50442D01*
X52535Y-50400D01*
X52550Y-50385D01*
X52821Y-50100D02*
X52821Y-50271D01*
X52821Y-50185D02*
X52521Y-50185D01*
X52564Y-50214D01*
X52592Y-50242D01*
X52607Y-50271D01*
X52821Y-49814D02*
X52821Y-49985D01*
X52821Y-49900D02*
X52521Y-49900D01*
X52564Y-49928D01*
X52592Y-49957D01*
X52607Y-49985D01*
X52821Y-49671D02*
X52821Y-49614D01*
X52807Y-49585D01*
X52792Y-49571D01*
X52750Y-49542D01*
X52692Y-49528D01*
X52578Y-49528D01*
X52550Y-49542D01*
X52535Y-49557D01*
X52521Y-49585D01*
X52521Y-49642D01*
X52535Y-49671D01*
X52550Y-49685D01*
X52578Y-49700D01*
X52650Y-49700D01*
X52678Y-49685D01*
X52692Y-49671D01*
X52707Y-49642D01*
X52707Y-49585D01*
X52692Y-49557D01*
X52678Y-49542D01*
X52650Y-49528D01*
X49414Y-53392D02*
X49400Y-53407D01*
X49357Y-53421D01*
X49328Y-53421D01*
X49285Y-53407D01*
X49257Y-53378D01*
X49242Y-53350D01*
X49228Y-53292D01*
X49228Y-53250D01*
X49242Y-53192D01*
X49257Y-53164D01*
X49285Y-53135D01*
X49328Y-53121D01*
X49357Y-53121D01*
X49400Y-53135D01*
X49414Y-53150D01*
X49700Y-53421D02*
X49528Y-53421D01*
X49614Y-53421D02*
X49614Y-53121D01*
X49585Y-53164D01*
X49557Y-53192D01*
X49528Y-53207D01*
X49814Y-53150D02*
X49828Y-53135D01*
X49857Y-53121D01*
X49928Y-53121D01*
X49957Y-53135D01*
X49971Y-53150D01*
X49985Y-53178D01*
X49985Y-53207D01*
X49971Y-53250D01*
X49800Y-53421D01*
X49985Y-53421D01*
X50171Y-53121D02*
X50200Y-53121D01*
X50228Y-53135D01*
X50242Y-53150D01*
X50257Y-53178D01*
X50271Y-53235D01*
X50271Y-53307D01*
X50257Y-53364D01*
X50242Y-53392D01*
X50228Y-53407D01*
X50200Y-53421D01*
X50171Y-53421D01*
X50142Y-53407D01*
X50128Y-53392D01*
X50114Y-53364D01*
X50100Y-53307D01*
X50100Y-53235D01*
X50114Y-53178D01*
X50128Y-53150D01*
X50142Y-53135D01*
X50171Y-53121D01*
X46542Y-53485D02*
X46557Y-53500D01*
X46571Y-53542D01*
X46571Y-53571D01*
X46557Y-53614D01*
X46528Y-53642D01*
X46500Y-53657D01*
X46442Y-53671D01*
X46400Y-53671D01*
X46342Y-53657D01*
X46314Y-53642D01*
X46285Y-53614D01*
X46271Y-53571D01*
X46271Y-53542D01*
X46285Y-53500D01*
X46300Y-53485D01*
X46571Y-53200D02*
X46571Y-53371D01*
X46571Y-53285D02*
X46271Y-53285D01*
X46314Y-53314D01*
X46342Y-53342D01*
X46357Y-53371D01*
X46300Y-53085D02*
X46285Y-53071D01*
X46271Y-53042D01*
X46271Y-52971D01*
X46285Y-52942D01*
X46300Y-52928D01*
X46328Y-52914D01*
X46357Y-52914D01*
X46400Y-52928D01*
X46571Y-53100D01*
X46571Y-52914D01*
X46300Y-52800D02*
X46285Y-52785D01*
X46271Y-52757D01*
X46271Y-52685D01*
X46285Y-52657D01*
X46300Y-52642D01*
X46328Y-52628D01*
X46357Y-52628D01*
X46400Y-52642D01*
X46571Y-52814D01*
X46571Y-52628D01*
X44992Y-51085D02*
X45007Y-51100D01*
X45021Y-51142D01*
X45021Y-51171D01*
X45007Y-51214D01*
X44978Y-51242D01*
X44950Y-51257D01*
X44892Y-51271D01*
X44850Y-51271D01*
X44792Y-51257D01*
X44764Y-51242D01*
X44735Y-51214D01*
X44721Y-51171D01*
X44721Y-51142D01*
X44735Y-51100D01*
X44750Y-51085D01*
X45021Y-50800D02*
X45021Y-50971D01*
X45021Y-50885D02*
X44721Y-50885D01*
X44764Y-50914D01*
X44792Y-50942D01*
X44807Y-50971D01*
X44750Y-50685D02*
X44735Y-50671D01*
X44721Y-50642D01*
X44721Y-50571D01*
X44735Y-50542D01*
X44750Y-50528D01*
X44778Y-50514D01*
X44807Y-50514D01*
X44850Y-50528D01*
X45021Y-50700D01*
X45021Y-50514D01*
X44721Y-50242D02*
X44721Y-50385D01*
X44864Y-50400D01*
X44850Y-50385D01*
X44835Y-50357D01*
X44835Y-50285D01*
X44850Y-50257D01*
X44864Y-50242D01*
X44892Y-50228D01*
X44964Y-50228D01*
X44992Y-50242D01*
X45007Y-50257D01*
X45021Y-50285D01*
X45021Y-50357D01*
X45007Y-50385D01*
X44992Y-50400D01*
X48320Y-58127D02*
X48308Y-58139D01*
X48272Y-58151D01*
X48248Y-58151D01*
X48213Y-58139D01*
X48189Y-58115D01*
X48177Y-58091D01*
X48165Y-58044D01*
X48165Y-58008D01*
X48177Y-57960D01*
X48189Y-57936D01*
X48213Y-57913D01*
X48248Y-57901D01*
X48272Y-57901D01*
X48308Y-57913D01*
X48320Y-57925D01*
X48534Y-57984D02*
X48534Y-58151D01*
X48475Y-57889D02*
X48415Y-58067D01*
X48570Y-58067D01*
X48713Y-57901D02*
X48736Y-57901D01*
X48760Y-57913D01*
X48772Y-57925D01*
X48784Y-57948D01*
X48796Y-57996D01*
X48796Y-58055D01*
X48784Y-58103D01*
X48772Y-58127D01*
X48760Y-58139D01*
X48736Y-58151D01*
X48713Y-58151D01*
X48689Y-58139D01*
X48677Y-58127D01*
X48665Y-58103D01*
X48653Y-58055D01*
X48653Y-57996D01*
X48665Y-57948D01*
X48677Y-57925D01*
X48689Y-57913D01*
X48713Y-57901D01*
X48879Y-57901D02*
X49046Y-57901D01*
X48939Y-58151D01*
X52401Y-53129D02*
X52282Y-53213D01*
X52401Y-53272D02*
X52151Y-53272D01*
X52151Y-53177D01*
X52163Y-53153D01*
X52175Y-53141D01*
X52198Y-53129D01*
X52234Y-53129D01*
X52258Y-53141D01*
X52270Y-53153D01*
X52282Y-53177D01*
X52282Y-53272D01*
X52234Y-52915D02*
X52401Y-52915D01*
X52139Y-52975D02*
X52317Y-53034D01*
X52317Y-52879D01*
X52151Y-52736D02*
X52151Y-52713D01*
X52163Y-52689D01*
X52175Y-52677D01*
X52198Y-52665D01*
X52246Y-52653D01*
X52305Y-52653D01*
X52353Y-52665D01*
X52377Y-52677D01*
X52389Y-52689D01*
X52401Y-52713D01*
X52401Y-52736D01*
X52389Y-52760D01*
X52377Y-52772D01*
X52353Y-52784D01*
X52305Y-52796D01*
X52246Y-52796D01*
X52198Y-52784D01*
X52175Y-52772D01*
X52163Y-52760D01*
X52151Y-52736D01*
X52151Y-52570D02*
X52151Y-52403D01*
X52401Y-52510D01*
X52927Y-53179D02*
X52939Y-53191D01*
X52951Y-53227D01*
X52951Y-53251D01*
X52939Y-53286D01*
X52915Y-53310D01*
X52891Y-53322D01*
X52844Y-53334D01*
X52808Y-53334D01*
X52760Y-53322D01*
X52736Y-53310D01*
X52713Y-53286D01*
X52701Y-53251D01*
X52701Y-53227D01*
X52713Y-53191D01*
X52725Y-53179D01*
X52784Y-52965D02*
X52951Y-52965D01*
X52689Y-53025D02*
X52867Y-53084D01*
X52867Y-52929D01*
X52701Y-52786D02*
X52701Y-52763D01*
X52713Y-52739D01*
X52725Y-52727D01*
X52748Y-52715D01*
X52796Y-52703D01*
X52855Y-52703D01*
X52903Y-52715D01*
X52927Y-52727D01*
X52939Y-52739D01*
X52951Y-52763D01*
X52951Y-52786D01*
X52939Y-52810D01*
X52927Y-52822D01*
X52903Y-52834D01*
X52855Y-52846D01*
X52796Y-52846D01*
X52748Y-52834D01*
X52725Y-52822D01*
X52713Y-52810D01*
X52701Y-52786D01*
X52701Y-52477D02*
X52701Y-52596D01*
X52820Y-52608D01*
X52808Y-52596D01*
X52796Y-52572D01*
X52796Y-52513D01*
X52808Y-52489D01*
X52820Y-52477D01*
X52844Y-52465D01*
X52903Y-52465D01*
X52927Y-52477D01*
X52939Y-52489D01*
X52951Y-52513D01*
X52951Y-52572D01*
X52939Y-52596D01*
X52927Y-52608D01*
X51951Y-53129D02*
X51832Y-53213D01*
X51951Y-53272D02*
X51701Y-53272D01*
X51701Y-53177D01*
X51713Y-53153D01*
X51725Y-53141D01*
X51748Y-53129D01*
X51784Y-53129D01*
X51808Y-53141D01*
X51820Y-53153D01*
X51832Y-53177D01*
X51832Y-53272D01*
X51784Y-52915D02*
X51951Y-52915D01*
X51689Y-52975D02*
X51867Y-53034D01*
X51867Y-52879D01*
X51951Y-52653D02*
X51951Y-52796D01*
X51951Y-52725D02*
X51701Y-52725D01*
X51736Y-52748D01*
X51760Y-52772D01*
X51772Y-52796D01*
X51784Y-52439D02*
X51951Y-52439D01*
X51689Y-52498D02*
X51867Y-52558D01*
X51867Y-52403D01*
X51477Y-53079D02*
X51489Y-53091D01*
X51501Y-53127D01*
X51501Y-53151D01*
X51489Y-53186D01*
X51465Y-53210D01*
X51441Y-53222D01*
X51394Y-53234D01*
X51358Y-53234D01*
X51310Y-53222D01*
X51286Y-53210D01*
X51263Y-53186D01*
X51251Y-53151D01*
X51251Y-53127D01*
X51263Y-53091D01*
X51275Y-53079D01*
X51334Y-52865D02*
X51501Y-52865D01*
X51239Y-52925D02*
X51417Y-52984D01*
X51417Y-52829D01*
X51251Y-52686D02*
X51251Y-52663D01*
X51263Y-52639D01*
X51275Y-52627D01*
X51298Y-52615D01*
X51346Y-52603D01*
X51405Y-52603D01*
X51453Y-52615D01*
X51477Y-52627D01*
X51489Y-52639D01*
X51501Y-52663D01*
X51501Y-52686D01*
X51489Y-52710D01*
X51477Y-52722D01*
X51453Y-52734D01*
X51405Y-52746D01*
X51346Y-52746D01*
X51298Y-52734D01*
X51275Y-52722D01*
X51263Y-52710D01*
X51251Y-52686D01*
X51358Y-52460D02*
X51346Y-52484D01*
X51334Y-52496D01*
X51310Y-52508D01*
X51298Y-52508D01*
X51275Y-52496D01*
X51263Y-52484D01*
X51251Y-52460D01*
X51251Y-52413D01*
X51263Y-52389D01*
X51275Y-52377D01*
X51298Y-52365D01*
X51310Y-52365D01*
X51334Y-52377D01*
X51346Y-52389D01*
X51358Y-52413D01*
X51358Y-52460D01*
X51370Y-52484D01*
X51382Y-52496D01*
X51405Y-52508D01*
X51453Y-52508D01*
X51477Y-52496D01*
X51489Y-52484D01*
X51501Y-52460D01*
X51501Y-52413D01*
X51489Y-52389D01*
X51477Y-52377D01*
X51453Y-52365D01*
X51405Y-52365D01*
X51382Y-52377D01*
X51370Y-52389D01*
X51358Y-52413D01*
X62220Y-58851D02*
X62136Y-58732D01*
X62077Y-58851D02*
X62077Y-58601D01*
X62172Y-58601D01*
X62196Y-58613D01*
X62208Y-58625D01*
X62220Y-58648D01*
X62220Y-58684D01*
X62208Y-58708D01*
X62196Y-58720D01*
X62172Y-58732D01*
X62077Y-58732D01*
X62434Y-58601D02*
X62386Y-58601D01*
X62363Y-58613D01*
X62351Y-58625D01*
X62327Y-58660D01*
X62315Y-58708D01*
X62315Y-58803D01*
X62327Y-58827D01*
X62339Y-58839D01*
X62363Y-58851D01*
X62410Y-58851D01*
X62434Y-58839D01*
X62446Y-58827D01*
X62458Y-58803D01*
X62458Y-58744D01*
X62446Y-58720D01*
X62434Y-58708D01*
X62410Y-58696D01*
X62363Y-58696D01*
X62339Y-58708D01*
X62327Y-58720D01*
X62315Y-58744D01*
X62696Y-58851D02*
X62553Y-58851D01*
X62625Y-58851D02*
X62625Y-58601D01*
X62601Y-58636D01*
X62577Y-58660D01*
X62553Y-58672D01*
X62851Y-58601D02*
X62875Y-58601D01*
X62898Y-58613D01*
X62910Y-58625D01*
X62922Y-58648D01*
X62934Y-58696D01*
X62934Y-58755D01*
X62922Y-58803D01*
X62910Y-58827D01*
X62898Y-58839D01*
X62875Y-58851D01*
X62851Y-58851D01*
X62827Y-58839D01*
X62815Y-58827D01*
X62803Y-58803D01*
X62791Y-58755D01*
X62791Y-58696D01*
X62803Y-58648D01*
X62815Y-58625D01*
X62827Y-58613D01*
X62851Y-58601D01*
X62220Y-57501D02*
X62136Y-57382D01*
X62077Y-57501D02*
X62077Y-57251D01*
X62172Y-57251D01*
X62196Y-57263D01*
X62208Y-57275D01*
X62220Y-57298D01*
X62220Y-57334D01*
X62208Y-57358D01*
X62196Y-57370D01*
X62172Y-57382D01*
X62077Y-57382D01*
X62434Y-57251D02*
X62386Y-57251D01*
X62363Y-57263D01*
X62351Y-57275D01*
X62327Y-57310D01*
X62315Y-57358D01*
X62315Y-57453D01*
X62327Y-57477D01*
X62339Y-57489D01*
X62363Y-57501D01*
X62410Y-57501D01*
X62434Y-57489D01*
X62446Y-57477D01*
X62458Y-57453D01*
X62458Y-57394D01*
X62446Y-57370D01*
X62434Y-57358D01*
X62410Y-57346D01*
X62363Y-57346D01*
X62339Y-57358D01*
X62327Y-57370D01*
X62315Y-57394D01*
X62696Y-57501D02*
X62553Y-57501D01*
X62625Y-57501D02*
X62625Y-57251D01*
X62601Y-57286D01*
X62577Y-57310D01*
X62553Y-57322D01*
X62779Y-57251D02*
X62934Y-57251D01*
X62851Y-57346D01*
X62886Y-57346D01*
X62910Y-57358D01*
X62922Y-57370D01*
X62934Y-57394D01*
X62934Y-57453D01*
X62922Y-57477D01*
X62910Y-57489D01*
X62886Y-57501D01*
X62815Y-57501D01*
X62791Y-57489D01*
X62779Y-57477D01*
X68220Y-58177D02*
X68208Y-58189D01*
X68172Y-58201D01*
X68148Y-58201D01*
X68113Y-58189D01*
X68089Y-58165D01*
X68077Y-58141D01*
X68065Y-58094D01*
X68065Y-58058D01*
X68077Y-58010D01*
X68089Y-57986D01*
X68113Y-57963D01*
X68148Y-57951D01*
X68172Y-57951D01*
X68208Y-57963D01*
X68220Y-57975D01*
X68434Y-57951D02*
X68386Y-57951D01*
X68363Y-57963D01*
X68351Y-57975D01*
X68327Y-58010D01*
X68315Y-58058D01*
X68315Y-58153D01*
X68327Y-58177D01*
X68339Y-58189D01*
X68363Y-58201D01*
X68410Y-58201D01*
X68434Y-58189D01*
X68446Y-58177D01*
X68458Y-58153D01*
X68458Y-58094D01*
X68446Y-58070D01*
X68434Y-58058D01*
X68410Y-58046D01*
X68363Y-58046D01*
X68339Y-58058D01*
X68327Y-58070D01*
X68315Y-58094D01*
X68613Y-57951D02*
X68636Y-57951D01*
X68660Y-57963D01*
X68672Y-57975D01*
X68684Y-57998D01*
X68696Y-58046D01*
X68696Y-58105D01*
X68684Y-58153D01*
X68672Y-58177D01*
X68660Y-58189D01*
X68636Y-58201D01*
X68613Y-58201D01*
X68589Y-58189D01*
X68577Y-58177D01*
X68565Y-58153D01*
X68553Y-58105D01*
X68553Y-58046D01*
X68565Y-57998D01*
X68577Y-57975D01*
X68589Y-57963D01*
X68613Y-57951D01*
X68910Y-58034D02*
X68910Y-58201D01*
X68851Y-57939D02*
X68791Y-58117D01*
X68946Y-58117D01*
X49101Y-60229D02*
X48982Y-60313D01*
X49101Y-60372D02*
X48851Y-60372D01*
X48851Y-60277D01*
X48863Y-60253D01*
X48875Y-60241D01*
X48898Y-60229D01*
X48934Y-60229D01*
X48958Y-60241D01*
X48970Y-60253D01*
X48982Y-60277D01*
X48982Y-60372D01*
X48934Y-60015D02*
X49101Y-60015D01*
X48839Y-60075D02*
X49017Y-60134D01*
X49017Y-59979D01*
X48851Y-59836D02*
X48851Y-59813D01*
X48863Y-59789D01*
X48875Y-59777D01*
X48898Y-59765D01*
X48946Y-59753D01*
X49005Y-59753D01*
X49053Y-59765D01*
X49077Y-59777D01*
X49089Y-59789D01*
X49101Y-59813D01*
X49101Y-59836D01*
X49089Y-59860D01*
X49077Y-59872D01*
X49053Y-59884D01*
X49005Y-59896D01*
X48946Y-59896D01*
X48898Y-59884D01*
X48875Y-59872D01*
X48863Y-59860D01*
X48851Y-59836D01*
X48958Y-59610D02*
X48946Y-59634D01*
X48934Y-59646D01*
X48910Y-59658D01*
X48898Y-59658D01*
X48875Y-59646D01*
X48863Y-59634D01*
X48851Y-59610D01*
X48851Y-59563D01*
X48863Y-59539D01*
X48875Y-59527D01*
X48898Y-59515D01*
X48910Y-59515D01*
X48934Y-59527D01*
X48946Y-59539D01*
X48958Y-59563D01*
X48958Y-59610D01*
X48970Y-59634D01*
X48982Y-59646D01*
X49005Y-59658D01*
X49053Y-59658D01*
X49077Y-59646D01*
X49089Y-59634D01*
X49101Y-59610D01*
X49101Y-59563D01*
X49089Y-59539D01*
X49077Y-59527D01*
X49053Y-59515D01*
X49005Y-59515D01*
X48982Y-59527D01*
X48970Y-59539D01*
X48958Y-59563D01*
X47920Y-55251D02*
X47836Y-55132D01*
X47777Y-55251D02*
X47777Y-55001D01*
X47872Y-55001D01*
X47896Y-55013D01*
X47908Y-55025D01*
X47920Y-55048D01*
X47920Y-55084D01*
X47908Y-55108D01*
X47896Y-55120D01*
X47872Y-55132D01*
X47777Y-55132D01*
X48134Y-55084D02*
X48134Y-55251D01*
X48075Y-54989D02*
X48015Y-55167D01*
X48170Y-55167D01*
X48396Y-55251D02*
X48253Y-55251D01*
X48325Y-55251D02*
X48325Y-55001D01*
X48301Y-55036D01*
X48277Y-55060D01*
X48253Y-55072D01*
X48491Y-55025D02*
X48503Y-55013D01*
X48527Y-55001D01*
X48586Y-55001D01*
X48610Y-55013D01*
X48622Y-55025D01*
X48634Y-55048D01*
X48634Y-55072D01*
X48622Y-55108D01*
X48479Y-55251D01*
X48634Y-55251D01*
X47970Y-56001D02*
X47886Y-55882D01*
X47827Y-56001D02*
X47827Y-55751D01*
X47922Y-55751D01*
X47946Y-55763D01*
X47958Y-55775D01*
X47970Y-55798D01*
X47970Y-55834D01*
X47958Y-55858D01*
X47946Y-55870D01*
X47922Y-55882D01*
X47827Y-55882D01*
X48184Y-55834D02*
X48184Y-56001D01*
X48125Y-55739D02*
X48065Y-55917D01*
X48220Y-55917D01*
X48446Y-56001D02*
X48303Y-56001D01*
X48375Y-56001D02*
X48375Y-55751D01*
X48351Y-55786D01*
X48327Y-55810D01*
X48303Y-55822D01*
X48684Y-56001D02*
X48541Y-56001D01*
X48613Y-56001D02*
X48613Y-55751D01*
X48589Y-55786D01*
X48565Y-55810D01*
X48541Y-55822D01*
X48370Y-58901D02*
X48286Y-58782D01*
X48227Y-58901D02*
X48227Y-58651D01*
X48322Y-58651D01*
X48346Y-58663D01*
X48358Y-58675D01*
X48370Y-58698D01*
X48370Y-58734D01*
X48358Y-58758D01*
X48346Y-58770D01*
X48322Y-58782D01*
X48227Y-58782D01*
X48584Y-58734D02*
X48584Y-58901D01*
X48525Y-58639D02*
X48465Y-58817D01*
X48620Y-58817D01*
X48846Y-58901D02*
X48703Y-58901D01*
X48775Y-58901D02*
X48775Y-58651D01*
X48751Y-58686D01*
X48727Y-58710D01*
X48703Y-58722D01*
X49001Y-58651D02*
X49025Y-58651D01*
X49048Y-58663D01*
X49060Y-58675D01*
X49072Y-58698D01*
X49084Y-58746D01*
X49084Y-58805D01*
X49072Y-58853D01*
X49060Y-58877D01*
X49048Y-58889D01*
X49025Y-58901D01*
X49001Y-58901D01*
X48977Y-58889D01*
X48965Y-58877D01*
X48953Y-58853D01*
X48941Y-58805D01*
X48941Y-58746D01*
X48953Y-58698D01*
X48965Y-58675D01*
X48977Y-58663D01*
X49001Y-58651D01*
X48370Y-57451D02*
X48286Y-57332D01*
X48227Y-57451D02*
X48227Y-57201D01*
X48322Y-57201D01*
X48346Y-57213D01*
X48358Y-57225D01*
X48370Y-57248D01*
X48370Y-57284D01*
X48358Y-57308D01*
X48346Y-57320D01*
X48322Y-57332D01*
X48227Y-57332D01*
X48584Y-57284D02*
X48584Y-57451D01*
X48525Y-57189D02*
X48465Y-57367D01*
X48620Y-57367D01*
X48846Y-57451D02*
X48703Y-57451D01*
X48775Y-57451D02*
X48775Y-57201D01*
X48751Y-57236D01*
X48727Y-57260D01*
X48703Y-57272D01*
X48929Y-57201D02*
X49084Y-57201D01*
X49001Y-57296D01*
X49036Y-57296D01*
X49060Y-57308D01*
X49072Y-57320D01*
X49084Y-57344D01*
X49084Y-57403D01*
X49072Y-57427D01*
X49060Y-57439D01*
X49036Y-57451D01*
X48965Y-57451D01*
X48941Y-57439D01*
X48929Y-57427D01*
X54470Y-58227D02*
X54458Y-58239D01*
X54422Y-58251D01*
X54398Y-58251D01*
X54363Y-58239D01*
X54339Y-58215D01*
X54327Y-58191D01*
X54315Y-58144D01*
X54315Y-58108D01*
X54327Y-58060D01*
X54339Y-58036D01*
X54363Y-58013D01*
X54398Y-58001D01*
X54422Y-58001D01*
X54458Y-58013D01*
X54470Y-58025D01*
X54684Y-58084D02*
X54684Y-58251D01*
X54625Y-57989D02*
X54565Y-58167D01*
X54720Y-58167D01*
X54863Y-58001D02*
X54886Y-58001D01*
X54910Y-58013D01*
X54922Y-58025D01*
X54934Y-58048D01*
X54946Y-58096D01*
X54946Y-58155D01*
X54934Y-58203D01*
X54922Y-58227D01*
X54910Y-58239D01*
X54886Y-58251D01*
X54863Y-58251D01*
X54839Y-58239D01*
X54827Y-58227D01*
X54815Y-58203D01*
X54803Y-58155D01*
X54803Y-58096D01*
X54815Y-58048D01*
X54827Y-58025D01*
X54839Y-58013D01*
X54863Y-58001D01*
X55160Y-58084D02*
X55160Y-58251D01*
X55101Y-57989D02*
X55041Y-58167D01*
X55196Y-58167D01*
X54920Y-55951D02*
X54836Y-55832D01*
X54777Y-55951D02*
X54777Y-55701D01*
X54872Y-55701D01*
X54896Y-55713D01*
X54908Y-55725D01*
X54920Y-55748D01*
X54920Y-55784D01*
X54908Y-55808D01*
X54896Y-55820D01*
X54872Y-55832D01*
X54777Y-55832D01*
X55146Y-55701D02*
X55027Y-55701D01*
X55015Y-55820D01*
X55027Y-55808D01*
X55051Y-55796D01*
X55110Y-55796D01*
X55134Y-55808D01*
X55146Y-55820D01*
X55158Y-55844D01*
X55158Y-55903D01*
X55146Y-55927D01*
X55134Y-55939D01*
X55110Y-55951D01*
X55051Y-55951D01*
X55027Y-55939D01*
X55015Y-55927D01*
X55396Y-55951D02*
X55253Y-55951D01*
X55325Y-55951D02*
X55325Y-55701D01*
X55301Y-55736D01*
X55277Y-55760D01*
X55253Y-55772D01*
X55634Y-55951D02*
X55491Y-55951D01*
X55563Y-55951D02*
X55563Y-55701D01*
X55539Y-55736D01*
X55515Y-55760D01*
X55491Y-55772D01*
X54048Y-60174D02*
X53928Y-60257D01*
X54048Y-60317D02*
X53798Y-60317D01*
X53798Y-60222D01*
X53809Y-60198D01*
X53821Y-60186D01*
X53845Y-60174D01*
X53881Y-60174D01*
X53905Y-60186D01*
X53917Y-60198D01*
X53928Y-60222D01*
X53928Y-60317D01*
X53881Y-59960D02*
X54048Y-59960D01*
X53786Y-60019D02*
X53964Y-60079D01*
X53964Y-59924D01*
X53798Y-59781D02*
X53798Y-59757D01*
X53809Y-59734D01*
X53821Y-59722D01*
X53845Y-59710D01*
X53893Y-59698D01*
X53952Y-59698D01*
X54000Y-59710D01*
X54024Y-59722D01*
X54036Y-59734D01*
X54048Y-59757D01*
X54048Y-59781D01*
X54036Y-59805D01*
X54024Y-59817D01*
X54000Y-59829D01*
X53952Y-59841D01*
X53893Y-59841D01*
X53845Y-59829D01*
X53821Y-59817D01*
X53809Y-59805D01*
X53798Y-59781D01*
X54048Y-59460D02*
X54048Y-59603D01*
X54048Y-59531D02*
X53798Y-59531D01*
X53833Y-59555D01*
X53857Y-59579D01*
X53869Y-59603D01*
X54470Y-55601D02*
X54386Y-55482D01*
X54327Y-55601D02*
X54327Y-55351D01*
X54422Y-55351D01*
X54446Y-55363D01*
X54458Y-55375D01*
X54470Y-55398D01*
X54470Y-55434D01*
X54458Y-55458D01*
X54446Y-55470D01*
X54422Y-55482D01*
X54327Y-55482D01*
X54684Y-55434D02*
X54684Y-55601D01*
X54625Y-55339D02*
X54565Y-55517D01*
X54720Y-55517D01*
X54863Y-55351D02*
X54886Y-55351D01*
X54910Y-55363D01*
X54922Y-55375D01*
X54934Y-55398D01*
X54946Y-55446D01*
X54946Y-55505D01*
X54934Y-55553D01*
X54922Y-55577D01*
X54910Y-55589D01*
X54886Y-55601D01*
X54863Y-55601D01*
X54839Y-55589D01*
X54827Y-55577D01*
X54815Y-55553D01*
X54803Y-55505D01*
X54803Y-55446D01*
X54815Y-55398D01*
X54827Y-55375D01*
X54839Y-55363D01*
X54863Y-55351D01*
X55172Y-55351D02*
X55053Y-55351D01*
X55041Y-55470D01*
X55053Y-55458D01*
X55077Y-55446D01*
X55136Y-55446D01*
X55160Y-55458D01*
X55172Y-55470D01*
X55184Y-55494D01*
X55184Y-55553D01*
X55172Y-55577D01*
X55160Y-55589D01*
X55136Y-55601D01*
X55077Y-55601D01*
X55053Y-55589D01*
X55041Y-55577D01*
X54470Y-56601D02*
X54386Y-56482D01*
X54327Y-56601D02*
X54327Y-56351D01*
X54422Y-56351D01*
X54446Y-56363D01*
X54458Y-56375D01*
X54470Y-56398D01*
X54470Y-56434D01*
X54458Y-56458D01*
X54446Y-56470D01*
X54422Y-56482D01*
X54327Y-56482D01*
X54684Y-56434D02*
X54684Y-56601D01*
X54625Y-56339D02*
X54565Y-56517D01*
X54720Y-56517D01*
X54863Y-56351D02*
X54886Y-56351D01*
X54910Y-56363D01*
X54922Y-56375D01*
X54934Y-56398D01*
X54946Y-56446D01*
X54946Y-56505D01*
X54934Y-56553D01*
X54922Y-56577D01*
X54910Y-56589D01*
X54886Y-56601D01*
X54863Y-56601D01*
X54839Y-56589D01*
X54827Y-56577D01*
X54815Y-56553D01*
X54803Y-56505D01*
X54803Y-56446D01*
X54815Y-56398D01*
X54827Y-56375D01*
X54839Y-56363D01*
X54863Y-56351D01*
X55160Y-56434D02*
X55160Y-56601D01*
X55101Y-56339D02*
X55041Y-56517D01*
X55196Y-56517D01*
X54520Y-58951D02*
X54436Y-58832D01*
X54377Y-58951D02*
X54377Y-58701D01*
X54472Y-58701D01*
X54496Y-58713D01*
X54508Y-58725D01*
X54520Y-58748D01*
X54520Y-58784D01*
X54508Y-58808D01*
X54496Y-58820D01*
X54472Y-58832D01*
X54377Y-58832D01*
X54734Y-58784D02*
X54734Y-58951D01*
X54675Y-58689D02*
X54615Y-58867D01*
X54770Y-58867D01*
X54913Y-58701D02*
X54936Y-58701D01*
X54960Y-58713D01*
X54972Y-58725D01*
X54984Y-58748D01*
X54996Y-58796D01*
X54996Y-58855D01*
X54984Y-58903D01*
X54972Y-58927D01*
X54960Y-58939D01*
X54936Y-58951D01*
X54913Y-58951D01*
X54889Y-58939D01*
X54877Y-58927D01*
X54865Y-58903D01*
X54853Y-58855D01*
X54853Y-58796D01*
X54865Y-58748D01*
X54877Y-58725D01*
X54889Y-58713D01*
X54913Y-58701D01*
X55079Y-58701D02*
X55234Y-58701D01*
X55151Y-58796D01*
X55186Y-58796D01*
X55210Y-58808D01*
X55222Y-58820D01*
X55234Y-58844D01*
X55234Y-58903D01*
X55222Y-58927D01*
X55210Y-58939D01*
X55186Y-58951D01*
X55115Y-58951D01*
X55091Y-58939D01*
X55079Y-58927D01*
X54420Y-57501D02*
X54336Y-57382D01*
X54277Y-57501D02*
X54277Y-57251D01*
X54372Y-57251D01*
X54396Y-57263D01*
X54408Y-57275D01*
X54420Y-57298D01*
X54420Y-57334D01*
X54408Y-57358D01*
X54396Y-57370D01*
X54372Y-57382D01*
X54277Y-57382D01*
X54634Y-57334D02*
X54634Y-57501D01*
X54575Y-57239D02*
X54515Y-57417D01*
X54670Y-57417D01*
X54813Y-57251D02*
X54836Y-57251D01*
X54860Y-57263D01*
X54872Y-57275D01*
X54884Y-57298D01*
X54896Y-57346D01*
X54896Y-57405D01*
X54884Y-57453D01*
X54872Y-57477D01*
X54860Y-57489D01*
X54836Y-57501D01*
X54813Y-57501D01*
X54789Y-57489D01*
X54777Y-57477D01*
X54765Y-57453D01*
X54753Y-57405D01*
X54753Y-57346D01*
X54765Y-57298D01*
X54777Y-57275D01*
X54789Y-57263D01*
X54813Y-57251D01*
X55110Y-57251D02*
X55063Y-57251D01*
X55039Y-57263D01*
X55027Y-57275D01*
X55003Y-57310D01*
X54991Y-57358D01*
X54991Y-57453D01*
X55003Y-57477D01*
X55015Y-57489D01*
X55039Y-57501D01*
X55086Y-57501D01*
X55110Y-57489D01*
X55122Y-57477D01*
X55134Y-57453D01*
X55134Y-57394D01*
X55122Y-57370D01*
X55110Y-57358D01*
X55086Y-57346D01*
X55039Y-57346D01*
X55015Y-57358D01*
X55003Y-57370D01*
X54991Y-57394D01*
X61770Y-56151D02*
X61686Y-56032D01*
X61627Y-56151D02*
X61627Y-55901D01*
X61722Y-55901D01*
X61746Y-55913D01*
X61758Y-55925D01*
X61770Y-55948D01*
X61770Y-55984D01*
X61758Y-56008D01*
X61746Y-56020D01*
X61722Y-56032D01*
X61627Y-56032D01*
X61984Y-55901D02*
X61936Y-55901D01*
X61913Y-55913D01*
X61901Y-55925D01*
X61877Y-55960D01*
X61865Y-56008D01*
X61865Y-56103D01*
X61877Y-56127D01*
X61889Y-56139D01*
X61913Y-56151D01*
X61960Y-56151D01*
X61984Y-56139D01*
X61996Y-56127D01*
X62008Y-56103D01*
X62008Y-56044D01*
X61996Y-56020D01*
X61984Y-56008D01*
X61960Y-55996D01*
X61913Y-55996D01*
X61889Y-56008D01*
X61877Y-56020D01*
X61865Y-56044D01*
X62246Y-56151D02*
X62103Y-56151D01*
X62175Y-56151D02*
X62175Y-55901D01*
X62151Y-55936D01*
X62127Y-55960D01*
X62103Y-55972D01*
X62484Y-56151D02*
X62341Y-56151D01*
X62413Y-56151D02*
X62413Y-55901D01*
X62389Y-55936D01*
X62365Y-55960D01*
X62341Y-55972D01*
X67870Y-54751D02*
X67786Y-54632D01*
X67727Y-54751D02*
X67727Y-54501D01*
X67822Y-54501D01*
X67846Y-54513D01*
X67858Y-54525D01*
X67870Y-54548D01*
X67870Y-54584D01*
X67858Y-54608D01*
X67846Y-54620D01*
X67822Y-54632D01*
X67727Y-54632D01*
X68084Y-54501D02*
X68036Y-54501D01*
X68013Y-54513D01*
X68001Y-54525D01*
X67977Y-54560D01*
X67965Y-54608D01*
X67965Y-54703D01*
X67977Y-54727D01*
X67989Y-54739D01*
X68013Y-54751D01*
X68060Y-54751D01*
X68084Y-54739D01*
X68096Y-54727D01*
X68108Y-54703D01*
X68108Y-54644D01*
X68096Y-54620D01*
X68084Y-54608D01*
X68060Y-54596D01*
X68013Y-54596D01*
X67989Y-54608D01*
X67977Y-54620D01*
X67965Y-54644D01*
X68263Y-54501D02*
X68286Y-54501D01*
X68310Y-54513D01*
X68322Y-54525D01*
X68334Y-54548D01*
X68346Y-54596D01*
X68346Y-54655D01*
X68334Y-54703D01*
X68322Y-54727D01*
X68310Y-54739D01*
X68286Y-54751D01*
X68263Y-54751D01*
X68239Y-54739D01*
X68227Y-54727D01*
X68215Y-54703D01*
X68203Y-54655D01*
X68203Y-54596D01*
X68215Y-54548D01*
X68227Y-54525D01*
X68239Y-54513D01*
X68263Y-54501D01*
X68572Y-54501D02*
X68453Y-54501D01*
X68441Y-54620D01*
X68453Y-54608D01*
X68477Y-54596D01*
X68536Y-54596D01*
X68560Y-54608D01*
X68572Y-54620D01*
X68584Y-54644D01*
X68584Y-54703D01*
X68572Y-54727D01*
X68560Y-54739D01*
X68536Y-54751D01*
X68477Y-54751D01*
X68453Y-54739D01*
X68441Y-54727D01*
X67370Y-56801D02*
X67286Y-56682D01*
X67227Y-56801D02*
X67227Y-56551D01*
X67322Y-56551D01*
X67346Y-56563D01*
X67358Y-56575D01*
X67370Y-56598D01*
X67370Y-56634D01*
X67358Y-56658D01*
X67346Y-56670D01*
X67322Y-56682D01*
X67227Y-56682D01*
X67584Y-56551D02*
X67536Y-56551D01*
X67513Y-56563D01*
X67501Y-56575D01*
X67477Y-56610D01*
X67465Y-56658D01*
X67465Y-56753D01*
X67477Y-56777D01*
X67489Y-56789D01*
X67513Y-56801D01*
X67560Y-56801D01*
X67584Y-56789D01*
X67596Y-56777D01*
X67608Y-56753D01*
X67608Y-56694D01*
X67596Y-56670D01*
X67584Y-56658D01*
X67560Y-56646D01*
X67513Y-56646D01*
X67489Y-56658D01*
X67477Y-56670D01*
X67465Y-56694D01*
X67763Y-56551D02*
X67786Y-56551D01*
X67810Y-56563D01*
X67822Y-56575D01*
X67834Y-56598D01*
X67846Y-56646D01*
X67846Y-56705D01*
X67834Y-56753D01*
X67822Y-56777D01*
X67810Y-56789D01*
X67786Y-56801D01*
X67763Y-56801D01*
X67739Y-56789D01*
X67727Y-56777D01*
X67715Y-56753D01*
X67703Y-56705D01*
X67703Y-56646D01*
X67715Y-56598D01*
X67727Y-56575D01*
X67739Y-56563D01*
X67763Y-56551D01*
X68060Y-56634D02*
X68060Y-56801D01*
X68001Y-56539D02*
X67941Y-56717D01*
X68096Y-56717D01*
X68170Y-58951D02*
X68086Y-58832D01*
X68027Y-58951D02*
X68027Y-58701D01*
X68122Y-58701D01*
X68146Y-58713D01*
X68158Y-58725D01*
X68170Y-58748D01*
X68170Y-58784D01*
X68158Y-58808D01*
X68146Y-58820D01*
X68122Y-58832D01*
X68027Y-58832D01*
X68384Y-58701D02*
X68336Y-58701D01*
X68313Y-58713D01*
X68301Y-58725D01*
X68277Y-58760D01*
X68265Y-58808D01*
X68265Y-58903D01*
X68277Y-58927D01*
X68289Y-58939D01*
X68313Y-58951D01*
X68360Y-58951D01*
X68384Y-58939D01*
X68396Y-58927D01*
X68408Y-58903D01*
X68408Y-58844D01*
X68396Y-58820D01*
X68384Y-58808D01*
X68360Y-58796D01*
X68313Y-58796D01*
X68289Y-58808D01*
X68277Y-58820D01*
X68265Y-58844D01*
X68563Y-58701D02*
X68586Y-58701D01*
X68610Y-58713D01*
X68622Y-58725D01*
X68634Y-58748D01*
X68646Y-58796D01*
X68646Y-58855D01*
X68634Y-58903D01*
X68622Y-58927D01*
X68610Y-58939D01*
X68586Y-58951D01*
X68563Y-58951D01*
X68539Y-58939D01*
X68527Y-58927D01*
X68515Y-58903D01*
X68503Y-58855D01*
X68503Y-58796D01*
X68515Y-58748D01*
X68527Y-58725D01*
X68539Y-58713D01*
X68563Y-58701D01*
X68729Y-58701D02*
X68884Y-58701D01*
X68801Y-58796D01*
X68836Y-58796D01*
X68860Y-58808D01*
X68872Y-58820D01*
X68884Y-58844D01*
X68884Y-58903D01*
X68872Y-58927D01*
X68860Y-58939D01*
X68836Y-58951D01*
X68765Y-58951D01*
X68741Y-58939D01*
X68729Y-58927D01*
X68220Y-57451D02*
X68136Y-57332D01*
X68077Y-57451D02*
X68077Y-57201D01*
X68172Y-57201D01*
X68196Y-57213D01*
X68208Y-57225D01*
X68220Y-57248D01*
X68220Y-57284D01*
X68208Y-57308D01*
X68196Y-57320D01*
X68172Y-57332D01*
X68077Y-57332D01*
X68434Y-57201D02*
X68386Y-57201D01*
X68363Y-57213D01*
X68351Y-57225D01*
X68327Y-57260D01*
X68315Y-57308D01*
X68315Y-57403D01*
X68327Y-57427D01*
X68339Y-57439D01*
X68363Y-57451D01*
X68410Y-57451D01*
X68434Y-57439D01*
X68446Y-57427D01*
X68458Y-57403D01*
X68458Y-57344D01*
X68446Y-57320D01*
X68434Y-57308D01*
X68410Y-57296D01*
X68363Y-57296D01*
X68339Y-57308D01*
X68327Y-57320D01*
X68315Y-57344D01*
X68613Y-57201D02*
X68636Y-57201D01*
X68660Y-57213D01*
X68672Y-57225D01*
X68684Y-57248D01*
X68696Y-57296D01*
X68696Y-57355D01*
X68684Y-57403D01*
X68672Y-57427D01*
X68660Y-57439D01*
X68636Y-57451D01*
X68613Y-57451D01*
X68589Y-57439D01*
X68577Y-57427D01*
X68565Y-57403D01*
X68553Y-57355D01*
X68553Y-57296D01*
X68565Y-57248D01*
X68577Y-57225D01*
X68589Y-57213D01*
X68613Y-57201D01*
X68910Y-57201D02*
X68863Y-57201D01*
X68839Y-57213D01*
X68827Y-57225D01*
X68803Y-57260D01*
X68791Y-57308D01*
X68791Y-57403D01*
X68803Y-57427D01*
X68815Y-57439D01*
X68839Y-57451D01*
X68886Y-57451D01*
X68910Y-57439D01*
X68922Y-57427D01*
X68934Y-57403D01*
X68934Y-57344D01*
X68922Y-57320D01*
X68910Y-57308D01*
X68886Y-57296D01*
X68839Y-57296D01*
X68815Y-57308D01*
X68803Y-57320D01*
X68791Y-57344D01*
X68951Y-60179D02*
X68832Y-60263D01*
X68951Y-60322D02*
X68701Y-60322D01*
X68701Y-60227D01*
X68713Y-60203D01*
X68725Y-60191D01*
X68748Y-60179D01*
X68784Y-60179D01*
X68808Y-60191D01*
X68820Y-60203D01*
X68832Y-60227D01*
X68832Y-60322D01*
X68701Y-59965D02*
X68701Y-60013D01*
X68713Y-60036D01*
X68725Y-60048D01*
X68760Y-60072D01*
X68808Y-60084D01*
X68903Y-60084D01*
X68927Y-60072D01*
X68939Y-60060D01*
X68951Y-60036D01*
X68951Y-59989D01*
X68939Y-59965D01*
X68927Y-59953D01*
X68903Y-59941D01*
X68844Y-59941D01*
X68820Y-59953D01*
X68808Y-59965D01*
X68796Y-59989D01*
X68796Y-60036D01*
X68808Y-60060D01*
X68820Y-60072D01*
X68844Y-60084D01*
X68701Y-59786D02*
X68701Y-59763D01*
X68713Y-59739D01*
X68725Y-59727D01*
X68748Y-59715D01*
X68796Y-59703D01*
X68855Y-59703D01*
X68903Y-59715D01*
X68927Y-59727D01*
X68939Y-59739D01*
X68951Y-59763D01*
X68951Y-59786D01*
X68939Y-59810D01*
X68927Y-59822D01*
X68903Y-59834D01*
X68855Y-59846D01*
X68796Y-59846D01*
X68748Y-59834D01*
X68725Y-59822D01*
X68713Y-59810D01*
X68701Y-59786D01*
X68951Y-59465D02*
X68951Y-59608D01*
X68951Y-59536D02*
X68701Y-59536D01*
X68736Y-59560D01*
X68760Y-59584D01*
X68772Y-59608D01*
X57277Y-53079D02*
X57289Y-53091D01*
X57301Y-53127D01*
X57301Y-53151D01*
X57289Y-53186D01*
X57265Y-53210D01*
X57241Y-53222D01*
X57194Y-53234D01*
X57158Y-53234D01*
X57110Y-53222D01*
X57086Y-53210D01*
X57063Y-53186D01*
X57051Y-53151D01*
X57051Y-53127D01*
X57063Y-53091D01*
X57075Y-53079D01*
X57051Y-52853D02*
X57051Y-52972D01*
X57170Y-52984D01*
X57158Y-52972D01*
X57146Y-52948D01*
X57146Y-52889D01*
X57158Y-52865D01*
X57170Y-52853D01*
X57194Y-52841D01*
X57253Y-52841D01*
X57277Y-52853D01*
X57289Y-52865D01*
X57301Y-52889D01*
X57301Y-52948D01*
X57289Y-52972D01*
X57277Y-52984D01*
X57051Y-52686D02*
X57051Y-52663D01*
X57063Y-52639D01*
X57075Y-52627D01*
X57098Y-52615D01*
X57146Y-52603D01*
X57205Y-52603D01*
X57253Y-52615D01*
X57277Y-52627D01*
X57289Y-52639D01*
X57301Y-52663D01*
X57301Y-52686D01*
X57289Y-52710D01*
X57277Y-52722D01*
X57253Y-52734D01*
X57205Y-52746D01*
X57146Y-52746D01*
X57098Y-52734D01*
X57075Y-52722D01*
X57063Y-52710D01*
X57051Y-52686D01*
X57158Y-52460D02*
X57146Y-52484D01*
X57134Y-52496D01*
X57110Y-52508D01*
X57098Y-52508D01*
X57075Y-52496D01*
X57063Y-52484D01*
X57051Y-52460D01*
X57051Y-52413D01*
X57063Y-52389D01*
X57075Y-52377D01*
X57098Y-52365D01*
X57110Y-52365D01*
X57134Y-52377D01*
X57146Y-52389D01*
X57158Y-52413D01*
X57158Y-52460D01*
X57170Y-52484D01*
X57182Y-52496D01*
X57205Y-52508D01*
X57253Y-52508D01*
X57277Y-52496D01*
X57289Y-52484D01*
X57301Y-52460D01*
X57301Y-52413D01*
X57289Y-52389D01*
X57277Y-52377D01*
X57253Y-52365D01*
X57205Y-52365D01*
X57182Y-52377D01*
X57170Y-52389D01*
X57158Y-52413D01*
X58101Y-53079D02*
X57982Y-53163D01*
X58101Y-53222D02*
X57851Y-53222D01*
X57851Y-53127D01*
X57863Y-53103D01*
X57875Y-53091D01*
X57898Y-53079D01*
X57934Y-53079D01*
X57958Y-53091D01*
X57970Y-53103D01*
X57982Y-53127D01*
X57982Y-53222D01*
X57851Y-52853D02*
X57851Y-52972D01*
X57970Y-52984D01*
X57958Y-52972D01*
X57946Y-52948D01*
X57946Y-52889D01*
X57958Y-52865D01*
X57970Y-52853D01*
X57994Y-52841D01*
X58053Y-52841D01*
X58077Y-52853D01*
X58089Y-52865D01*
X58101Y-52889D01*
X58101Y-52948D01*
X58089Y-52972D01*
X58077Y-52984D01*
X58101Y-52603D02*
X58101Y-52746D01*
X58101Y-52675D02*
X57851Y-52675D01*
X57886Y-52698D01*
X57910Y-52722D01*
X57922Y-52746D01*
X57934Y-52389D02*
X58101Y-52389D01*
X57839Y-52448D02*
X58017Y-52508D01*
X58017Y-52353D01*
X59477Y-53029D02*
X59489Y-53041D01*
X59501Y-53077D01*
X59501Y-53101D01*
X59489Y-53136D01*
X59465Y-53160D01*
X59441Y-53172D01*
X59394Y-53184D01*
X59358Y-53184D01*
X59310Y-53172D01*
X59286Y-53160D01*
X59263Y-53136D01*
X59251Y-53101D01*
X59251Y-53077D01*
X59263Y-53041D01*
X59275Y-53029D01*
X59251Y-52803D02*
X59251Y-52922D01*
X59370Y-52934D01*
X59358Y-52922D01*
X59346Y-52898D01*
X59346Y-52839D01*
X59358Y-52815D01*
X59370Y-52803D01*
X59394Y-52791D01*
X59453Y-52791D01*
X59477Y-52803D01*
X59489Y-52815D01*
X59501Y-52839D01*
X59501Y-52898D01*
X59489Y-52922D01*
X59477Y-52934D01*
X59251Y-52636D02*
X59251Y-52613D01*
X59263Y-52589D01*
X59275Y-52577D01*
X59298Y-52565D01*
X59346Y-52553D01*
X59405Y-52553D01*
X59453Y-52565D01*
X59477Y-52577D01*
X59489Y-52589D01*
X59501Y-52613D01*
X59501Y-52636D01*
X59489Y-52660D01*
X59477Y-52672D01*
X59453Y-52684D01*
X59405Y-52696D01*
X59346Y-52696D01*
X59298Y-52684D01*
X59275Y-52672D01*
X59263Y-52660D01*
X59251Y-52636D01*
X59251Y-52327D02*
X59251Y-52446D01*
X59370Y-52458D01*
X59358Y-52446D01*
X59346Y-52422D01*
X59346Y-52363D01*
X59358Y-52339D01*
X59370Y-52327D01*
X59394Y-52315D01*
X59453Y-52315D01*
X59477Y-52327D01*
X59489Y-52339D01*
X59501Y-52363D01*
X59501Y-52422D01*
X59489Y-52446D01*
X59477Y-52458D01*
X58651Y-53079D02*
X58532Y-53163D01*
X58651Y-53222D02*
X58401Y-53222D01*
X58401Y-53127D01*
X58413Y-53103D01*
X58425Y-53091D01*
X58448Y-53079D01*
X58484Y-53079D01*
X58508Y-53091D01*
X58520Y-53103D01*
X58532Y-53127D01*
X58532Y-53222D01*
X58401Y-52853D02*
X58401Y-52972D01*
X58520Y-52984D01*
X58508Y-52972D01*
X58496Y-52948D01*
X58496Y-52889D01*
X58508Y-52865D01*
X58520Y-52853D01*
X58544Y-52841D01*
X58603Y-52841D01*
X58627Y-52853D01*
X58639Y-52865D01*
X58651Y-52889D01*
X58651Y-52948D01*
X58639Y-52972D01*
X58627Y-52984D01*
X58401Y-52686D02*
X58401Y-52663D01*
X58413Y-52639D01*
X58425Y-52627D01*
X58448Y-52615D01*
X58496Y-52603D01*
X58555Y-52603D01*
X58603Y-52615D01*
X58627Y-52627D01*
X58639Y-52639D01*
X58651Y-52663D01*
X58651Y-52686D01*
X58639Y-52710D01*
X58627Y-52722D01*
X58603Y-52734D01*
X58555Y-52746D01*
X58496Y-52746D01*
X58448Y-52734D01*
X58425Y-52722D01*
X58413Y-52710D01*
X58401Y-52686D01*
X58401Y-52520D02*
X58401Y-52353D01*
X58651Y-52460D01*
X55120Y-57827D02*
X55108Y-57839D01*
X55072Y-57851D01*
X55048Y-57851D01*
X55013Y-57839D01*
X54989Y-57815D01*
X54977Y-57791D01*
X54965Y-57744D01*
X54965Y-57708D01*
X54977Y-57660D01*
X54989Y-57636D01*
X55013Y-57613D01*
X55048Y-57601D01*
X55072Y-57601D01*
X55108Y-57613D01*
X55120Y-57625D01*
X55346Y-57601D02*
X55227Y-57601D01*
X55215Y-57720D01*
X55227Y-57708D01*
X55251Y-57696D01*
X55310Y-57696D01*
X55334Y-57708D01*
X55346Y-57720D01*
X55358Y-57744D01*
X55358Y-57803D01*
X55346Y-57827D01*
X55334Y-57839D01*
X55310Y-57851D01*
X55251Y-57851D01*
X55227Y-57839D01*
X55215Y-57827D01*
X55513Y-57601D02*
X55536Y-57601D01*
X55560Y-57613D01*
X55572Y-57625D01*
X55584Y-57648D01*
X55596Y-57696D01*
X55596Y-57755D01*
X55584Y-57803D01*
X55572Y-57827D01*
X55560Y-57839D01*
X55536Y-57851D01*
X55513Y-57851D01*
X55489Y-57839D01*
X55477Y-57827D01*
X55465Y-57803D01*
X55453Y-57755D01*
X55453Y-57696D01*
X55465Y-57648D01*
X55477Y-57625D01*
X55489Y-57613D01*
X55513Y-57601D01*
X55679Y-57601D02*
X55846Y-57601D01*
X55739Y-57851D01*
X61120Y-57451D02*
X61036Y-57332D01*
X60977Y-57451D02*
X60977Y-57201D01*
X61072Y-57201D01*
X61096Y-57213D01*
X61108Y-57225D01*
X61120Y-57248D01*
X61120Y-57284D01*
X61108Y-57308D01*
X61096Y-57320D01*
X61072Y-57332D01*
X60977Y-57332D01*
X61346Y-57201D02*
X61227Y-57201D01*
X61215Y-57320D01*
X61227Y-57308D01*
X61251Y-57296D01*
X61310Y-57296D01*
X61334Y-57308D01*
X61346Y-57320D01*
X61358Y-57344D01*
X61358Y-57403D01*
X61346Y-57427D01*
X61334Y-57439D01*
X61310Y-57451D01*
X61251Y-57451D01*
X61227Y-57439D01*
X61215Y-57427D01*
X61513Y-57201D02*
X61536Y-57201D01*
X61560Y-57213D01*
X61572Y-57225D01*
X61584Y-57248D01*
X61596Y-57296D01*
X61596Y-57355D01*
X61584Y-57403D01*
X61572Y-57427D01*
X61560Y-57439D01*
X61536Y-57451D01*
X61513Y-57451D01*
X61489Y-57439D01*
X61477Y-57427D01*
X61465Y-57403D01*
X61453Y-57355D01*
X61453Y-57296D01*
X61465Y-57248D01*
X61477Y-57225D01*
X61489Y-57213D01*
X61513Y-57201D01*
X61810Y-57201D02*
X61763Y-57201D01*
X61739Y-57213D01*
X61727Y-57225D01*
X61703Y-57260D01*
X61691Y-57308D01*
X61691Y-57403D01*
X61703Y-57427D01*
X61715Y-57439D01*
X61739Y-57451D01*
X61786Y-57451D01*
X61810Y-57439D01*
X61822Y-57427D01*
X61834Y-57403D01*
X61834Y-57344D01*
X61822Y-57320D01*
X61810Y-57308D01*
X61786Y-57296D01*
X61739Y-57296D01*
X61715Y-57308D01*
X61703Y-57320D01*
X61691Y-57344D01*
X55751Y-59579D02*
X55632Y-59663D01*
X55751Y-59722D02*
X55501Y-59722D01*
X55501Y-59627D01*
X55513Y-59603D01*
X55525Y-59591D01*
X55548Y-59579D01*
X55584Y-59579D01*
X55608Y-59591D01*
X55620Y-59603D01*
X55632Y-59627D01*
X55632Y-59722D01*
X55501Y-59353D02*
X55501Y-59472D01*
X55620Y-59484D01*
X55608Y-59472D01*
X55596Y-59448D01*
X55596Y-59389D01*
X55608Y-59365D01*
X55620Y-59353D01*
X55644Y-59341D01*
X55703Y-59341D01*
X55727Y-59353D01*
X55739Y-59365D01*
X55751Y-59389D01*
X55751Y-59448D01*
X55739Y-59472D01*
X55727Y-59484D01*
X55501Y-59186D02*
X55501Y-59163D01*
X55513Y-59139D01*
X55525Y-59127D01*
X55548Y-59115D01*
X55596Y-59103D01*
X55655Y-59103D01*
X55703Y-59115D01*
X55727Y-59127D01*
X55739Y-59139D01*
X55751Y-59163D01*
X55751Y-59186D01*
X55739Y-59210D01*
X55727Y-59222D01*
X55703Y-59234D01*
X55655Y-59246D01*
X55596Y-59246D01*
X55548Y-59234D01*
X55525Y-59222D01*
X55513Y-59210D01*
X55501Y-59186D01*
X55608Y-58960D02*
X55596Y-58984D01*
X55584Y-58996D01*
X55560Y-59008D01*
X55548Y-59008D01*
X55525Y-58996D01*
X55513Y-58984D01*
X55501Y-58960D01*
X55501Y-58913D01*
X55513Y-58889D01*
X55525Y-58877D01*
X55548Y-58865D01*
X55560Y-58865D01*
X55584Y-58877D01*
X55596Y-58889D01*
X55608Y-58913D01*
X55608Y-58960D01*
X55620Y-58984D01*
X55632Y-58996D01*
X55655Y-59008D01*
X55703Y-59008D01*
X55727Y-58996D01*
X55739Y-58984D01*
X55751Y-58960D01*
X55751Y-58913D01*
X55739Y-58889D01*
X55727Y-58877D01*
X55703Y-58865D01*
X55655Y-58865D01*
X55632Y-58877D01*
X55620Y-58889D01*
X55608Y-58913D01*
X54970Y-55001D02*
X54886Y-54882D01*
X54827Y-55001D02*
X54827Y-54751D01*
X54922Y-54751D01*
X54946Y-54763D01*
X54958Y-54775D01*
X54970Y-54798D01*
X54970Y-54834D01*
X54958Y-54858D01*
X54946Y-54870D01*
X54922Y-54882D01*
X54827Y-54882D01*
X55196Y-54751D02*
X55077Y-54751D01*
X55065Y-54870D01*
X55077Y-54858D01*
X55101Y-54846D01*
X55160Y-54846D01*
X55184Y-54858D01*
X55196Y-54870D01*
X55208Y-54894D01*
X55208Y-54953D01*
X55196Y-54977D01*
X55184Y-54989D01*
X55160Y-55001D01*
X55101Y-55001D01*
X55077Y-54989D01*
X55065Y-54977D01*
X55446Y-55001D02*
X55303Y-55001D01*
X55375Y-55001D02*
X55375Y-54751D01*
X55351Y-54786D01*
X55327Y-54810D01*
X55303Y-54822D01*
X55541Y-54775D02*
X55553Y-54763D01*
X55577Y-54751D01*
X55636Y-54751D01*
X55660Y-54763D01*
X55672Y-54775D01*
X55684Y-54798D01*
X55684Y-54822D01*
X55672Y-54858D01*
X55529Y-55001D01*
X55684Y-55001D01*
X39420Y-58426D02*
X39336Y-58307D01*
X39277Y-58426D02*
X39277Y-58176D01*
X39372Y-58176D01*
X39396Y-58188D01*
X39408Y-58200D01*
X39420Y-58223D01*
X39420Y-58259D01*
X39408Y-58283D01*
X39396Y-58295D01*
X39372Y-58307D01*
X39277Y-58307D01*
X39503Y-58176D02*
X39658Y-58176D01*
X39575Y-58271D01*
X39610Y-58271D01*
X39634Y-58283D01*
X39646Y-58295D01*
X39658Y-58319D01*
X39658Y-58378D01*
X39646Y-58402D01*
X39634Y-58414D01*
X39610Y-58426D01*
X39539Y-58426D01*
X39515Y-58414D01*
X39503Y-58402D01*
X39896Y-58426D02*
X39753Y-58426D01*
X39825Y-58426D02*
X39825Y-58176D01*
X39801Y-58211D01*
X39777Y-58235D01*
X39753Y-58247D01*
X40051Y-58176D02*
X40075Y-58176D01*
X40098Y-58188D01*
X40110Y-58200D01*
X40122Y-58223D01*
X40134Y-58271D01*
X40134Y-58330D01*
X40122Y-58378D01*
X40110Y-58402D01*
X40098Y-58414D01*
X40075Y-58426D01*
X40051Y-58426D01*
X40027Y-58414D01*
X40015Y-58402D01*
X40003Y-58378D01*
X39991Y-58330D01*
X39991Y-58271D01*
X40003Y-58223D01*
X40015Y-58200D01*
X40027Y-58188D01*
X40051Y-58176D01*
X55170Y-58601D02*
X55086Y-58482D01*
X55027Y-58601D02*
X55027Y-58351D01*
X55122Y-58351D01*
X55146Y-58363D01*
X55158Y-58375D01*
X55170Y-58398D01*
X55170Y-58434D01*
X55158Y-58458D01*
X55146Y-58470D01*
X55122Y-58482D01*
X55027Y-58482D01*
X55396Y-58351D02*
X55277Y-58351D01*
X55265Y-58470D01*
X55277Y-58458D01*
X55301Y-58446D01*
X55360Y-58446D01*
X55384Y-58458D01*
X55396Y-58470D01*
X55408Y-58494D01*
X55408Y-58553D01*
X55396Y-58577D01*
X55384Y-58589D01*
X55360Y-58601D01*
X55301Y-58601D01*
X55277Y-58589D01*
X55265Y-58577D01*
X55646Y-58601D02*
X55503Y-58601D01*
X55575Y-58601D02*
X55575Y-58351D01*
X55551Y-58386D01*
X55527Y-58410D01*
X55503Y-58422D01*
X55801Y-58351D02*
X55825Y-58351D01*
X55848Y-58363D01*
X55860Y-58375D01*
X55872Y-58398D01*
X55884Y-58446D01*
X55884Y-58505D01*
X55872Y-58553D01*
X55860Y-58577D01*
X55848Y-58589D01*
X55825Y-58601D01*
X55801Y-58601D01*
X55777Y-58589D01*
X55765Y-58577D01*
X55753Y-58553D01*
X55741Y-58505D01*
X55741Y-58446D01*
X55753Y-58398D01*
X55765Y-58375D01*
X55777Y-58363D01*
X55801Y-58351D01*
X55120Y-57101D02*
X55036Y-56982D01*
X54977Y-57101D02*
X54977Y-56851D01*
X55072Y-56851D01*
X55096Y-56863D01*
X55108Y-56875D01*
X55120Y-56898D01*
X55120Y-56934D01*
X55108Y-56958D01*
X55096Y-56970D01*
X55072Y-56982D01*
X54977Y-56982D01*
X55346Y-56851D02*
X55227Y-56851D01*
X55215Y-56970D01*
X55227Y-56958D01*
X55251Y-56946D01*
X55310Y-56946D01*
X55334Y-56958D01*
X55346Y-56970D01*
X55358Y-56994D01*
X55358Y-57053D01*
X55346Y-57077D01*
X55334Y-57089D01*
X55310Y-57101D01*
X55251Y-57101D01*
X55227Y-57089D01*
X55215Y-57077D01*
X55596Y-57101D02*
X55453Y-57101D01*
X55525Y-57101D02*
X55525Y-56851D01*
X55501Y-56886D01*
X55477Y-56910D01*
X55453Y-56922D01*
X55679Y-56851D02*
X55834Y-56851D01*
X55751Y-56946D01*
X55786Y-56946D01*
X55810Y-56958D01*
X55822Y-56970D01*
X55834Y-56994D01*
X55834Y-57053D01*
X55822Y-57077D01*
X55810Y-57089D01*
X55786Y-57101D01*
X55715Y-57101D01*
X55691Y-57089D01*
X55679Y-57077D01*
X61070Y-58227D02*
X61058Y-58239D01*
X61022Y-58251D01*
X60998Y-58251D01*
X60963Y-58239D01*
X60939Y-58215D01*
X60927Y-58191D01*
X60915Y-58144D01*
X60915Y-58108D01*
X60927Y-58060D01*
X60939Y-58036D01*
X60963Y-58013D01*
X60998Y-58001D01*
X61022Y-58001D01*
X61058Y-58013D01*
X61070Y-58025D01*
X61296Y-58001D02*
X61177Y-58001D01*
X61165Y-58120D01*
X61177Y-58108D01*
X61201Y-58096D01*
X61260Y-58096D01*
X61284Y-58108D01*
X61296Y-58120D01*
X61308Y-58144D01*
X61308Y-58203D01*
X61296Y-58227D01*
X61284Y-58239D01*
X61260Y-58251D01*
X61201Y-58251D01*
X61177Y-58239D01*
X61165Y-58227D01*
X61463Y-58001D02*
X61486Y-58001D01*
X61510Y-58013D01*
X61522Y-58025D01*
X61534Y-58048D01*
X61546Y-58096D01*
X61546Y-58155D01*
X61534Y-58203D01*
X61522Y-58227D01*
X61510Y-58239D01*
X61486Y-58251D01*
X61463Y-58251D01*
X61439Y-58239D01*
X61427Y-58227D01*
X61415Y-58203D01*
X61403Y-58155D01*
X61403Y-58096D01*
X61415Y-58048D01*
X61427Y-58025D01*
X61439Y-58013D01*
X61463Y-58001D01*
X61760Y-58084D02*
X61760Y-58251D01*
X61701Y-57989D02*
X61641Y-58167D01*
X61796Y-58167D01*
X61251Y-59829D02*
X61132Y-59913D01*
X61251Y-59972D02*
X61001Y-59972D01*
X61001Y-59877D01*
X61013Y-59853D01*
X61025Y-59841D01*
X61048Y-59829D01*
X61084Y-59829D01*
X61108Y-59841D01*
X61120Y-59853D01*
X61132Y-59877D01*
X61132Y-59972D01*
X61001Y-59603D02*
X61001Y-59722D01*
X61120Y-59734D01*
X61108Y-59722D01*
X61096Y-59698D01*
X61096Y-59639D01*
X61108Y-59615D01*
X61120Y-59603D01*
X61144Y-59591D01*
X61203Y-59591D01*
X61227Y-59603D01*
X61239Y-59615D01*
X61251Y-59639D01*
X61251Y-59698D01*
X61239Y-59722D01*
X61227Y-59734D01*
X61001Y-59436D02*
X61001Y-59413D01*
X61013Y-59389D01*
X61025Y-59377D01*
X61048Y-59365D01*
X61096Y-59353D01*
X61155Y-59353D01*
X61203Y-59365D01*
X61227Y-59377D01*
X61239Y-59389D01*
X61251Y-59413D01*
X61251Y-59436D01*
X61239Y-59460D01*
X61227Y-59472D01*
X61203Y-59484D01*
X61155Y-59496D01*
X61096Y-59496D01*
X61048Y-59484D01*
X61025Y-59472D01*
X61013Y-59460D01*
X61001Y-59436D01*
X61251Y-59115D02*
X61251Y-59258D01*
X61251Y-59186D02*
X61001Y-59186D01*
X61036Y-59210D01*
X61060Y-59234D01*
X61072Y-59258D01*
X61470Y-55651D02*
X61386Y-55532D01*
X61327Y-55651D02*
X61327Y-55401D01*
X61422Y-55401D01*
X61446Y-55413D01*
X61458Y-55425D01*
X61470Y-55448D01*
X61470Y-55484D01*
X61458Y-55508D01*
X61446Y-55520D01*
X61422Y-55532D01*
X61327Y-55532D01*
X61696Y-55401D02*
X61577Y-55401D01*
X61565Y-55520D01*
X61577Y-55508D01*
X61601Y-55496D01*
X61660Y-55496D01*
X61684Y-55508D01*
X61696Y-55520D01*
X61708Y-55544D01*
X61708Y-55603D01*
X61696Y-55627D01*
X61684Y-55639D01*
X61660Y-55651D01*
X61601Y-55651D01*
X61577Y-55639D01*
X61565Y-55627D01*
X61863Y-55401D02*
X61886Y-55401D01*
X61910Y-55413D01*
X61922Y-55425D01*
X61934Y-55448D01*
X61946Y-55496D01*
X61946Y-55555D01*
X61934Y-55603D01*
X61922Y-55627D01*
X61910Y-55639D01*
X61886Y-55651D01*
X61863Y-55651D01*
X61839Y-55639D01*
X61827Y-55627D01*
X61815Y-55603D01*
X61803Y-55555D01*
X61803Y-55496D01*
X61815Y-55448D01*
X61827Y-55425D01*
X61839Y-55413D01*
X61863Y-55401D01*
X62172Y-55401D02*
X62053Y-55401D01*
X62041Y-55520D01*
X62053Y-55508D01*
X62077Y-55496D01*
X62136Y-55496D01*
X62160Y-55508D01*
X62172Y-55520D01*
X62184Y-55544D01*
X62184Y-55603D01*
X62172Y-55627D01*
X62160Y-55639D01*
X62136Y-55651D01*
X62077Y-55651D01*
X62053Y-55639D01*
X62041Y-55627D01*
X61420Y-56701D02*
X61336Y-56582D01*
X61277Y-56701D02*
X61277Y-56451D01*
X61372Y-56451D01*
X61396Y-56463D01*
X61408Y-56475D01*
X61420Y-56498D01*
X61420Y-56534D01*
X61408Y-56558D01*
X61396Y-56570D01*
X61372Y-56582D01*
X61277Y-56582D01*
X61646Y-56451D02*
X61527Y-56451D01*
X61515Y-56570D01*
X61527Y-56558D01*
X61551Y-56546D01*
X61610Y-56546D01*
X61634Y-56558D01*
X61646Y-56570D01*
X61658Y-56594D01*
X61658Y-56653D01*
X61646Y-56677D01*
X61634Y-56689D01*
X61610Y-56701D01*
X61551Y-56701D01*
X61527Y-56689D01*
X61515Y-56677D01*
X61813Y-56451D02*
X61836Y-56451D01*
X61860Y-56463D01*
X61872Y-56475D01*
X61884Y-56498D01*
X61896Y-56546D01*
X61896Y-56605D01*
X61884Y-56653D01*
X61872Y-56677D01*
X61860Y-56689D01*
X61836Y-56701D01*
X61813Y-56701D01*
X61789Y-56689D01*
X61777Y-56677D01*
X61765Y-56653D01*
X61753Y-56605D01*
X61753Y-56546D01*
X61765Y-56498D01*
X61777Y-56475D01*
X61789Y-56463D01*
X61813Y-56451D01*
X62110Y-56534D02*
X62110Y-56701D01*
X62051Y-56439D02*
X61991Y-56617D01*
X62146Y-56617D01*
X61220Y-59051D02*
X61136Y-58932D01*
X61077Y-59051D02*
X61077Y-58801D01*
X61172Y-58801D01*
X61196Y-58813D01*
X61208Y-58825D01*
X61220Y-58848D01*
X61220Y-58884D01*
X61208Y-58908D01*
X61196Y-58920D01*
X61172Y-58932D01*
X61077Y-58932D01*
X61446Y-58801D02*
X61327Y-58801D01*
X61315Y-58920D01*
X61327Y-58908D01*
X61351Y-58896D01*
X61410Y-58896D01*
X61434Y-58908D01*
X61446Y-58920D01*
X61458Y-58944D01*
X61458Y-59003D01*
X61446Y-59027D01*
X61434Y-59039D01*
X61410Y-59051D01*
X61351Y-59051D01*
X61327Y-59039D01*
X61315Y-59027D01*
X61613Y-58801D02*
X61636Y-58801D01*
X61660Y-58813D01*
X61672Y-58825D01*
X61684Y-58848D01*
X61696Y-58896D01*
X61696Y-58955D01*
X61684Y-59003D01*
X61672Y-59027D01*
X61660Y-59039D01*
X61636Y-59051D01*
X61613Y-59051D01*
X61589Y-59039D01*
X61577Y-59027D01*
X61565Y-59003D01*
X61553Y-58955D01*
X61553Y-58896D01*
X61565Y-58848D01*
X61577Y-58825D01*
X61589Y-58813D01*
X61613Y-58801D01*
X61779Y-58801D02*
X61934Y-58801D01*
X61851Y-58896D01*
X61886Y-58896D01*
X61910Y-58908D01*
X61922Y-58920D01*
X61934Y-58944D01*
X61934Y-59003D01*
X61922Y-59027D01*
X61910Y-59039D01*
X61886Y-59051D01*
X61815Y-59051D01*
X61791Y-59039D01*
X61779Y-59027D01*
X66627Y-43579D02*
X66639Y-43591D01*
X66651Y-43627D01*
X66651Y-43651D01*
X66639Y-43686D01*
X66615Y-43710D01*
X66591Y-43722D01*
X66544Y-43734D01*
X66508Y-43734D01*
X66460Y-43722D01*
X66436Y-43710D01*
X66413Y-43686D01*
X66401Y-43651D01*
X66401Y-43627D01*
X66413Y-43591D01*
X66425Y-43579D01*
X66651Y-43341D02*
X66651Y-43484D01*
X66651Y-43413D02*
X66401Y-43413D01*
X66436Y-43436D01*
X66460Y-43460D01*
X66472Y-43484D01*
X66651Y-43103D02*
X66651Y-43246D01*
X66651Y-43175D02*
X66401Y-43175D01*
X66436Y-43198D01*
X66460Y-43222D01*
X66472Y-43246D01*
X66401Y-42889D02*
X66401Y-42936D01*
X66413Y-42960D01*
X66425Y-42972D01*
X66460Y-42996D01*
X66508Y-43008D01*
X66603Y-43008D01*
X66627Y-42996D01*
X66639Y-42984D01*
X66651Y-42960D01*
X66651Y-42913D01*
X66639Y-42889D01*
X66627Y-42877D01*
X66603Y-42865D01*
X66544Y-42865D01*
X66520Y-42877D01*
X66508Y-42889D01*
X66496Y-42913D01*
X66496Y-42960D01*
X66508Y-42984D01*
X66520Y-42996D01*
X66544Y-43008D01*
X61770Y-55201D02*
X61686Y-55082D01*
X61627Y-55201D02*
X61627Y-54951D01*
X61722Y-54951D01*
X61746Y-54963D01*
X61758Y-54975D01*
X61770Y-54998D01*
X61770Y-55034D01*
X61758Y-55058D01*
X61746Y-55070D01*
X61722Y-55082D01*
X61627Y-55082D01*
X61984Y-54951D02*
X61936Y-54951D01*
X61913Y-54963D01*
X61901Y-54975D01*
X61877Y-55010D01*
X61865Y-55058D01*
X61865Y-55153D01*
X61877Y-55177D01*
X61889Y-55189D01*
X61913Y-55201D01*
X61960Y-55201D01*
X61984Y-55189D01*
X61996Y-55177D01*
X62008Y-55153D01*
X62008Y-55094D01*
X61996Y-55070D01*
X61984Y-55058D01*
X61960Y-55046D01*
X61913Y-55046D01*
X61889Y-55058D01*
X61877Y-55070D01*
X61865Y-55094D01*
X62246Y-55201D02*
X62103Y-55201D01*
X62175Y-55201D02*
X62175Y-54951D01*
X62151Y-54986D01*
X62127Y-55010D01*
X62103Y-55022D01*
X62341Y-54975D02*
X62353Y-54963D01*
X62377Y-54951D01*
X62436Y-54951D01*
X62460Y-54963D01*
X62472Y-54975D01*
X62484Y-54998D01*
X62484Y-55022D01*
X62472Y-55058D01*
X62329Y-55201D01*
X62484Y-55201D01*
X62801Y-60079D02*
X62682Y-60163D01*
X62801Y-60222D02*
X62551Y-60222D01*
X62551Y-60127D01*
X62563Y-60103D01*
X62575Y-60091D01*
X62598Y-60079D01*
X62634Y-60079D01*
X62658Y-60091D01*
X62670Y-60103D01*
X62682Y-60127D01*
X62682Y-60222D01*
X62551Y-59865D02*
X62551Y-59913D01*
X62563Y-59936D01*
X62575Y-59948D01*
X62610Y-59972D01*
X62658Y-59984D01*
X62753Y-59984D01*
X62777Y-59972D01*
X62789Y-59960D01*
X62801Y-59936D01*
X62801Y-59889D01*
X62789Y-59865D01*
X62777Y-59853D01*
X62753Y-59841D01*
X62694Y-59841D01*
X62670Y-59853D01*
X62658Y-59865D01*
X62646Y-59889D01*
X62646Y-59936D01*
X62658Y-59960D01*
X62670Y-59972D01*
X62694Y-59984D01*
X62551Y-59686D02*
X62551Y-59663D01*
X62563Y-59639D01*
X62575Y-59627D01*
X62598Y-59615D01*
X62646Y-59603D01*
X62705Y-59603D01*
X62753Y-59615D01*
X62777Y-59627D01*
X62789Y-59639D01*
X62801Y-59663D01*
X62801Y-59686D01*
X62789Y-59710D01*
X62777Y-59722D01*
X62753Y-59734D01*
X62705Y-59746D01*
X62646Y-59746D01*
X62598Y-59734D01*
X62575Y-59722D01*
X62563Y-59710D01*
X62551Y-59686D01*
X62658Y-59460D02*
X62646Y-59484D01*
X62634Y-59496D01*
X62610Y-59508D01*
X62598Y-59508D01*
X62575Y-59496D01*
X62563Y-59484D01*
X62551Y-59460D01*
X62551Y-59413D01*
X62563Y-59389D01*
X62575Y-59377D01*
X62598Y-59365D01*
X62610Y-59365D01*
X62634Y-59377D01*
X62646Y-59389D01*
X62658Y-59413D01*
X62658Y-59460D01*
X62670Y-59484D01*
X62682Y-59496D01*
X62705Y-59508D01*
X62753Y-59508D01*
X62777Y-59496D01*
X62789Y-59484D01*
X62801Y-59460D01*
X62801Y-59413D01*
X62789Y-59389D01*
X62777Y-59377D01*
X62753Y-59365D01*
X62705Y-59365D01*
X62682Y-59377D01*
X62670Y-59389D01*
X62658Y-59413D01*
X62170Y-58127D02*
X62158Y-58139D01*
X62122Y-58151D01*
X62098Y-58151D01*
X62063Y-58139D01*
X62039Y-58115D01*
X62027Y-58091D01*
X62015Y-58044D01*
X62015Y-58008D01*
X62027Y-57960D01*
X62039Y-57936D01*
X62063Y-57913D01*
X62098Y-57901D01*
X62122Y-57901D01*
X62158Y-57913D01*
X62170Y-57925D01*
X62384Y-57901D02*
X62336Y-57901D01*
X62313Y-57913D01*
X62301Y-57925D01*
X62277Y-57960D01*
X62265Y-58008D01*
X62265Y-58103D01*
X62277Y-58127D01*
X62289Y-58139D01*
X62313Y-58151D01*
X62360Y-58151D01*
X62384Y-58139D01*
X62396Y-58127D01*
X62408Y-58103D01*
X62408Y-58044D01*
X62396Y-58020D01*
X62384Y-58008D01*
X62360Y-57996D01*
X62313Y-57996D01*
X62289Y-58008D01*
X62277Y-58020D01*
X62265Y-58044D01*
X62563Y-57901D02*
X62586Y-57901D01*
X62610Y-57913D01*
X62622Y-57925D01*
X62634Y-57948D01*
X62646Y-57996D01*
X62646Y-58055D01*
X62634Y-58103D01*
X62622Y-58127D01*
X62610Y-58139D01*
X62586Y-58151D01*
X62563Y-58151D01*
X62539Y-58139D01*
X62527Y-58127D01*
X62515Y-58103D01*
X62503Y-58055D01*
X62503Y-57996D01*
X62515Y-57948D01*
X62527Y-57925D01*
X62539Y-57913D01*
X62563Y-57901D01*
X62729Y-57901D02*
X62896Y-57901D01*
X62789Y-58151D01*
X65701Y-53079D02*
X65582Y-53163D01*
X65701Y-53222D02*
X65451Y-53222D01*
X65451Y-53127D01*
X65463Y-53103D01*
X65475Y-53091D01*
X65498Y-53079D01*
X65534Y-53079D01*
X65558Y-53091D01*
X65570Y-53103D01*
X65582Y-53127D01*
X65582Y-53222D01*
X65451Y-52865D02*
X65451Y-52913D01*
X65463Y-52936D01*
X65475Y-52948D01*
X65510Y-52972D01*
X65558Y-52984D01*
X65653Y-52984D01*
X65677Y-52972D01*
X65689Y-52960D01*
X65701Y-52936D01*
X65701Y-52889D01*
X65689Y-52865D01*
X65677Y-52853D01*
X65653Y-52841D01*
X65594Y-52841D01*
X65570Y-52853D01*
X65558Y-52865D01*
X65546Y-52889D01*
X65546Y-52936D01*
X65558Y-52960D01*
X65570Y-52972D01*
X65594Y-52984D01*
X65451Y-52686D02*
X65451Y-52663D01*
X65463Y-52639D01*
X65475Y-52627D01*
X65498Y-52615D01*
X65546Y-52603D01*
X65605Y-52603D01*
X65653Y-52615D01*
X65677Y-52627D01*
X65689Y-52639D01*
X65701Y-52663D01*
X65701Y-52686D01*
X65689Y-52710D01*
X65677Y-52722D01*
X65653Y-52734D01*
X65605Y-52746D01*
X65546Y-52746D01*
X65498Y-52734D01*
X65475Y-52722D01*
X65463Y-52710D01*
X65451Y-52686D01*
X65451Y-52520D02*
X65451Y-52353D01*
X65701Y-52460D01*
X66277Y-53079D02*
X66289Y-53091D01*
X66301Y-53127D01*
X66301Y-53151D01*
X66289Y-53186D01*
X66265Y-53210D01*
X66241Y-53222D01*
X66194Y-53234D01*
X66158Y-53234D01*
X66110Y-53222D01*
X66086Y-53210D01*
X66063Y-53186D01*
X66051Y-53151D01*
X66051Y-53127D01*
X66063Y-53091D01*
X66075Y-53079D01*
X66051Y-52865D02*
X66051Y-52913D01*
X66063Y-52936D01*
X66075Y-52948D01*
X66110Y-52972D01*
X66158Y-52984D01*
X66253Y-52984D01*
X66277Y-52972D01*
X66289Y-52960D01*
X66301Y-52936D01*
X66301Y-52889D01*
X66289Y-52865D01*
X66277Y-52853D01*
X66253Y-52841D01*
X66194Y-52841D01*
X66170Y-52853D01*
X66158Y-52865D01*
X66146Y-52889D01*
X66146Y-52936D01*
X66158Y-52960D01*
X66170Y-52972D01*
X66194Y-52984D01*
X66051Y-52686D02*
X66051Y-52663D01*
X66063Y-52639D01*
X66075Y-52627D01*
X66098Y-52615D01*
X66146Y-52603D01*
X66205Y-52603D01*
X66253Y-52615D01*
X66277Y-52627D01*
X66289Y-52639D01*
X66301Y-52663D01*
X66301Y-52686D01*
X66289Y-52710D01*
X66277Y-52722D01*
X66253Y-52734D01*
X66205Y-52746D01*
X66146Y-52746D01*
X66098Y-52734D01*
X66075Y-52722D01*
X66063Y-52710D01*
X66051Y-52686D01*
X66051Y-52377D02*
X66051Y-52496D01*
X66170Y-52508D01*
X66158Y-52496D01*
X66146Y-52472D01*
X66146Y-52413D01*
X66158Y-52389D01*
X66170Y-52377D01*
X66194Y-52365D01*
X66253Y-52365D01*
X66277Y-52377D01*
X66289Y-52389D01*
X66301Y-52413D01*
X66301Y-52472D01*
X66289Y-52496D01*
X66277Y-52508D01*
X66851Y-45279D02*
X66732Y-45363D01*
X66851Y-45422D02*
X66601Y-45422D01*
X66601Y-45327D01*
X66613Y-45303D01*
X66625Y-45291D01*
X66648Y-45279D01*
X66684Y-45279D01*
X66708Y-45291D01*
X66720Y-45303D01*
X66732Y-45327D01*
X66732Y-45422D01*
X66851Y-45041D02*
X66851Y-45184D01*
X66851Y-45113D02*
X66601Y-45113D01*
X66636Y-45136D01*
X66660Y-45160D01*
X66672Y-45184D01*
X66601Y-44886D02*
X66601Y-44863D01*
X66613Y-44839D01*
X66625Y-44827D01*
X66648Y-44815D01*
X66696Y-44803D01*
X66755Y-44803D01*
X66803Y-44815D01*
X66827Y-44827D01*
X66839Y-44839D01*
X66851Y-44863D01*
X66851Y-44886D01*
X66839Y-44910D01*
X66827Y-44922D01*
X66803Y-44934D01*
X66755Y-44946D01*
X66696Y-44946D01*
X66648Y-44934D01*
X66625Y-44922D01*
X66613Y-44910D01*
X66601Y-44886D01*
X66625Y-44708D02*
X66613Y-44696D01*
X66601Y-44672D01*
X66601Y-44613D01*
X66613Y-44589D01*
X66625Y-44577D01*
X66648Y-44565D01*
X66672Y-44565D01*
X66708Y-44577D01*
X66851Y-44720D01*
X66851Y-44565D01*
X64770Y-51601D02*
X64686Y-51482D01*
X64627Y-51601D02*
X64627Y-51351D01*
X64722Y-51351D01*
X64746Y-51363D01*
X64758Y-51375D01*
X64770Y-51398D01*
X64770Y-51434D01*
X64758Y-51458D01*
X64746Y-51470D01*
X64722Y-51482D01*
X64627Y-51482D01*
X65008Y-51601D02*
X64865Y-51601D01*
X64936Y-51601D02*
X64936Y-51351D01*
X64913Y-51386D01*
X64889Y-51410D01*
X64865Y-51422D01*
X65163Y-51351D02*
X65186Y-51351D01*
X65210Y-51363D01*
X65222Y-51375D01*
X65234Y-51398D01*
X65246Y-51446D01*
X65246Y-51505D01*
X65234Y-51553D01*
X65222Y-51577D01*
X65210Y-51589D01*
X65186Y-51601D01*
X65163Y-51601D01*
X65139Y-51589D01*
X65127Y-51577D01*
X65115Y-51553D01*
X65103Y-51505D01*
X65103Y-51446D01*
X65115Y-51398D01*
X65127Y-51375D01*
X65139Y-51363D01*
X65163Y-51351D01*
X65484Y-51601D02*
X65341Y-51601D01*
X65413Y-51601D02*
X65413Y-51351D01*
X65389Y-51386D01*
X65365Y-51410D01*
X65341Y-51422D01*
X65001Y-53079D02*
X64882Y-53163D01*
X65001Y-53222D02*
X64751Y-53222D01*
X64751Y-53127D01*
X64763Y-53103D01*
X64775Y-53091D01*
X64798Y-53079D01*
X64834Y-53079D01*
X64858Y-53091D01*
X64870Y-53103D01*
X64882Y-53127D01*
X64882Y-53222D01*
X64751Y-52865D02*
X64751Y-52913D01*
X64763Y-52936D01*
X64775Y-52948D01*
X64810Y-52972D01*
X64858Y-52984D01*
X64953Y-52984D01*
X64977Y-52972D01*
X64989Y-52960D01*
X65001Y-52936D01*
X65001Y-52889D01*
X64989Y-52865D01*
X64977Y-52853D01*
X64953Y-52841D01*
X64894Y-52841D01*
X64870Y-52853D01*
X64858Y-52865D01*
X64846Y-52889D01*
X64846Y-52936D01*
X64858Y-52960D01*
X64870Y-52972D01*
X64894Y-52984D01*
X65001Y-52603D02*
X65001Y-52746D01*
X65001Y-52675D02*
X64751Y-52675D01*
X64786Y-52698D01*
X64810Y-52722D01*
X64822Y-52746D01*
X64834Y-52389D02*
X65001Y-52389D01*
X64739Y-52448D02*
X64917Y-52508D01*
X64917Y-52353D01*
X66051Y-48279D02*
X65932Y-48363D01*
X66051Y-48422D02*
X65801Y-48422D01*
X65801Y-48327D01*
X65813Y-48303D01*
X65825Y-48291D01*
X65848Y-48279D01*
X65884Y-48279D01*
X65908Y-48291D01*
X65920Y-48303D01*
X65932Y-48327D01*
X65932Y-48422D01*
X66051Y-48041D02*
X66051Y-48184D01*
X66051Y-48113D02*
X65801Y-48113D01*
X65836Y-48136D01*
X65860Y-48160D01*
X65872Y-48184D01*
X65801Y-47886D02*
X65801Y-47863D01*
X65813Y-47839D01*
X65825Y-47827D01*
X65848Y-47815D01*
X65896Y-47803D01*
X65955Y-47803D01*
X66003Y-47815D01*
X66027Y-47827D01*
X66039Y-47839D01*
X66051Y-47863D01*
X66051Y-47886D01*
X66039Y-47910D01*
X66027Y-47922D01*
X66003Y-47934D01*
X65955Y-47946D01*
X65896Y-47946D01*
X65848Y-47934D01*
X65825Y-47922D01*
X65813Y-47910D01*
X65801Y-47886D01*
X65801Y-47720D02*
X65801Y-47565D01*
X65896Y-47648D01*
X65896Y-47613D01*
X65908Y-47589D01*
X65920Y-47577D01*
X65944Y-47565D01*
X66003Y-47565D01*
X66027Y-47577D01*
X66039Y-47589D01*
X66051Y-47613D01*
X66051Y-47684D01*
X66039Y-47708D01*
X66027Y-47720D01*
X64227Y-53129D02*
X64239Y-53141D01*
X64251Y-53177D01*
X64251Y-53201D01*
X64239Y-53236D01*
X64215Y-53260D01*
X64191Y-53272D01*
X64144Y-53284D01*
X64108Y-53284D01*
X64060Y-53272D01*
X64036Y-53260D01*
X64013Y-53236D01*
X64001Y-53201D01*
X64001Y-53177D01*
X64013Y-53141D01*
X64025Y-53129D01*
X64001Y-52915D02*
X64001Y-52963D01*
X64013Y-52986D01*
X64025Y-52998D01*
X64060Y-53022D01*
X64108Y-53034D01*
X64203Y-53034D01*
X64227Y-53022D01*
X64239Y-53010D01*
X64251Y-52986D01*
X64251Y-52939D01*
X64239Y-52915D01*
X64227Y-52903D01*
X64203Y-52891D01*
X64144Y-52891D01*
X64120Y-52903D01*
X64108Y-52915D01*
X64096Y-52939D01*
X64096Y-52986D01*
X64108Y-53010D01*
X64120Y-53022D01*
X64144Y-53034D01*
X64001Y-52736D02*
X64001Y-52713D01*
X64013Y-52689D01*
X64025Y-52677D01*
X64048Y-52665D01*
X64096Y-52653D01*
X64155Y-52653D01*
X64203Y-52665D01*
X64227Y-52677D01*
X64239Y-52689D01*
X64251Y-52713D01*
X64251Y-52736D01*
X64239Y-52760D01*
X64227Y-52772D01*
X64203Y-52784D01*
X64155Y-52796D01*
X64096Y-52796D01*
X64048Y-52784D01*
X64025Y-52772D01*
X64013Y-52760D01*
X64001Y-52736D01*
X64108Y-52510D02*
X64096Y-52534D01*
X64084Y-52546D01*
X64060Y-52558D01*
X64048Y-52558D01*
X64025Y-52546D01*
X64013Y-52534D01*
X64001Y-52510D01*
X64001Y-52463D01*
X64013Y-52439D01*
X64025Y-52427D01*
X64048Y-52415D01*
X64060Y-52415D01*
X64084Y-52427D01*
X64096Y-52439D01*
X64108Y-52463D01*
X64108Y-52510D01*
X64120Y-52534D01*
X64132Y-52546D01*
X64155Y-52558D01*
X64203Y-52558D01*
X64227Y-52546D01*
X64239Y-52534D01*
X64251Y-52510D01*
X64251Y-52463D01*
X64239Y-52439D01*
X64227Y-52427D01*
X64203Y-52415D01*
X64155Y-52415D01*
X64132Y-52427D01*
X64120Y-52439D01*
X64108Y-52463D01*
X64670Y-43077D02*
X64658Y-43089D01*
X64622Y-43101D01*
X64598Y-43101D01*
X64563Y-43089D01*
X64539Y-43065D01*
X64527Y-43041D01*
X64515Y-42994D01*
X64515Y-42958D01*
X64527Y-42910D01*
X64539Y-42886D01*
X64563Y-42863D01*
X64598Y-42851D01*
X64622Y-42851D01*
X64658Y-42863D01*
X64670Y-42875D01*
X64908Y-43101D02*
X64765Y-43101D01*
X64836Y-43101D02*
X64836Y-42851D01*
X64813Y-42886D01*
X64789Y-42910D01*
X64765Y-42922D01*
X65003Y-42875D02*
X65015Y-42863D01*
X65039Y-42851D01*
X65098Y-42851D01*
X65122Y-42863D01*
X65134Y-42875D01*
X65146Y-42898D01*
X65146Y-42922D01*
X65134Y-42958D01*
X64991Y-43101D01*
X65146Y-43101D01*
X65360Y-42934D02*
X65360Y-43101D01*
X65301Y-42839D02*
X65241Y-43017D01*
X65396Y-43017D01*
X59920Y-42477D02*
X59908Y-42489D01*
X59872Y-42501D01*
X59848Y-42501D01*
X59813Y-42489D01*
X59789Y-42465D01*
X59777Y-42441D01*
X59765Y-42394D01*
X59765Y-42358D01*
X59777Y-42310D01*
X59789Y-42286D01*
X59813Y-42263D01*
X59848Y-42251D01*
X59872Y-42251D01*
X59908Y-42263D01*
X59920Y-42275D01*
X60158Y-42501D02*
X60015Y-42501D01*
X60086Y-42501D02*
X60086Y-42251D01*
X60063Y-42286D01*
X60039Y-42310D01*
X60015Y-42322D01*
X60253Y-42275D02*
X60265Y-42263D01*
X60289Y-42251D01*
X60348Y-42251D01*
X60372Y-42263D01*
X60384Y-42275D01*
X60396Y-42298D01*
X60396Y-42322D01*
X60384Y-42358D01*
X60241Y-42501D01*
X60396Y-42501D01*
X60479Y-42251D02*
X60634Y-42251D01*
X60551Y-42346D01*
X60586Y-42346D01*
X60610Y-42358D01*
X60622Y-42370D01*
X60634Y-42394D01*
X60634Y-42453D01*
X60622Y-42477D01*
X60610Y-42489D01*
X60586Y-42501D01*
X60515Y-42501D01*
X60491Y-42489D01*
X60479Y-42477D01*
X48127Y-54079D02*
X48139Y-54091D01*
X48151Y-54127D01*
X48151Y-54151D01*
X48139Y-54186D01*
X48115Y-54210D01*
X48091Y-54222D01*
X48044Y-54234D01*
X48008Y-54234D01*
X47960Y-54222D01*
X47936Y-54210D01*
X47913Y-54186D01*
X47901Y-54151D01*
X47901Y-54127D01*
X47913Y-54091D01*
X47925Y-54079D01*
X48151Y-53841D02*
X48151Y-53984D01*
X48151Y-53913D02*
X47901Y-53913D01*
X47936Y-53936D01*
X47960Y-53960D01*
X47972Y-53984D01*
X47925Y-53746D02*
X47913Y-53734D01*
X47901Y-53710D01*
X47901Y-53651D01*
X47913Y-53627D01*
X47925Y-53615D01*
X47948Y-53603D01*
X47972Y-53603D01*
X48008Y-53615D01*
X48151Y-53758D01*
X48151Y-53603D01*
X48151Y-53365D02*
X48151Y-53508D01*
X48151Y-53436D02*
X47901Y-53436D01*
X47936Y-53460D01*
X47960Y-53484D01*
X47972Y-53508D01*
X52477Y-46879D02*
X52489Y-46891D01*
X52501Y-46927D01*
X52501Y-46951D01*
X52489Y-46986D01*
X52465Y-47010D01*
X52441Y-47022D01*
X52394Y-47034D01*
X52358Y-47034D01*
X52310Y-47022D01*
X52286Y-47010D01*
X52263Y-46986D01*
X52251Y-46951D01*
X52251Y-46927D01*
X52263Y-46891D01*
X52275Y-46879D01*
X52501Y-46641D02*
X52501Y-46784D01*
X52501Y-46713D02*
X52251Y-46713D01*
X52286Y-46736D01*
X52310Y-46760D01*
X52322Y-46784D01*
X52251Y-46486D02*
X52251Y-46463D01*
X52263Y-46439D01*
X52275Y-46427D01*
X52298Y-46415D01*
X52346Y-46403D01*
X52405Y-46403D01*
X52453Y-46415D01*
X52477Y-46427D01*
X52489Y-46439D01*
X52501Y-46463D01*
X52501Y-46486D01*
X52489Y-46510D01*
X52477Y-46522D01*
X52453Y-46534D01*
X52405Y-46546D01*
X52346Y-46546D01*
X52298Y-46534D01*
X52275Y-46522D01*
X52263Y-46510D01*
X52251Y-46486D01*
X52501Y-46284D02*
X52501Y-46236D01*
X52489Y-46213D01*
X52477Y-46201D01*
X52441Y-46177D01*
X52394Y-46165D01*
X52298Y-46165D01*
X52275Y-46177D01*
X52263Y-46189D01*
X52251Y-46213D01*
X52251Y-46260D01*
X52263Y-46284D01*
X52275Y-46296D01*
X52298Y-46308D01*
X52358Y-46308D01*
X52382Y-46296D01*
X52394Y-46284D01*
X52405Y-46260D01*
X52405Y-46213D01*
X52394Y-46189D01*
X52382Y-46177D01*
X52358Y-46165D01*
X40170Y-56201D02*
X40086Y-56082D01*
X40027Y-56201D02*
X40027Y-55951D01*
X40122Y-55951D01*
X40146Y-55963D01*
X40158Y-55975D01*
X40170Y-55998D01*
X40170Y-56034D01*
X40158Y-56058D01*
X40146Y-56070D01*
X40122Y-56082D01*
X40027Y-56082D01*
X40253Y-55951D02*
X40408Y-55951D01*
X40325Y-56046D01*
X40360Y-56046D01*
X40384Y-56058D01*
X40396Y-56070D01*
X40408Y-56094D01*
X40408Y-56153D01*
X40396Y-56177D01*
X40384Y-56189D01*
X40360Y-56201D01*
X40289Y-56201D01*
X40265Y-56189D01*
X40253Y-56177D01*
X40646Y-56201D02*
X40503Y-56201D01*
X40575Y-56201D02*
X40575Y-55951D01*
X40551Y-55986D01*
X40527Y-56010D01*
X40503Y-56022D01*
X40884Y-56201D02*
X40741Y-56201D01*
X40813Y-56201D02*
X40813Y-55951D01*
X40789Y-55986D01*
X40765Y-56010D01*
X40741Y-56022D01*
X41102Y-53554D02*
X41114Y-53566D01*
X41126Y-53602D01*
X41126Y-53626D01*
X41114Y-53661D01*
X41090Y-53685D01*
X41066Y-53697D01*
X41019Y-53709D01*
X40983Y-53709D01*
X40935Y-53697D01*
X40911Y-53685D01*
X40888Y-53661D01*
X40876Y-53626D01*
X40876Y-53602D01*
X40888Y-53566D01*
X40900Y-53554D01*
X40876Y-53471D02*
X40876Y-53316D01*
X40971Y-53400D01*
X40971Y-53364D01*
X40983Y-53340D01*
X40995Y-53328D01*
X41019Y-53316D01*
X41078Y-53316D01*
X41102Y-53328D01*
X41114Y-53340D01*
X41126Y-53364D01*
X41126Y-53435D01*
X41114Y-53459D01*
X41102Y-53471D01*
X40876Y-53161D02*
X40876Y-53138D01*
X40888Y-53114D01*
X40900Y-53102D01*
X40923Y-53090D01*
X40971Y-53078D01*
X41030Y-53078D01*
X41078Y-53090D01*
X41102Y-53102D01*
X41114Y-53114D01*
X41126Y-53138D01*
X41126Y-53161D01*
X41114Y-53185D01*
X41102Y-53197D01*
X41078Y-53209D01*
X41030Y-53221D01*
X40971Y-53221D01*
X40923Y-53209D01*
X40900Y-53197D01*
X40888Y-53185D01*
X40876Y-53161D01*
X40983Y-52935D02*
X40971Y-52959D01*
X40959Y-52971D01*
X40935Y-52983D01*
X40923Y-52983D01*
X40900Y-52971D01*
X40888Y-52959D01*
X40876Y-52935D01*
X40876Y-52888D01*
X40888Y-52864D01*
X40900Y-52852D01*
X40923Y-52840D01*
X40935Y-52840D01*
X40959Y-52852D01*
X40971Y-52864D01*
X40983Y-52888D01*
X40983Y-52935D01*
X40995Y-52959D01*
X41007Y-52971D01*
X41030Y-52983D01*
X41078Y-52983D01*
X41102Y-52971D01*
X41114Y-52959D01*
X41126Y-52935D01*
X41126Y-52888D01*
X41114Y-52864D01*
X41102Y-52852D01*
X41078Y-52840D01*
X41030Y-52840D01*
X41007Y-52852D01*
X40995Y-52864D01*
X40983Y-52888D01*
X42401Y-52779D02*
X42282Y-52863D01*
X42401Y-52922D02*
X42151Y-52922D01*
X42151Y-52827D01*
X42163Y-52803D01*
X42175Y-52791D01*
X42198Y-52779D01*
X42234Y-52779D01*
X42258Y-52791D01*
X42270Y-52803D01*
X42282Y-52827D01*
X42282Y-52922D01*
X42151Y-52696D02*
X42151Y-52541D01*
X42246Y-52625D01*
X42246Y-52589D01*
X42258Y-52565D01*
X42270Y-52553D01*
X42294Y-52541D01*
X42353Y-52541D01*
X42377Y-52553D01*
X42389Y-52565D01*
X42401Y-52589D01*
X42401Y-52660D01*
X42389Y-52684D01*
X42377Y-52696D01*
X42401Y-52303D02*
X42401Y-52446D01*
X42401Y-52375D02*
X42151Y-52375D01*
X42186Y-52398D01*
X42210Y-52422D01*
X42222Y-52446D01*
X42234Y-52089D02*
X42401Y-52089D01*
X42139Y-52148D02*
X42317Y-52208D01*
X42317Y-52053D01*
X43927Y-52779D02*
X43939Y-52791D01*
X43951Y-52827D01*
X43951Y-52851D01*
X43939Y-52886D01*
X43915Y-52910D01*
X43891Y-52922D01*
X43844Y-52934D01*
X43808Y-52934D01*
X43760Y-52922D01*
X43736Y-52910D01*
X43713Y-52886D01*
X43701Y-52851D01*
X43701Y-52827D01*
X43713Y-52791D01*
X43725Y-52779D01*
X43701Y-52696D02*
X43701Y-52541D01*
X43796Y-52625D01*
X43796Y-52589D01*
X43808Y-52565D01*
X43820Y-52553D01*
X43844Y-52541D01*
X43903Y-52541D01*
X43927Y-52553D01*
X43939Y-52565D01*
X43951Y-52589D01*
X43951Y-52660D01*
X43939Y-52684D01*
X43927Y-52696D01*
X43701Y-52386D02*
X43701Y-52363D01*
X43713Y-52339D01*
X43725Y-52327D01*
X43748Y-52315D01*
X43796Y-52303D01*
X43855Y-52303D01*
X43903Y-52315D01*
X43927Y-52327D01*
X43939Y-52339D01*
X43951Y-52363D01*
X43951Y-52386D01*
X43939Y-52410D01*
X43927Y-52422D01*
X43903Y-52434D01*
X43855Y-52446D01*
X43796Y-52446D01*
X43748Y-52434D01*
X43725Y-52422D01*
X43713Y-52410D01*
X43701Y-52386D01*
X43701Y-52077D02*
X43701Y-52196D01*
X43820Y-52208D01*
X43808Y-52196D01*
X43796Y-52172D01*
X43796Y-52113D01*
X43808Y-52089D01*
X43820Y-52077D01*
X43844Y-52065D01*
X43903Y-52065D01*
X43927Y-52077D01*
X43939Y-52089D01*
X43951Y-52113D01*
X43951Y-52172D01*
X43939Y-52196D01*
X43927Y-52208D01*
X43251Y-52779D02*
X43132Y-52863D01*
X43251Y-52922D02*
X43001Y-52922D01*
X43001Y-52827D01*
X43013Y-52803D01*
X43025Y-52791D01*
X43048Y-52779D01*
X43084Y-52779D01*
X43108Y-52791D01*
X43120Y-52803D01*
X43132Y-52827D01*
X43132Y-52922D01*
X43001Y-52696D02*
X43001Y-52541D01*
X43096Y-52625D01*
X43096Y-52589D01*
X43108Y-52565D01*
X43120Y-52553D01*
X43144Y-52541D01*
X43203Y-52541D01*
X43227Y-52553D01*
X43239Y-52565D01*
X43251Y-52589D01*
X43251Y-52660D01*
X43239Y-52684D01*
X43227Y-52696D01*
X43001Y-52386D02*
X43001Y-52363D01*
X43013Y-52339D01*
X43025Y-52327D01*
X43048Y-52315D01*
X43096Y-52303D01*
X43155Y-52303D01*
X43203Y-52315D01*
X43227Y-52327D01*
X43239Y-52339D01*
X43251Y-52363D01*
X43251Y-52386D01*
X43239Y-52410D01*
X43227Y-52422D01*
X43203Y-52434D01*
X43155Y-52446D01*
X43096Y-52446D01*
X43048Y-52434D01*
X43025Y-52422D01*
X43013Y-52410D01*
X43001Y-52386D01*
X43001Y-52220D02*
X43001Y-52053D01*
X43251Y-52160D01*
X39420Y-57752D02*
X39408Y-57764D01*
X39372Y-57776D01*
X39348Y-57776D01*
X39313Y-57764D01*
X39289Y-57740D01*
X39277Y-57716D01*
X39265Y-57669D01*
X39265Y-57633D01*
X39277Y-57585D01*
X39289Y-57561D01*
X39313Y-57538D01*
X39348Y-57526D01*
X39372Y-57526D01*
X39408Y-57538D01*
X39420Y-57550D01*
X39503Y-57526D02*
X39658Y-57526D01*
X39575Y-57621D01*
X39610Y-57621D01*
X39634Y-57633D01*
X39646Y-57645D01*
X39658Y-57669D01*
X39658Y-57728D01*
X39646Y-57752D01*
X39634Y-57764D01*
X39610Y-57776D01*
X39539Y-57776D01*
X39515Y-57764D01*
X39503Y-57752D01*
X39813Y-57526D02*
X39836Y-57526D01*
X39860Y-57538D01*
X39872Y-57550D01*
X39884Y-57573D01*
X39896Y-57621D01*
X39896Y-57680D01*
X39884Y-57728D01*
X39872Y-57752D01*
X39860Y-57764D01*
X39836Y-57776D01*
X39813Y-57776D01*
X39789Y-57764D01*
X39777Y-57752D01*
X39765Y-57728D01*
X39753Y-57680D01*
X39753Y-57621D01*
X39765Y-57573D01*
X39777Y-57550D01*
X39789Y-57538D01*
X39813Y-57526D01*
X39979Y-57526D02*
X40146Y-57526D01*
X40039Y-57776D01*
X40201Y-60679D02*
X40082Y-60763D01*
X40201Y-60822D02*
X39951Y-60822D01*
X39951Y-60727D01*
X39963Y-60703D01*
X39975Y-60691D01*
X39998Y-60679D01*
X40034Y-60679D01*
X40058Y-60691D01*
X40070Y-60703D01*
X40082Y-60727D01*
X40082Y-60822D01*
X39951Y-60596D02*
X39951Y-60441D01*
X40046Y-60525D01*
X40046Y-60489D01*
X40058Y-60465D01*
X40070Y-60453D01*
X40094Y-60441D01*
X40153Y-60441D01*
X40177Y-60453D01*
X40189Y-60465D01*
X40201Y-60489D01*
X40201Y-60560D01*
X40189Y-60584D01*
X40177Y-60596D01*
X39951Y-60286D02*
X39951Y-60263D01*
X39963Y-60239D01*
X39975Y-60227D01*
X39998Y-60215D01*
X40046Y-60203D01*
X40105Y-60203D01*
X40153Y-60215D01*
X40177Y-60227D01*
X40189Y-60239D01*
X40201Y-60263D01*
X40201Y-60286D01*
X40189Y-60310D01*
X40177Y-60322D01*
X40153Y-60334D01*
X40105Y-60346D01*
X40046Y-60346D01*
X39998Y-60334D01*
X39975Y-60322D01*
X39963Y-60310D01*
X39951Y-60286D01*
X40058Y-60060D02*
X40046Y-60084D01*
X40034Y-60096D01*
X40010Y-60108D01*
X39998Y-60108D01*
X39975Y-60096D01*
X39963Y-60084D01*
X39951Y-60060D01*
X39951Y-60013D01*
X39963Y-59989D01*
X39975Y-59977D01*
X39998Y-59965D01*
X40010Y-59965D01*
X40034Y-59977D01*
X40046Y-59989D01*
X40058Y-60013D01*
X40058Y-60060D01*
X40070Y-60084D01*
X40082Y-60096D01*
X40105Y-60108D01*
X40153Y-60108D01*
X40177Y-60096D01*
X40189Y-60084D01*
X40201Y-60060D01*
X40201Y-60013D01*
X40189Y-59989D01*
X40177Y-59977D01*
X40153Y-59965D01*
X40105Y-59965D01*
X40082Y-59977D01*
X40070Y-59989D01*
X40058Y-60013D01*
X39795Y-54301D02*
X39711Y-54182D01*
X39652Y-54301D02*
X39652Y-54051D01*
X39747Y-54051D01*
X39771Y-54063D01*
X39783Y-54075D01*
X39795Y-54098D01*
X39795Y-54134D01*
X39783Y-54158D01*
X39771Y-54170D01*
X39747Y-54182D01*
X39652Y-54182D01*
X39878Y-54051D02*
X40033Y-54051D01*
X39950Y-54146D01*
X39985Y-54146D01*
X40009Y-54158D01*
X40021Y-54170D01*
X40033Y-54194D01*
X40033Y-54253D01*
X40021Y-54277D01*
X40009Y-54289D01*
X39985Y-54301D01*
X39914Y-54301D01*
X39890Y-54289D01*
X39878Y-54277D01*
X40271Y-54301D02*
X40128Y-54301D01*
X40200Y-54301D02*
X40200Y-54051D01*
X40176Y-54086D01*
X40152Y-54110D01*
X40128Y-54122D01*
X40366Y-54075D02*
X40378Y-54063D01*
X40402Y-54051D01*
X40461Y-54051D01*
X40485Y-54063D01*
X40497Y-54075D01*
X40509Y-54098D01*
X40509Y-54122D01*
X40497Y-54158D01*
X40354Y-54301D01*
X40509Y-54301D01*
X45895Y-57076D02*
X45811Y-56957D01*
X45752Y-57076D02*
X45752Y-56826D01*
X45847Y-56826D01*
X45871Y-56838D01*
X45883Y-56850D01*
X45895Y-56873D01*
X45895Y-56909D01*
X45883Y-56933D01*
X45871Y-56945D01*
X45847Y-56957D01*
X45752Y-56957D01*
X45978Y-56826D02*
X46133Y-56826D01*
X46050Y-56921D01*
X46085Y-56921D01*
X46109Y-56933D01*
X46121Y-56945D01*
X46133Y-56969D01*
X46133Y-57028D01*
X46121Y-57052D01*
X46109Y-57064D01*
X46085Y-57076D01*
X46014Y-57076D01*
X45990Y-57064D01*
X45978Y-57052D01*
X46288Y-56826D02*
X46311Y-56826D01*
X46335Y-56838D01*
X46347Y-56850D01*
X46359Y-56873D01*
X46371Y-56921D01*
X46371Y-56980D01*
X46359Y-57028D01*
X46347Y-57052D01*
X46335Y-57064D01*
X46311Y-57076D01*
X46288Y-57076D01*
X46264Y-57064D01*
X46252Y-57052D01*
X46240Y-57028D01*
X46228Y-56980D01*
X46228Y-56921D01*
X46240Y-56873D01*
X46252Y-56850D01*
X46264Y-56838D01*
X46288Y-56826D01*
X46585Y-56826D02*
X46538Y-56826D01*
X46514Y-56838D01*
X46502Y-56850D01*
X46478Y-56885D01*
X46466Y-56933D01*
X46466Y-57028D01*
X46478Y-57052D01*
X46490Y-57064D01*
X46514Y-57076D01*
X46561Y-57076D01*
X46585Y-57064D01*
X46597Y-57052D01*
X46609Y-57028D01*
X46609Y-56969D01*
X46597Y-56945D01*
X46585Y-56933D01*
X46561Y-56921D01*
X46514Y-56921D01*
X46490Y-56933D01*
X46478Y-56945D01*
X46466Y-56969D01*
X45645Y-58551D02*
X45561Y-58432D01*
X45502Y-58551D02*
X45502Y-58301D01*
X45597Y-58301D01*
X45621Y-58313D01*
X45633Y-58325D01*
X45645Y-58348D01*
X45645Y-58384D01*
X45633Y-58408D01*
X45621Y-58420D01*
X45597Y-58432D01*
X45502Y-58432D01*
X45728Y-58301D02*
X45883Y-58301D01*
X45800Y-58396D01*
X45835Y-58396D01*
X45859Y-58408D01*
X45871Y-58420D01*
X45883Y-58444D01*
X45883Y-58503D01*
X45871Y-58527D01*
X45859Y-58539D01*
X45835Y-58551D01*
X45764Y-58551D01*
X45740Y-58539D01*
X45728Y-58527D01*
X46038Y-58301D02*
X46061Y-58301D01*
X46085Y-58313D01*
X46097Y-58325D01*
X46109Y-58348D01*
X46121Y-58396D01*
X46121Y-58455D01*
X46109Y-58503D01*
X46097Y-58527D01*
X46085Y-58539D01*
X46061Y-58551D01*
X46038Y-58551D01*
X46014Y-58539D01*
X46002Y-58527D01*
X45990Y-58503D01*
X45978Y-58455D01*
X45978Y-58396D01*
X45990Y-58348D01*
X46002Y-58325D01*
X46014Y-58313D01*
X46038Y-58301D01*
X46204Y-58301D02*
X46359Y-58301D01*
X46276Y-58396D01*
X46311Y-58396D01*
X46335Y-58408D01*
X46347Y-58420D01*
X46359Y-58444D01*
X46359Y-58503D01*
X46347Y-58527D01*
X46335Y-58539D01*
X46311Y-58551D01*
X46240Y-58551D01*
X46216Y-58539D01*
X46204Y-58527D01*
X45895Y-56176D02*
X45811Y-56057D01*
X45752Y-56176D02*
X45752Y-55926D01*
X45847Y-55926D01*
X45871Y-55938D01*
X45883Y-55950D01*
X45895Y-55973D01*
X45895Y-56009D01*
X45883Y-56033D01*
X45871Y-56045D01*
X45847Y-56057D01*
X45752Y-56057D01*
X45978Y-55926D02*
X46133Y-55926D01*
X46050Y-56021D01*
X46085Y-56021D01*
X46109Y-56033D01*
X46121Y-56045D01*
X46133Y-56069D01*
X46133Y-56128D01*
X46121Y-56152D01*
X46109Y-56164D01*
X46085Y-56176D01*
X46014Y-56176D01*
X45990Y-56164D01*
X45978Y-56152D01*
X46288Y-55926D02*
X46311Y-55926D01*
X46335Y-55938D01*
X46347Y-55950D01*
X46359Y-55973D01*
X46371Y-56021D01*
X46371Y-56080D01*
X46359Y-56128D01*
X46347Y-56152D01*
X46335Y-56164D01*
X46311Y-56176D01*
X46288Y-56176D01*
X46264Y-56164D01*
X46252Y-56152D01*
X46240Y-56128D01*
X46228Y-56080D01*
X46228Y-56021D01*
X46240Y-55973D01*
X46252Y-55950D01*
X46264Y-55938D01*
X46288Y-55926D01*
X46585Y-56009D02*
X46585Y-56176D01*
X46526Y-55914D02*
X46466Y-56092D01*
X46621Y-56092D01*
X45845Y-55376D02*
X45761Y-55257D01*
X45702Y-55376D02*
X45702Y-55126D01*
X45797Y-55126D01*
X45821Y-55138D01*
X45833Y-55150D01*
X45845Y-55173D01*
X45845Y-55209D01*
X45833Y-55233D01*
X45821Y-55245D01*
X45797Y-55257D01*
X45702Y-55257D01*
X45928Y-55126D02*
X46083Y-55126D01*
X46000Y-55221D01*
X46035Y-55221D01*
X46059Y-55233D01*
X46071Y-55245D01*
X46083Y-55269D01*
X46083Y-55328D01*
X46071Y-55352D01*
X46059Y-55364D01*
X46035Y-55376D01*
X45964Y-55376D01*
X45940Y-55364D01*
X45928Y-55352D01*
X46238Y-55126D02*
X46261Y-55126D01*
X46285Y-55138D01*
X46297Y-55150D01*
X46309Y-55173D01*
X46321Y-55221D01*
X46321Y-55280D01*
X46309Y-55328D01*
X46297Y-55352D01*
X46285Y-55364D01*
X46261Y-55376D01*
X46238Y-55376D01*
X46214Y-55364D01*
X46202Y-55352D01*
X46190Y-55328D01*
X46178Y-55280D01*
X46178Y-55221D01*
X46190Y-55173D01*
X46202Y-55150D01*
X46214Y-55138D01*
X46238Y-55126D01*
X46547Y-55126D02*
X46428Y-55126D01*
X46416Y-55245D01*
X46428Y-55233D01*
X46452Y-55221D01*
X46511Y-55221D01*
X46535Y-55233D01*
X46547Y-55245D01*
X46559Y-55269D01*
X46559Y-55328D01*
X46547Y-55352D01*
X46535Y-55364D01*
X46511Y-55376D01*
X46452Y-55376D01*
X46428Y-55364D01*
X46416Y-55352D01*
X45751Y-60629D02*
X45632Y-60713D01*
X45751Y-60772D02*
X45501Y-60772D01*
X45501Y-60677D01*
X45513Y-60653D01*
X45525Y-60641D01*
X45548Y-60629D01*
X45584Y-60629D01*
X45608Y-60641D01*
X45620Y-60653D01*
X45632Y-60677D01*
X45632Y-60772D01*
X45501Y-60546D02*
X45501Y-60391D01*
X45596Y-60475D01*
X45596Y-60439D01*
X45608Y-60415D01*
X45620Y-60403D01*
X45644Y-60391D01*
X45703Y-60391D01*
X45727Y-60403D01*
X45739Y-60415D01*
X45751Y-60439D01*
X45751Y-60510D01*
X45739Y-60534D01*
X45727Y-60546D01*
X45501Y-60236D02*
X45501Y-60213D01*
X45513Y-60189D01*
X45525Y-60177D01*
X45548Y-60165D01*
X45596Y-60153D01*
X45655Y-60153D01*
X45703Y-60165D01*
X45727Y-60177D01*
X45739Y-60189D01*
X45751Y-60213D01*
X45751Y-60236D01*
X45739Y-60260D01*
X45727Y-60272D01*
X45703Y-60284D01*
X45655Y-60296D01*
X45596Y-60296D01*
X45548Y-60284D01*
X45525Y-60272D01*
X45513Y-60260D01*
X45501Y-60236D01*
X45751Y-59915D02*
X45751Y-60058D01*
X45751Y-59986D02*
X45501Y-59986D01*
X45536Y-60010D01*
X45560Y-60034D01*
X45572Y-60058D01*
X45845Y-57802D02*
X45833Y-57814D01*
X45797Y-57826D01*
X45773Y-57826D01*
X45738Y-57814D01*
X45714Y-57790D01*
X45702Y-57766D01*
X45690Y-57719D01*
X45690Y-57683D01*
X45702Y-57635D01*
X45714Y-57611D01*
X45738Y-57588D01*
X45773Y-57576D01*
X45797Y-57576D01*
X45833Y-57588D01*
X45845Y-57600D01*
X45928Y-57576D02*
X46083Y-57576D01*
X46000Y-57671D01*
X46035Y-57671D01*
X46059Y-57683D01*
X46071Y-57695D01*
X46083Y-57719D01*
X46083Y-57778D01*
X46071Y-57802D01*
X46059Y-57814D01*
X46035Y-57826D01*
X45964Y-57826D01*
X45940Y-57814D01*
X45928Y-57802D01*
X46238Y-57576D02*
X46261Y-57576D01*
X46285Y-57588D01*
X46297Y-57600D01*
X46309Y-57623D01*
X46321Y-57671D01*
X46321Y-57730D01*
X46309Y-57778D01*
X46297Y-57802D01*
X46285Y-57814D01*
X46261Y-57826D01*
X46238Y-57826D01*
X46214Y-57814D01*
X46202Y-57802D01*
X46190Y-57778D01*
X46178Y-57730D01*
X46178Y-57671D01*
X46190Y-57623D01*
X46202Y-57600D01*
X46214Y-57588D01*
X46238Y-57576D01*
X46535Y-57659D02*
X46535Y-57826D01*
X46476Y-57564D02*
X46416Y-57742D01*
X46571Y-57742D01*
X39470Y-57026D02*
X39386Y-56907D01*
X39327Y-57026D02*
X39327Y-56776D01*
X39422Y-56776D01*
X39446Y-56788D01*
X39458Y-56800D01*
X39470Y-56823D01*
X39470Y-56859D01*
X39458Y-56883D01*
X39446Y-56895D01*
X39422Y-56907D01*
X39327Y-56907D01*
X39553Y-56776D02*
X39708Y-56776D01*
X39625Y-56871D01*
X39660Y-56871D01*
X39684Y-56883D01*
X39696Y-56895D01*
X39708Y-56919D01*
X39708Y-56978D01*
X39696Y-57002D01*
X39684Y-57014D01*
X39660Y-57026D01*
X39589Y-57026D01*
X39565Y-57014D01*
X39553Y-57002D01*
X39946Y-57026D02*
X39803Y-57026D01*
X39875Y-57026D02*
X39875Y-56776D01*
X39851Y-56811D01*
X39827Y-56835D01*
X39803Y-56847D01*
X40029Y-56776D02*
X40184Y-56776D01*
X40101Y-56871D01*
X40136Y-56871D01*
X40160Y-56883D01*
X40172Y-56895D01*
X40184Y-56919D01*
X40184Y-56978D01*
X40172Y-57002D01*
X40160Y-57014D01*
X40136Y-57026D01*
X40065Y-57026D01*
X40041Y-57014D01*
X40029Y-57002D01*
G54D21*
X37398Y-45461D02*
X37398Y-45061D01*
X37551Y-45061D01*
X37589Y-45080D01*
X37608Y-45100D01*
X37627Y-45138D01*
X37627Y-45195D01*
X37608Y-45233D01*
X37589Y-45252D01*
X37551Y-45271D01*
X37398Y-45271D01*
X38008Y-45461D02*
X37779Y-45461D01*
X37894Y-45461D02*
X37894Y-45061D01*
X37855Y-45119D01*
X37817Y-45157D01*
X37779Y-45176D01*
X38255Y-45061D02*
X38294Y-45061D01*
X38332Y-45080D01*
X38351Y-45100D01*
X38370Y-45138D01*
X38389Y-45214D01*
X38389Y-45309D01*
X38370Y-45385D01*
X38351Y-45423D01*
X38332Y-45442D01*
X38294Y-45461D01*
X38255Y-45461D01*
X38217Y-45442D01*
X38198Y-45423D01*
X38179Y-45385D01*
X38160Y-45309D01*
X38160Y-45214D01*
X38179Y-45138D01*
X38198Y-45100D01*
X38217Y-45080D01*
X38255Y-45061D01*
X38770Y-45461D02*
X38541Y-45461D01*
X38655Y-45461D02*
X38655Y-45061D01*
X38617Y-45119D01*
X38579Y-45157D01*
X38541Y-45176D01*
G54D19*
X64723Y-60661D02*
X64723Y-60261D01*
X64876Y-60261D01*
X64914Y-60280D01*
X64933Y-60300D01*
X64952Y-60338D01*
X64952Y-60395D01*
X64933Y-60433D01*
X64914Y-60452D01*
X64876Y-60471D01*
X64723Y-60471D01*
X65295Y-60261D02*
X65219Y-60261D01*
X65180Y-60280D01*
X65161Y-60300D01*
X65123Y-60357D01*
X65104Y-60433D01*
X65104Y-60585D01*
X65123Y-60623D01*
X65142Y-60642D01*
X65180Y-60661D01*
X65257Y-60661D01*
X65295Y-60642D01*
X65314Y-60623D01*
X65333Y-60585D01*
X65333Y-60490D01*
X65314Y-60452D01*
X65295Y-60433D01*
X65257Y-60414D01*
X65180Y-60414D01*
X65142Y-60433D01*
X65123Y-60452D01*
X65104Y-60490D01*
X65580Y-60261D02*
X65619Y-60261D01*
X65657Y-60280D01*
X65676Y-60300D01*
X65695Y-60338D01*
X65714Y-60414D01*
X65714Y-60509D01*
X65695Y-60585D01*
X65676Y-60623D01*
X65657Y-60642D01*
X65619Y-60661D01*
X65580Y-60661D01*
X65542Y-60642D01*
X65523Y-60623D01*
X65504Y-60585D01*
X65485Y-60509D01*
X65485Y-60414D01*
X65504Y-60338D01*
X65523Y-60300D01*
X65542Y-60280D01*
X65580Y-60261D01*
X66095Y-60661D02*
X65866Y-60661D01*
X65980Y-60661D02*
X65980Y-60261D01*
X65942Y-60319D01*
X65904Y-60357D01*
X65866Y-60376D01*
X50898Y-60736D02*
X50898Y-60336D01*
X51051Y-60336D01*
X51089Y-60355D01*
X51108Y-60375D01*
X51127Y-60413D01*
X51127Y-60470D01*
X51108Y-60508D01*
X51089Y-60527D01*
X51051Y-60546D01*
X50898Y-60546D01*
X51470Y-60470D02*
X51470Y-60736D01*
X51375Y-60317D02*
X51279Y-60603D01*
X51527Y-60603D01*
X51755Y-60336D02*
X51794Y-60336D01*
X51832Y-60355D01*
X51851Y-60375D01*
X51870Y-60413D01*
X51889Y-60489D01*
X51889Y-60584D01*
X51870Y-60660D01*
X51851Y-60698D01*
X51832Y-60717D01*
X51794Y-60736D01*
X51755Y-60736D01*
X51717Y-60717D01*
X51698Y-60698D01*
X51679Y-60660D01*
X51660Y-60584D01*
X51660Y-60489D01*
X51679Y-60413D01*
X51698Y-60375D01*
X51717Y-60355D01*
X51755Y-60336D01*
X52270Y-60736D02*
X52041Y-60736D01*
X52155Y-60736D02*
X52155Y-60336D01*
X52117Y-60394D01*
X52079Y-60432D01*
X52041Y-60451D01*
X57823Y-60761D02*
X57823Y-60361D01*
X57976Y-60361D01*
X58014Y-60380D01*
X58033Y-60400D01*
X58052Y-60438D01*
X58052Y-60495D01*
X58033Y-60533D01*
X58014Y-60552D01*
X57976Y-60571D01*
X57823Y-60571D01*
X58414Y-60361D02*
X58223Y-60361D01*
X58204Y-60552D01*
X58223Y-60533D01*
X58261Y-60514D01*
X58357Y-60514D01*
X58395Y-60533D01*
X58414Y-60552D01*
X58433Y-60590D01*
X58433Y-60685D01*
X58414Y-60723D01*
X58395Y-60742D01*
X58357Y-60761D01*
X58261Y-60761D01*
X58223Y-60742D01*
X58204Y-60723D01*
X58680Y-60361D02*
X58719Y-60361D01*
X58757Y-60380D01*
X58776Y-60400D01*
X58795Y-60438D01*
X58814Y-60514D01*
X58814Y-60609D01*
X58795Y-60685D01*
X58776Y-60723D01*
X58757Y-60742D01*
X58719Y-60761D01*
X58680Y-60761D01*
X58642Y-60742D01*
X58623Y-60723D01*
X58604Y-60685D01*
X58585Y-60609D01*
X58585Y-60514D01*
X58604Y-60438D01*
X58623Y-60400D01*
X58642Y-60380D01*
X58680Y-60361D01*
X59195Y-60761D02*
X58966Y-60761D01*
X59080Y-60761D02*
X59080Y-60361D01*
X59042Y-60419D01*
X59004Y-60457D01*
X58966Y-60476D01*
X42123Y-60611D02*
X42123Y-60211D01*
X42276Y-60211D01*
X42314Y-60230D01*
X42333Y-60250D01*
X42352Y-60288D01*
X42352Y-60345D01*
X42333Y-60383D01*
X42314Y-60402D01*
X42276Y-60421D01*
X42123Y-60421D01*
X42485Y-60211D02*
X42733Y-60211D01*
X42600Y-60364D01*
X42657Y-60364D01*
X42695Y-60383D01*
X42714Y-60402D01*
X42733Y-60440D01*
X42733Y-60535D01*
X42714Y-60573D01*
X42695Y-60592D01*
X42657Y-60611D01*
X42542Y-60611D01*
X42504Y-60592D01*
X42485Y-60573D01*
X42980Y-60211D02*
X43019Y-60211D01*
X43057Y-60230D01*
X43076Y-60250D01*
X43095Y-60288D01*
X43114Y-60364D01*
X43114Y-60459D01*
X43095Y-60535D01*
X43076Y-60573D01*
X43057Y-60592D01*
X43019Y-60611D01*
X42980Y-60611D01*
X42942Y-60592D01*
X42923Y-60573D01*
X42904Y-60535D01*
X42885Y-60459D01*
X42885Y-60364D01*
X42904Y-60288D01*
X42923Y-60250D01*
X42942Y-60230D01*
X42980Y-60211D01*
X43495Y-60611D02*
X43266Y-60611D01*
X43380Y-60611D02*
X43380Y-60211D01*
X43342Y-60269D01*
X43304Y-60307D01*
X43266Y-60326D01*
X58361Y-47076D02*
X57961Y-47076D01*
X57961Y-46923D01*
X57980Y-46885D01*
X58000Y-46866D01*
X58038Y-46847D01*
X58095Y-46847D01*
X58133Y-46866D01*
X58152Y-46885D01*
X58171Y-46923D01*
X58171Y-47076D01*
X58361Y-46466D02*
X58361Y-46695D01*
X58361Y-46580D02*
X57961Y-46580D01*
X58019Y-46619D01*
X58057Y-46657D01*
X58076Y-46695D01*
X57961Y-46219D02*
X57961Y-46180D01*
X57980Y-46142D01*
X58000Y-46123D01*
X58038Y-46104D01*
X58114Y-46085D01*
X58209Y-46085D01*
X58285Y-46104D01*
X58323Y-46123D01*
X58342Y-46142D01*
X58361Y-46180D01*
X58361Y-46219D01*
X58342Y-46257D01*
X58323Y-46276D01*
X58285Y-46295D01*
X58209Y-46314D01*
X58114Y-46314D01*
X58038Y-46295D01*
X58000Y-46276D01*
X57980Y-46257D01*
X57961Y-46219D01*
X58000Y-45933D02*
X57980Y-45914D01*
X57961Y-45876D01*
X57961Y-45780D01*
X57980Y-45742D01*
X58000Y-45723D01*
X58038Y-45704D01*
X58076Y-45704D01*
X58133Y-45723D01*
X58361Y-45952D01*
X58361Y-45704D01*
G54D12*
X41280Y-46311D02*
X41147Y-46121D01*
X41052Y-46311D02*
X41052Y-45911D01*
X41204Y-45911D01*
X41242Y-45930D01*
X41261Y-45950D01*
X41280Y-45988D01*
X41280Y-46045D01*
X41261Y-46083D01*
X41242Y-46102D01*
X41204Y-46121D01*
X41052Y-46121D01*
X41395Y-45911D02*
X41528Y-46311D01*
X41661Y-45911D01*
X41776Y-45950D02*
X41795Y-45930D01*
X41833Y-45911D01*
X41928Y-45911D01*
X41966Y-45930D01*
X41985Y-45950D01*
X42004Y-45988D01*
X42004Y-46026D01*
X41985Y-46083D01*
X41757Y-46311D01*
X42004Y-46311D01*
X42252Y-45911D02*
X42290Y-45911D01*
X42328Y-45930D01*
X42347Y-45950D01*
X42366Y-45988D01*
X42385Y-46064D01*
X42385Y-46159D01*
X42366Y-46235D01*
X42347Y-46273D01*
X42328Y-46292D01*
X42290Y-46311D01*
X42252Y-46311D01*
X42214Y-46292D01*
X42195Y-46273D01*
X42176Y-46235D01*
X42157Y-46159D01*
X42157Y-46064D01*
X42176Y-45988D01*
X42195Y-45950D01*
X42214Y-45930D01*
X42252Y-45911D01*
X42538Y-45950D02*
X42557Y-45930D01*
X42595Y-45911D01*
X42690Y-45911D01*
X42728Y-45930D01*
X42747Y-45950D01*
X42766Y-45988D01*
X42766Y-46026D01*
X42747Y-46083D01*
X42519Y-46311D01*
X42766Y-46311D01*
X67161Y-60526D02*
X66761Y-60526D01*
X67161Y-60297D02*
X66933Y-60469D01*
X66761Y-60297D02*
X66990Y-60526D01*
X66761Y-59954D02*
X66761Y-60030D01*
X66780Y-60069D01*
X66800Y-60088D01*
X66857Y-60126D01*
X66933Y-60145D01*
X67085Y-60145D01*
X67123Y-60126D01*
X67142Y-60107D01*
X67161Y-60069D01*
X67161Y-59992D01*
X67142Y-59954D01*
X67123Y-59935D01*
X67085Y-59916D01*
X66990Y-59916D01*
X66952Y-59935D01*
X66933Y-59954D01*
X66914Y-59992D01*
X66914Y-60069D01*
X66933Y-60107D01*
X66952Y-60126D01*
X66990Y-60145D01*
X66761Y-59669D02*
X66761Y-59630D01*
X66780Y-59592D01*
X66800Y-59573D01*
X66838Y-59554D01*
X66914Y-59535D01*
X67009Y-59535D01*
X67085Y-59554D01*
X67123Y-59573D01*
X67142Y-59592D01*
X67161Y-59630D01*
X67161Y-59669D01*
X67142Y-59707D01*
X67123Y-59726D01*
X67085Y-59745D01*
X67009Y-59764D01*
X66914Y-59764D01*
X66838Y-59745D01*
X66800Y-59726D01*
X66780Y-59707D01*
X66761Y-59669D01*
X67161Y-59154D02*
X67161Y-59383D01*
X67161Y-59269D02*
X66761Y-59269D01*
X66819Y-59307D01*
X66857Y-59345D01*
X66876Y-59383D01*
X64111Y-60576D02*
X63711Y-60576D01*
X64111Y-60347D02*
X63883Y-60519D01*
X63711Y-60347D02*
X63940Y-60576D01*
X63711Y-60004D02*
X63711Y-60080D01*
X63730Y-60119D01*
X63750Y-60138D01*
X63807Y-60176D01*
X63883Y-60195D01*
X64035Y-60195D01*
X64073Y-60176D01*
X64092Y-60157D01*
X64111Y-60119D01*
X64111Y-60042D01*
X64092Y-60004D01*
X64073Y-59985D01*
X64035Y-59966D01*
X63940Y-59966D01*
X63902Y-59985D01*
X63883Y-60004D01*
X63864Y-60042D01*
X63864Y-60119D01*
X63883Y-60157D01*
X63902Y-60176D01*
X63940Y-60195D01*
X63711Y-59719D02*
X63711Y-59680D01*
X63730Y-59642D01*
X63750Y-59623D01*
X63788Y-59604D01*
X63864Y-59585D01*
X63959Y-59585D01*
X64035Y-59604D01*
X64073Y-59623D01*
X64092Y-59642D01*
X64111Y-59680D01*
X64111Y-59719D01*
X64092Y-59757D01*
X64073Y-59776D01*
X64035Y-59795D01*
X63959Y-59814D01*
X63864Y-59814D01*
X63788Y-59795D01*
X63750Y-59776D01*
X63730Y-59757D01*
X63711Y-59719D01*
X63750Y-59433D02*
X63730Y-59414D01*
X63711Y-59376D01*
X63711Y-59280D01*
X63730Y-59242D01*
X63750Y-59223D01*
X63788Y-59204D01*
X63826Y-59204D01*
X63883Y-59223D01*
X64111Y-59452D01*
X64111Y-59204D01*
X40480Y-50661D02*
X40347Y-50471D01*
X40252Y-50661D02*
X40252Y-50261D01*
X40404Y-50261D01*
X40442Y-50280D01*
X40461Y-50300D01*
X40480Y-50338D01*
X40480Y-50395D01*
X40461Y-50433D01*
X40442Y-50452D01*
X40404Y-50471D01*
X40252Y-50471D01*
X40595Y-50261D02*
X40728Y-50661D01*
X40861Y-50261D01*
X40976Y-50300D02*
X40995Y-50280D01*
X41033Y-50261D01*
X41128Y-50261D01*
X41166Y-50280D01*
X41185Y-50300D01*
X41204Y-50338D01*
X41204Y-50376D01*
X41185Y-50433D01*
X40957Y-50661D01*
X41204Y-50661D01*
X41452Y-50261D02*
X41490Y-50261D01*
X41528Y-50280D01*
X41547Y-50300D01*
X41566Y-50338D01*
X41585Y-50414D01*
X41585Y-50509D01*
X41566Y-50585D01*
X41547Y-50623D01*
X41528Y-50642D01*
X41490Y-50661D01*
X41452Y-50661D01*
X41414Y-50642D01*
X41395Y-50623D01*
X41376Y-50585D01*
X41357Y-50509D01*
X41357Y-50414D01*
X41376Y-50338D01*
X41395Y-50300D01*
X41414Y-50280D01*
X41452Y-50261D01*
X41966Y-50661D02*
X41738Y-50661D01*
X41852Y-50661D02*
X41852Y-50261D01*
X41814Y-50319D01*
X41776Y-50357D01*
X41738Y-50376D01*
X41411Y-60376D02*
X41011Y-60376D01*
X41411Y-60147D02*
X41183Y-60319D01*
X41011Y-60147D02*
X41240Y-60376D01*
X41011Y-60014D02*
X41011Y-59766D01*
X41164Y-59899D01*
X41164Y-59842D01*
X41183Y-59804D01*
X41202Y-59785D01*
X41240Y-59766D01*
X41335Y-59766D01*
X41373Y-59785D01*
X41392Y-59804D01*
X41411Y-59842D01*
X41411Y-59957D01*
X41392Y-59995D01*
X41373Y-60014D01*
X41011Y-59519D02*
X41011Y-59480D01*
X41030Y-59442D01*
X41050Y-59423D01*
X41088Y-59404D01*
X41164Y-59385D01*
X41259Y-59385D01*
X41335Y-59404D01*
X41373Y-59423D01*
X41392Y-59442D01*
X41411Y-59480D01*
X41411Y-59519D01*
X41392Y-59557D01*
X41373Y-59576D01*
X41335Y-59595D01*
X41259Y-59614D01*
X41164Y-59614D01*
X41088Y-59595D01*
X41050Y-59576D01*
X41030Y-59557D01*
X41011Y-59519D01*
X41050Y-59233D02*
X41030Y-59214D01*
X41011Y-59176D01*
X41011Y-59080D01*
X41030Y-59042D01*
X41050Y-59023D01*
X41088Y-59004D01*
X41126Y-59004D01*
X41183Y-59023D01*
X41411Y-59252D01*
X41411Y-59004D01*
X44461Y-60476D02*
X44061Y-60476D01*
X44461Y-60247D02*
X44233Y-60419D01*
X44061Y-60247D02*
X44290Y-60476D01*
X44061Y-60114D02*
X44061Y-59866D01*
X44214Y-59999D01*
X44214Y-59942D01*
X44233Y-59904D01*
X44252Y-59885D01*
X44290Y-59866D01*
X44385Y-59866D01*
X44423Y-59885D01*
X44442Y-59904D01*
X44461Y-59942D01*
X44461Y-60057D01*
X44442Y-60095D01*
X44423Y-60114D01*
X44061Y-59619D02*
X44061Y-59580D01*
X44080Y-59542D01*
X44100Y-59523D01*
X44138Y-59504D01*
X44214Y-59485D01*
X44309Y-59485D01*
X44385Y-59504D01*
X44423Y-59523D01*
X44442Y-59542D01*
X44461Y-59580D01*
X44461Y-59619D01*
X44442Y-59657D01*
X44423Y-59676D01*
X44385Y-59695D01*
X44309Y-59714D01*
X44214Y-59714D01*
X44138Y-59695D01*
X44100Y-59676D01*
X44080Y-59657D01*
X44061Y-59619D01*
X44461Y-59104D02*
X44461Y-59333D01*
X44461Y-59219D02*
X44061Y-59219D01*
X44119Y-59257D01*
X44157Y-59295D01*
X44176Y-59333D01*
X50361Y-60676D02*
X49961Y-60676D01*
X50361Y-60447D02*
X50133Y-60619D01*
X49961Y-60447D02*
X50190Y-60676D01*
X50095Y-60104D02*
X50361Y-60104D01*
X49942Y-60199D02*
X50228Y-60295D01*
X50228Y-60047D01*
X49961Y-59819D02*
X49961Y-59780D01*
X49980Y-59742D01*
X50000Y-59723D01*
X50038Y-59704D01*
X50114Y-59685D01*
X50209Y-59685D01*
X50285Y-59704D01*
X50323Y-59723D01*
X50342Y-59742D01*
X50361Y-59780D01*
X50361Y-59819D01*
X50342Y-59857D01*
X50323Y-59876D01*
X50285Y-59895D01*
X50209Y-59914D01*
X50114Y-59914D01*
X50038Y-59895D01*
X50000Y-59876D01*
X49980Y-59857D01*
X49961Y-59819D01*
X50000Y-59533D02*
X49980Y-59514D01*
X49961Y-59476D01*
X49961Y-59380D01*
X49980Y-59342D01*
X50000Y-59323D01*
X50038Y-59304D01*
X50076Y-59304D01*
X50133Y-59323D01*
X50361Y-59552D01*
X50361Y-59304D01*
X53411Y-60626D02*
X53011Y-60626D01*
X53411Y-60397D02*
X53183Y-60569D01*
X53011Y-60397D02*
X53240Y-60626D01*
X53145Y-60054D02*
X53411Y-60054D01*
X52992Y-60149D02*
X53278Y-60245D01*
X53278Y-59997D01*
X53011Y-59769D02*
X53011Y-59730D01*
X53030Y-59692D01*
X53050Y-59673D01*
X53088Y-59654D01*
X53164Y-59635D01*
X53259Y-59635D01*
X53335Y-59654D01*
X53373Y-59673D01*
X53392Y-59692D01*
X53411Y-59730D01*
X53411Y-59769D01*
X53392Y-59807D01*
X53373Y-59826D01*
X53335Y-59845D01*
X53259Y-59864D01*
X53164Y-59864D01*
X53088Y-59845D01*
X53050Y-59826D01*
X53030Y-59807D01*
X53011Y-59769D01*
X53411Y-59254D02*
X53411Y-59483D01*
X53411Y-59369D02*
X53011Y-59369D01*
X53069Y-59407D01*
X53107Y-59445D01*
X53126Y-59483D01*
X57111Y-60526D02*
X56711Y-60526D01*
X57111Y-60297D02*
X56883Y-60469D01*
X56711Y-60297D02*
X56940Y-60526D01*
X56711Y-59935D02*
X56711Y-60126D01*
X56902Y-60145D01*
X56883Y-60126D01*
X56864Y-60088D01*
X56864Y-59992D01*
X56883Y-59954D01*
X56902Y-59935D01*
X56940Y-59916D01*
X57035Y-59916D01*
X57073Y-59935D01*
X57092Y-59954D01*
X57111Y-59992D01*
X57111Y-60088D01*
X57092Y-60126D01*
X57073Y-60145D01*
X56711Y-59669D02*
X56711Y-59630D01*
X56730Y-59592D01*
X56750Y-59573D01*
X56788Y-59554D01*
X56864Y-59535D01*
X56959Y-59535D01*
X57035Y-59554D01*
X57073Y-59573D01*
X57092Y-59592D01*
X57111Y-59630D01*
X57111Y-59669D01*
X57092Y-59707D01*
X57073Y-59726D01*
X57035Y-59745D01*
X56959Y-59764D01*
X56864Y-59764D01*
X56788Y-59745D01*
X56750Y-59726D01*
X56730Y-59707D01*
X56711Y-59669D01*
X56750Y-59383D02*
X56730Y-59364D01*
X56711Y-59326D01*
X56711Y-59230D01*
X56730Y-59192D01*
X56750Y-59173D01*
X56788Y-59154D01*
X56826Y-59154D01*
X56883Y-59173D01*
X57111Y-59402D01*
X57111Y-59154D01*
X60161Y-60626D02*
X59761Y-60626D01*
X60161Y-60397D02*
X59933Y-60569D01*
X59761Y-60397D02*
X59990Y-60626D01*
X59761Y-60035D02*
X59761Y-60226D01*
X59952Y-60245D01*
X59933Y-60226D01*
X59914Y-60188D01*
X59914Y-60092D01*
X59933Y-60054D01*
X59952Y-60035D01*
X59990Y-60016D01*
X60085Y-60016D01*
X60123Y-60035D01*
X60142Y-60054D01*
X60161Y-60092D01*
X60161Y-60188D01*
X60142Y-60226D01*
X60123Y-60245D01*
X59761Y-59769D02*
X59761Y-59730D01*
X59780Y-59692D01*
X59800Y-59673D01*
X59838Y-59654D01*
X59914Y-59635D01*
X60009Y-59635D01*
X60085Y-59654D01*
X60123Y-59673D01*
X60142Y-59692D01*
X60161Y-59730D01*
X60161Y-59769D01*
X60142Y-59807D01*
X60123Y-59826D01*
X60085Y-59845D01*
X60009Y-59864D01*
X59914Y-59864D01*
X59838Y-59845D01*
X59800Y-59826D01*
X59780Y-59807D01*
X59761Y-59769D01*
X60161Y-59254D02*
X60161Y-59483D01*
X60161Y-59369D02*
X59761Y-59369D01*
X59819Y-59407D01*
X59857Y-59445D01*
X59876Y-59483D01*
G54D13*
X64955Y-46938D02*
X64755Y-46938D01*
X64755Y-46890D01*
X64765Y-46861D01*
X64784Y-46842D01*
X64803Y-46833D01*
X64841Y-46823D01*
X64870Y-46823D01*
X64908Y-46833D01*
X64927Y-46842D01*
X64946Y-46861D01*
X64955Y-46890D01*
X64955Y-46938D01*
X64955Y-46633D02*
X64955Y-46747D01*
X64955Y-46690D02*
X64755Y-46690D01*
X64784Y-46709D01*
X64803Y-46728D01*
X64813Y-46747D01*
X64755Y-46509D02*
X64755Y-46490D01*
X64765Y-46471D01*
X64775Y-46461D01*
X64794Y-46452D01*
X64832Y-46442D01*
X64879Y-46442D01*
X64917Y-46452D01*
X64936Y-46461D01*
X64946Y-46471D01*
X64955Y-46490D01*
X64955Y-46509D01*
X64946Y-46528D01*
X64936Y-46538D01*
X64917Y-46547D01*
X64879Y-46557D01*
X64832Y-46557D01*
X64794Y-46547D01*
X64775Y-46538D01*
X64765Y-46528D01*
X64755Y-46509D01*
X64775Y-46366D02*
X64765Y-46357D01*
X64755Y-46338D01*
X64755Y-46290D01*
X64765Y-46271D01*
X64775Y-46261D01*
X64794Y-46252D01*
X64813Y-46252D01*
X64841Y-46261D01*
X64955Y-46376D01*
X64955Y-46252D01*
X63655Y-46988D02*
X63455Y-46988D01*
X63455Y-46940D01*
X63465Y-46911D01*
X63484Y-46892D01*
X63503Y-46883D01*
X63541Y-46873D01*
X63570Y-46873D01*
X63608Y-46883D01*
X63627Y-46892D01*
X63646Y-46911D01*
X63655Y-46940D01*
X63655Y-46988D01*
X63655Y-46683D02*
X63655Y-46797D01*
X63655Y-46740D02*
X63455Y-46740D01*
X63484Y-46759D01*
X63503Y-46778D01*
X63513Y-46797D01*
X63455Y-46559D02*
X63455Y-46540D01*
X63465Y-46521D01*
X63475Y-46511D01*
X63494Y-46502D01*
X63532Y-46492D01*
X63579Y-46492D01*
X63617Y-46502D01*
X63636Y-46511D01*
X63646Y-46521D01*
X63655Y-46540D01*
X63655Y-46559D01*
X63646Y-46578D01*
X63636Y-46588D01*
X63617Y-46597D01*
X63579Y-46607D01*
X63532Y-46607D01*
X63494Y-46597D01*
X63475Y-46588D01*
X63465Y-46578D01*
X63455Y-46559D01*
X63655Y-46302D02*
X63655Y-46416D01*
X63655Y-46359D02*
X63455Y-46359D01*
X63484Y-46378D01*
X63503Y-46397D01*
X63513Y-46416D01*
G54D22*
X50324Y-51615D02*
X50324Y-51934D01*
X50343Y-51971D01*
X50362Y-51990D01*
X50399Y-52009D01*
X50474Y-52009D01*
X50512Y-51990D01*
X50530Y-51971D01*
X50549Y-51934D01*
X50549Y-51615D01*
X50943Y-52009D02*
X50718Y-52009D01*
X50831Y-52009D02*
X50831Y-51615D01*
X50793Y-51671D01*
X50756Y-51709D01*
X50718Y-51728D01*
X51187Y-51615D02*
X51225Y-51615D01*
X51262Y-51634D01*
X51281Y-51653D01*
X51300Y-51690D01*
X51318Y-51765D01*
X51318Y-51859D01*
X51300Y-51934D01*
X51281Y-51971D01*
X51262Y-51990D01*
X51225Y-52009D01*
X51187Y-52009D01*
X51150Y-51990D01*
X51131Y-51971D01*
X51112Y-51934D01*
X51093Y-51859D01*
X51093Y-51765D01*
X51112Y-51690D01*
X51131Y-51653D01*
X51150Y-51634D01*
X51187Y-51615D01*
X51450Y-51615D02*
X51694Y-51615D01*
X51562Y-51765D01*
X51619Y-51765D01*
X51656Y-51784D01*
X51675Y-51803D01*
X51694Y-51840D01*
X51694Y-51934D01*
X51675Y-51971D01*
X51656Y-51990D01*
X51619Y-52009D01*
X51506Y-52009D01*
X51469Y-51990D01*
X51450Y-51971D01*
G54D11*
X37171Y-55642D02*
X37171Y-56128D01*
X37200Y-56185D01*
X37228Y-56214D01*
X37285Y-56242D01*
X37400Y-56242D01*
X37457Y-56214D01*
X37485Y-56185D01*
X37514Y-56128D01*
X37514Y-55642D01*
X37771Y-55700D02*
X37799Y-55671D01*
X37857Y-55642D01*
X37999Y-55642D01*
X38057Y-55671D01*
X38085Y-55700D01*
X38114Y-55757D01*
X38114Y-55814D01*
X38085Y-55900D01*
X37742Y-56242D01*
X38114Y-56242D01*
X38485Y-55642D02*
X38542Y-55642D01*
X38600Y-55671D01*
X38628Y-55700D01*
X38657Y-55757D01*
X38685Y-55871D01*
X38685Y-56014D01*
X38657Y-56128D01*
X38628Y-56185D01*
X38600Y-56214D01*
X38542Y-56242D01*
X38485Y-56242D01*
X38428Y-56214D01*
X38400Y-56185D01*
X38371Y-56128D01*
X38342Y-56014D01*
X38342Y-55871D01*
X38371Y-55757D01*
X38400Y-55700D01*
X38428Y-55671D01*
X38485Y-55642D01*
X38914Y-55700D02*
X38942Y-55671D01*
X39000Y-55642D01*
X39142Y-55642D01*
X39200Y-55671D01*
X39228Y-55700D01*
X39257Y-55757D01*
X39257Y-55814D01*
X39228Y-55900D01*
X38885Y-56242D01*
X39257Y-56242D01*
G54D19*
X55173Y-51716D02*
X55192Y-51735D01*
X55211Y-51792D01*
X55211Y-51830D01*
X55192Y-51888D01*
X55154Y-51926D01*
X55116Y-51945D01*
X55040Y-51964D01*
X54983Y-51964D01*
X54907Y-51945D01*
X54869Y-51926D01*
X54830Y-51888D01*
X54811Y-51830D01*
X54811Y-51792D01*
X54830Y-51735D01*
X54850Y-51716D01*
X54811Y-51469D02*
X54811Y-51392D01*
X54830Y-51354D01*
X54869Y-51316D01*
X54945Y-51297D01*
X55078Y-51297D01*
X55154Y-51316D01*
X55192Y-51354D01*
X55211Y-51392D01*
X55211Y-51469D01*
X55192Y-51507D01*
X55154Y-51545D01*
X55078Y-51564D01*
X54945Y-51564D01*
X54869Y-51545D01*
X54830Y-51507D01*
X54811Y-51469D01*
X55211Y-51126D02*
X54811Y-51126D01*
X55211Y-50897D01*
X54811Y-50897D01*
X55211Y-50497D02*
X55211Y-50726D01*
X55211Y-50611D02*
X54811Y-50611D01*
X54869Y-50649D01*
X54907Y-50688D01*
X54926Y-50726D01*
X54811Y-50249D02*
X54811Y-50211D01*
X54830Y-50173D01*
X54850Y-50154D01*
X54888Y-50135D01*
X54964Y-50116D01*
X55059Y-50116D01*
X55135Y-50135D01*
X55173Y-50154D01*
X55192Y-50173D01*
X55211Y-50211D01*
X55211Y-50249D01*
X55192Y-50288D01*
X55173Y-50307D01*
X55135Y-50326D01*
X55059Y-50345D01*
X54964Y-50345D01*
X54888Y-50326D01*
X54850Y-50307D01*
X54830Y-50288D01*
X54811Y-50249D01*
X55211Y-49735D02*
X55211Y-49964D01*
X55211Y-49849D02*
X54811Y-49849D01*
X54869Y-49888D01*
X54907Y-49926D01*
X54926Y-49964D01*
G54D20*
X61759Y-44792D02*
X61969Y-45107D01*
X61969Y-44792D02*
X61759Y-45107D01*
X62254Y-45107D02*
X62074Y-45107D01*
X62164Y-45107D02*
X62164Y-44792D01*
X62134Y-44837D01*
X62104Y-44867D01*
X62074Y-44882D01*
X62449Y-44792D02*
X62479Y-44792D01*
X62509Y-44807D01*
X62524Y-44822D01*
X62539Y-44852D01*
X62554Y-44912D01*
X62554Y-44987D01*
X62539Y-45047D01*
X62524Y-45077D01*
X62509Y-45092D01*
X62479Y-45107D01*
X62449Y-45107D01*
X62419Y-45092D01*
X62404Y-45077D01*
X62389Y-45047D01*
X62374Y-44987D01*
X62374Y-44912D01*
X62389Y-44852D01*
X62404Y-44822D01*
X62419Y-44807D01*
X62449Y-44792D01*
X62674Y-44822D02*
X62689Y-44807D01*
X62719Y-44792D01*
X62794Y-44792D01*
X62824Y-44807D01*
X62839Y-44822D01*
X62854Y-44852D01*
X62854Y-44882D01*
X62839Y-44927D01*
X62659Y-45107D01*
X62854Y-45107D01*
G54D19*
X61804Y-41911D02*
X61804Y-41511D01*
X61957Y-41511D01*
X61995Y-41530D01*
X62014Y-41550D01*
X62033Y-41588D01*
X62033Y-41645D01*
X62014Y-41683D01*
X61995Y-41702D01*
X61957Y-41721D01*
X61804Y-41721D01*
X62414Y-41911D02*
X62185Y-41911D01*
X62300Y-41911D02*
X62300Y-41511D01*
X62261Y-41569D01*
X62223Y-41607D01*
X62185Y-41626D01*
X70161Y-46195D02*
X69761Y-46195D01*
X69761Y-46042D01*
X69780Y-46004D01*
X69800Y-45985D01*
X69838Y-45966D01*
X69895Y-45966D01*
X69933Y-45985D01*
X69952Y-46004D01*
X69971Y-46042D01*
X69971Y-46195D01*
X69800Y-45814D02*
X69780Y-45795D01*
X69761Y-45757D01*
X69761Y-45661D01*
X69780Y-45623D01*
X69800Y-45604D01*
X69838Y-45585D01*
X69876Y-45585D01*
X69933Y-45604D01*
X70161Y-45833D01*
X70161Y-45585D01*
G54D11*
X52271Y-51392D02*
X52271Y-51878D01*
X52300Y-51935D01*
X52328Y-51964D01*
X52385Y-51992D01*
X52500Y-51992D01*
X52557Y-51964D01*
X52585Y-51935D01*
X52614Y-51878D01*
X52614Y-51392D01*
X53214Y-51992D02*
X52871Y-51992D01*
X53042Y-51992D02*
X53042Y-51392D01*
X52985Y-51478D01*
X52928Y-51535D01*
X52871Y-51564D01*
X53585Y-51392D02*
X53642Y-51392D01*
X53700Y-51421D01*
X53728Y-51450D01*
X53757Y-51507D01*
X53785Y-51621D01*
X53785Y-51764D01*
X53757Y-51878D01*
X53728Y-51935D01*
X53700Y-51964D01*
X53642Y-51992D01*
X53585Y-51992D01*
X53528Y-51964D01*
X53500Y-51935D01*
X53471Y-51878D01*
X53442Y-51764D01*
X53442Y-51621D01*
X53471Y-51507D01*
X53500Y-51450D01*
X53528Y-51421D01*
X53585Y-51392D01*
X54357Y-51992D02*
X54014Y-51992D01*
X54185Y-51992D02*
X54185Y-51392D01*
X54128Y-51478D01*
X54071Y-51535D01*
X54014Y-51564D01*
%LPC*%
G54D23*
X60957Y-46904D03*
X61272Y-46904D03*
X61587Y-46904D03*
X61902Y-46904D03*
X62217Y-46904D03*
X62532Y-46904D03*
X62847Y-46904D03*
X63162Y-46904D03*
X63160Y-50670D03*
X60950Y-50670D03*
X61270Y-50670D03*
X61590Y-50670D03*
X61900Y-50670D03*
X62220Y-50670D03*
X62530Y-50670D03*
X62850Y-50670D03*
G54D24*
X63950Y-47688D03*
X63950Y-48002D03*
X63950Y-48318D03*
X63950Y-48632D03*
X63950Y-48948D03*
X63950Y-49262D03*
X63950Y-49578D03*
X63950Y-49892D03*
X60170Y-47690D03*
X60170Y-48000D03*
X60170Y-48320D03*
X60170Y-48630D03*
X60170Y-48940D03*
X60170Y-49260D03*
X60170Y-49580D03*
X60170Y-49900D03*
G54D25*
X70000Y-51075D03*
X70000Y-53075D03*
X67000Y-51075D03*
X67000Y-53075D03*
X70000Y-47850D03*
X70000Y-49850D03*
X67000Y-47850D03*
X67000Y-49850D03*
G54D26*
X41674Y-56250D03*
X43774Y-56250D03*
X41674Y-55750D03*
X41674Y-55250D03*
X41674Y-54750D03*
X43774Y-55750D03*
X43774Y-55250D03*
X43774Y-54750D03*
G54D27*
X68575Y-44475D03*
X68575Y-42375D03*
X68075Y-44475D03*
X67575Y-44475D03*
X67075Y-44475D03*
X68075Y-42375D03*
X67575Y-42375D03*
X67075Y-42375D03*
G54D26*
X64357Y-56661D03*
X66457Y-56661D03*
X64357Y-56161D03*
X64357Y-55661D03*
X64357Y-55161D03*
X66457Y-56161D03*
X66457Y-55661D03*
X66457Y-55161D03*
X57368Y-56718D03*
X59468Y-56718D03*
X57368Y-56218D03*
X57368Y-55718D03*
X57368Y-55218D03*
X59468Y-56218D03*
X59468Y-55718D03*
X59468Y-55218D03*
X50416Y-56707D03*
X52516Y-56707D03*
X50416Y-56207D03*
X50416Y-55707D03*
X50416Y-55207D03*
X52516Y-56207D03*
X52516Y-55707D03*
X52516Y-55207D03*
G54D28*
X52900Y-41950D03*
X52900Y-43250D03*
X52900Y-45350D03*
X52900Y-44050D03*
X53950Y-45350D03*
X53950Y-44050D03*
X53800Y-46300D03*
X53800Y-47600D03*
G54D29*
X56100Y-42775D03*
X57400Y-42775D03*
G54D28*
X54800Y-46300D03*
X54800Y-47600D03*
X55100Y-43300D03*
X55100Y-42000D03*
X53950Y-41950D03*
X53950Y-43250D03*
X51900Y-50650D03*
X51900Y-49350D03*
G54D29*
X49350Y-52600D03*
X50650Y-52600D03*
G54D28*
X47200Y-53850D03*
X47200Y-52550D03*
X44150Y-51400D03*
X44150Y-50100D03*
G54D30*
X49398Y-58123D03*
X50148Y-58123D03*
G54D31*
X52057Y-54482D03*
X52057Y-53732D03*
X52687Y-54482D03*
X52687Y-53732D03*
X51387Y-54482D03*
X51387Y-53732D03*
X50718Y-54482D03*
X50718Y-53732D03*
G54D30*
X63971Y-58785D03*
X63221Y-58785D03*
X63221Y-57288D03*
X63971Y-57288D03*
X67671Y-58037D03*
X66921Y-58037D03*
G54D31*
X49498Y-60309D03*
X49498Y-59559D03*
G54D30*
X48965Y-55170D03*
X49715Y-55170D03*
X48965Y-55957D03*
X49715Y-55957D03*
X50148Y-58871D03*
X49398Y-58871D03*
X49398Y-57375D03*
X50148Y-57375D03*
X53967Y-58123D03*
X53217Y-58123D03*
X55956Y-55850D03*
X56706Y-55850D03*
G54D31*
X53946Y-60269D03*
X53946Y-59519D03*
G54D30*
X53967Y-55682D03*
X53217Y-55682D03*
X53967Y-56430D03*
X53217Y-56430D03*
X53217Y-58871D03*
X53967Y-58871D03*
X53967Y-57375D03*
X53217Y-57375D03*
X62787Y-56068D03*
X63537Y-56068D03*
X67947Y-55320D03*
X67197Y-55320D03*
X67986Y-56147D03*
X67236Y-56147D03*
X66921Y-58785D03*
X67671Y-58785D03*
X67671Y-57288D03*
X66921Y-57288D03*
G54D31*
X67769Y-60183D03*
X67769Y-59433D03*
X57237Y-54256D03*
X57237Y-53506D03*
X57945Y-54256D03*
X57945Y-53506D03*
X59323Y-54256D03*
X59323Y-53506D03*
X58614Y-54256D03*
X58614Y-53506D03*
G54D30*
X56232Y-57976D03*
X56982Y-57976D03*
X60682Y-57346D03*
X59932Y-57346D03*
G54D31*
X56174Y-60162D03*
X56174Y-59412D03*
G54D30*
X55956Y-55062D03*
X56706Y-55062D03*
X41288Y-58453D03*
X40538Y-58453D03*
X56982Y-58685D03*
X56232Y-58685D03*
X56232Y-57267D03*
X56982Y-57267D03*
X60682Y-58094D03*
X59932Y-58094D03*
G54D31*
X60622Y-60241D03*
X60622Y-59491D03*
G54D30*
X60958Y-55614D03*
X60208Y-55614D03*
X60958Y-56362D03*
X60208Y-56362D03*
X59932Y-58842D03*
X60682Y-58842D03*
G54D31*
X66025Y-43825D03*
X66025Y-43075D03*
G54D30*
X62787Y-55320D03*
X63537Y-55320D03*
G54D31*
X63202Y-60183D03*
X63202Y-59433D03*
G54D30*
X63221Y-58037D03*
X63971Y-58037D03*
G54D31*
X65643Y-54435D03*
X65643Y-53685D03*
X66391Y-54435D03*
X66391Y-53685D03*
X66150Y-45250D03*
X66150Y-44500D03*
G54D30*
X64675Y-50925D03*
X65425Y-50925D03*
G54D31*
X64895Y-54435D03*
X64895Y-53685D03*
X65375Y-47675D03*
X65375Y-48425D03*
X64147Y-54435D03*
X64147Y-53685D03*
G54D30*
X63400Y-42975D03*
X64150Y-42975D03*
X59700Y-42975D03*
X60450Y-42975D03*
G54D31*
X48200Y-53100D03*
X48200Y-52350D03*
X52950Y-46275D03*
X52950Y-47025D03*
G54D30*
X40144Y-55500D03*
X40894Y-55500D03*
G54D31*
X41543Y-54025D03*
X41543Y-53275D03*
X42291Y-54025D03*
X42291Y-53275D03*
X43866Y-54025D03*
X43866Y-53275D03*
X43118Y-54025D03*
X43118Y-53275D03*
G54D30*
X40538Y-57705D03*
X41288Y-57705D03*
G54D31*
X40519Y-59969D03*
X40519Y-59219D03*
G54D30*
X40144Y-54752D03*
X40894Y-54752D03*
X44989Y-56957D03*
X44239Y-56957D03*
X44239Y-58453D03*
X44989Y-58453D03*
X45304Y-56012D03*
X44554Y-56012D03*
X45304Y-55264D03*
X44554Y-55264D03*
G54D31*
X44968Y-59930D03*
X44968Y-59180D03*
G54D30*
X44989Y-57705D03*
X44239Y-57705D03*
X40538Y-56957D03*
X41288Y-56957D03*
G54D32*
X38300Y-47150D03*
X38300Y-46150D03*
G54D33*
X67485Y-61311D03*
G54D34*
X67485Y-62311D03*
X66485Y-61311D03*
X66485Y-62311D03*
X65485Y-61311D03*
X65485Y-62311D03*
X64485Y-61311D03*
X64485Y-62311D03*
X63485Y-61311D03*
X63485Y-62311D03*
G54D33*
X53702Y-61311D03*
G54D34*
X53702Y-62311D03*
X52702Y-61311D03*
X52702Y-62311D03*
X51702Y-61311D03*
X51702Y-62311D03*
X50702Y-61311D03*
X50702Y-62311D03*
X49702Y-61311D03*
X49702Y-62311D03*
G54D33*
X60496Y-61311D03*
G54D34*
X60496Y-62311D03*
X59496Y-61311D03*
X59496Y-62311D03*
X58496Y-61311D03*
X58496Y-62311D03*
X57496Y-61311D03*
X57496Y-62311D03*
X56496Y-61311D03*
X56496Y-62311D03*
G54D33*
X44800Y-61311D03*
G54D34*
X44800Y-62311D03*
X43800Y-61311D03*
X43800Y-62311D03*
X42800Y-61311D03*
X42800Y-62311D03*
X41800Y-61311D03*
X41800Y-62311D03*
X40800Y-61311D03*
X40800Y-62311D03*
G54D33*
X57250Y-47750D03*
G54D34*
X56250Y-47750D03*
X57250Y-46750D03*
X56250Y-46750D03*
X57250Y-45750D03*
X56250Y-45750D03*
X57250Y-44750D03*
X56250Y-44750D03*
G54D33*
X40800Y-47000D03*
G54D34*
X41800Y-47000D03*
X42800Y-47000D03*
G54D33*
X66025Y-57700D03*
G54D34*
X66025Y-58700D03*
X66025Y-59700D03*
G54D33*
X64875Y-57700D03*
G54D34*
X64875Y-58700D03*
X64875Y-59700D03*
G54D33*
X42950Y-51350D03*
G54D34*
X41950Y-51350D03*
X40950Y-51350D03*
G54D33*
X42212Y-57256D03*
G54D34*
X42212Y-58256D03*
X42212Y-59256D03*
G54D33*
X43354Y-57256D03*
G54D34*
X43354Y-58256D03*
X43354Y-59256D03*
G54D33*
X51112Y-57831D03*
G54D34*
X51112Y-58831D03*
X51112Y-59831D03*
G54D33*
X52253Y-57831D03*
G54D34*
X52253Y-58831D03*
X52253Y-59831D03*
G54D33*
X57827Y-57881D03*
G54D34*
X57827Y-58881D03*
X57827Y-59881D03*
G54D33*
X58969Y-57881D03*
G54D34*
X58969Y-58881D03*
X58969Y-59881D03*
G54D35*
X65275Y-46895D03*
X65275Y-46305D03*
X63975Y-46945D03*
X63975Y-46355D03*
G54D36*
X50462Y-48948D03*
X50462Y-49145D03*
X50462Y-49342D03*
X50462Y-49539D03*
X50462Y-49736D03*
X50462Y-49933D03*
X50462Y-50130D03*
X50462Y-50326D03*
X50462Y-47374D03*
X45738Y-47374D03*
X45738Y-50326D03*
X50462Y-48752D03*
X50462Y-48555D03*
X50462Y-48358D03*
X50462Y-48161D03*
X50462Y-47964D03*
X50462Y-47767D03*
X50462Y-47570D03*
X45738Y-47570D03*
X45738Y-47767D03*
X45738Y-47964D03*
X45738Y-48161D03*
X45738Y-48358D03*
X45738Y-48555D03*
X45738Y-48752D03*
X45738Y-48948D03*
X45738Y-49145D03*
X45738Y-49342D03*
X45738Y-49539D03*
X45738Y-49736D03*
X45738Y-49933D03*
X45738Y-50130D03*
G54D37*
X49576Y-51212D03*
X49380Y-51212D03*
X49183Y-51212D03*
X48986Y-51212D03*
X48789Y-51212D03*
X48592Y-51212D03*
X48002Y-51212D03*
X47608Y-51212D03*
X47411Y-51212D03*
X48395Y-51212D03*
X48198Y-51212D03*
X47805Y-51212D03*
X47214Y-51212D03*
X47017Y-51212D03*
X46820Y-51212D03*
X46624Y-51212D03*
X49576Y-46488D03*
X49380Y-46488D03*
X49183Y-46488D03*
X48986Y-46488D03*
X48789Y-46488D03*
X48592Y-46488D03*
X48395Y-46488D03*
X48198Y-46488D03*
X48002Y-46488D03*
X47805Y-46488D03*
X47608Y-46488D03*
X47411Y-46488D03*
X47214Y-46488D03*
X47017Y-46488D03*
X46820Y-46488D03*
X46624Y-46488D03*
G54D38*
X38250Y-48600D03*
X38250Y-49600D03*
X38250Y-51600D03*
X38250Y-52600D03*
X38250Y-53600D03*
G54D33*
X57050Y-51850D03*
G54D34*
X56050Y-51850D03*
X57050Y-50850D03*
X56050Y-50850D03*
X57050Y-49850D03*
X56050Y-49850D03*
G54D39*
X64125Y-44350D03*
X60425Y-44350D03*
G54D33*
X66150Y-42075D03*
G54D34*
X65150Y-42075D03*
X64150Y-42075D03*
X63150Y-42075D03*
G54D33*
X69725Y-44800D03*
G54D34*
X69725Y-43800D03*
X69725Y-42800D03*
X69725Y-41800D03*
G54D40*
X37716Y-43047D03*
X37716Y-42047D03*
X38716Y-43047D03*
X38716Y-42047D03*
X39716Y-43047D03*
X39716Y-42047D03*
X40716Y-43047D03*
X40716Y-42047D03*
X41716Y-43047D03*
X41716Y-42047D03*
X42716Y-43047D03*
X42716Y-42047D03*
X43716Y-43047D03*
X43716Y-42047D03*
X44716Y-43047D03*
X44716Y-42047D03*
X45716Y-43047D03*
X45716Y-42047D03*
X46716Y-43047D03*
X46716Y-42047D03*
X47716Y-43047D03*
X47716Y-42047D03*
X48716Y-43047D03*
X48716Y-42047D03*
X49716Y-43047D03*
X49716Y-42047D03*
X39716Y-44047D03*
X39716Y-45047D03*
X40716Y-44047D03*
X40716Y-45047D03*
X41716Y-44047D03*
X41716Y-45047D03*
X42716Y-44047D03*
X42716Y-45047D03*
G54D41*
X46968Y-56417D03*
X68425Y-46181D03*
M02*
