M48
;DRILL file {Pcbnew (2013-mar-13)-testing} date Thu 04 Apr 2013 06:32:22 PM CEST
;FORMAT={-:-/ absolute / inch / decimal}
FMAT,2
INCH,TZ
T1C0.024
T2C0.025
T3C0.032
T4C0.035
T5C0.039
T6C0.040
T7C0.118
%
G90
G05
M72
T1
X3.825Y-4.86
X3.825Y-4.96
X3.825Y-5.16
X3.825Y-5.26
X3.825Y-5.36
T2
X3.745Y-4.815
X3.745Y-4.88
X3.745Y-4.94
X3.745Y-5.13
X3.745Y-5.2
X3.81Y-4.39
X3.81Y-4.465
X3.81Y-4.53
X3.82Y-5.075
X3.83Y-5.99
X3.83Y-6.295
X3.835Y-5.74
X3.835Y-5.8
X3.835Y-5.855
X3.835Y-5.92
X3.875Y-5.005
X3.88Y-5.075
X3.965Y-5.
X3.975Y-6.015
X3.9969Y-5.9556
X4.0047Y-5.8729
X4.035Y-4.78
X4.0835Y-5.4044
X4.13Y-4.805
X4.15Y-4.86
X4.17Y-5.805
X4.175Y-4.95
X4.215Y-4.975
X4.22Y-6.005
X4.2291Y-5.6052
X4.27Y-4.8
X4.35Y-4.49
X4.38Y-5.875
X4.385Y-4.5475
X4.415Y-4.49
X4.4275Y-4.6375
X4.45Y-4.6775
X4.45Y-5.36
X4.455Y-5.27
X4.4575Y-5.4516
X4.465Y-5.225
X4.47Y-4.72
X4.4725Y-4.77
X4.475Y-4.815
X4.4825Y-4.86
X4.49Y-4.965
X4.54Y-5.07
X4.56Y-5.97
X4.605Y-5.275
X4.605Y-6.22
X4.6375Y-4.8725
X4.64Y-4.81
X4.6475Y-4.74
X4.66Y-5.89
X4.66Y-5.96
X4.665Y-4.925
X4.69Y-4.755
X4.7125Y-5.19
X4.72Y-4.855
X4.72Y-4.925
X4.72Y-6.005
X4.77Y-4.855
X4.775Y-4.925
X4.795Y-4.4425
X4.81Y-4.765
X4.81Y-4.82
X4.83Y-5.19
X4.835Y-4.925
X4.85Y-5.48
X4.855Y-5.405
X4.86Y-5.275
X4.87Y-5.98
X4.88Y-6.11
X4.895Y-4.805
X4.895Y-4.865
X4.895Y-4.925
X4.9Y-6.22
X4.92Y-5.19
X4.9931Y-5.4501
X5.Y-4.5
X5.06Y-4.32
X5.06Y-4.5
X5.064Y-5.9304
X5.095Y-4.355
X5.095Y-5.13
X5.0994Y-5.6706
X5.105Y-4.205
X5.115Y-4.965
X5.145Y-4.7725
X5.175Y-4.26
X5.18Y-4.5525
X5.2Y-4.505
X5.225Y-4.77
X5.26Y-4.8
X5.2687Y-5.9304
X5.305Y-4.78
X5.32Y-5.2825
X5.3238Y-5.5013
X5.3575Y-5.365
X5.365Y-4.925
X5.365Y-5.
X5.365Y-5.08
X5.365Y-5.17
X5.395Y-5.43
X5.43Y-6.225
X5.47Y-5.425
X5.47Y-5.995
X5.48Y-4.5
X5.48Y-4.555
X5.4925Y-4.44
X5.54Y-4.4725
X5.5465Y-5.9945
X5.56Y-4.515
X5.56Y-5.425
X5.57Y-5.135
X5.585Y-6.075
X5.605Y-4.2
X5.645Y-5.4236
X5.645Y-4.9075
X5.7473Y-5.9394
X5.78Y-5.13
X5.78Y-5.2
X5.8Y-5.66
X5.805Y-5.0025
X5.825Y-4.255
X5.8625Y-4.9825
X5.87Y-4.215
X5.885Y-5.2
X5.9025Y-5.06
X5.915Y-4.33
X5.9325Y-5.1
X5.9402Y-5.9276
X6.0032Y-5.4827
X6.01Y-5.2
X6.035Y-5.12
X6.05Y-5.2825
X6.065Y-5.35
X6.085Y-5.44
X6.1Y-4.9
X6.1253Y-6.022
X6.175Y-5.44
X6.185Y-5.885
X6.185Y-5.96
X6.19Y-6.025
X6.205Y-4.2325
X6.21Y-4.595
X6.21Y-4.925
X6.22Y-4.785
X6.2454Y-5.9927
X6.25Y-5.44
X6.265Y-4.36
X6.28Y-4.315
X6.28Y-4.6
X6.285Y-4.94
X6.295Y-4.56
X6.2975Y-4.8325
X6.315Y-4.7725
X6.33Y-5.445
X6.35Y-4.5925
X6.3825Y-5.065
X6.3875Y-5.1125
X6.4541Y-5.9218
X6.495Y-4.99
X6.5075Y-4.55
X6.515Y-5.645
X6.56Y-5.0275
X6.5875Y-4.895
X6.62Y-4.94
X6.6391Y-5.9179
X6.72Y-5.445
X6.755Y-4.3825
X6.84Y-5.99
X6.96Y-5.755
X6.96Y-5.845
X6.96Y-5.935
X6.96Y-6.005
X6.975Y-6.3
T3
X6.7Y-4.785
X6.7Y-4.985
X6.7Y-5.1075
X6.7Y-5.3075
X7.Y-4.785
X7.Y-4.985
X7.Y-5.1075
X7.Y-5.3075
T4
X3.7717Y-4.2048
X3.7717Y-4.3048
X3.8717Y-4.2048
X3.8717Y-4.3048
X3.9717Y-4.2048
X3.9717Y-4.3048
X3.9717Y-4.4048
X3.9717Y-4.5048
X4.0717Y-4.2048
X4.0717Y-4.3048
X4.0717Y-4.4048
X4.0717Y-4.5048
X4.1717Y-4.2048
X4.1717Y-4.3048
X4.1717Y-4.4048
X4.1717Y-4.5048
X4.2717Y-4.2048
X4.2717Y-4.3048
X4.2717Y-4.4048
X4.2717Y-4.5048
X4.3717Y-4.2048
X4.3717Y-4.3048
X4.4717Y-4.2048
X4.4717Y-4.3048
X4.5717Y-4.2048
X4.5717Y-4.3048
X4.6717Y-4.2048
X4.6717Y-4.3048
X4.7717Y-4.2048
X4.7717Y-4.3048
X4.8717Y-4.2048
X4.8717Y-4.3048
X4.9717Y-4.2048
X4.9717Y-4.3048
T5
X3.83Y-4.615
X3.83Y-4.715
T6
X4.08Y-4.7
X4.08Y-6.1311
X4.08Y-6.2311
X4.095Y-5.135
X4.18Y-4.7
X4.18Y-6.1311
X4.18Y-6.2311
X4.195Y-5.135
X4.2213Y-5.7256
X4.2213Y-5.8256
X4.2213Y-5.9256
X4.28Y-4.7
X4.28Y-6.1311
X4.28Y-6.2311
X4.295Y-5.135
X4.3354Y-5.7256
X4.3354Y-5.8256
X4.3354Y-5.9256
X4.38Y-6.1311
X4.38Y-6.2311
X4.48Y-6.1311
X4.48Y-6.2311
X4.9703Y-6.1311
X4.9703Y-6.2311
X5.0703Y-6.1311
X5.0703Y-6.2311
X5.1112Y-5.7832
X5.1112Y-5.8832
X5.1112Y-5.9832
X5.1703Y-6.1311
X5.1703Y-6.2311
X5.2254Y-5.7832
X5.2254Y-5.8832
X5.2254Y-5.9832
X5.2703Y-6.1311
X5.2703Y-6.2311
X5.3703Y-6.1311
X5.3703Y-6.2311
X5.605Y-4.985
X5.605Y-5.085
X5.605Y-5.185
X5.625Y-4.475
X5.625Y-4.575
X5.625Y-4.675
X5.625Y-4.775
X5.6497Y-6.1311
X5.6497Y-6.2311
X5.705Y-4.985
X5.705Y-5.085
X5.705Y-5.185
X5.725Y-4.475
X5.725Y-4.575
X5.725Y-4.675
X5.725Y-4.775
X5.7497Y-6.1311
X5.7497Y-6.2311
X5.7828Y-5.7882
X5.7828Y-5.8882
X5.7828Y-5.9882
X5.8497Y-6.1311
X5.8497Y-6.2311
X5.8969Y-5.7882
X5.8969Y-5.8882
X5.8969Y-5.9882
X5.9497Y-6.1311
X5.9497Y-6.2311
X6.0497Y-6.1311
X6.0497Y-6.2311
X6.315Y-4.2075
X6.3486Y-6.1311
X6.3486Y-6.2311
X6.415Y-4.2075
X6.4486Y-6.1311
X6.4486Y-6.2311
X6.4875Y-5.77
X6.4875Y-5.87
X6.4875Y-5.97
X6.515Y-4.2075
X6.5486Y-6.1311
X6.5486Y-6.2311
X6.6025Y-5.77
X6.6025Y-5.87
X6.6025Y-5.97
X6.615Y-4.2075
X6.6486Y-6.1311
X6.6486Y-6.2311
X6.7486Y-6.1311
X6.7486Y-6.2311
X6.9725Y-4.18
X6.9725Y-4.28
X6.9725Y-4.38
X6.9725Y-4.48
T7
X4.6969Y-5.6417
X6.8426Y-4.6182
T0
M30
