G04 (created by PCBNEW (2013-mar-13)-testing) date Thu 04 Apr 2013 06:32:20 PM CEST*
%MOIN*%
G04 Gerber Fmt 3.4, Leading zero omitted, Abs format*
%FSLAX34Y34*%
G01*
G70*
G90*
G04 APERTURE LIST*
%ADD10C,2.3622e-06*%
%ADD11C,0.005*%
%ADD12C,0.0098*%
%ADD13C,0.0039*%
%ADD14C,0.012*%
%ADD15C,0.0043*%
%ADD16C,0.0550787*%
%ADD17R,0.0800787X0.0600787*%
%ADD18R,0.0600787X0.0800787*%
%ADD19R,0.0550787X0.0350787*%
%ADD20R,0.0350787X0.0550787*%
%ADD21R,0.0600787X0.0600787*%
%ADD22C,0.0600787*%
%ADD23C,0.0472787*%
%ADD24R,0.00987874X0.0217787*%
%ADD25R,0.00987874X0.0492787*%
%ADD26R,0.0701787X0.0650787*%
%ADD27R,0.0421787X0.0650787*%
%ADD28C,0.0591787*%
%ADD29C,0.157579*%
G04 APERTURE END LIST*
G54D10*
G54D11*
X38950Y-60600D02*
X39850Y-60600D01*
X39850Y-60600D02*
X39850Y-61250D01*
X38950Y-61950D02*
X38950Y-62600D01*
X38950Y-62600D02*
X39850Y-62600D01*
X39850Y-62600D02*
X39850Y-61950D01*
X38950Y-61250D02*
X38950Y-60600D01*
X38750Y-62600D02*
X37850Y-62600D01*
X37850Y-62600D02*
X37850Y-61950D01*
X38750Y-61250D02*
X38750Y-60600D01*
X38750Y-60600D02*
X37850Y-60600D01*
X37850Y-60600D02*
X37850Y-61250D01*
X38750Y-61950D02*
X38750Y-62600D01*
X68050Y-60600D02*
X68950Y-60600D01*
X68950Y-60600D02*
X68950Y-61250D01*
X68050Y-61950D02*
X68050Y-62600D01*
X68050Y-62600D02*
X68950Y-62600D01*
X68950Y-62600D02*
X68950Y-61950D01*
X68050Y-61250D02*
X68050Y-60600D01*
X69950Y-62600D02*
X69050Y-62600D01*
X69050Y-62600D02*
X69050Y-61950D01*
X69950Y-61250D02*
X69950Y-60600D01*
X69950Y-60600D02*
X69050Y-60600D01*
X69050Y-60600D02*
X69050Y-61250D01*
X69950Y-61950D02*
X69950Y-62600D01*
X61550Y-60700D02*
X62450Y-60700D01*
X62450Y-60700D02*
X62450Y-61350D01*
X61550Y-62050D02*
X61550Y-62700D01*
X61550Y-62700D02*
X62450Y-62700D01*
X62450Y-62700D02*
X62450Y-62050D01*
X61550Y-61350D02*
X61550Y-60700D01*
X55550Y-62600D02*
X54650Y-62600D01*
X54650Y-62600D02*
X54650Y-61950D01*
X55550Y-61250D02*
X55550Y-60600D01*
X55550Y-60600D02*
X54650Y-60600D01*
X54650Y-60600D02*
X54650Y-61250D01*
X55550Y-61950D02*
X55550Y-62600D01*
X47300Y-62550D02*
X46400Y-62550D01*
X46400Y-62550D02*
X46400Y-61900D01*
X47300Y-61200D02*
X47300Y-60550D01*
X47300Y-60550D02*
X46400Y-60550D01*
X46400Y-60550D02*
X46400Y-61200D01*
X47300Y-61900D02*
X47300Y-62550D01*
X47600Y-60550D02*
X48500Y-60550D01*
X48500Y-60550D02*
X48500Y-61200D01*
X47600Y-61900D02*
X47600Y-62550D01*
X47600Y-62550D02*
X48500Y-62550D01*
X48500Y-62550D02*
X48500Y-61900D01*
X47600Y-61200D02*
X47600Y-60550D01*
X44500Y-49550D02*
X44500Y-50450D01*
X44500Y-50450D02*
X43850Y-50450D01*
X43150Y-49550D02*
X42500Y-49550D01*
X42500Y-49550D02*
X42500Y-50450D01*
X42500Y-50450D02*
X43150Y-50450D01*
X43850Y-49550D02*
X44500Y-49550D01*
X44500Y-48450D02*
X44500Y-49350D01*
X44500Y-49350D02*
X43850Y-49350D01*
X43150Y-48450D02*
X42500Y-48450D01*
X42500Y-48450D02*
X42500Y-49350D01*
X42500Y-49350D02*
X43150Y-49350D01*
X43850Y-48450D02*
X44500Y-48450D01*
X47100Y-45500D02*
X47100Y-44600D01*
X47100Y-44600D02*
X47750Y-44600D01*
X48450Y-45500D02*
X49100Y-45500D01*
X49100Y-45500D02*
X49100Y-44600D01*
X49100Y-44600D02*
X48450Y-44600D01*
X47750Y-45500D02*
X47100Y-45500D01*
X51649Y-56292D02*
G75*
G03X51649Y-56292I-50J0D01*
G74*
G01*
X51599Y-55842D02*
X51599Y-56242D01*
X51599Y-56242D02*
X52199Y-56242D01*
X52199Y-56242D02*
X52199Y-55842D01*
X52199Y-55442D02*
X52199Y-55042D01*
X52199Y-55042D02*
X51599Y-55042D01*
X51599Y-55042D02*
X51599Y-55442D01*
X51462Y-55032D02*
G75*
G03X51462Y-55032I-50J0D01*
G74*
G01*
X51412Y-55482D02*
X51412Y-55082D01*
X51412Y-55082D02*
X50812Y-55082D01*
X50812Y-55082D02*
X50812Y-55482D01*
X50812Y-55882D02*
X50812Y-56282D01*
X50812Y-56282D02*
X51412Y-56282D01*
X51412Y-56282D02*
X51412Y-55882D01*
X52948Y-60544D02*
G75*
G03X52948Y-60544I-50J0D01*
G74*
G01*
X52898Y-60094D02*
X52898Y-60494D01*
X52898Y-60494D02*
X53498Y-60494D01*
X53498Y-60494D02*
X53498Y-60094D01*
X53498Y-59694D02*
X53498Y-59294D01*
X53498Y-59294D02*
X52898Y-59294D01*
X52898Y-59294D02*
X52898Y-59694D01*
X49248Y-60584D02*
G75*
G03X49248Y-60584I-50J0D01*
G74*
G01*
X49198Y-60134D02*
X49198Y-60534D01*
X49198Y-60534D02*
X49798Y-60534D01*
X49798Y-60534D02*
X49798Y-60134D01*
X49798Y-59734D02*
X49798Y-59334D01*
X49798Y-59334D02*
X49198Y-59334D01*
X49198Y-59334D02*
X49198Y-59734D01*
X50556Y-59284D02*
G75*
G03X50556Y-59284I-50J0D01*
G74*
G01*
X50506Y-59734D02*
X50506Y-59334D01*
X50506Y-59334D02*
X49906Y-59334D01*
X49906Y-59334D02*
X49906Y-59734D01*
X49906Y-60134D02*
X49906Y-60534D01*
X49906Y-60534D02*
X50506Y-60534D01*
X50506Y-60534D02*
X50506Y-60134D01*
X54296Y-59244D02*
G75*
G03X54296Y-59244I-50J0D01*
G74*
G01*
X54246Y-59694D02*
X54246Y-59294D01*
X54246Y-59294D02*
X53646Y-59294D01*
X53646Y-59294D02*
X53646Y-59694D01*
X53646Y-60094D02*
X53646Y-60494D01*
X53646Y-60494D02*
X54246Y-60494D01*
X54246Y-60494D02*
X54246Y-60094D01*
X57272Y-59137D02*
G75*
G03X57272Y-59137I-50J0D01*
G74*
G01*
X57222Y-59587D02*
X57222Y-59187D01*
X57222Y-59187D02*
X56622Y-59187D01*
X56622Y-59187D02*
X56622Y-59587D01*
X56622Y-59987D02*
X56622Y-60387D01*
X56622Y-60387D02*
X57222Y-60387D01*
X57222Y-60387D02*
X57222Y-59987D01*
X68119Y-59237D02*
G75*
G03X68119Y-59237I-50J0D01*
G74*
G01*
X68069Y-59687D02*
X68069Y-59287D01*
X68069Y-59287D02*
X67469Y-59287D01*
X67469Y-59287D02*
X67469Y-59687D01*
X67469Y-60087D02*
X67469Y-60487D01*
X67469Y-60487D02*
X68069Y-60487D01*
X68069Y-60487D02*
X68069Y-60087D01*
X66692Y-60537D02*
G75*
G03X66692Y-60537I-50J0D01*
G74*
G01*
X66642Y-60087D02*
X66642Y-60487D01*
X66642Y-60487D02*
X67242Y-60487D01*
X67242Y-60487D02*
X67242Y-60087D01*
X67242Y-59687D02*
X67242Y-59287D01*
X67242Y-59287D02*
X66642Y-59287D01*
X66642Y-59287D02*
X66642Y-59687D01*
X58483Y-56382D02*
G75*
G03X58483Y-56382I-50J0D01*
G74*
G01*
X58433Y-55932D02*
X58433Y-56332D01*
X58433Y-56332D02*
X59033Y-56332D01*
X59033Y-56332D02*
X59033Y-55932D01*
X59033Y-55532D02*
X59033Y-55132D01*
X59033Y-55132D02*
X58433Y-55132D01*
X58433Y-55132D02*
X58433Y-55532D01*
X58335Y-55082D02*
G75*
G03X58335Y-55082I-50J0D01*
G74*
G01*
X58285Y-55532D02*
X58285Y-55132D01*
X58285Y-55132D02*
X57685Y-55132D01*
X57685Y-55132D02*
X57685Y-55532D01*
X57685Y-55932D02*
X57685Y-56332D01*
X57685Y-56332D02*
X58285Y-56332D01*
X58285Y-56332D02*
X58285Y-55932D01*
X55924Y-60437D02*
G75*
G03X55924Y-60437I-50J0D01*
G74*
G01*
X55874Y-59987D02*
X55874Y-60387D01*
X55874Y-60387D02*
X56474Y-60387D01*
X56474Y-60387D02*
X56474Y-59987D01*
X56474Y-59587D02*
X56474Y-59187D01*
X56474Y-59187D02*
X55874Y-59187D01*
X55874Y-59187D02*
X55874Y-59587D01*
X59664Y-60673D02*
G75*
G03X59664Y-60673I-50J0D01*
G74*
G01*
X59614Y-60223D02*
X59614Y-60623D01*
X59614Y-60623D02*
X60214Y-60623D01*
X60214Y-60623D02*
X60214Y-60223D01*
X60214Y-59823D02*
X60214Y-59423D01*
X60214Y-59423D02*
X59614Y-59423D01*
X59614Y-59423D02*
X59614Y-59823D01*
X61012Y-59373D02*
G75*
G03X61012Y-59373I-50J0D01*
G74*
G01*
X60962Y-59823D02*
X60962Y-59423D01*
X60962Y-59423D02*
X60362Y-59423D01*
X60362Y-59423D02*
X60362Y-59823D01*
X60362Y-60223D02*
X60362Y-60623D01*
X60362Y-60623D02*
X60962Y-60623D01*
X60962Y-60623D02*
X60962Y-60223D01*
X51000Y-52000D02*
G75*
G03X51000Y-52000I-50J0D01*
G74*
G01*
X50950Y-52450D02*
X50950Y-52050D01*
X50950Y-52050D02*
X50350Y-52050D01*
X50350Y-52050D02*
X50350Y-52450D01*
X50350Y-52850D02*
X50350Y-53250D01*
X50350Y-53250D02*
X50950Y-53250D01*
X50950Y-53250D02*
X50950Y-52850D01*
X64300Y-59158D02*
G75*
G03X64300Y-59158I-50J0D01*
G74*
G01*
X64250Y-59608D02*
X64250Y-59208D01*
X64250Y-59208D02*
X63650Y-59208D01*
X63650Y-59208D02*
X63650Y-59608D01*
X63650Y-60008D02*
X63650Y-60408D01*
X63650Y-60408D02*
X64250Y-60408D01*
X64250Y-60408D02*
X64250Y-60008D01*
X42400Y-47950D02*
G75*
G03X42400Y-47950I-50J0D01*
G74*
G01*
X42350Y-48400D02*
X42350Y-48000D01*
X42350Y-48000D02*
X41750Y-48000D01*
X41750Y-48000D02*
X41750Y-48400D01*
X41750Y-48800D02*
X41750Y-49200D01*
X41750Y-49200D02*
X42350Y-49200D01*
X42350Y-49200D02*
X42350Y-48800D01*
X40650Y-50000D02*
G75*
G03X40650Y-50000I-50J0D01*
G74*
G01*
X41050Y-50000D02*
X40650Y-50000D01*
X40650Y-50000D02*
X40650Y-50600D01*
X40650Y-50600D02*
X41050Y-50600D01*
X41450Y-50600D02*
X41850Y-50600D01*
X41850Y-50600D02*
X41850Y-50000D01*
X41850Y-50000D02*
X41450Y-50000D01*
X65127Y-55064D02*
G75*
G03X65127Y-55064I-50J0D01*
G74*
G01*
X65077Y-55514D02*
X65077Y-55114D01*
X65077Y-55114D02*
X64477Y-55114D01*
X64477Y-55114D02*
X64477Y-55514D01*
X64477Y-55914D02*
X64477Y-56314D01*
X64477Y-56314D02*
X65077Y-56314D01*
X65077Y-56314D02*
X65077Y-55914D01*
X64925Y-47025D02*
G75*
G03X64925Y-47025I-50J0D01*
G74*
G01*
X64875Y-46575D02*
X64875Y-46975D01*
X64875Y-46975D02*
X65475Y-46975D01*
X65475Y-46975D02*
X65475Y-46575D01*
X65475Y-46175D02*
X65475Y-45775D01*
X65475Y-45775D02*
X64875Y-45775D01*
X64875Y-45775D02*
X64875Y-46175D01*
X64050Y-47025D02*
G75*
G03X64050Y-47025I-50J0D01*
G74*
G01*
X64000Y-46575D02*
X64000Y-46975D01*
X64000Y-46975D02*
X64600Y-46975D01*
X64600Y-46975D02*
X64600Y-46575D01*
X64600Y-46175D02*
X64600Y-45775D01*
X64600Y-45775D02*
X64000Y-45775D01*
X64000Y-45775D02*
X64000Y-46175D01*
X65668Y-56364D02*
G75*
G03X65668Y-56364I-50J0D01*
G74*
G01*
X65618Y-55914D02*
X65618Y-56314D01*
X65618Y-56314D02*
X66218Y-56314D01*
X66218Y-56314D02*
X66218Y-55914D01*
X66218Y-55514D02*
X66218Y-55114D01*
X66218Y-55114D02*
X65618Y-55114D01*
X65618Y-55114D02*
X65618Y-55514D01*
X44500Y-50750D02*
G75*
G03X44500Y-50750I-50J0D01*
G74*
G01*
X44450Y-51200D02*
X44450Y-50800D01*
X44450Y-50800D02*
X43850Y-50800D01*
X43850Y-50800D02*
X43850Y-51200D01*
X43850Y-51600D02*
X43850Y-52000D01*
X43850Y-52000D02*
X44450Y-52000D01*
X44450Y-52000D02*
X44450Y-51600D01*
X46300Y-51050D02*
G75*
G03X46300Y-51050I-50J0D01*
G74*
G01*
X46250Y-51500D02*
X46250Y-51100D01*
X46250Y-51100D02*
X45650Y-51100D01*
X45650Y-51100D02*
X45650Y-51500D01*
X45650Y-51900D02*
X45650Y-52300D01*
X45650Y-52300D02*
X46250Y-52300D01*
X46250Y-52300D02*
X46250Y-51900D01*
X51400Y-49600D02*
G75*
G03X51400Y-49600I-50J0D01*
G74*
G01*
X51800Y-49600D02*
X51400Y-49600D01*
X51400Y-49600D02*
X51400Y-50200D01*
X51400Y-50200D02*
X51800Y-50200D01*
X52200Y-50200D02*
X52600Y-50200D01*
X52600Y-50200D02*
X52600Y-49600D01*
X52600Y-49600D02*
X52200Y-49600D01*
X51350Y-48300D02*
G75*
G03X51350Y-48300I-50J0D01*
G74*
G01*
X51750Y-48300D02*
X51350Y-48300D01*
X51350Y-48300D02*
X51350Y-48900D01*
X51350Y-48900D02*
X51750Y-48900D01*
X52150Y-48900D02*
X52550Y-48900D01*
X52550Y-48900D02*
X52550Y-48300D01*
X52550Y-48300D02*
X52150Y-48300D01*
X47600Y-52175D02*
G75*
G03X47600Y-52175I-50J0D01*
G74*
G01*
X47550Y-52625D02*
X47550Y-52225D01*
X47550Y-52225D02*
X46950Y-52225D01*
X46950Y-52225D02*
X46950Y-52625D01*
X46950Y-53025D02*
X46950Y-53425D01*
X46950Y-53425D02*
X47550Y-53425D01*
X47550Y-53425D02*
X47550Y-53025D01*
X62952Y-60458D02*
G75*
G03X62952Y-60458I-50J0D01*
G74*
G01*
X62902Y-60008D02*
X62902Y-60408D01*
X62902Y-60408D02*
X63502Y-60408D01*
X63502Y-60408D02*
X63502Y-60008D01*
X63502Y-59608D02*
X63502Y-59208D01*
X63502Y-59208D02*
X62902Y-59208D01*
X62902Y-59208D02*
X62902Y-59608D01*
X43064Y-55756D02*
G75*
G03X43064Y-55756I-50J0D01*
G74*
G01*
X43014Y-55306D02*
X43014Y-55706D01*
X43014Y-55706D02*
X43614Y-55706D01*
X43614Y-55706D02*
X43614Y-55306D01*
X43614Y-54906D02*
X43614Y-54506D01*
X43614Y-54506D02*
X43014Y-54506D01*
X43014Y-54506D02*
X43014Y-54906D01*
X42759Y-54456D02*
G75*
G03X42759Y-54456I-50J0D01*
G74*
G01*
X42709Y-54906D02*
X42709Y-54506D01*
X42709Y-54506D02*
X42109Y-54506D01*
X42109Y-54506D02*
X42109Y-54906D01*
X42109Y-55306D02*
X42109Y-55706D01*
X42109Y-55706D02*
X42709Y-55706D01*
X42709Y-55706D02*
X42709Y-55306D01*
X41696Y-58944D02*
G75*
G03X41696Y-58944I-50J0D01*
G74*
G01*
X41646Y-59394D02*
X41646Y-58994D01*
X41646Y-58994D02*
X41046Y-58994D01*
X41046Y-58994D02*
X41046Y-59394D01*
X41046Y-59794D02*
X41046Y-60194D01*
X41046Y-60194D02*
X41646Y-60194D01*
X41646Y-60194D02*
X41646Y-59794D01*
X40309Y-60244D02*
G75*
G03X40309Y-60244I-50J0D01*
G74*
G01*
X40259Y-59794D02*
X40259Y-60194D01*
X40259Y-60194D02*
X40859Y-60194D01*
X40859Y-60194D02*
X40859Y-59794D01*
X40859Y-59394D02*
X40859Y-58994D01*
X40859Y-58994D02*
X40259Y-58994D01*
X40259Y-58994D02*
X40259Y-59394D01*
X40200Y-52450D02*
G75*
G03X40200Y-52450I-50J0D01*
G74*
G01*
X40150Y-52900D02*
X40150Y-52500D01*
X40150Y-52500D02*
X39550Y-52500D01*
X39550Y-52500D02*
X39550Y-52900D01*
X39550Y-53300D02*
X39550Y-53700D01*
X39550Y-53700D02*
X40150Y-53700D01*
X40150Y-53700D02*
X40150Y-53300D01*
X45357Y-58905D02*
G75*
G03X45357Y-58905I-50J0D01*
G74*
G01*
X45307Y-59355D02*
X45307Y-58955D01*
X45307Y-58955D02*
X44707Y-58955D01*
X44707Y-58955D02*
X44707Y-59355D01*
X44707Y-59755D02*
X44707Y-60155D01*
X44707Y-60155D02*
X45307Y-60155D01*
X45307Y-60155D02*
X45307Y-59755D01*
X39600Y-52450D02*
G75*
G03X39600Y-52450I-50J0D01*
G74*
G01*
X39550Y-52000D02*
X39550Y-52400D01*
X39550Y-52400D02*
X40150Y-52400D01*
X40150Y-52400D02*
X40150Y-52000D01*
X40150Y-51600D02*
X40150Y-51200D01*
X40150Y-51200D02*
X39550Y-51200D01*
X39550Y-51200D02*
X39550Y-51600D01*
X42150Y-52500D02*
G75*
G03X42150Y-52500I-50J0D01*
G74*
G01*
X41650Y-52500D02*
X42050Y-52500D01*
X42050Y-52500D02*
X42050Y-51900D01*
X42050Y-51900D02*
X41650Y-51900D01*
X41250Y-51900D02*
X40850Y-51900D01*
X40850Y-51900D02*
X40850Y-52500D01*
X40850Y-52500D02*
X41250Y-52500D01*
X39400Y-47550D02*
G75*
G03X39400Y-47550I-50J0D01*
G74*
G01*
X39350Y-47100D02*
X39350Y-47500D01*
X39350Y-47500D02*
X39950Y-47500D01*
X39950Y-47500D02*
X39950Y-47100D01*
X39950Y-46700D02*
X39950Y-46300D01*
X39950Y-46300D02*
X39350Y-46300D01*
X39350Y-46300D02*
X39350Y-46700D01*
X44009Y-60205D02*
G75*
G03X44009Y-60205I-50J0D01*
G74*
G01*
X43959Y-59755D02*
X43959Y-60155D01*
X43959Y-60155D02*
X44559Y-60155D01*
X44559Y-60155D02*
X44559Y-59755D01*
X44559Y-59355D02*
X44559Y-58955D01*
X44559Y-58955D02*
X43959Y-58955D01*
X43959Y-58955D02*
X43959Y-59355D01*
G54D12*
X41384Y-49684D02*
G75*
G03X41384Y-49684I-22J0D01*
G74*
G01*
X39763Y-48499D02*
X39763Y-49463D01*
X41337Y-49463D02*
X41337Y-48499D01*
G54D13*
X37800Y-49700D02*
G75*
G03X37800Y-49700I-50J0D01*
G74*
G01*
X37750Y-50150D02*
X37750Y-49750D01*
X37750Y-49750D02*
X37150Y-49750D01*
X37150Y-49750D02*
X37150Y-50150D01*
X37150Y-50550D02*
X37150Y-50950D01*
X37150Y-50950D02*
X37750Y-50950D01*
X37750Y-50950D02*
X37750Y-50550D01*
G54D11*
X40242Y-61164D02*
X40257Y-61150D01*
X40271Y-61107D01*
X40271Y-61078D01*
X40257Y-61035D01*
X40228Y-61007D01*
X40200Y-60992D01*
X40142Y-60978D01*
X40100Y-60978D01*
X40042Y-60992D01*
X40014Y-61007D01*
X39985Y-61035D01*
X39971Y-61078D01*
X39971Y-61107D01*
X39985Y-61150D01*
X40000Y-61164D01*
X40271Y-61450D02*
X40271Y-61278D01*
X40271Y-61364D02*
X39971Y-61364D01*
X40014Y-61335D01*
X40042Y-61307D01*
X40057Y-61278D01*
X40271Y-61735D02*
X40271Y-61564D01*
X40271Y-61650D02*
X39971Y-61650D01*
X40014Y-61621D01*
X40042Y-61592D01*
X40057Y-61564D01*
X39971Y-62007D02*
X39971Y-61864D01*
X40114Y-61850D01*
X40100Y-61864D01*
X40085Y-61892D01*
X40085Y-61964D01*
X40100Y-61992D01*
X40114Y-62007D01*
X40142Y-62021D01*
X40214Y-62021D01*
X40242Y-62007D01*
X40257Y-61992D01*
X40271Y-61964D01*
X40271Y-61892D01*
X40257Y-61864D01*
X40242Y-61850D01*
X38942Y-59514D02*
X38957Y-59500D01*
X38971Y-59457D01*
X38971Y-59428D01*
X38957Y-59385D01*
X38928Y-59357D01*
X38900Y-59342D01*
X38842Y-59328D01*
X38800Y-59328D01*
X38742Y-59342D01*
X38714Y-59357D01*
X38685Y-59385D01*
X38671Y-59428D01*
X38671Y-59457D01*
X38685Y-59500D01*
X38700Y-59514D01*
X38971Y-59800D02*
X38971Y-59628D01*
X38971Y-59714D02*
X38671Y-59714D01*
X38714Y-59685D01*
X38742Y-59657D01*
X38757Y-59628D01*
X38671Y-59985D02*
X38671Y-60014D01*
X38685Y-60042D01*
X38700Y-60057D01*
X38728Y-60071D01*
X38785Y-60085D01*
X38857Y-60085D01*
X38914Y-60071D01*
X38942Y-60057D01*
X38957Y-60042D01*
X38971Y-60014D01*
X38971Y-59985D01*
X38957Y-59957D01*
X38942Y-59942D01*
X38914Y-59928D01*
X38857Y-59914D01*
X38785Y-59914D01*
X38728Y-59928D01*
X38700Y-59942D01*
X38685Y-59957D01*
X38671Y-59985D01*
X38671Y-60185D02*
X38671Y-60385D01*
X38971Y-60257D01*
X67842Y-61364D02*
X67857Y-61350D01*
X67871Y-61307D01*
X67871Y-61278D01*
X67857Y-61235D01*
X67828Y-61207D01*
X67800Y-61192D01*
X67742Y-61178D01*
X67700Y-61178D01*
X67642Y-61192D01*
X67614Y-61207D01*
X67585Y-61235D01*
X67571Y-61278D01*
X67571Y-61307D01*
X67585Y-61350D01*
X67600Y-61364D01*
X67871Y-61650D02*
X67871Y-61478D01*
X67871Y-61564D02*
X67571Y-61564D01*
X67614Y-61535D01*
X67642Y-61507D01*
X67657Y-61478D01*
X67571Y-61835D02*
X67571Y-61864D01*
X67585Y-61892D01*
X67600Y-61907D01*
X67628Y-61921D01*
X67685Y-61935D01*
X67757Y-61935D01*
X67814Y-61921D01*
X67842Y-61907D01*
X67857Y-61892D01*
X67871Y-61864D01*
X67871Y-61835D01*
X67857Y-61807D01*
X67842Y-61792D01*
X67814Y-61778D01*
X67757Y-61764D01*
X67685Y-61764D01*
X67628Y-61778D01*
X67600Y-61792D01*
X67585Y-61807D01*
X67571Y-61835D01*
X67700Y-62107D02*
X67685Y-62078D01*
X67671Y-62064D01*
X67642Y-62050D01*
X67628Y-62050D01*
X67600Y-62064D01*
X67585Y-62078D01*
X67571Y-62107D01*
X67571Y-62164D01*
X67585Y-62192D01*
X67600Y-62207D01*
X67628Y-62221D01*
X67642Y-62221D01*
X67671Y-62207D01*
X67685Y-62192D01*
X67700Y-62164D01*
X67700Y-62107D01*
X67714Y-62078D01*
X67728Y-62064D01*
X67757Y-62050D01*
X67814Y-62050D01*
X67842Y-62064D01*
X67857Y-62078D01*
X67871Y-62107D01*
X67871Y-62164D01*
X67857Y-62192D01*
X67842Y-62207D01*
X67814Y-62221D01*
X67757Y-62221D01*
X67728Y-62207D01*
X67714Y-62192D01*
X67700Y-62164D01*
X69442Y-59214D02*
X69457Y-59200D01*
X69471Y-59157D01*
X69471Y-59128D01*
X69457Y-59085D01*
X69428Y-59057D01*
X69400Y-59042D01*
X69342Y-59028D01*
X69300Y-59028D01*
X69242Y-59042D01*
X69214Y-59057D01*
X69185Y-59085D01*
X69171Y-59128D01*
X69171Y-59157D01*
X69185Y-59200D01*
X69200Y-59214D01*
X69471Y-59500D02*
X69471Y-59328D01*
X69471Y-59414D02*
X69171Y-59414D01*
X69214Y-59385D01*
X69242Y-59357D01*
X69257Y-59328D01*
X69471Y-59785D02*
X69471Y-59614D01*
X69471Y-59700D02*
X69171Y-59700D01*
X69214Y-59671D01*
X69242Y-59642D01*
X69257Y-59614D01*
X69471Y-60071D02*
X69471Y-59900D01*
X69471Y-59985D02*
X69171Y-59985D01*
X69214Y-59957D01*
X69242Y-59928D01*
X69257Y-59900D01*
X62435Y-60542D02*
X62450Y-60557D01*
X62492Y-60571D01*
X62521Y-60571D01*
X62564Y-60557D01*
X62592Y-60528D01*
X62607Y-60500D01*
X62621Y-60442D01*
X62621Y-60400D01*
X62607Y-60342D01*
X62592Y-60314D01*
X62564Y-60285D01*
X62521Y-60271D01*
X62492Y-60271D01*
X62450Y-60285D01*
X62435Y-60300D01*
X62150Y-60571D02*
X62321Y-60571D01*
X62235Y-60571D02*
X62235Y-60271D01*
X62264Y-60314D01*
X62292Y-60342D01*
X62321Y-60357D01*
X61864Y-60571D02*
X62035Y-60571D01*
X61950Y-60571D02*
X61950Y-60271D01*
X61978Y-60314D01*
X62007Y-60342D01*
X62035Y-60357D01*
X61750Y-60300D02*
X61735Y-60285D01*
X61707Y-60271D01*
X61635Y-60271D01*
X61607Y-60285D01*
X61592Y-60300D01*
X61578Y-60328D01*
X61578Y-60357D01*
X61592Y-60400D01*
X61764Y-60571D01*
X61578Y-60571D01*
X55942Y-61414D02*
X55957Y-61400D01*
X55971Y-61357D01*
X55971Y-61328D01*
X55957Y-61285D01*
X55928Y-61257D01*
X55900Y-61242D01*
X55842Y-61228D01*
X55800Y-61228D01*
X55742Y-61242D01*
X55714Y-61257D01*
X55685Y-61285D01*
X55671Y-61328D01*
X55671Y-61357D01*
X55685Y-61400D01*
X55700Y-61414D01*
X55971Y-61700D02*
X55971Y-61528D01*
X55971Y-61614D02*
X55671Y-61614D01*
X55714Y-61585D01*
X55742Y-61557D01*
X55757Y-61528D01*
X55971Y-61985D02*
X55971Y-61814D01*
X55971Y-61900D02*
X55671Y-61900D01*
X55714Y-61871D01*
X55742Y-61842D01*
X55757Y-61814D01*
X55771Y-62242D02*
X55971Y-62242D01*
X55657Y-62171D02*
X55871Y-62100D01*
X55871Y-62285D01*
X46192Y-60664D02*
X46207Y-60650D01*
X46221Y-60607D01*
X46221Y-60578D01*
X46207Y-60535D01*
X46178Y-60507D01*
X46150Y-60492D01*
X46092Y-60478D01*
X46050Y-60478D01*
X45992Y-60492D01*
X45964Y-60507D01*
X45935Y-60535D01*
X45921Y-60578D01*
X45921Y-60607D01*
X45935Y-60650D01*
X45950Y-60664D01*
X46221Y-60950D02*
X46221Y-60778D01*
X46221Y-60864D02*
X45921Y-60864D01*
X45964Y-60835D01*
X45992Y-60807D01*
X46007Y-60778D01*
X45921Y-61135D02*
X45921Y-61164D01*
X45935Y-61192D01*
X45950Y-61207D01*
X45978Y-61221D01*
X46035Y-61235D01*
X46107Y-61235D01*
X46164Y-61221D01*
X46192Y-61207D01*
X46207Y-61192D01*
X46221Y-61164D01*
X46221Y-61135D01*
X46207Y-61107D01*
X46192Y-61092D01*
X46164Y-61078D01*
X46107Y-61064D01*
X46035Y-61064D01*
X45978Y-61078D01*
X45950Y-61092D01*
X45935Y-61107D01*
X45921Y-61135D01*
X46021Y-61492D02*
X46221Y-61492D01*
X45907Y-61421D02*
X46121Y-61350D01*
X46121Y-61535D01*
X48242Y-59614D02*
X48257Y-59600D01*
X48271Y-59557D01*
X48271Y-59528D01*
X48257Y-59485D01*
X48228Y-59457D01*
X48200Y-59442D01*
X48142Y-59428D01*
X48100Y-59428D01*
X48042Y-59442D01*
X48014Y-59457D01*
X47985Y-59485D01*
X47971Y-59528D01*
X47971Y-59557D01*
X47985Y-59600D01*
X48000Y-59614D01*
X48271Y-59900D02*
X48271Y-59728D01*
X48271Y-59814D02*
X47971Y-59814D01*
X48014Y-59785D01*
X48042Y-59757D01*
X48057Y-59728D01*
X47971Y-60085D02*
X47971Y-60114D01*
X47985Y-60142D01*
X48000Y-60157D01*
X48028Y-60171D01*
X48085Y-60185D01*
X48157Y-60185D01*
X48214Y-60171D01*
X48242Y-60157D01*
X48257Y-60142D01*
X48271Y-60114D01*
X48271Y-60085D01*
X48257Y-60057D01*
X48242Y-60042D01*
X48214Y-60028D01*
X48157Y-60014D01*
X48085Y-60014D01*
X48028Y-60028D01*
X48000Y-60042D01*
X47985Y-60057D01*
X47971Y-60085D01*
X47971Y-60457D02*
X47971Y-60314D01*
X48114Y-60300D01*
X48100Y-60314D01*
X48085Y-60342D01*
X48085Y-60414D01*
X48100Y-60442D01*
X48114Y-60457D01*
X48142Y-60471D01*
X48214Y-60471D01*
X48242Y-60457D01*
X48257Y-60442D01*
X48271Y-60414D01*
X48271Y-60342D01*
X48257Y-60314D01*
X48242Y-60300D01*
X43385Y-50821D02*
X43528Y-50821D01*
X43528Y-50521D01*
X43299Y-50550D02*
X43285Y-50535D01*
X43257Y-50521D01*
X43185Y-50521D01*
X43157Y-50535D01*
X43142Y-50550D01*
X43128Y-50578D01*
X43128Y-50607D01*
X43142Y-50650D01*
X43314Y-50821D01*
X43128Y-50821D01*
X42942Y-50521D02*
X42914Y-50521D01*
X42885Y-50535D01*
X42871Y-50550D01*
X42857Y-50578D01*
X42842Y-50635D01*
X42842Y-50707D01*
X42857Y-50764D01*
X42871Y-50792D01*
X42885Y-50807D01*
X42914Y-50821D01*
X42942Y-50821D01*
X42971Y-50807D01*
X42985Y-50792D01*
X42999Y-50764D01*
X43014Y-50707D01*
X43014Y-50635D01*
X42999Y-50578D01*
X42985Y-50550D01*
X42971Y-50535D01*
X42942Y-50521D01*
X42557Y-50821D02*
X42728Y-50821D01*
X42642Y-50821D02*
X42642Y-50521D01*
X42671Y-50564D01*
X42700Y-50592D01*
X42728Y-50607D01*
X43835Y-48371D02*
X43978Y-48371D01*
X43978Y-48071D01*
X43749Y-48100D02*
X43735Y-48085D01*
X43707Y-48071D01*
X43635Y-48071D01*
X43607Y-48085D01*
X43592Y-48100D01*
X43578Y-48128D01*
X43578Y-48157D01*
X43592Y-48200D01*
X43764Y-48371D01*
X43578Y-48371D01*
X43392Y-48071D02*
X43364Y-48071D01*
X43335Y-48085D01*
X43321Y-48100D01*
X43307Y-48128D01*
X43292Y-48185D01*
X43292Y-48257D01*
X43307Y-48314D01*
X43321Y-48342D01*
X43335Y-48357D01*
X43364Y-48371D01*
X43392Y-48371D01*
X43421Y-48357D01*
X43435Y-48342D01*
X43449Y-48314D01*
X43464Y-48257D01*
X43464Y-48185D01*
X43449Y-48128D01*
X43435Y-48100D01*
X43421Y-48085D01*
X43392Y-48071D01*
X43178Y-48100D02*
X43164Y-48085D01*
X43135Y-48071D01*
X43064Y-48071D01*
X43035Y-48085D01*
X43021Y-48100D01*
X43007Y-48128D01*
X43007Y-48157D01*
X43021Y-48200D01*
X43192Y-48371D01*
X43007Y-48371D01*
X48385Y-45942D02*
X48400Y-45957D01*
X48442Y-45971D01*
X48471Y-45971D01*
X48514Y-45957D01*
X48542Y-45928D01*
X48557Y-45900D01*
X48571Y-45842D01*
X48571Y-45800D01*
X48557Y-45742D01*
X48542Y-45714D01*
X48514Y-45685D01*
X48471Y-45671D01*
X48442Y-45671D01*
X48400Y-45685D01*
X48385Y-45700D01*
X48100Y-45971D02*
X48271Y-45971D01*
X48185Y-45971D02*
X48185Y-45671D01*
X48214Y-45714D01*
X48242Y-45742D01*
X48271Y-45757D01*
X47914Y-45671D02*
X47885Y-45671D01*
X47857Y-45685D01*
X47842Y-45700D01*
X47828Y-45728D01*
X47814Y-45785D01*
X47814Y-45857D01*
X47828Y-45914D01*
X47842Y-45942D01*
X47857Y-45957D01*
X47885Y-45971D01*
X47914Y-45971D01*
X47942Y-45957D01*
X47957Y-45942D01*
X47971Y-45914D01*
X47985Y-45857D01*
X47985Y-45785D01*
X47971Y-45728D01*
X47957Y-45700D01*
X47942Y-45685D01*
X47914Y-45671D01*
X47528Y-45971D02*
X47700Y-45971D01*
X47614Y-45971D02*
X47614Y-45671D01*
X47642Y-45714D01*
X47671Y-45742D01*
X47700Y-45757D01*
X52527Y-55370D02*
X52539Y-55358D01*
X52551Y-55322D01*
X52551Y-55298D01*
X52539Y-55263D01*
X52515Y-55239D01*
X52491Y-55227D01*
X52444Y-55215D01*
X52408Y-55215D01*
X52360Y-55227D01*
X52336Y-55239D01*
X52313Y-55263D01*
X52301Y-55298D01*
X52301Y-55322D01*
X52313Y-55358D01*
X52325Y-55370D01*
X52384Y-55584D02*
X52551Y-55584D01*
X52289Y-55525D02*
X52467Y-55465D01*
X52467Y-55620D01*
X52301Y-55763D02*
X52301Y-55786D01*
X52313Y-55810D01*
X52325Y-55822D01*
X52348Y-55834D01*
X52396Y-55846D01*
X52455Y-55846D01*
X52503Y-55834D01*
X52527Y-55822D01*
X52539Y-55810D01*
X52551Y-55786D01*
X52551Y-55763D01*
X52539Y-55739D01*
X52527Y-55727D01*
X52503Y-55715D01*
X52455Y-55703D01*
X52396Y-55703D01*
X52348Y-55715D01*
X52325Y-55727D01*
X52313Y-55739D01*
X52301Y-55763D01*
X52301Y-55929D02*
X52301Y-56084D01*
X52396Y-56001D01*
X52396Y-56036D01*
X52408Y-56060D01*
X52420Y-56072D01*
X52444Y-56084D01*
X52503Y-56084D01*
X52527Y-56072D01*
X52539Y-56060D01*
X52551Y-56036D01*
X52551Y-55965D01*
X52539Y-55941D01*
X52527Y-55929D01*
X50677Y-55370D02*
X50689Y-55358D01*
X50701Y-55322D01*
X50701Y-55298D01*
X50689Y-55263D01*
X50665Y-55239D01*
X50641Y-55227D01*
X50594Y-55215D01*
X50558Y-55215D01*
X50510Y-55227D01*
X50486Y-55239D01*
X50463Y-55263D01*
X50451Y-55298D01*
X50451Y-55322D01*
X50463Y-55358D01*
X50475Y-55370D01*
X50534Y-55584D02*
X50701Y-55584D01*
X50439Y-55525D02*
X50617Y-55465D01*
X50617Y-55620D01*
X50451Y-55763D02*
X50451Y-55786D01*
X50463Y-55810D01*
X50475Y-55822D01*
X50498Y-55834D01*
X50546Y-55846D01*
X50605Y-55846D01*
X50653Y-55834D01*
X50677Y-55822D01*
X50689Y-55810D01*
X50701Y-55786D01*
X50701Y-55763D01*
X50689Y-55739D01*
X50677Y-55727D01*
X50653Y-55715D01*
X50605Y-55703D01*
X50546Y-55703D01*
X50498Y-55715D01*
X50475Y-55727D01*
X50463Y-55739D01*
X50451Y-55763D01*
X50475Y-55941D02*
X50463Y-55953D01*
X50451Y-55977D01*
X50451Y-56036D01*
X50463Y-56060D01*
X50475Y-56072D01*
X50498Y-56084D01*
X50522Y-56084D01*
X50558Y-56072D01*
X50701Y-55929D01*
X50701Y-56084D01*
X53277Y-58420D02*
X53289Y-58408D01*
X53301Y-58372D01*
X53301Y-58348D01*
X53289Y-58313D01*
X53265Y-58289D01*
X53241Y-58277D01*
X53194Y-58265D01*
X53158Y-58265D01*
X53110Y-58277D01*
X53086Y-58289D01*
X53063Y-58313D01*
X53051Y-58348D01*
X53051Y-58372D01*
X53063Y-58408D01*
X53075Y-58420D01*
X53134Y-58634D02*
X53301Y-58634D01*
X53039Y-58575D02*
X53217Y-58515D01*
X53217Y-58670D01*
X53051Y-58813D02*
X53051Y-58836D01*
X53063Y-58860D01*
X53075Y-58872D01*
X53098Y-58884D01*
X53146Y-58896D01*
X53205Y-58896D01*
X53253Y-58884D01*
X53277Y-58872D01*
X53289Y-58860D01*
X53301Y-58836D01*
X53301Y-58813D01*
X53289Y-58789D01*
X53277Y-58777D01*
X53253Y-58765D01*
X53205Y-58753D01*
X53146Y-58753D01*
X53098Y-58765D01*
X53075Y-58777D01*
X53063Y-58789D01*
X53051Y-58813D01*
X53301Y-59134D02*
X53301Y-58991D01*
X53301Y-59063D02*
X53051Y-59063D01*
X53086Y-59039D01*
X53110Y-59015D01*
X53122Y-58991D01*
X49577Y-58520D02*
X49589Y-58508D01*
X49601Y-58472D01*
X49601Y-58448D01*
X49589Y-58413D01*
X49565Y-58389D01*
X49541Y-58377D01*
X49494Y-58365D01*
X49458Y-58365D01*
X49410Y-58377D01*
X49386Y-58389D01*
X49363Y-58413D01*
X49351Y-58448D01*
X49351Y-58472D01*
X49363Y-58508D01*
X49375Y-58520D01*
X49434Y-58734D02*
X49601Y-58734D01*
X49339Y-58675D02*
X49517Y-58615D01*
X49517Y-58770D01*
X49351Y-58913D02*
X49351Y-58936D01*
X49363Y-58960D01*
X49375Y-58972D01*
X49398Y-58984D01*
X49446Y-58996D01*
X49505Y-58996D01*
X49553Y-58984D01*
X49577Y-58972D01*
X49589Y-58960D01*
X49601Y-58936D01*
X49601Y-58913D01*
X49589Y-58889D01*
X49577Y-58877D01*
X49553Y-58865D01*
X49505Y-58853D01*
X49446Y-58853D01*
X49398Y-58865D01*
X49375Y-58877D01*
X49363Y-58889D01*
X49351Y-58913D01*
X49351Y-59210D02*
X49351Y-59163D01*
X49363Y-59139D01*
X49375Y-59127D01*
X49410Y-59103D01*
X49458Y-59091D01*
X49553Y-59091D01*
X49577Y-59103D01*
X49589Y-59115D01*
X49601Y-59139D01*
X49601Y-59186D01*
X49589Y-59210D01*
X49577Y-59222D01*
X49553Y-59234D01*
X49494Y-59234D01*
X49470Y-59222D01*
X49458Y-59210D01*
X49446Y-59186D01*
X49446Y-59139D01*
X49458Y-59115D01*
X49470Y-59103D01*
X49494Y-59091D01*
X50301Y-58520D02*
X50182Y-58436D01*
X50301Y-58377D02*
X50051Y-58377D01*
X50051Y-58472D01*
X50063Y-58496D01*
X50075Y-58508D01*
X50098Y-58520D01*
X50134Y-58520D01*
X50158Y-58508D01*
X50170Y-58496D01*
X50182Y-58472D01*
X50182Y-58377D01*
X50134Y-58734D02*
X50301Y-58734D01*
X50039Y-58675D02*
X50217Y-58615D01*
X50217Y-58770D01*
X50051Y-58913D02*
X50051Y-58936D01*
X50063Y-58960D01*
X50075Y-58972D01*
X50098Y-58984D01*
X50146Y-58996D01*
X50205Y-58996D01*
X50253Y-58984D01*
X50277Y-58972D01*
X50289Y-58960D01*
X50301Y-58936D01*
X50301Y-58913D01*
X50289Y-58889D01*
X50277Y-58877D01*
X50253Y-58865D01*
X50205Y-58853D01*
X50146Y-58853D01*
X50098Y-58865D01*
X50075Y-58877D01*
X50063Y-58889D01*
X50051Y-58913D01*
X50301Y-59115D02*
X50301Y-59163D01*
X50289Y-59186D01*
X50277Y-59198D01*
X50241Y-59222D01*
X50194Y-59234D01*
X50098Y-59234D01*
X50075Y-59222D01*
X50063Y-59210D01*
X50051Y-59186D01*
X50051Y-59139D01*
X50063Y-59115D01*
X50075Y-59103D01*
X50098Y-59091D01*
X50158Y-59091D01*
X50182Y-59103D01*
X50194Y-59115D01*
X50205Y-59139D01*
X50205Y-59186D01*
X50194Y-59210D01*
X50182Y-59222D01*
X50158Y-59234D01*
X54051Y-58370D02*
X53932Y-58286D01*
X54051Y-58227D02*
X53801Y-58227D01*
X53801Y-58322D01*
X53813Y-58346D01*
X53825Y-58358D01*
X53848Y-58370D01*
X53884Y-58370D01*
X53908Y-58358D01*
X53920Y-58346D01*
X53932Y-58322D01*
X53932Y-58227D01*
X53884Y-58584D02*
X54051Y-58584D01*
X53789Y-58525D02*
X53967Y-58465D01*
X53967Y-58620D01*
X53801Y-58763D02*
X53801Y-58786D01*
X53813Y-58810D01*
X53825Y-58822D01*
X53848Y-58834D01*
X53896Y-58846D01*
X53955Y-58846D01*
X54003Y-58834D01*
X54027Y-58822D01*
X54039Y-58810D01*
X54051Y-58786D01*
X54051Y-58763D01*
X54039Y-58739D01*
X54027Y-58727D01*
X54003Y-58715D01*
X53955Y-58703D01*
X53896Y-58703D01*
X53848Y-58715D01*
X53825Y-58727D01*
X53813Y-58739D01*
X53801Y-58763D01*
X53825Y-58941D02*
X53813Y-58953D01*
X53801Y-58977D01*
X53801Y-59036D01*
X53813Y-59060D01*
X53825Y-59072D01*
X53848Y-59084D01*
X53872Y-59084D01*
X53908Y-59072D01*
X54051Y-58929D01*
X54051Y-59084D01*
X56977Y-58370D02*
X56989Y-58358D01*
X57001Y-58322D01*
X57001Y-58298D01*
X56989Y-58263D01*
X56965Y-58239D01*
X56941Y-58227D01*
X56894Y-58215D01*
X56858Y-58215D01*
X56810Y-58227D01*
X56786Y-58239D01*
X56763Y-58263D01*
X56751Y-58298D01*
X56751Y-58322D01*
X56763Y-58358D01*
X56775Y-58370D01*
X56751Y-58596D02*
X56751Y-58477D01*
X56870Y-58465D01*
X56858Y-58477D01*
X56846Y-58501D01*
X56846Y-58560D01*
X56858Y-58584D01*
X56870Y-58596D01*
X56894Y-58608D01*
X56953Y-58608D01*
X56977Y-58596D01*
X56989Y-58584D01*
X57001Y-58560D01*
X57001Y-58501D01*
X56989Y-58477D01*
X56977Y-58465D01*
X56751Y-58763D02*
X56751Y-58786D01*
X56763Y-58810D01*
X56775Y-58822D01*
X56798Y-58834D01*
X56846Y-58846D01*
X56905Y-58846D01*
X56953Y-58834D01*
X56977Y-58822D01*
X56989Y-58810D01*
X57001Y-58786D01*
X57001Y-58763D01*
X56989Y-58739D01*
X56977Y-58727D01*
X56953Y-58715D01*
X56905Y-58703D01*
X56846Y-58703D01*
X56798Y-58715D01*
X56775Y-58727D01*
X56763Y-58739D01*
X56751Y-58763D01*
X56751Y-59060D02*
X56751Y-59013D01*
X56763Y-58989D01*
X56775Y-58977D01*
X56810Y-58953D01*
X56858Y-58941D01*
X56953Y-58941D01*
X56977Y-58953D01*
X56989Y-58965D01*
X57001Y-58989D01*
X57001Y-59036D01*
X56989Y-59060D01*
X56977Y-59072D01*
X56953Y-59084D01*
X56894Y-59084D01*
X56870Y-59072D01*
X56858Y-59060D01*
X56846Y-59036D01*
X56846Y-58989D01*
X56858Y-58965D01*
X56870Y-58953D01*
X56894Y-58941D01*
X67901Y-58470D02*
X67782Y-58386D01*
X67901Y-58327D02*
X67651Y-58327D01*
X67651Y-58422D01*
X67663Y-58446D01*
X67675Y-58458D01*
X67698Y-58470D01*
X67734Y-58470D01*
X67758Y-58458D01*
X67770Y-58446D01*
X67782Y-58422D01*
X67782Y-58327D01*
X67651Y-58684D02*
X67651Y-58636D01*
X67663Y-58613D01*
X67675Y-58601D01*
X67710Y-58577D01*
X67758Y-58565D01*
X67853Y-58565D01*
X67877Y-58577D01*
X67889Y-58589D01*
X67901Y-58613D01*
X67901Y-58660D01*
X67889Y-58684D01*
X67877Y-58696D01*
X67853Y-58708D01*
X67794Y-58708D01*
X67770Y-58696D01*
X67758Y-58684D01*
X67746Y-58660D01*
X67746Y-58613D01*
X67758Y-58589D01*
X67770Y-58577D01*
X67794Y-58565D01*
X67651Y-58863D02*
X67651Y-58886D01*
X67663Y-58910D01*
X67675Y-58922D01*
X67698Y-58934D01*
X67746Y-58946D01*
X67805Y-58946D01*
X67853Y-58934D01*
X67877Y-58922D01*
X67889Y-58910D01*
X67901Y-58886D01*
X67901Y-58863D01*
X67889Y-58839D01*
X67877Y-58827D01*
X67853Y-58815D01*
X67805Y-58803D01*
X67746Y-58803D01*
X67698Y-58815D01*
X67675Y-58827D01*
X67663Y-58839D01*
X67651Y-58863D01*
X67675Y-59041D02*
X67663Y-59053D01*
X67651Y-59077D01*
X67651Y-59136D01*
X67663Y-59160D01*
X67675Y-59172D01*
X67698Y-59184D01*
X67722Y-59184D01*
X67758Y-59172D01*
X67901Y-59029D01*
X67901Y-59184D01*
X67027Y-58520D02*
X67039Y-58508D01*
X67051Y-58472D01*
X67051Y-58448D01*
X67039Y-58413D01*
X67015Y-58389D01*
X66991Y-58377D01*
X66944Y-58365D01*
X66908Y-58365D01*
X66860Y-58377D01*
X66836Y-58389D01*
X66813Y-58413D01*
X66801Y-58448D01*
X66801Y-58472D01*
X66813Y-58508D01*
X66825Y-58520D01*
X66801Y-58734D02*
X66801Y-58686D01*
X66813Y-58663D01*
X66825Y-58651D01*
X66860Y-58627D01*
X66908Y-58615D01*
X67003Y-58615D01*
X67027Y-58627D01*
X67039Y-58639D01*
X67051Y-58663D01*
X67051Y-58710D01*
X67039Y-58734D01*
X67027Y-58746D01*
X67003Y-58758D01*
X66944Y-58758D01*
X66920Y-58746D01*
X66908Y-58734D01*
X66896Y-58710D01*
X66896Y-58663D01*
X66908Y-58639D01*
X66920Y-58627D01*
X66944Y-58615D01*
X66801Y-58913D02*
X66801Y-58936D01*
X66813Y-58960D01*
X66825Y-58972D01*
X66848Y-58984D01*
X66896Y-58996D01*
X66955Y-58996D01*
X67003Y-58984D01*
X67027Y-58972D01*
X67039Y-58960D01*
X67051Y-58936D01*
X67051Y-58913D01*
X67039Y-58889D01*
X67027Y-58877D01*
X67003Y-58865D01*
X66955Y-58853D01*
X66896Y-58853D01*
X66848Y-58865D01*
X66825Y-58877D01*
X66813Y-58889D01*
X66801Y-58913D01*
X67051Y-59234D02*
X67051Y-59091D01*
X67051Y-59163D02*
X66801Y-59163D01*
X66836Y-59139D01*
X66860Y-59115D01*
X66872Y-59091D01*
X59327Y-55470D02*
X59339Y-55458D01*
X59351Y-55422D01*
X59351Y-55398D01*
X59339Y-55363D01*
X59315Y-55339D01*
X59291Y-55327D01*
X59244Y-55315D01*
X59208Y-55315D01*
X59160Y-55327D01*
X59136Y-55339D01*
X59113Y-55363D01*
X59101Y-55398D01*
X59101Y-55422D01*
X59113Y-55458D01*
X59125Y-55470D01*
X59101Y-55696D02*
X59101Y-55577D01*
X59220Y-55565D01*
X59208Y-55577D01*
X59196Y-55601D01*
X59196Y-55660D01*
X59208Y-55684D01*
X59220Y-55696D01*
X59244Y-55708D01*
X59303Y-55708D01*
X59327Y-55696D01*
X59339Y-55684D01*
X59351Y-55660D01*
X59351Y-55601D01*
X59339Y-55577D01*
X59327Y-55565D01*
X59101Y-55863D02*
X59101Y-55886D01*
X59113Y-55910D01*
X59125Y-55922D01*
X59148Y-55934D01*
X59196Y-55946D01*
X59255Y-55946D01*
X59303Y-55934D01*
X59327Y-55922D01*
X59339Y-55910D01*
X59351Y-55886D01*
X59351Y-55863D01*
X59339Y-55839D01*
X59327Y-55827D01*
X59303Y-55815D01*
X59255Y-55803D01*
X59196Y-55803D01*
X59148Y-55815D01*
X59125Y-55827D01*
X59113Y-55839D01*
X59101Y-55863D01*
X59101Y-56029D02*
X59101Y-56184D01*
X59196Y-56101D01*
X59196Y-56136D01*
X59208Y-56160D01*
X59220Y-56172D01*
X59244Y-56184D01*
X59303Y-56184D01*
X59327Y-56172D01*
X59339Y-56160D01*
X59351Y-56136D01*
X59351Y-56065D01*
X59339Y-56041D01*
X59327Y-56029D01*
X57527Y-55420D02*
X57539Y-55408D01*
X57551Y-55372D01*
X57551Y-55348D01*
X57539Y-55313D01*
X57515Y-55289D01*
X57491Y-55277D01*
X57444Y-55265D01*
X57408Y-55265D01*
X57360Y-55277D01*
X57336Y-55289D01*
X57313Y-55313D01*
X57301Y-55348D01*
X57301Y-55372D01*
X57313Y-55408D01*
X57325Y-55420D01*
X57301Y-55646D02*
X57301Y-55527D01*
X57420Y-55515D01*
X57408Y-55527D01*
X57396Y-55551D01*
X57396Y-55610D01*
X57408Y-55634D01*
X57420Y-55646D01*
X57444Y-55658D01*
X57503Y-55658D01*
X57527Y-55646D01*
X57539Y-55634D01*
X57551Y-55610D01*
X57551Y-55551D01*
X57539Y-55527D01*
X57527Y-55515D01*
X57301Y-55813D02*
X57301Y-55836D01*
X57313Y-55860D01*
X57325Y-55872D01*
X57348Y-55884D01*
X57396Y-55896D01*
X57455Y-55896D01*
X57503Y-55884D01*
X57527Y-55872D01*
X57539Y-55860D01*
X57551Y-55836D01*
X57551Y-55813D01*
X57539Y-55789D01*
X57527Y-55777D01*
X57503Y-55765D01*
X57455Y-55753D01*
X57396Y-55753D01*
X57348Y-55765D01*
X57325Y-55777D01*
X57313Y-55789D01*
X57301Y-55813D01*
X57325Y-55991D02*
X57313Y-56003D01*
X57301Y-56027D01*
X57301Y-56086D01*
X57313Y-56110D01*
X57325Y-56122D01*
X57348Y-56134D01*
X57372Y-56134D01*
X57408Y-56122D01*
X57551Y-55979D01*
X57551Y-56134D01*
X56251Y-58370D02*
X56132Y-58286D01*
X56251Y-58227D02*
X56001Y-58227D01*
X56001Y-58322D01*
X56013Y-58346D01*
X56025Y-58358D01*
X56048Y-58370D01*
X56084Y-58370D01*
X56108Y-58358D01*
X56120Y-58346D01*
X56132Y-58322D01*
X56132Y-58227D01*
X56001Y-58596D02*
X56001Y-58477D01*
X56120Y-58465D01*
X56108Y-58477D01*
X56096Y-58501D01*
X56096Y-58560D01*
X56108Y-58584D01*
X56120Y-58596D01*
X56144Y-58608D01*
X56203Y-58608D01*
X56227Y-58596D01*
X56239Y-58584D01*
X56251Y-58560D01*
X56251Y-58501D01*
X56239Y-58477D01*
X56227Y-58465D01*
X56001Y-58763D02*
X56001Y-58786D01*
X56013Y-58810D01*
X56025Y-58822D01*
X56048Y-58834D01*
X56096Y-58846D01*
X56155Y-58846D01*
X56203Y-58834D01*
X56227Y-58822D01*
X56239Y-58810D01*
X56251Y-58786D01*
X56251Y-58763D01*
X56239Y-58739D01*
X56227Y-58727D01*
X56203Y-58715D01*
X56155Y-58703D01*
X56096Y-58703D01*
X56048Y-58715D01*
X56025Y-58727D01*
X56013Y-58739D01*
X56001Y-58763D01*
X56251Y-58965D02*
X56251Y-59013D01*
X56239Y-59036D01*
X56227Y-59048D01*
X56191Y-59072D01*
X56144Y-59084D01*
X56048Y-59084D01*
X56025Y-59072D01*
X56013Y-59060D01*
X56001Y-59036D01*
X56001Y-58989D01*
X56013Y-58965D01*
X56025Y-58953D01*
X56048Y-58941D01*
X56108Y-58941D01*
X56132Y-58953D01*
X56144Y-58965D01*
X56155Y-58989D01*
X56155Y-59036D01*
X56144Y-59060D01*
X56132Y-59072D01*
X56108Y-59084D01*
X60077Y-58570D02*
X60089Y-58558D01*
X60101Y-58522D01*
X60101Y-58498D01*
X60089Y-58463D01*
X60065Y-58439D01*
X60041Y-58427D01*
X59994Y-58415D01*
X59958Y-58415D01*
X59910Y-58427D01*
X59886Y-58439D01*
X59863Y-58463D01*
X59851Y-58498D01*
X59851Y-58522D01*
X59863Y-58558D01*
X59875Y-58570D01*
X59851Y-58796D02*
X59851Y-58677D01*
X59970Y-58665D01*
X59958Y-58677D01*
X59946Y-58701D01*
X59946Y-58760D01*
X59958Y-58784D01*
X59970Y-58796D01*
X59994Y-58808D01*
X60053Y-58808D01*
X60077Y-58796D01*
X60089Y-58784D01*
X60101Y-58760D01*
X60101Y-58701D01*
X60089Y-58677D01*
X60077Y-58665D01*
X59851Y-58963D02*
X59851Y-58986D01*
X59863Y-59010D01*
X59875Y-59022D01*
X59898Y-59034D01*
X59946Y-59046D01*
X60005Y-59046D01*
X60053Y-59034D01*
X60077Y-59022D01*
X60089Y-59010D01*
X60101Y-58986D01*
X60101Y-58963D01*
X60089Y-58939D01*
X60077Y-58927D01*
X60053Y-58915D01*
X60005Y-58903D01*
X59946Y-58903D01*
X59898Y-58915D01*
X59875Y-58927D01*
X59863Y-58939D01*
X59851Y-58963D01*
X60101Y-59284D02*
X60101Y-59141D01*
X60101Y-59213D02*
X59851Y-59213D01*
X59886Y-59189D01*
X59910Y-59165D01*
X59922Y-59141D01*
X60801Y-58570D02*
X60682Y-58486D01*
X60801Y-58427D02*
X60551Y-58427D01*
X60551Y-58522D01*
X60563Y-58546D01*
X60575Y-58558D01*
X60598Y-58570D01*
X60634Y-58570D01*
X60658Y-58558D01*
X60670Y-58546D01*
X60682Y-58522D01*
X60682Y-58427D01*
X60551Y-58796D02*
X60551Y-58677D01*
X60670Y-58665D01*
X60658Y-58677D01*
X60646Y-58701D01*
X60646Y-58760D01*
X60658Y-58784D01*
X60670Y-58796D01*
X60694Y-58808D01*
X60753Y-58808D01*
X60777Y-58796D01*
X60789Y-58784D01*
X60801Y-58760D01*
X60801Y-58701D01*
X60789Y-58677D01*
X60777Y-58665D01*
X60551Y-58963D02*
X60551Y-58986D01*
X60563Y-59010D01*
X60575Y-59022D01*
X60598Y-59034D01*
X60646Y-59046D01*
X60705Y-59046D01*
X60753Y-59034D01*
X60777Y-59022D01*
X60789Y-59010D01*
X60801Y-58986D01*
X60801Y-58963D01*
X60789Y-58939D01*
X60777Y-58927D01*
X60753Y-58915D01*
X60705Y-58903D01*
X60646Y-58903D01*
X60598Y-58915D01*
X60575Y-58927D01*
X60563Y-58939D01*
X60551Y-58963D01*
X60575Y-59141D02*
X60563Y-59153D01*
X60551Y-59177D01*
X60551Y-59236D01*
X60563Y-59260D01*
X60575Y-59272D01*
X60598Y-59284D01*
X60622Y-59284D01*
X60658Y-59272D01*
X60801Y-59129D01*
X60801Y-59284D01*
X51277Y-52320D02*
X51289Y-52308D01*
X51301Y-52272D01*
X51301Y-52248D01*
X51289Y-52213D01*
X51265Y-52189D01*
X51241Y-52177D01*
X51194Y-52165D01*
X51158Y-52165D01*
X51110Y-52177D01*
X51086Y-52189D01*
X51063Y-52213D01*
X51051Y-52248D01*
X51051Y-52272D01*
X51063Y-52308D01*
X51075Y-52320D01*
X51075Y-52415D02*
X51063Y-52427D01*
X51051Y-52451D01*
X51051Y-52510D01*
X51063Y-52534D01*
X51075Y-52546D01*
X51098Y-52558D01*
X51122Y-52558D01*
X51158Y-52546D01*
X51301Y-52403D01*
X51301Y-52558D01*
X51051Y-52713D02*
X51051Y-52736D01*
X51063Y-52760D01*
X51075Y-52772D01*
X51098Y-52784D01*
X51146Y-52796D01*
X51205Y-52796D01*
X51253Y-52784D01*
X51277Y-52772D01*
X51289Y-52760D01*
X51301Y-52736D01*
X51301Y-52713D01*
X51289Y-52689D01*
X51277Y-52677D01*
X51253Y-52665D01*
X51205Y-52653D01*
X51146Y-52653D01*
X51098Y-52665D01*
X51075Y-52677D01*
X51063Y-52689D01*
X51051Y-52713D01*
X51075Y-52891D02*
X51063Y-52903D01*
X51051Y-52927D01*
X51051Y-52986D01*
X51063Y-53010D01*
X51075Y-53022D01*
X51098Y-53034D01*
X51122Y-53034D01*
X51158Y-53022D01*
X51301Y-52879D01*
X51301Y-53034D01*
X64577Y-60170D02*
X64589Y-60158D01*
X64601Y-60122D01*
X64601Y-60098D01*
X64589Y-60063D01*
X64565Y-60039D01*
X64541Y-60027D01*
X64494Y-60015D01*
X64458Y-60015D01*
X64410Y-60027D01*
X64386Y-60039D01*
X64363Y-60063D01*
X64351Y-60098D01*
X64351Y-60122D01*
X64363Y-60158D01*
X64375Y-60170D01*
X64351Y-60384D02*
X64351Y-60336D01*
X64363Y-60313D01*
X64375Y-60301D01*
X64410Y-60277D01*
X64458Y-60265D01*
X64553Y-60265D01*
X64577Y-60277D01*
X64589Y-60289D01*
X64601Y-60313D01*
X64601Y-60360D01*
X64589Y-60384D01*
X64577Y-60396D01*
X64553Y-60408D01*
X64494Y-60408D01*
X64470Y-60396D01*
X64458Y-60384D01*
X64446Y-60360D01*
X64446Y-60313D01*
X64458Y-60289D01*
X64470Y-60277D01*
X64494Y-60265D01*
X64351Y-60563D02*
X64351Y-60586D01*
X64363Y-60610D01*
X64375Y-60622D01*
X64398Y-60634D01*
X64446Y-60646D01*
X64505Y-60646D01*
X64553Y-60634D01*
X64577Y-60622D01*
X64589Y-60610D01*
X64601Y-60586D01*
X64601Y-60563D01*
X64589Y-60539D01*
X64577Y-60527D01*
X64553Y-60515D01*
X64505Y-60503D01*
X64446Y-60503D01*
X64398Y-60515D01*
X64375Y-60527D01*
X64363Y-60539D01*
X64351Y-60563D01*
X64351Y-60860D02*
X64351Y-60813D01*
X64363Y-60789D01*
X64375Y-60777D01*
X64410Y-60753D01*
X64458Y-60741D01*
X64553Y-60741D01*
X64577Y-60753D01*
X64589Y-60765D01*
X64601Y-60789D01*
X64601Y-60836D01*
X64589Y-60860D01*
X64577Y-60872D01*
X64553Y-60884D01*
X64494Y-60884D01*
X64470Y-60872D01*
X64458Y-60860D01*
X64446Y-60836D01*
X64446Y-60789D01*
X64458Y-60765D01*
X64470Y-60753D01*
X64494Y-60741D01*
X42127Y-47120D02*
X42139Y-47108D01*
X42151Y-47072D01*
X42151Y-47048D01*
X42139Y-47013D01*
X42115Y-46989D01*
X42091Y-46977D01*
X42044Y-46965D01*
X42008Y-46965D01*
X41960Y-46977D01*
X41936Y-46989D01*
X41913Y-47013D01*
X41901Y-47048D01*
X41901Y-47072D01*
X41913Y-47108D01*
X41925Y-47120D01*
X41925Y-47215D02*
X41913Y-47227D01*
X41901Y-47251D01*
X41901Y-47310D01*
X41913Y-47334D01*
X41925Y-47346D01*
X41948Y-47358D01*
X41972Y-47358D01*
X42008Y-47346D01*
X42151Y-47203D01*
X42151Y-47358D01*
X41901Y-47513D02*
X41901Y-47536D01*
X41913Y-47560D01*
X41925Y-47572D01*
X41948Y-47584D01*
X41996Y-47596D01*
X42055Y-47596D01*
X42103Y-47584D01*
X42127Y-47572D01*
X42139Y-47560D01*
X42151Y-47536D01*
X42151Y-47513D01*
X42139Y-47489D01*
X42127Y-47477D01*
X42103Y-47465D01*
X42055Y-47453D01*
X41996Y-47453D01*
X41948Y-47465D01*
X41925Y-47477D01*
X41913Y-47489D01*
X41901Y-47513D01*
X41901Y-47810D02*
X41901Y-47763D01*
X41913Y-47739D01*
X41925Y-47727D01*
X41960Y-47703D01*
X42008Y-47691D01*
X42103Y-47691D01*
X42127Y-47703D01*
X42139Y-47715D01*
X42151Y-47739D01*
X42151Y-47786D01*
X42139Y-47810D01*
X42127Y-47822D01*
X42103Y-47834D01*
X42044Y-47834D01*
X42020Y-47822D01*
X42008Y-47810D01*
X41996Y-47786D01*
X41996Y-47739D01*
X42008Y-47715D01*
X42020Y-47703D01*
X42044Y-47691D01*
X41529Y-50927D02*
X41541Y-50939D01*
X41577Y-50951D01*
X41601Y-50951D01*
X41636Y-50939D01*
X41660Y-50915D01*
X41672Y-50891D01*
X41684Y-50844D01*
X41684Y-50808D01*
X41672Y-50760D01*
X41660Y-50736D01*
X41636Y-50713D01*
X41601Y-50701D01*
X41577Y-50701D01*
X41541Y-50713D01*
X41529Y-50725D01*
X41434Y-50725D02*
X41422Y-50713D01*
X41398Y-50701D01*
X41339Y-50701D01*
X41315Y-50713D01*
X41303Y-50725D01*
X41291Y-50748D01*
X41291Y-50772D01*
X41303Y-50808D01*
X41446Y-50951D01*
X41291Y-50951D01*
X41136Y-50701D02*
X41113Y-50701D01*
X41089Y-50713D01*
X41077Y-50725D01*
X41065Y-50748D01*
X41053Y-50796D01*
X41053Y-50855D01*
X41065Y-50903D01*
X41077Y-50927D01*
X41089Y-50939D01*
X41113Y-50951D01*
X41136Y-50951D01*
X41160Y-50939D01*
X41172Y-50927D01*
X41184Y-50903D01*
X41196Y-50855D01*
X41196Y-50796D01*
X41184Y-50748D01*
X41172Y-50725D01*
X41160Y-50713D01*
X41136Y-50701D01*
X40827Y-50701D02*
X40946Y-50701D01*
X40958Y-50820D01*
X40946Y-50808D01*
X40922Y-50796D01*
X40863Y-50796D01*
X40839Y-50808D01*
X40827Y-50820D01*
X40815Y-50844D01*
X40815Y-50903D01*
X40827Y-50927D01*
X40839Y-50939D01*
X40863Y-50951D01*
X40922Y-50951D01*
X40946Y-50939D01*
X40958Y-50927D01*
X64177Y-55220D02*
X64189Y-55208D01*
X64201Y-55172D01*
X64201Y-55148D01*
X64189Y-55113D01*
X64165Y-55089D01*
X64141Y-55077D01*
X64094Y-55065D01*
X64058Y-55065D01*
X64010Y-55077D01*
X63986Y-55089D01*
X63963Y-55113D01*
X63951Y-55148D01*
X63951Y-55172D01*
X63963Y-55208D01*
X63975Y-55220D01*
X63951Y-55434D02*
X63951Y-55386D01*
X63963Y-55363D01*
X63975Y-55351D01*
X64010Y-55327D01*
X64058Y-55315D01*
X64153Y-55315D01*
X64177Y-55327D01*
X64189Y-55339D01*
X64201Y-55363D01*
X64201Y-55410D01*
X64189Y-55434D01*
X64177Y-55446D01*
X64153Y-55458D01*
X64094Y-55458D01*
X64070Y-55446D01*
X64058Y-55434D01*
X64046Y-55410D01*
X64046Y-55363D01*
X64058Y-55339D01*
X64070Y-55327D01*
X64094Y-55315D01*
X63951Y-55613D02*
X63951Y-55636D01*
X63963Y-55660D01*
X63975Y-55672D01*
X63998Y-55684D01*
X64046Y-55696D01*
X64105Y-55696D01*
X64153Y-55684D01*
X64177Y-55672D01*
X64189Y-55660D01*
X64201Y-55636D01*
X64201Y-55613D01*
X64189Y-55589D01*
X64177Y-55577D01*
X64153Y-55565D01*
X64105Y-55553D01*
X64046Y-55553D01*
X63998Y-55565D01*
X63975Y-55577D01*
X63963Y-55589D01*
X63951Y-55613D01*
X63975Y-55791D02*
X63963Y-55803D01*
X63951Y-55827D01*
X63951Y-55886D01*
X63963Y-55910D01*
X63975Y-55922D01*
X63998Y-55934D01*
X64022Y-55934D01*
X64058Y-55922D01*
X64201Y-55779D01*
X64201Y-55934D01*
X65901Y-46070D02*
X65782Y-45986D01*
X65901Y-45927D02*
X65651Y-45927D01*
X65651Y-46022D01*
X65663Y-46046D01*
X65675Y-46058D01*
X65698Y-46070D01*
X65734Y-46070D01*
X65758Y-46058D01*
X65770Y-46046D01*
X65782Y-46022D01*
X65782Y-45927D01*
X65901Y-46308D02*
X65901Y-46165D01*
X65901Y-46236D02*
X65651Y-46236D01*
X65686Y-46213D01*
X65710Y-46189D01*
X65722Y-46165D01*
X65651Y-46463D02*
X65651Y-46486D01*
X65663Y-46510D01*
X65675Y-46522D01*
X65698Y-46534D01*
X65746Y-46546D01*
X65805Y-46546D01*
X65853Y-46534D01*
X65877Y-46522D01*
X65889Y-46510D01*
X65901Y-46486D01*
X65901Y-46463D01*
X65889Y-46439D01*
X65877Y-46427D01*
X65853Y-46415D01*
X65805Y-46403D01*
X65746Y-46403D01*
X65698Y-46415D01*
X65675Y-46427D01*
X65663Y-46439D01*
X65651Y-46463D01*
X65734Y-46760D02*
X65901Y-46760D01*
X65639Y-46701D02*
X65817Y-46641D01*
X65817Y-46796D01*
X63801Y-46420D02*
X63682Y-46336D01*
X63801Y-46277D02*
X63551Y-46277D01*
X63551Y-46372D01*
X63563Y-46396D01*
X63575Y-46408D01*
X63598Y-46420D01*
X63634Y-46420D01*
X63658Y-46408D01*
X63670Y-46396D01*
X63682Y-46372D01*
X63682Y-46277D01*
X63801Y-46658D02*
X63801Y-46515D01*
X63801Y-46586D02*
X63551Y-46586D01*
X63586Y-46563D01*
X63610Y-46539D01*
X63622Y-46515D01*
X63551Y-46813D02*
X63551Y-46836D01*
X63563Y-46860D01*
X63575Y-46872D01*
X63598Y-46884D01*
X63646Y-46896D01*
X63705Y-46896D01*
X63753Y-46884D01*
X63777Y-46872D01*
X63789Y-46860D01*
X63801Y-46836D01*
X63801Y-46813D01*
X63789Y-46789D01*
X63777Y-46777D01*
X63753Y-46765D01*
X63705Y-46753D01*
X63646Y-46753D01*
X63598Y-46765D01*
X63575Y-46777D01*
X63563Y-46789D01*
X63551Y-46813D01*
X63551Y-47122D02*
X63551Y-47003D01*
X63670Y-46991D01*
X63658Y-47003D01*
X63646Y-47027D01*
X63646Y-47086D01*
X63658Y-47110D01*
X63670Y-47122D01*
X63694Y-47134D01*
X63753Y-47134D01*
X63777Y-47122D01*
X63789Y-47110D01*
X63801Y-47086D01*
X63801Y-47027D01*
X63789Y-47003D01*
X63777Y-46991D01*
X66527Y-55370D02*
X66539Y-55358D01*
X66551Y-55322D01*
X66551Y-55298D01*
X66539Y-55263D01*
X66515Y-55239D01*
X66491Y-55227D01*
X66444Y-55215D01*
X66408Y-55215D01*
X66360Y-55227D01*
X66336Y-55239D01*
X66313Y-55263D01*
X66301Y-55298D01*
X66301Y-55322D01*
X66313Y-55358D01*
X66325Y-55370D01*
X66301Y-55584D02*
X66301Y-55536D01*
X66313Y-55513D01*
X66325Y-55501D01*
X66360Y-55477D01*
X66408Y-55465D01*
X66503Y-55465D01*
X66527Y-55477D01*
X66539Y-55489D01*
X66551Y-55513D01*
X66551Y-55560D01*
X66539Y-55584D01*
X66527Y-55596D01*
X66503Y-55608D01*
X66444Y-55608D01*
X66420Y-55596D01*
X66408Y-55584D01*
X66396Y-55560D01*
X66396Y-55513D01*
X66408Y-55489D01*
X66420Y-55477D01*
X66444Y-55465D01*
X66301Y-55763D02*
X66301Y-55786D01*
X66313Y-55810D01*
X66325Y-55822D01*
X66348Y-55834D01*
X66396Y-55846D01*
X66455Y-55846D01*
X66503Y-55834D01*
X66527Y-55822D01*
X66539Y-55810D01*
X66551Y-55786D01*
X66551Y-55763D01*
X66539Y-55739D01*
X66527Y-55727D01*
X66503Y-55715D01*
X66455Y-55703D01*
X66396Y-55703D01*
X66348Y-55715D01*
X66325Y-55727D01*
X66313Y-55739D01*
X66301Y-55763D01*
X66301Y-55929D02*
X66301Y-56084D01*
X66396Y-56001D01*
X66396Y-56036D01*
X66408Y-56060D01*
X66420Y-56072D01*
X66444Y-56084D01*
X66503Y-56084D01*
X66527Y-56072D01*
X66539Y-56060D01*
X66551Y-56036D01*
X66551Y-55965D01*
X66539Y-55941D01*
X66527Y-55929D01*
X44777Y-51120D02*
X44789Y-51108D01*
X44801Y-51072D01*
X44801Y-51048D01*
X44789Y-51013D01*
X44765Y-50989D01*
X44741Y-50977D01*
X44694Y-50965D01*
X44658Y-50965D01*
X44610Y-50977D01*
X44586Y-50989D01*
X44563Y-51013D01*
X44551Y-51048D01*
X44551Y-51072D01*
X44563Y-51108D01*
X44575Y-51120D01*
X44575Y-51215D02*
X44563Y-51227D01*
X44551Y-51251D01*
X44551Y-51310D01*
X44563Y-51334D01*
X44575Y-51346D01*
X44598Y-51358D01*
X44622Y-51358D01*
X44658Y-51346D01*
X44801Y-51203D01*
X44801Y-51358D01*
X44551Y-51513D02*
X44551Y-51536D01*
X44563Y-51560D01*
X44575Y-51572D01*
X44598Y-51584D01*
X44646Y-51596D01*
X44705Y-51596D01*
X44753Y-51584D01*
X44777Y-51572D01*
X44789Y-51560D01*
X44801Y-51536D01*
X44801Y-51513D01*
X44789Y-51489D01*
X44777Y-51477D01*
X44753Y-51465D01*
X44705Y-51453D01*
X44646Y-51453D01*
X44598Y-51465D01*
X44575Y-51477D01*
X44563Y-51489D01*
X44551Y-51513D01*
X44801Y-51834D02*
X44801Y-51691D01*
X44801Y-51763D02*
X44551Y-51763D01*
X44586Y-51739D01*
X44610Y-51715D01*
X44622Y-51691D01*
X46527Y-51420D02*
X46539Y-51408D01*
X46551Y-51372D01*
X46551Y-51348D01*
X46539Y-51313D01*
X46515Y-51289D01*
X46491Y-51277D01*
X46444Y-51265D01*
X46408Y-51265D01*
X46360Y-51277D01*
X46336Y-51289D01*
X46313Y-51313D01*
X46301Y-51348D01*
X46301Y-51372D01*
X46313Y-51408D01*
X46325Y-51420D01*
X46551Y-51658D02*
X46551Y-51515D01*
X46551Y-51586D02*
X46301Y-51586D01*
X46336Y-51563D01*
X46360Y-51539D01*
X46372Y-51515D01*
X46551Y-51896D02*
X46551Y-51753D01*
X46551Y-51825D02*
X46301Y-51825D01*
X46336Y-51801D01*
X46360Y-51777D01*
X46372Y-51753D01*
X46301Y-51979D02*
X46301Y-52134D01*
X46396Y-52051D01*
X46396Y-52086D01*
X46408Y-52110D01*
X46420Y-52122D01*
X46444Y-52134D01*
X46503Y-52134D01*
X46527Y-52122D01*
X46539Y-52110D01*
X46551Y-52086D01*
X46551Y-52015D01*
X46539Y-51991D01*
X46527Y-51979D01*
X51079Y-50127D02*
X51091Y-50139D01*
X51127Y-50151D01*
X51151Y-50151D01*
X51186Y-50139D01*
X51210Y-50115D01*
X51222Y-50091D01*
X51234Y-50044D01*
X51234Y-50008D01*
X51222Y-49960D01*
X51210Y-49936D01*
X51186Y-49913D01*
X51151Y-49901D01*
X51127Y-49901D01*
X51091Y-49913D01*
X51079Y-49925D01*
X50841Y-50151D02*
X50984Y-50151D01*
X50913Y-50151D02*
X50913Y-49901D01*
X50936Y-49936D01*
X50960Y-49960D01*
X50984Y-49972D01*
X50603Y-50151D02*
X50746Y-50151D01*
X50675Y-50151D02*
X50675Y-49901D01*
X50698Y-49936D01*
X50722Y-49960D01*
X50746Y-49972D01*
X50448Y-49901D02*
X50425Y-49901D01*
X50401Y-49913D01*
X50389Y-49925D01*
X50377Y-49948D01*
X50365Y-49996D01*
X50365Y-50055D01*
X50377Y-50103D01*
X50389Y-50127D01*
X50401Y-50139D01*
X50425Y-50151D01*
X50448Y-50151D01*
X50472Y-50139D01*
X50484Y-50127D01*
X50496Y-50103D01*
X50508Y-50055D01*
X50508Y-49996D01*
X50496Y-49948D01*
X50484Y-49925D01*
X50472Y-49913D01*
X50448Y-49901D01*
X51029Y-48727D02*
X51041Y-48739D01*
X51077Y-48751D01*
X51101Y-48751D01*
X51136Y-48739D01*
X51160Y-48715D01*
X51172Y-48691D01*
X51184Y-48644D01*
X51184Y-48608D01*
X51172Y-48560D01*
X51160Y-48536D01*
X51136Y-48513D01*
X51101Y-48501D01*
X51077Y-48501D01*
X51041Y-48513D01*
X51029Y-48525D01*
X50791Y-48751D02*
X50934Y-48751D01*
X50863Y-48751D02*
X50863Y-48501D01*
X50886Y-48536D01*
X50910Y-48560D01*
X50934Y-48572D01*
X50636Y-48501D02*
X50613Y-48501D01*
X50589Y-48513D01*
X50577Y-48525D01*
X50565Y-48548D01*
X50553Y-48596D01*
X50553Y-48655D01*
X50565Y-48703D01*
X50577Y-48727D01*
X50589Y-48739D01*
X50613Y-48751D01*
X50636Y-48751D01*
X50660Y-48739D01*
X50672Y-48727D01*
X50684Y-48703D01*
X50696Y-48655D01*
X50696Y-48596D01*
X50684Y-48548D01*
X50672Y-48525D01*
X50660Y-48513D01*
X50636Y-48501D01*
X50339Y-48501D02*
X50386Y-48501D01*
X50410Y-48513D01*
X50422Y-48525D01*
X50446Y-48560D01*
X50458Y-48608D01*
X50458Y-48703D01*
X50446Y-48727D01*
X50434Y-48739D01*
X50410Y-48751D01*
X50363Y-48751D01*
X50339Y-48739D01*
X50327Y-48727D01*
X50315Y-48703D01*
X50315Y-48644D01*
X50327Y-48620D01*
X50339Y-48608D01*
X50363Y-48596D01*
X50410Y-48596D01*
X50434Y-48608D01*
X50446Y-48620D01*
X50458Y-48644D01*
X46827Y-52520D02*
X46839Y-52508D01*
X46851Y-52472D01*
X46851Y-52448D01*
X46839Y-52413D01*
X46815Y-52389D01*
X46791Y-52377D01*
X46744Y-52365D01*
X46708Y-52365D01*
X46660Y-52377D01*
X46636Y-52389D01*
X46613Y-52413D01*
X46601Y-52448D01*
X46601Y-52472D01*
X46613Y-52508D01*
X46625Y-52520D01*
X46851Y-52758D02*
X46851Y-52615D01*
X46851Y-52686D02*
X46601Y-52686D01*
X46636Y-52663D01*
X46660Y-52639D01*
X46672Y-52615D01*
X46601Y-52913D02*
X46601Y-52936D01*
X46613Y-52960D01*
X46625Y-52972D01*
X46648Y-52984D01*
X46696Y-52996D01*
X46755Y-52996D01*
X46803Y-52984D01*
X46827Y-52972D01*
X46839Y-52960D01*
X46851Y-52936D01*
X46851Y-52913D01*
X46839Y-52889D01*
X46827Y-52877D01*
X46803Y-52865D01*
X46755Y-52853D01*
X46696Y-52853D01*
X46648Y-52865D01*
X46625Y-52877D01*
X46613Y-52889D01*
X46601Y-52913D01*
X46601Y-53079D02*
X46601Y-53234D01*
X46696Y-53151D01*
X46696Y-53186D01*
X46708Y-53210D01*
X46720Y-53222D01*
X46744Y-53234D01*
X46803Y-53234D01*
X46827Y-53222D01*
X46839Y-53210D01*
X46851Y-53186D01*
X46851Y-53115D01*
X46839Y-53091D01*
X46827Y-53079D01*
X62751Y-58870D02*
X62632Y-58786D01*
X62751Y-58727D02*
X62501Y-58727D01*
X62501Y-58822D01*
X62513Y-58846D01*
X62525Y-58858D01*
X62548Y-58870D01*
X62584Y-58870D01*
X62608Y-58858D01*
X62620Y-58846D01*
X62632Y-58822D01*
X62632Y-58727D01*
X62501Y-59084D02*
X62501Y-59036D01*
X62513Y-59013D01*
X62525Y-59001D01*
X62560Y-58977D01*
X62608Y-58965D01*
X62703Y-58965D01*
X62727Y-58977D01*
X62739Y-58989D01*
X62751Y-59013D01*
X62751Y-59060D01*
X62739Y-59084D01*
X62727Y-59096D01*
X62703Y-59108D01*
X62644Y-59108D01*
X62620Y-59096D01*
X62608Y-59084D01*
X62596Y-59060D01*
X62596Y-59013D01*
X62608Y-58989D01*
X62620Y-58977D01*
X62644Y-58965D01*
X62501Y-59263D02*
X62501Y-59286D01*
X62513Y-59310D01*
X62525Y-59322D01*
X62548Y-59334D01*
X62596Y-59346D01*
X62655Y-59346D01*
X62703Y-59334D01*
X62727Y-59322D01*
X62739Y-59310D01*
X62751Y-59286D01*
X62751Y-59263D01*
X62739Y-59239D01*
X62727Y-59227D01*
X62703Y-59215D01*
X62655Y-59203D01*
X62596Y-59203D01*
X62548Y-59215D01*
X62525Y-59227D01*
X62513Y-59239D01*
X62501Y-59263D01*
X62751Y-59465D02*
X62751Y-59513D01*
X62739Y-59536D01*
X62727Y-59548D01*
X62691Y-59572D01*
X62644Y-59584D01*
X62548Y-59584D01*
X62525Y-59572D01*
X62513Y-59560D01*
X62501Y-59536D01*
X62501Y-59489D01*
X62513Y-59465D01*
X62525Y-59453D01*
X62548Y-59441D01*
X62608Y-59441D01*
X62632Y-59453D01*
X62644Y-59465D01*
X62655Y-59489D01*
X62655Y-59536D01*
X62644Y-59560D01*
X62632Y-59572D01*
X62608Y-59584D01*
X44027Y-54820D02*
X44039Y-54808D01*
X44051Y-54772D01*
X44051Y-54748D01*
X44039Y-54713D01*
X44015Y-54689D01*
X43991Y-54677D01*
X43944Y-54665D01*
X43908Y-54665D01*
X43860Y-54677D01*
X43836Y-54689D01*
X43813Y-54713D01*
X43801Y-54748D01*
X43801Y-54772D01*
X43813Y-54808D01*
X43825Y-54820D01*
X43801Y-54903D02*
X43801Y-55058D01*
X43896Y-54975D01*
X43896Y-55010D01*
X43908Y-55034D01*
X43920Y-55046D01*
X43944Y-55058D01*
X44003Y-55058D01*
X44027Y-55046D01*
X44039Y-55034D01*
X44051Y-55010D01*
X44051Y-54939D01*
X44039Y-54915D01*
X44027Y-54903D01*
X43801Y-55213D02*
X43801Y-55236D01*
X43813Y-55260D01*
X43825Y-55272D01*
X43848Y-55284D01*
X43896Y-55296D01*
X43955Y-55296D01*
X44003Y-55284D01*
X44027Y-55272D01*
X44039Y-55260D01*
X44051Y-55236D01*
X44051Y-55213D01*
X44039Y-55189D01*
X44027Y-55177D01*
X44003Y-55165D01*
X43955Y-55153D01*
X43896Y-55153D01*
X43848Y-55165D01*
X43825Y-55177D01*
X43813Y-55189D01*
X43801Y-55213D01*
X43801Y-55379D02*
X43801Y-55534D01*
X43896Y-55451D01*
X43896Y-55486D01*
X43908Y-55510D01*
X43920Y-55522D01*
X43944Y-55534D01*
X44003Y-55534D01*
X44027Y-55522D01*
X44039Y-55510D01*
X44051Y-55486D01*
X44051Y-55415D01*
X44039Y-55391D01*
X44027Y-55379D01*
X41877Y-54670D02*
X41889Y-54658D01*
X41901Y-54622D01*
X41901Y-54598D01*
X41889Y-54563D01*
X41865Y-54539D01*
X41841Y-54527D01*
X41794Y-54515D01*
X41758Y-54515D01*
X41710Y-54527D01*
X41686Y-54539D01*
X41663Y-54563D01*
X41651Y-54598D01*
X41651Y-54622D01*
X41663Y-54658D01*
X41675Y-54670D01*
X41651Y-54753D02*
X41651Y-54908D01*
X41746Y-54825D01*
X41746Y-54860D01*
X41758Y-54884D01*
X41770Y-54896D01*
X41794Y-54908D01*
X41853Y-54908D01*
X41877Y-54896D01*
X41889Y-54884D01*
X41901Y-54860D01*
X41901Y-54789D01*
X41889Y-54765D01*
X41877Y-54753D01*
X41651Y-55063D02*
X41651Y-55086D01*
X41663Y-55110D01*
X41675Y-55122D01*
X41698Y-55134D01*
X41746Y-55146D01*
X41805Y-55146D01*
X41853Y-55134D01*
X41877Y-55122D01*
X41889Y-55110D01*
X41901Y-55086D01*
X41901Y-55063D01*
X41889Y-55039D01*
X41877Y-55027D01*
X41853Y-55015D01*
X41805Y-55003D01*
X41746Y-55003D01*
X41698Y-55015D01*
X41675Y-55027D01*
X41663Y-55039D01*
X41651Y-55063D01*
X41675Y-55241D02*
X41663Y-55253D01*
X41651Y-55277D01*
X41651Y-55336D01*
X41663Y-55360D01*
X41675Y-55372D01*
X41698Y-55384D01*
X41722Y-55384D01*
X41758Y-55372D01*
X41901Y-55229D01*
X41901Y-55384D01*
X41377Y-58120D02*
X41389Y-58108D01*
X41401Y-58072D01*
X41401Y-58048D01*
X41389Y-58013D01*
X41365Y-57989D01*
X41341Y-57977D01*
X41294Y-57965D01*
X41258Y-57965D01*
X41210Y-57977D01*
X41186Y-57989D01*
X41163Y-58013D01*
X41151Y-58048D01*
X41151Y-58072D01*
X41163Y-58108D01*
X41175Y-58120D01*
X41151Y-58203D02*
X41151Y-58358D01*
X41246Y-58275D01*
X41246Y-58310D01*
X41258Y-58334D01*
X41270Y-58346D01*
X41294Y-58358D01*
X41353Y-58358D01*
X41377Y-58346D01*
X41389Y-58334D01*
X41401Y-58310D01*
X41401Y-58239D01*
X41389Y-58215D01*
X41377Y-58203D01*
X41151Y-58513D02*
X41151Y-58536D01*
X41163Y-58560D01*
X41175Y-58572D01*
X41198Y-58584D01*
X41246Y-58596D01*
X41305Y-58596D01*
X41353Y-58584D01*
X41377Y-58572D01*
X41389Y-58560D01*
X41401Y-58536D01*
X41401Y-58513D01*
X41389Y-58489D01*
X41377Y-58477D01*
X41353Y-58465D01*
X41305Y-58453D01*
X41246Y-58453D01*
X41198Y-58465D01*
X41175Y-58477D01*
X41163Y-58489D01*
X41151Y-58513D01*
X41151Y-58810D02*
X41151Y-58763D01*
X41163Y-58739D01*
X41175Y-58727D01*
X41210Y-58703D01*
X41258Y-58691D01*
X41353Y-58691D01*
X41377Y-58703D01*
X41389Y-58715D01*
X41401Y-58739D01*
X41401Y-58786D01*
X41389Y-58810D01*
X41377Y-58822D01*
X41353Y-58834D01*
X41294Y-58834D01*
X41270Y-58822D01*
X41258Y-58810D01*
X41246Y-58786D01*
X41246Y-58739D01*
X41258Y-58715D01*
X41270Y-58703D01*
X41294Y-58691D01*
X40701Y-58120D02*
X40582Y-58036D01*
X40701Y-57977D02*
X40451Y-57977D01*
X40451Y-58072D01*
X40463Y-58096D01*
X40475Y-58108D01*
X40498Y-58120D01*
X40534Y-58120D01*
X40558Y-58108D01*
X40570Y-58096D01*
X40582Y-58072D01*
X40582Y-57977D01*
X40451Y-58203D02*
X40451Y-58358D01*
X40546Y-58275D01*
X40546Y-58310D01*
X40558Y-58334D01*
X40570Y-58346D01*
X40594Y-58358D01*
X40653Y-58358D01*
X40677Y-58346D01*
X40689Y-58334D01*
X40701Y-58310D01*
X40701Y-58239D01*
X40689Y-58215D01*
X40677Y-58203D01*
X40451Y-58513D02*
X40451Y-58536D01*
X40463Y-58560D01*
X40475Y-58572D01*
X40498Y-58584D01*
X40546Y-58596D01*
X40605Y-58596D01*
X40653Y-58584D01*
X40677Y-58572D01*
X40689Y-58560D01*
X40701Y-58536D01*
X40701Y-58513D01*
X40689Y-58489D01*
X40677Y-58477D01*
X40653Y-58465D01*
X40605Y-58453D01*
X40546Y-58453D01*
X40498Y-58465D01*
X40475Y-58477D01*
X40463Y-58489D01*
X40451Y-58513D01*
X40701Y-58715D02*
X40701Y-58763D01*
X40689Y-58786D01*
X40677Y-58798D01*
X40641Y-58822D01*
X40594Y-58834D01*
X40498Y-58834D01*
X40475Y-58822D01*
X40463Y-58810D01*
X40451Y-58786D01*
X40451Y-58739D01*
X40463Y-58715D01*
X40475Y-58703D01*
X40498Y-58691D01*
X40558Y-58691D01*
X40582Y-58703D01*
X40594Y-58715D01*
X40605Y-58739D01*
X40605Y-58786D01*
X40594Y-58810D01*
X40582Y-58822D01*
X40558Y-58834D01*
X39327Y-52620D02*
X39339Y-52608D01*
X39351Y-52572D01*
X39351Y-52548D01*
X39339Y-52513D01*
X39315Y-52489D01*
X39291Y-52477D01*
X39244Y-52465D01*
X39208Y-52465D01*
X39160Y-52477D01*
X39136Y-52489D01*
X39113Y-52513D01*
X39101Y-52548D01*
X39101Y-52572D01*
X39113Y-52608D01*
X39125Y-52620D01*
X39125Y-52715D02*
X39113Y-52727D01*
X39101Y-52751D01*
X39101Y-52810D01*
X39113Y-52834D01*
X39125Y-52846D01*
X39148Y-52858D01*
X39172Y-52858D01*
X39208Y-52846D01*
X39351Y-52703D01*
X39351Y-52858D01*
X39101Y-53013D02*
X39101Y-53036D01*
X39113Y-53060D01*
X39125Y-53072D01*
X39148Y-53084D01*
X39196Y-53096D01*
X39255Y-53096D01*
X39303Y-53084D01*
X39327Y-53072D01*
X39339Y-53060D01*
X39351Y-53036D01*
X39351Y-53013D01*
X39339Y-52989D01*
X39327Y-52977D01*
X39303Y-52965D01*
X39255Y-52953D01*
X39196Y-52953D01*
X39148Y-52965D01*
X39125Y-52977D01*
X39113Y-52989D01*
X39101Y-53013D01*
X39208Y-53239D02*
X39196Y-53215D01*
X39184Y-53203D01*
X39160Y-53191D01*
X39148Y-53191D01*
X39125Y-53203D01*
X39113Y-53215D01*
X39101Y-53239D01*
X39101Y-53286D01*
X39113Y-53310D01*
X39125Y-53322D01*
X39148Y-53334D01*
X39160Y-53334D01*
X39184Y-53322D01*
X39196Y-53310D01*
X39208Y-53286D01*
X39208Y-53239D01*
X39220Y-53215D01*
X39232Y-53203D01*
X39255Y-53191D01*
X39303Y-53191D01*
X39327Y-53203D01*
X39339Y-53215D01*
X39351Y-53239D01*
X39351Y-53286D01*
X39339Y-53310D01*
X39327Y-53322D01*
X39303Y-53334D01*
X39255Y-53334D01*
X39232Y-53322D01*
X39220Y-53310D01*
X39208Y-53286D01*
X45751Y-58620D02*
X45632Y-58536D01*
X45751Y-58477D02*
X45501Y-58477D01*
X45501Y-58572D01*
X45513Y-58596D01*
X45525Y-58608D01*
X45548Y-58620D01*
X45584Y-58620D01*
X45608Y-58608D01*
X45620Y-58596D01*
X45632Y-58572D01*
X45632Y-58477D01*
X45501Y-58703D02*
X45501Y-58858D01*
X45596Y-58775D01*
X45596Y-58810D01*
X45608Y-58834D01*
X45620Y-58846D01*
X45644Y-58858D01*
X45703Y-58858D01*
X45727Y-58846D01*
X45739Y-58834D01*
X45751Y-58810D01*
X45751Y-58739D01*
X45739Y-58715D01*
X45727Y-58703D01*
X45501Y-59013D02*
X45501Y-59036D01*
X45513Y-59060D01*
X45525Y-59072D01*
X45548Y-59084D01*
X45596Y-59096D01*
X45655Y-59096D01*
X45703Y-59084D01*
X45727Y-59072D01*
X45739Y-59060D01*
X45751Y-59036D01*
X45751Y-59013D01*
X45739Y-58989D01*
X45727Y-58977D01*
X45703Y-58965D01*
X45655Y-58953D01*
X45596Y-58953D01*
X45548Y-58965D01*
X45525Y-58977D01*
X45513Y-58989D01*
X45501Y-59013D01*
X45525Y-59191D02*
X45513Y-59203D01*
X45501Y-59227D01*
X45501Y-59286D01*
X45513Y-59310D01*
X45525Y-59322D01*
X45548Y-59334D01*
X45572Y-59334D01*
X45608Y-59322D01*
X45751Y-59179D01*
X45751Y-59334D01*
X39327Y-51420D02*
X39339Y-51408D01*
X39351Y-51372D01*
X39351Y-51348D01*
X39339Y-51313D01*
X39315Y-51289D01*
X39291Y-51277D01*
X39244Y-51265D01*
X39208Y-51265D01*
X39160Y-51277D01*
X39136Y-51289D01*
X39113Y-51313D01*
X39101Y-51348D01*
X39101Y-51372D01*
X39113Y-51408D01*
X39125Y-51420D01*
X39125Y-51515D02*
X39113Y-51527D01*
X39101Y-51551D01*
X39101Y-51610D01*
X39113Y-51634D01*
X39125Y-51646D01*
X39148Y-51658D01*
X39172Y-51658D01*
X39208Y-51646D01*
X39351Y-51503D01*
X39351Y-51658D01*
X39101Y-51813D02*
X39101Y-51836D01*
X39113Y-51860D01*
X39125Y-51872D01*
X39148Y-51884D01*
X39196Y-51896D01*
X39255Y-51896D01*
X39303Y-51884D01*
X39327Y-51872D01*
X39339Y-51860D01*
X39351Y-51836D01*
X39351Y-51813D01*
X39339Y-51789D01*
X39327Y-51777D01*
X39303Y-51765D01*
X39255Y-51753D01*
X39196Y-51753D01*
X39148Y-51765D01*
X39125Y-51777D01*
X39113Y-51789D01*
X39101Y-51813D01*
X39101Y-51979D02*
X39101Y-52146D01*
X39351Y-52039D01*
X41729Y-52827D02*
X41741Y-52839D01*
X41777Y-52851D01*
X41801Y-52851D01*
X41836Y-52839D01*
X41860Y-52815D01*
X41872Y-52791D01*
X41884Y-52744D01*
X41884Y-52708D01*
X41872Y-52660D01*
X41860Y-52636D01*
X41836Y-52613D01*
X41801Y-52601D01*
X41777Y-52601D01*
X41741Y-52613D01*
X41729Y-52625D01*
X41634Y-52625D02*
X41622Y-52613D01*
X41598Y-52601D01*
X41539Y-52601D01*
X41515Y-52613D01*
X41503Y-52625D01*
X41491Y-52648D01*
X41491Y-52672D01*
X41503Y-52708D01*
X41646Y-52851D01*
X41491Y-52851D01*
X41336Y-52601D02*
X41313Y-52601D01*
X41289Y-52613D01*
X41277Y-52625D01*
X41265Y-52648D01*
X41253Y-52696D01*
X41253Y-52755D01*
X41265Y-52803D01*
X41277Y-52827D01*
X41289Y-52839D01*
X41313Y-52851D01*
X41336Y-52851D01*
X41360Y-52839D01*
X41372Y-52827D01*
X41384Y-52803D01*
X41396Y-52755D01*
X41396Y-52696D01*
X41384Y-52648D01*
X41372Y-52625D01*
X41360Y-52613D01*
X41336Y-52601D01*
X41170Y-52601D02*
X41015Y-52601D01*
X41098Y-52696D01*
X41063Y-52696D01*
X41039Y-52708D01*
X41027Y-52720D01*
X41015Y-52744D01*
X41015Y-52803D01*
X41027Y-52827D01*
X41039Y-52839D01*
X41063Y-52851D01*
X41134Y-52851D01*
X41158Y-52839D01*
X41170Y-52827D01*
X39877Y-45470D02*
X39889Y-45458D01*
X39901Y-45422D01*
X39901Y-45398D01*
X39889Y-45363D01*
X39865Y-45339D01*
X39841Y-45327D01*
X39794Y-45315D01*
X39758Y-45315D01*
X39710Y-45327D01*
X39686Y-45339D01*
X39663Y-45363D01*
X39651Y-45398D01*
X39651Y-45422D01*
X39663Y-45458D01*
X39675Y-45470D01*
X39675Y-45565D02*
X39663Y-45577D01*
X39651Y-45601D01*
X39651Y-45660D01*
X39663Y-45684D01*
X39675Y-45696D01*
X39698Y-45708D01*
X39722Y-45708D01*
X39758Y-45696D01*
X39901Y-45553D01*
X39901Y-45708D01*
X39651Y-45863D02*
X39651Y-45886D01*
X39663Y-45910D01*
X39675Y-45922D01*
X39698Y-45934D01*
X39746Y-45946D01*
X39805Y-45946D01*
X39853Y-45934D01*
X39877Y-45922D01*
X39889Y-45910D01*
X39901Y-45886D01*
X39901Y-45863D01*
X39889Y-45839D01*
X39877Y-45827D01*
X39853Y-45815D01*
X39805Y-45803D01*
X39746Y-45803D01*
X39698Y-45815D01*
X39675Y-45827D01*
X39663Y-45839D01*
X39651Y-45863D01*
X39734Y-46160D02*
X39901Y-46160D01*
X39639Y-46101D02*
X39817Y-46041D01*
X39817Y-46196D01*
X44427Y-58120D02*
X44439Y-58108D01*
X44451Y-58072D01*
X44451Y-58048D01*
X44439Y-58013D01*
X44415Y-57989D01*
X44391Y-57977D01*
X44344Y-57965D01*
X44308Y-57965D01*
X44260Y-57977D01*
X44236Y-57989D01*
X44213Y-58013D01*
X44201Y-58048D01*
X44201Y-58072D01*
X44213Y-58108D01*
X44225Y-58120D01*
X44201Y-58203D02*
X44201Y-58358D01*
X44296Y-58275D01*
X44296Y-58310D01*
X44308Y-58334D01*
X44320Y-58346D01*
X44344Y-58358D01*
X44403Y-58358D01*
X44427Y-58346D01*
X44439Y-58334D01*
X44451Y-58310D01*
X44451Y-58239D01*
X44439Y-58215D01*
X44427Y-58203D01*
X44201Y-58513D02*
X44201Y-58536D01*
X44213Y-58560D01*
X44225Y-58572D01*
X44248Y-58584D01*
X44296Y-58596D01*
X44355Y-58596D01*
X44403Y-58584D01*
X44427Y-58572D01*
X44439Y-58560D01*
X44451Y-58536D01*
X44451Y-58513D01*
X44439Y-58489D01*
X44427Y-58477D01*
X44403Y-58465D01*
X44355Y-58453D01*
X44296Y-58453D01*
X44248Y-58465D01*
X44225Y-58477D01*
X44213Y-58489D01*
X44201Y-58513D01*
X44451Y-58834D02*
X44451Y-58691D01*
X44451Y-58763D02*
X44201Y-58763D01*
X44236Y-58739D01*
X44260Y-58715D01*
X44272Y-58691D01*
G54D14*
X40978Y-45792D02*
X40978Y-46278D01*
X40950Y-46335D01*
X40921Y-46364D01*
X40864Y-46392D01*
X40750Y-46392D01*
X40692Y-46364D01*
X40664Y-46335D01*
X40635Y-46278D01*
X40635Y-45792D01*
X40378Y-45850D02*
X40350Y-45821D01*
X40292Y-45792D01*
X40150Y-45792D01*
X40092Y-45821D01*
X40064Y-45850D01*
X40035Y-45907D01*
X40035Y-45964D01*
X40064Y-46050D01*
X40407Y-46392D01*
X40035Y-46392D01*
X39664Y-45792D02*
X39607Y-45792D01*
X39550Y-45821D01*
X39521Y-45850D01*
X39492Y-45907D01*
X39464Y-46021D01*
X39464Y-46164D01*
X39492Y-46278D01*
X39521Y-46335D01*
X39550Y-46364D01*
X39607Y-46392D01*
X39664Y-46392D01*
X39721Y-46364D01*
X39750Y-46335D01*
X39778Y-46278D01*
X39807Y-46164D01*
X39807Y-46021D01*
X39778Y-45907D01*
X39750Y-45850D01*
X39721Y-45821D01*
X39664Y-45792D01*
X38892Y-46392D02*
X39235Y-46392D01*
X39064Y-46392D02*
X39064Y-45792D01*
X39121Y-45878D01*
X39178Y-45935D01*
X39235Y-45964D01*
G54D15*
X38029Y-50317D02*
X37935Y-50251D01*
X38029Y-50204D02*
X37832Y-50204D01*
X37832Y-50279D01*
X37842Y-50298D01*
X37851Y-50307D01*
X37870Y-50317D01*
X37898Y-50317D01*
X37917Y-50307D01*
X37926Y-50298D01*
X37935Y-50279D01*
X37935Y-50204D01*
X38029Y-50504D02*
X38029Y-50392D01*
X38029Y-50448D02*
X37832Y-50448D01*
X37860Y-50429D01*
X37879Y-50410D01*
X37889Y-50392D01*
%LPC*%
G54D16*
X70000Y-51075D03*
X70000Y-53075D03*
X67000Y-51075D03*
X67000Y-53075D03*
X70000Y-47850D03*
X70000Y-49850D03*
X67000Y-47850D03*
X67000Y-49850D03*
G54D17*
X39400Y-60950D03*
X39400Y-62250D03*
X38300Y-62250D03*
X38300Y-60950D03*
X68500Y-60950D03*
X68500Y-62250D03*
X69500Y-62250D03*
X69500Y-60950D03*
X62000Y-61050D03*
X62000Y-62350D03*
X55100Y-62250D03*
X55100Y-60950D03*
X46850Y-62200D03*
X46850Y-60900D03*
X48050Y-60900D03*
X48050Y-62200D03*
G54D18*
X44150Y-50000D03*
X42850Y-50000D03*
X44150Y-48900D03*
X42850Y-48900D03*
X47450Y-45050D03*
X48750Y-45050D03*
G54D19*
X51899Y-56017D03*
X51899Y-55267D03*
X51112Y-55307D03*
X51112Y-56057D03*
X53198Y-60269D03*
X53198Y-59519D03*
X49498Y-60309D03*
X49498Y-59559D03*
X50206Y-59559D03*
X50206Y-60309D03*
X53946Y-59519D03*
X53946Y-60269D03*
X56922Y-59412D03*
X56922Y-60162D03*
X67769Y-59512D03*
X67769Y-60262D03*
X66942Y-60262D03*
X66942Y-59512D03*
X58733Y-56107D03*
X58733Y-55357D03*
X57985Y-55357D03*
X57985Y-56107D03*
X56174Y-60162D03*
X56174Y-59412D03*
X59914Y-60398D03*
X59914Y-59648D03*
X60662Y-59648D03*
X60662Y-60398D03*
X50650Y-52275D03*
X50650Y-53025D03*
X63950Y-59433D03*
X63950Y-60183D03*
X42050Y-48225D03*
X42050Y-48975D03*
G54D20*
X40875Y-50300D03*
X41625Y-50300D03*
G54D19*
X64777Y-55339D03*
X64777Y-56089D03*
X65175Y-46750D03*
X65175Y-46000D03*
X64300Y-46750D03*
X64300Y-46000D03*
X65918Y-56089D03*
X65918Y-55339D03*
X44150Y-51025D03*
X44150Y-51775D03*
X45950Y-51325D03*
X45950Y-52075D03*
G54D20*
X51625Y-49900D03*
X52375Y-49900D03*
X51575Y-48600D03*
X52325Y-48600D03*
G54D19*
X47250Y-52450D03*
X47250Y-53200D03*
X63202Y-60183D03*
X63202Y-59433D03*
X43314Y-55481D03*
X43314Y-54731D03*
X42409Y-54731D03*
X42409Y-55481D03*
X41346Y-59219D03*
X41346Y-59969D03*
X40559Y-59969D03*
X40559Y-59219D03*
X39850Y-52725D03*
X39850Y-53475D03*
X45007Y-59180D03*
X45007Y-59930D03*
X39850Y-52175D03*
X39850Y-51425D03*
G54D20*
X41825Y-52200D03*
X41075Y-52200D03*
G54D19*
X39650Y-47275D03*
X39650Y-46525D03*
X44259Y-59930D03*
X44259Y-59180D03*
G54D21*
X67485Y-61311D03*
G54D22*
X67485Y-62311D03*
X66485Y-61311D03*
X66485Y-62311D03*
X65485Y-61311D03*
X65485Y-62311D03*
X64485Y-61311D03*
X64485Y-62311D03*
X63485Y-61311D03*
X63485Y-62311D03*
G54D21*
X53702Y-61311D03*
G54D22*
X53702Y-62311D03*
X52702Y-61311D03*
X52702Y-62311D03*
X51702Y-61311D03*
X51702Y-62311D03*
X50702Y-61311D03*
X50702Y-62311D03*
X49702Y-61311D03*
X49702Y-62311D03*
G54D21*
X60496Y-61311D03*
G54D22*
X60496Y-62311D03*
X59496Y-61311D03*
X59496Y-62311D03*
X58496Y-61311D03*
X58496Y-62311D03*
X57496Y-61311D03*
X57496Y-62311D03*
X56496Y-61311D03*
X56496Y-62311D03*
G54D21*
X44800Y-61311D03*
G54D22*
X44800Y-62311D03*
X43800Y-61311D03*
X43800Y-62311D03*
X42800Y-61311D03*
X42800Y-62311D03*
X41800Y-61311D03*
X41800Y-62311D03*
X40800Y-61311D03*
X40800Y-62311D03*
G54D21*
X57250Y-47750D03*
G54D22*
X56250Y-47750D03*
X57250Y-46750D03*
X56250Y-46750D03*
X57250Y-45750D03*
X56250Y-45750D03*
X57250Y-44750D03*
X56250Y-44750D03*
G54D21*
X40800Y-47000D03*
G54D22*
X41800Y-47000D03*
X42800Y-47000D03*
G54D21*
X66025Y-57700D03*
G54D22*
X66025Y-58700D03*
X66025Y-59700D03*
G54D21*
X64875Y-57700D03*
G54D22*
X64875Y-58700D03*
X64875Y-59700D03*
G54D21*
X42950Y-51350D03*
G54D22*
X41950Y-51350D03*
X40950Y-51350D03*
G54D21*
X42212Y-57256D03*
G54D22*
X42212Y-58256D03*
X42212Y-59256D03*
G54D21*
X43354Y-57256D03*
G54D22*
X43354Y-58256D03*
X43354Y-59256D03*
G54D21*
X51112Y-57831D03*
G54D22*
X51112Y-58831D03*
X51112Y-59831D03*
G54D21*
X52253Y-57831D03*
G54D22*
X52253Y-58831D03*
X52253Y-59831D03*
G54D21*
X57827Y-57881D03*
G54D22*
X57827Y-58881D03*
X57827Y-59881D03*
G54D21*
X58969Y-57881D03*
G54D22*
X58969Y-58881D03*
X58969Y-59881D03*
G54D23*
X38250Y-48600D03*
X38250Y-49600D03*
X38250Y-51600D03*
X38250Y-52600D03*
X38250Y-53600D03*
G54D21*
X57050Y-51850D03*
G54D22*
X56050Y-51850D03*
X57050Y-50850D03*
X56050Y-50850D03*
X57050Y-49850D03*
X56050Y-49850D03*
G54D24*
X41141Y-49601D03*
X40944Y-49601D03*
X40747Y-49601D03*
G54D25*
X40550Y-49463D03*
G54D24*
X40353Y-49601D03*
X40156Y-49601D03*
X39959Y-49601D03*
X39959Y-48499D03*
G54D25*
X40156Y-48637D03*
G54D24*
X40353Y-48499D03*
X40550Y-48499D03*
X40747Y-48499D03*
X40944Y-48499D03*
X41141Y-48499D03*
G54D26*
X40855Y-49050D03*
G54D27*
X40099Y-49050D03*
G54D19*
X37450Y-49975D03*
X37450Y-50725D03*
G54D21*
X66150Y-42075D03*
G54D22*
X65150Y-42075D03*
X64150Y-42075D03*
X63150Y-42075D03*
G54D21*
X69725Y-44800D03*
G54D22*
X69725Y-43800D03*
X69725Y-42800D03*
X69725Y-41800D03*
G54D28*
X37716Y-43047D03*
X37716Y-42047D03*
X38716Y-43047D03*
X38716Y-42047D03*
X39716Y-43047D03*
X39716Y-42047D03*
X40716Y-43047D03*
X40716Y-42047D03*
X41716Y-43047D03*
X41716Y-42047D03*
X42716Y-43047D03*
X42716Y-42047D03*
X43716Y-43047D03*
X43716Y-42047D03*
X44716Y-43047D03*
X44716Y-42047D03*
X45716Y-43047D03*
X45716Y-42047D03*
X46716Y-43047D03*
X46716Y-42047D03*
X47716Y-43047D03*
X47716Y-42047D03*
X48716Y-43047D03*
X48716Y-42047D03*
X49716Y-43047D03*
X49716Y-42047D03*
X39716Y-44047D03*
X39716Y-45047D03*
X40716Y-44047D03*
X40716Y-45047D03*
X41716Y-44047D03*
X41716Y-45047D03*
X42716Y-44047D03*
X42716Y-45047D03*
G54D29*
X46968Y-56417D03*
X68425Y-46181D03*
M02*
