M48
;DRILL file {Pcbnew (2013-mar-13)-testing} date Thu 04 Apr 2013 06:33:16 PM CEST
;FORMAT={-:-/ absolute / inch / decimal}
FMAT,2
INCH,TZ
T1C0.025
T2C0.040
T3C0.060
T4C0.120
%
G90
G05
M72
T1
X4.3307Y-4.8425
X4.3307Y-4.9803
X4.626Y-4.8425
T2
X4.1701Y-5.3831
X4.1701Y-5.4831
X4.2701Y-5.3831
X4.2701Y-5.4831
X4.3701Y-5.3831
X4.3701Y-5.4831
X4.4701Y-5.3831
X4.4701Y-5.4831
X4.5701Y-5.3831
X4.5701Y-5.4831
T3
X4.0732Y-4.2323
X4.2732Y-4.2323
X4.4669Y-4.2323
X4.6669Y-4.2323
T4
X3.937Y-3.937
X3.937Y-5.7087
X4.8228Y-3.937
X4.8228Y-5.7087
T0
M30
