M48
;DRILL file {Pcbnew (2013-mar-13)-testing} date Thu 04 Apr 2013 07:07:48 PM CEST
;FORMAT={-:-/ absolute / inch / decimal}
FMAT,2
INCH,TZ
T1C0.025
T2C0.040
T3C0.060
T4C0.120
%
G90
G05
M72
T1
X4.4291Y-4.6063
X4.4291Y-4.9016
X4.5669Y-4.9016
T2
X4.9697Y-4.6622
X4.9697Y-4.7622
X4.9697Y-4.8622
X4.9697Y-4.9622
X4.9697Y-5.0622
X5.0697Y-4.6622
X5.0697Y-4.7622
X5.0697Y-4.8622
X5.0697Y-4.9622
X5.0697Y-5.0622
T3
X3.8189Y-4.5654
X3.8189Y-4.7654
X3.8189Y-4.9591
X3.8189Y-5.1591
T4
X3.5236Y-4.4094
X3.5236Y-5.2953
X5.0984Y-4.4094
X5.0984Y-5.2953
T0
M30
