G04 (created by PCBNEW (2013-mar-13)-testing) date Thu 04 Apr 2013 08:37:25 PM CEST*
%MOIN*%
G04 Gerber Fmt 3.4, Leading zero omitted, Abs format*
%FSLAX34Y34*%
G01*
G70*
G90*
G04 APERTURE LIST*
%ADD10C,0.006*%
%ADD11C,0.005*%
%ADD12C,0.0059*%
%ADD13C,0.0039*%
%ADD14C,0.00590551*%
%ADD15C,0.0043*%
G04 APERTURE END LIST*
G54D10*
G54D11*
X42313Y-46303D02*
X42313Y-47003D01*
X42313Y-47003D02*
X43513Y-47003D01*
X43513Y-47003D02*
X43513Y-46303D01*
X43513Y-46303D02*
X42313Y-46303D01*
X42313Y-50240D02*
X42313Y-50940D01*
X42313Y-50940D02*
X43513Y-50940D01*
X43513Y-50940D02*
X43513Y-50240D01*
X43513Y-50240D02*
X42313Y-50240D01*
G54D12*
X38936Y-45078D02*
X40590Y-45078D01*
X38936Y-44960D02*
X40590Y-44960D01*
X38936Y-48346D02*
X40590Y-48346D01*
X40592Y-47439D02*
X40592Y-48339D01*
X38934Y-48339D02*
X38934Y-47439D01*
X38934Y-45866D02*
X38934Y-44966D01*
X40592Y-44967D02*
X40592Y-45867D01*
X38936Y-49015D02*
X40590Y-49015D01*
X38936Y-48897D02*
X40590Y-48897D01*
X38936Y-52283D02*
X40590Y-52283D01*
X40592Y-51376D02*
X40592Y-52276D01*
X38934Y-52276D02*
X38934Y-51376D01*
X38934Y-49803D02*
X38934Y-48903D01*
X40592Y-48904D02*
X40592Y-49804D01*
G54D13*
X41482Y-47303D02*
G75*
G03X41482Y-47303I-50J0D01*
G74*
G01*
X41432Y-46853D02*
X41432Y-47253D01*
X41432Y-47253D02*
X42032Y-47253D01*
X42032Y-47253D02*
X42032Y-46853D01*
X42032Y-46453D02*
X42032Y-46053D01*
X42032Y-46053D02*
X41432Y-46053D01*
X41432Y-46053D02*
X41432Y-46453D01*
X41482Y-51240D02*
G75*
G03X41482Y-51240I-50J0D01*
G74*
G01*
X41432Y-50790D02*
X41432Y-51190D01*
X41432Y-51190D02*
X42032Y-51190D01*
X42032Y-51190D02*
X42032Y-50790D01*
X42032Y-50390D02*
X42032Y-49990D01*
X42032Y-49990D02*
X41432Y-49990D01*
X41432Y-49990D02*
X41432Y-50390D01*
X40738Y-51471D02*
G75*
G03X40738Y-51471I-50J0D01*
G74*
G01*
X41138Y-51471D02*
X40738Y-51471D01*
X40738Y-51471D02*
X40738Y-52071D01*
X40738Y-52071D02*
X41138Y-52071D01*
X41538Y-52071D02*
X41938Y-52071D01*
X41938Y-52071D02*
X41938Y-51471D01*
X41938Y-51471D02*
X41538Y-51471D01*
X40738Y-49109D02*
G75*
G03X40738Y-49109I-50J0D01*
G74*
G01*
X41138Y-49109D02*
X40738Y-49109D01*
X40738Y-49109D02*
X40738Y-49709D01*
X40738Y-49709D02*
X41138Y-49709D01*
X41538Y-49709D02*
X41938Y-49709D01*
X41938Y-49709D02*
X41938Y-49109D01*
X41938Y-49109D02*
X41538Y-49109D01*
X40738Y-47534D02*
G75*
G03X40738Y-47534I-50J0D01*
G74*
G01*
X41138Y-47534D02*
X40738Y-47534D01*
X40738Y-47534D02*
X40738Y-48134D01*
X40738Y-48134D02*
X41138Y-48134D01*
X41538Y-48134D02*
X41938Y-48134D01*
X41938Y-48134D02*
X41938Y-47534D01*
X41938Y-47534D02*
X41538Y-47534D01*
X40738Y-45172D02*
G75*
G03X40738Y-45172I-50J0D01*
G74*
G01*
X41138Y-45172D02*
X40738Y-45172D01*
X40738Y-45172D02*
X40738Y-45772D01*
X40738Y-45772D02*
X41138Y-45772D01*
X41538Y-45772D02*
X41938Y-45772D01*
X41938Y-45772D02*
X41938Y-45172D01*
X41938Y-45172D02*
X41538Y-45172D01*
X42707Y-44975D02*
G75*
G03X42707Y-44975I-50J0D01*
G74*
G01*
X43107Y-44975D02*
X42707Y-44975D01*
X42707Y-44975D02*
X42707Y-45575D01*
X42707Y-45575D02*
X43107Y-45575D01*
X43507Y-45575D02*
X43907Y-45575D01*
X43907Y-45575D02*
X43907Y-44975D01*
X43907Y-44975D02*
X43507Y-44975D01*
X42707Y-48912D02*
G75*
G03X42707Y-48912I-50J0D01*
G74*
G01*
X43107Y-48912D02*
X42707Y-48912D01*
X42707Y-48912D02*
X42707Y-49512D01*
X42707Y-49512D02*
X43107Y-49512D01*
X43507Y-49512D02*
X43907Y-49512D01*
X43907Y-49512D02*
X43907Y-48912D01*
X43907Y-48912D02*
X43507Y-48912D01*
G54D11*
X43748Y-46463D02*
X43951Y-46463D01*
X43975Y-46474D01*
X43986Y-46486D01*
X43998Y-46510D01*
X43998Y-46558D01*
X43986Y-46582D01*
X43975Y-46594D01*
X43951Y-46605D01*
X43748Y-46605D01*
X43772Y-46713D02*
X43760Y-46724D01*
X43748Y-46748D01*
X43748Y-46808D01*
X43760Y-46832D01*
X43772Y-46844D01*
X43796Y-46855D01*
X43820Y-46855D01*
X43855Y-46844D01*
X43998Y-46701D01*
X43998Y-46855D01*
X43748Y-50400D02*
X43951Y-50400D01*
X43975Y-50411D01*
X43986Y-50423D01*
X43998Y-50447D01*
X43998Y-50495D01*
X43986Y-50519D01*
X43975Y-50531D01*
X43951Y-50542D01*
X43748Y-50542D01*
X43998Y-50792D02*
X43998Y-50650D01*
X43998Y-50721D02*
X43748Y-50721D01*
X43784Y-50697D01*
X43808Y-50673D01*
X43820Y-50650D01*
X40207Y-44826D02*
X40307Y-44660D01*
X40378Y-44826D02*
X40378Y-44476D01*
X40264Y-44476D01*
X40236Y-44493D01*
X40221Y-44510D01*
X40207Y-44543D01*
X40207Y-44593D01*
X40221Y-44626D01*
X40236Y-44643D01*
X40264Y-44660D01*
X40378Y-44660D01*
X39936Y-44476D02*
X40078Y-44476D01*
X40093Y-44643D01*
X40078Y-44626D01*
X40050Y-44610D01*
X39978Y-44610D01*
X39950Y-44626D01*
X39936Y-44643D01*
X39921Y-44676D01*
X39921Y-44760D01*
X39936Y-44793D01*
X39950Y-44810D01*
X39978Y-44826D01*
X40050Y-44826D01*
X40078Y-44810D01*
X40093Y-44793D01*
G54D14*
X40676Y-44737D02*
X40676Y-44947D01*
X40781Y-44842D02*
X40571Y-44842D01*
G54D11*
X40207Y-48763D02*
X40307Y-48597D01*
X40378Y-48763D02*
X40378Y-48413D01*
X40264Y-48413D01*
X40236Y-48430D01*
X40221Y-48447D01*
X40207Y-48480D01*
X40207Y-48530D01*
X40221Y-48563D01*
X40236Y-48580D01*
X40264Y-48597D01*
X40378Y-48597D01*
X40093Y-48447D02*
X40078Y-48430D01*
X40050Y-48413D01*
X39978Y-48413D01*
X39950Y-48430D01*
X39936Y-48447D01*
X39921Y-48480D01*
X39921Y-48513D01*
X39936Y-48563D01*
X40107Y-48763D01*
X39921Y-48763D01*
G54D14*
X40676Y-48674D02*
X40676Y-48884D01*
X40781Y-48779D02*
X40571Y-48779D01*
G54D15*
X41202Y-46620D02*
X41212Y-46611D01*
X41221Y-46583D01*
X41221Y-46564D01*
X41212Y-46536D01*
X41193Y-46517D01*
X41174Y-46508D01*
X41137Y-46498D01*
X41108Y-46498D01*
X41071Y-46508D01*
X41052Y-46517D01*
X41033Y-46536D01*
X41024Y-46564D01*
X41024Y-46583D01*
X41033Y-46611D01*
X41043Y-46620D01*
X41090Y-46789D02*
X41221Y-46789D01*
X41015Y-46742D02*
X41155Y-46695D01*
X41155Y-46817D01*
X41202Y-50557D02*
X41212Y-50548D01*
X41221Y-50520D01*
X41221Y-50501D01*
X41212Y-50473D01*
X41193Y-50454D01*
X41174Y-50445D01*
X41137Y-50435D01*
X41108Y-50435D01*
X41071Y-50445D01*
X41052Y-50454D01*
X41033Y-50473D01*
X41024Y-50501D01*
X41024Y-50520D01*
X41033Y-50548D01*
X41043Y-50557D01*
X41221Y-50745D02*
X41221Y-50632D01*
X41221Y-50689D02*
X41024Y-50689D01*
X41052Y-50670D01*
X41071Y-50651D01*
X41080Y-50632D01*
X41371Y-52441D02*
X41437Y-52348D01*
X41483Y-52441D02*
X41483Y-52244D01*
X41408Y-52244D01*
X41390Y-52254D01*
X41380Y-52263D01*
X41371Y-52282D01*
X41371Y-52310D01*
X41380Y-52329D01*
X41390Y-52338D01*
X41408Y-52348D01*
X41483Y-52348D01*
X41183Y-52441D02*
X41296Y-52441D01*
X41240Y-52441D02*
X41240Y-52244D01*
X41258Y-52273D01*
X41277Y-52291D01*
X41296Y-52301D01*
X41371Y-48898D02*
X41437Y-48804D01*
X41483Y-48898D02*
X41483Y-48701D01*
X41408Y-48701D01*
X41390Y-48711D01*
X41380Y-48720D01*
X41371Y-48739D01*
X41371Y-48767D01*
X41380Y-48786D01*
X41390Y-48795D01*
X41408Y-48804D01*
X41483Y-48804D01*
X41305Y-48701D02*
X41183Y-48701D01*
X41249Y-48776D01*
X41221Y-48776D01*
X41202Y-48786D01*
X41193Y-48795D01*
X41183Y-48814D01*
X41183Y-48861D01*
X41193Y-48879D01*
X41202Y-48889D01*
X41221Y-48898D01*
X41277Y-48898D01*
X41296Y-48889D01*
X41305Y-48879D01*
X41371Y-48504D02*
X41437Y-48411D01*
X41483Y-48504D02*
X41483Y-48307D01*
X41408Y-48307D01*
X41390Y-48317D01*
X41380Y-48326D01*
X41371Y-48345D01*
X41371Y-48373D01*
X41380Y-48392D01*
X41390Y-48401D01*
X41408Y-48411D01*
X41483Y-48411D01*
X41202Y-48373D02*
X41202Y-48504D01*
X41249Y-48298D02*
X41296Y-48439D01*
X41174Y-48439D01*
X41371Y-44961D02*
X41437Y-44867D01*
X41483Y-44961D02*
X41483Y-44764D01*
X41408Y-44764D01*
X41390Y-44774D01*
X41380Y-44783D01*
X41371Y-44802D01*
X41371Y-44830D01*
X41380Y-44849D01*
X41390Y-44858D01*
X41408Y-44867D01*
X41483Y-44867D01*
X41202Y-44764D02*
X41240Y-44764D01*
X41258Y-44774D01*
X41268Y-44783D01*
X41286Y-44811D01*
X41296Y-44849D01*
X41296Y-44924D01*
X41286Y-44942D01*
X41277Y-44952D01*
X41258Y-44961D01*
X41221Y-44961D01*
X41202Y-44952D01*
X41193Y-44942D01*
X41183Y-44924D01*
X41183Y-44877D01*
X41193Y-44858D01*
X41202Y-44849D01*
X41221Y-44839D01*
X41258Y-44839D01*
X41277Y-44849D01*
X41286Y-44858D01*
X41296Y-44877D01*
X43339Y-44746D02*
X43349Y-44755D01*
X43377Y-44764D01*
X43396Y-44764D01*
X43424Y-44755D01*
X43443Y-44736D01*
X43452Y-44717D01*
X43461Y-44680D01*
X43461Y-44652D01*
X43452Y-44614D01*
X43443Y-44595D01*
X43424Y-44577D01*
X43396Y-44567D01*
X43377Y-44567D01*
X43349Y-44577D01*
X43339Y-44586D01*
X43274Y-44567D02*
X43152Y-44567D01*
X43217Y-44642D01*
X43189Y-44642D01*
X43171Y-44652D01*
X43161Y-44661D01*
X43152Y-44680D01*
X43152Y-44727D01*
X43161Y-44746D01*
X43171Y-44755D01*
X43189Y-44764D01*
X43246Y-44764D01*
X43264Y-44755D01*
X43274Y-44746D01*
X43339Y-48683D02*
X43349Y-48692D01*
X43377Y-48701D01*
X43396Y-48701D01*
X43424Y-48692D01*
X43443Y-48673D01*
X43452Y-48654D01*
X43461Y-48617D01*
X43461Y-48589D01*
X43452Y-48551D01*
X43443Y-48532D01*
X43424Y-48514D01*
X43396Y-48504D01*
X43377Y-48504D01*
X43349Y-48514D01*
X43339Y-48523D01*
X43264Y-48523D02*
X43255Y-48514D01*
X43236Y-48504D01*
X43189Y-48504D01*
X43171Y-48514D01*
X43161Y-48523D01*
X43152Y-48542D01*
X43152Y-48561D01*
X43161Y-48589D01*
X43274Y-48701D01*
X43152Y-48701D01*
M02*
