M48
;DRILL file {Pcbnew (2013-mar-13)-testing} date Thu 04 Apr 2013 06:59:16 PM CEST
;FORMAT={-:-/ absolute / inch / decimal}
FMAT,2
INCH,TZ
T1C0.025
T2C0.040
T3C0.060
T4C0.120
%
G90
G05
M72
T1
X4.245Y-4.4415
X4.245Y-4.7368
X4.3828Y-4.7368
T2
X4.7856Y-4.4974
X4.7856Y-4.5974
X4.7856Y-4.6974
X4.7856Y-4.7974
X4.7856Y-4.8974
X4.8856Y-4.4974
X4.8856Y-4.5974
X4.8856Y-4.6974
X4.8856Y-4.7974
X4.8856Y-4.8974
T3
X3.6348Y-4.4006
X3.6348Y-4.6006
X3.6348Y-4.7943
X3.6348Y-4.9943
T4
X3.3395Y-4.2447
X3.3395Y-5.1305
X5.1112Y-4.2447
X5.1112Y-5.1305
T0
M30
