G04 (created by PCBNEW (2013-mar-13)-testing) date Thu 04 Apr 2013 06:59:13 PM CEST*
%MOIN*%
G04 Gerber Fmt 3.4, Leading zero omitted, Abs format*
%FSLAX34Y34*%
G01*
G70*
G90*
G04 APERTURE LIST*
%ADD10C,0.006*%
%ADD11R,0.06X0.06*%
%ADD12C,0.06*%
%ADD13R,0.1X0.1*%
%ADD14C,0.1*%
%ADD15C,0.16*%
%ADD16C,0.035*%
%ADD17C,0.02*%
%ADD18C,0.01*%
G04 APERTURE END LIST*
G54D10*
G54D11*
X47855Y-44974D03*
G54D12*
X48855Y-44974D03*
X47855Y-45974D03*
X48855Y-45974D03*
X47855Y-46974D03*
X48855Y-46974D03*
X47855Y-47974D03*
X48855Y-47974D03*
X47855Y-48974D03*
X48855Y-48974D03*
G54D13*
X36347Y-49942D03*
G54D14*
X36347Y-47942D03*
G54D13*
X36347Y-46005D03*
G54D14*
X36347Y-44005D03*
G54D15*
X33395Y-51304D03*
X51111Y-51304D03*
X33395Y-42446D03*
X51111Y-42446D03*
G54D16*
X42450Y-44415D03*
X42450Y-47367D03*
X43828Y-47367D03*
G54D17*
X42450Y-47367D02*
X42450Y-44415D01*
X43828Y-47367D02*
X42450Y-47367D01*
G54D10*
G36*
X52113Y-52700D02*
X52061Y-52700D01*
X52061Y-51116D01*
X52061Y-42258D01*
X51917Y-41909D01*
X51650Y-41641D01*
X51301Y-41496D01*
X50923Y-41496D01*
X50574Y-41640D01*
X50306Y-41907D01*
X50161Y-42256D01*
X50161Y-42634D01*
X50305Y-42984D01*
X50572Y-43251D01*
X50921Y-43396D01*
X51299Y-43396D01*
X51649Y-43252D01*
X51916Y-42985D01*
X52061Y-42636D01*
X52061Y-42258D01*
X52061Y-51116D01*
X51917Y-50767D01*
X51650Y-50500D01*
X51301Y-50355D01*
X50923Y-50354D01*
X50574Y-50499D01*
X50306Y-50766D01*
X50161Y-51115D01*
X50161Y-51493D01*
X50305Y-51842D01*
X50572Y-52109D01*
X50921Y-52254D01*
X51299Y-52255D01*
X51649Y-52110D01*
X51916Y-51843D01*
X52061Y-51494D01*
X52061Y-51116D01*
X52061Y-52700D01*
X48305Y-52700D01*
X48305Y-48885D01*
X48305Y-47885D01*
X48305Y-46885D01*
X48305Y-45885D01*
X48305Y-45884D01*
X48305Y-45244D01*
X48305Y-44644D01*
X48282Y-44589D01*
X48240Y-44547D01*
X48185Y-44524D01*
X48126Y-44524D01*
X47526Y-44524D01*
X47470Y-44546D01*
X47428Y-44589D01*
X47405Y-44644D01*
X47405Y-44703D01*
X47405Y-45303D01*
X47428Y-45359D01*
X47470Y-45401D01*
X47525Y-45424D01*
X47585Y-45424D01*
X48185Y-45424D01*
X48240Y-45401D01*
X48282Y-45359D01*
X48305Y-45304D01*
X48305Y-45244D01*
X48305Y-45884D01*
X48237Y-45719D01*
X48110Y-45592D01*
X47945Y-45524D01*
X47766Y-45524D01*
X47601Y-45592D01*
X47474Y-45718D01*
X47405Y-45884D01*
X47405Y-46063D01*
X47473Y-46228D01*
X47600Y-46355D01*
X47765Y-46424D01*
X47944Y-46424D01*
X48110Y-46355D01*
X48236Y-46229D01*
X48305Y-46064D01*
X48305Y-45885D01*
X48305Y-46885D01*
X48237Y-46719D01*
X48110Y-46592D01*
X47945Y-46524D01*
X47766Y-46524D01*
X47601Y-46592D01*
X47474Y-46718D01*
X47405Y-46884D01*
X47405Y-47063D01*
X47473Y-47228D01*
X47600Y-47355D01*
X47765Y-47424D01*
X47944Y-47424D01*
X48110Y-47355D01*
X48236Y-47229D01*
X48305Y-47064D01*
X48305Y-46885D01*
X48305Y-47885D01*
X48237Y-47719D01*
X48110Y-47592D01*
X47945Y-47524D01*
X47766Y-47524D01*
X47601Y-47592D01*
X47474Y-47718D01*
X47405Y-47884D01*
X47405Y-48063D01*
X47473Y-48228D01*
X47600Y-48355D01*
X47765Y-48424D01*
X47944Y-48424D01*
X48110Y-48355D01*
X48236Y-48229D01*
X48305Y-48064D01*
X48305Y-47885D01*
X48305Y-48885D01*
X48237Y-48719D01*
X48110Y-48592D01*
X47945Y-48524D01*
X47766Y-48524D01*
X47601Y-48592D01*
X47474Y-48718D01*
X47405Y-48884D01*
X47405Y-49063D01*
X47473Y-49228D01*
X47600Y-49355D01*
X47765Y-49424D01*
X47944Y-49424D01*
X48110Y-49355D01*
X48236Y-49229D01*
X48305Y-49064D01*
X48305Y-48885D01*
X48305Y-52700D01*
X44153Y-52700D01*
X44153Y-47303D01*
X44103Y-47184D01*
X44012Y-47092D01*
X43893Y-47042D01*
X43763Y-47042D01*
X43644Y-47092D01*
X43618Y-47117D01*
X42700Y-47117D01*
X42700Y-44624D01*
X42725Y-44599D01*
X42775Y-44480D01*
X42775Y-44350D01*
X42725Y-44231D01*
X42634Y-44139D01*
X42515Y-44090D01*
X42385Y-44090D01*
X42266Y-44139D01*
X42174Y-44230D01*
X42125Y-44350D01*
X42125Y-44479D01*
X42174Y-44599D01*
X42200Y-44624D01*
X42200Y-47158D01*
X42174Y-47183D01*
X42125Y-47302D01*
X42125Y-47432D01*
X42174Y-47551D01*
X42265Y-47643D01*
X42385Y-47692D01*
X42514Y-47692D01*
X42634Y-47643D01*
X42659Y-47617D01*
X43618Y-47617D01*
X43643Y-47643D01*
X43763Y-47692D01*
X43892Y-47692D01*
X44012Y-47643D01*
X44103Y-47552D01*
X44153Y-47432D01*
X44153Y-47303D01*
X44153Y-52700D01*
X36997Y-52700D01*
X36997Y-47813D01*
X36997Y-43876D01*
X36899Y-43637D01*
X36716Y-43454D01*
X36477Y-43355D01*
X36219Y-43355D01*
X35980Y-43454D01*
X35797Y-43637D01*
X35697Y-43875D01*
X35697Y-44134D01*
X35796Y-44373D01*
X35979Y-44556D01*
X36217Y-44655D01*
X36476Y-44655D01*
X36715Y-44557D01*
X36898Y-44374D01*
X36997Y-44135D01*
X36997Y-43876D01*
X36997Y-47813D01*
X36997Y-47813D01*
X36997Y-46476D01*
X36997Y-45476D01*
X36975Y-45420D01*
X36932Y-45378D01*
X36877Y-45355D01*
X36818Y-45355D01*
X35818Y-45355D01*
X35762Y-45378D01*
X35720Y-45420D01*
X35697Y-45475D01*
X35697Y-45535D01*
X35697Y-46535D01*
X35720Y-46590D01*
X35762Y-46632D01*
X35817Y-46655D01*
X35877Y-46655D01*
X36877Y-46655D01*
X36932Y-46632D01*
X36974Y-46590D01*
X36997Y-46535D01*
X36997Y-46476D01*
X36997Y-47813D01*
X36899Y-47575D01*
X36716Y-47391D01*
X36477Y-47292D01*
X36219Y-47292D01*
X35980Y-47391D01*
X35797Y-47574D01*
X35697Y-47812D01*
X35697Y-48071D01*
X35796Y-48310D01*
X35979Y-48493D01*
X36217Y-48592D01*
X36476Y-48592D01*
X36715Y-48494D01*
X36898Y-48311D01*
X36997Y-48072D01*
X36997Y-47813D01*
X36997Y-52700D01*
X36997Y-52700D01*
X36997Y-50413D01*
X36997Y-49413D01*
X36975Y-49357D01*
X36932Y-49315D01*
X36877Y-49292D01*
X36818Y-49292D01*
X35818Y-49292D01*
X35762Y-49315D01*
X35720Y-49357D01*
X35697Y-49412D01*
X35697Y-49472D01*
X35697Y-50472D01*
X35720Y-50527D01*
X35762Y-50569D01*
X35817Y-50592D01*
X35877Y-50592D01*
X36877Y-50592D01*
X36932Y-50569D01*
X36974Y-50527D01*
X36997Y-50472D01*
X36997Y-50413D01*
X36997Y-52700D01*
X34345Y-52700D01*
X34345Y-51116D01*
X34345Y-42258D01*
X34200Y-41909D01*
X33933Y-41641D01*
X33584Y-41496D01*
X33206Y-41496D01*
X32857Y-41640D01*
X32590Y-41907D01*
X32445Y-42256D01*
X32444Y-42634D01*
X32589Y-42984D01*
X32856Y-43251D01*
X33205Y-43396D01*
X33583Y-43396D01*
X33932Y-43252D01*
X34199Y-42985D01*
X34344Y-42636D01*
X34345Y-42258D01*
X34345Y-51116D01*
X34200Y-50767D01*
X33933Y-50500D01*
X33584Y-50355D01*
X33206Y-50354D01*
X32857Y-50499D01*
X32590Y-50766D01*
X32445Y-51115D01*
X32444Y-51493D01*
X32589Y-51842D01*
X32856Y-52109D01*
X33205Y-52254D01*
X33583Y-52255D01*
X33932Y-52110D01*
X34199Y-51843D01*
X34344Y-51494D01*
X34345Y-51116D01*
X34345Y-52700D01*
X31999Y-52700D01*
X31999Y-41248D01*
X52113Y-41248D01*
X52113Y-52700D01*
X52113Y-52700D01*
G37*
G54D18*
X52113Y-52700D02*
X52061Y-52700D01*
X52061Y-51116D01*
X52061Y-42258D01*
X51917Y-41909D01*
X51650Y-41641D01*
X51301Y-41496D01*
X50923Y-41496D01*
X50574Y-41640D01*
X50306Y-41907D01*
X50161Y-42256D01*
X50161Y-42634D01*
X50305Y-42984D01*
X50572Y-43251D01*
X50921Y-43396D01*
X51299Y-43396D01*
X51649Y-43252D01*
X51916Y-42985D01*
X52061Y-42636D01*
X52061Y-42258D01*
X52061Y-51116D01*
X51917Y-50767D01*
X51650Y-50500D01*
X51301Y-50355D01*
X50923Y-50354D01*
X50574Y-50499D01*
X50306Y-50766D01*
X50161Y-51115D01*
X50161Y-51493D01*
X50305Y-51842D01*
X50572Y-52109D01*
X50921Y-52254D01*
X51299Y-52255D01*
X51649Y-52110D01*
X51916Y-51843D01*
X52061Y-51494D01*
X52061Y-51116D01*
X52061Y-52700D01*
X48305Y-52700D01*
X48305Y-48885D01*
X48305Y-47885D01*
X48305Y-46885D01*
X48305Y-45885D01*
X48305Y-45884D01*
X48305Y-45244D01*
X48305Y-44644D01*
X48282Y-44589D01*
X48240Y-44547D01*
X48185Y-44524D01*
X48126Y-44524D01*
X47526Y-44524D01*
X47470Y-44546D01*
X47428Y-44589D01*
X47405Y-44644D01*
X47405Y-44703D01*
X47405Y-45303D01*
X47428Y-45359D01*
X47470Y-45401D01*
X47525Y-45424D01*
X47585Y-45424D01*
X48185Y-45424D01*
X48240Y-45401D01*
X48282Y-45359D01*
X48305Y-45304D01*
X48305Y-45244D01*
X48305Y-45884D01*
X48237Y-45719D01*
X48110Y-45592D01*
X47945Y-45524D01*
X47766Y-45524D01*
X47601Y-45592D01*
X47474Y-45718D01*
X47405Y-45884D01*
X47405Y-46063D01*
X47473Y-46228D01*
X47600Y-46355D01*
X47765Y-46424D01*
X47944Y-46424D01*
X48110Y-46355D01*
X48236Y-46229D01*
X48305Y-46064D01*
X48305Y-45885D01*
X48305Y-46885D01*
X48237Y-46719D01*
X48110Y-46592D01*
X47945Y-46524D01*
X47766Y-46524D01*
X47601Y-46592D01*
X47474Y-46718D01*
X47405Y-46884D01*
X47405Y-47063D01*
X47473Y-47228D01*
X47600Y-47355D01*
X47765Y-47424D01*
X47944Y-47424D01*
X48110Y-47355D01*
X48236Y-47229D01*
X48305Y-47064D01*
X48305Y-46885D01*
X48305Y-47885D01*
X48237Y-47719D01*
X48110Y-47592D01*
X47945Y-47524D01*
X47766Y-47524D01*
X47601Y-47592D01*
X47474Y-47718D01*
X47405Y-47884D01*
X47405Y-48063D01*
X47473Y-48228D01*
X47600Y-48355D01*
X47765Y-48424D01*
X47944Y-48424D01*
X48110Y-48355D01*
X48236Y-48229D01*
X48305Y-48064D01*
X48305Y-47885D01*
X48305Y-48885D01*
X48237Y-48719D01*
X48110Y-48592D01*
X47945Y-48524D01*
X47766Y-48524D01*
X47601Y-48592D01*
X47474Y-48718D01*
X47405Y-48884D01*
X47405Y-49063D01*
X47473Y-49228D01*
X47600Y-49355D01*
X47765Y-49424D01*
X47944Y-49424D01*
X48110Y-49355D01*
X48236Y-49229D01*
X48305Y-49064D01*
X48305Y-48885D01*
X48305Y-52700D01*
X44153Y-52700D01*
X44153Y-47303D01*
X44103Y-47184D01*
X44012Y-47092D01*
X43893Y-47042D01*
X43763Y-47042D01*
X43644Y-47092D01*
X43618Y-47117D01*
X42700Y-47117D01*
X42700Y-44624D01*
X42725Y-44599D01*
X42775Y-44480D01*
X42775Y-44350D01*
X42725Y-44231D01*
X42634Y-44139D01*
X42515Y-44090D01*
X42385Y-44090D01*
X42266Y-44139D01*
X42174Y-44230D01*
X42125Y-44350D01*
X42125Y-44479D01*
X42174Y-44599D01*
X42200Y-44624D01*
X42200Y-47158D01*
X42174Y-47183D01*
X42125Y-47302D01*
X42125Y-47432D01*
X42174Y-47551D01*
X42265Y-47643D01*
X42385Y-47692D01*
X42514Y-47692D01*
X42634Y-47643D01*
X42659Y-47617D01*
X43618Y-47617D01*
X43643Y-47643D01*
X43763Y-47692D01*
X43892Y-47692D01*
X44012Y-47643D01*
X44103Y-47552D01*
X44153Y-47432D01*
X44153Y-47303D01*
X44153Y-52700D01*
X36997Y-52700D01*
X36997Y-47813D01*
X36997Y-43876D01*
X36899Y-43637D01*
X36716Y-43454D01*
X36477Y-43355D01*
X36219Y-43355D01*
X35980Y-43454D01*
X35797Y-43637D01*
X35697Y-43875D01*
X35697Y-44134D01*
X35796Y-44373D01*
X35979Y-44556D01*
X36217Y-44655D01*
X36476Y-44655D01*
X36715Y-44557D01*
X36898Y-44374D01*
X36997Y-44135D01*
X36997Y-43876D01*
X36997Y-47813D01*
X36997Y-47813D01*
X36997Y-46476D01*
X36997Y-45476D01*
X36975Y-45420D01*
X36932Y-45378D01*
X36877Y-45355D01*
X36818Y-45355D01*
X35818Y-45355D01*
X35762Y-45378D01*
X35720Y-45420D01*
X35697Y-45475D01*
X35697Y-45535D01*
X35697Y-46535D01*
X35720Y-46590D01*
X35762Y-46632D01*
X35817Y-46655D01*
X35877Y-46655D01*
X36877Y-46655D01*
X36932Y-46632D01*
X36974Y-46590D01*
X36997Y-46535D01*
X36997Y-46476D01*
X36997Y-47813D01*
X36899Y-47575D01*
X36716Y-47391D01*
X36477Y-47292D01*
X36219Y-47292D01*
X35980Y-47391D01*
X35797Y-47574D01*
X35697Y-47812D01*
X35697Y-48071D01*
X35796Y-48310D01*
X35979Y-48493D01*
X36217Y-48592D01*
X36476Y-48592D01*
X36715Y-48494D01*
X36898Y-48311D01*
X36997Y-48072D01*
X36997Y-47813D01*
X36997Y-52700D01*
X36997Y-52700D01*
X36997Y-50413D01*
X36997Y-49413D01*
X36975Y-49357D01*
X36932Y-49315D01*
X36877Y-49292D01*
X36818Y-49292D01*
X35818Y-49292D01*
X35762Y-49315D01*
X35720Y-49357D01*
X35697Y-49412D01*
X35697Y-49472D01*
X35697Y-50472D01*
X35720Y-50527D01*
X35762Y-50569D01*
X35817Y-50592D01*
X35877Y-50592D01*
X36877Y-50592D01*
X36932Y-50569D01*
X36974Y-50527D01*
X36997Y-50472D01*
X36997Y-50413D01*
X36997Y-52700D01*
X34345Y-52700D01*
X34345Y-51116D01*
X34345Y-42258D01*
X34200Y-41909D01*
X33933Y-41641D01*
X33584Y-41496D01*
X33206Y-41496D01*
X32857Y-41640D01*
X32590Y-41907D01*
X32445Y-42256D01*
X32444Y-42634D01*
X32589Y-42984D01*
X32856Y-43251D01*
X33205Y-43396D01*
X33583Y-43396D01*
X33932Y-43252D01*
X34199Y-42985D01*
X34344Y-42636D01*
X34345Y-42258D01*
X34345Y-51116D01*
X34200Y-50767D01*
X33933Y-50500D01*
X33584Y-50355D01*
X33206Y-50354D01*
X32857Y-50499D01*
X32590Y-50766D01*
X32445Y-51115D01*
X32444Y-51493D01*
X32589Y-51842D01*
X32856Y-52109D01*
X33205Y-52254D01*
X33583Y-52255D01*
X33932Y-52110D01*
X34199Y-51843D01*
X34344Y-51494D01*
X34345Y-51116D01*
X34345Y-52700D01*
X31999Y-52700D01*
X31999Y-41248D01*
X52113Y-41248D01*
X52113Y-52700D01*
M02*
