G04 (created by PCBNEW (2013-mar-13)-testing) date Thu 04 Apr 2013 06:59:13 PM CEST*
%MOIN*%
G04 Gerber Fmt 3.4, Leading zero omitted, Abs format*
%FSLAX34Y34*%
G01*
G70*
G90*
G04 APERTURE LIST*
%ADD10C,0.006*%
%ADD11R,0.02X0.03*%
%ADD12R,0.1181X0.0787*%
%ADD13R,0.055X0.035*%
%ADD14R,0.035X0.055*%
%ADD15R,0.06X0.06*%
%ADD16C,0.06*%
%ADD17R,0.1X0.1*%
%ADD18C,0.1*%
%ADD19C,0.16*%
G04 APERTURE END LIST*
G54D10*
G54D11*
X41447Y-45505D03*
X40697Y-45505D03*
X41447Y-44505D03*
X41072Y-45505D03*
X40697Y-44505D03*
X41447Y-49442D03*
X40697Y-49442D03*
X41447Y-48442D03*
X41072Y-49442D03*
X40697Y-48442D03*
G54D12*
X37922Y-43824D03*
X37922Y-46186D03*
X37922Y-47761D03*
X37922Y-50123D03*
G54D13*
X39891Y-45380D03*
X39891Y-44630D03*
X39891Y-49317D03*
X39891Y-48567D03*
G54D14*
X39122Y-50123D03*
X39872Y-50123D03*
X39122Y-47761D03*
X39872Y-47761D03*
X39122Y-46186D03*
X39872Y-46186D03*
X39122Y-43824D03*
X39872Y-43824D03*
X41090Y-43627D03*
X41840Y-43627D03*
X41090Y-47564D03*
X41840Y-47564D03*
G54D15*
X47855Y-44974D03*
G54D16*
X48855Y-44974D03*
X47855Y-45974D03*
X48855Y-45974D03*
X47855Y-46974D03*
X48855Y-46974D03*
X47855Y-47974D03*
X48855Y-47974D03*
X47855Y-48974D03*
X48855Y-48974D03*
G54D17*
X36347Y-49942D03*
G54D18*
X36347Y-47942D03*
G54D17*
X36347Y-46005D03*
G54D18*
X36347Y-44005D03*
G54D19*
X33395Y-51304D03*
X51111Y-51304D03*
X33395Y-42446D03*
X51111Y-42446D03*
M02*
