G04 (created by PCBNEW (2013-mar-13)-testing) date Thu 04 Apr 2013 08:37:25 PM CEST*
%MOIN*%
G04 Gerber Fmt 3.4, Leading zero omitted, Abs format*
%FSLAX34Y34*%
G01*
G70*
G90*
G04 APERTURE LIST*
%ADD10C,0.006*%
%ADD11C,0.011811*%
%ADD12C,0.00984252*%
%ADD13C,0.012*%
%ADD14C,0.015*%
%ADD15C,0.008*%
%ADD16C,0.01*%
G04 APERTURE END LIST*
G54D10*
G54D11*
X46953Y-44900D02*
X46953Y-44638D01*
X47365Y-44525D02*
X47365Y-44900D01*
X46578Y-44900D01*
X46578Y-44525D01*
X46578Y-44300D02*
X46578Y-43850D01*
X47365Y-44075D02*
X46578Y-44075D01*
X46953Y-43325D02*
X46953Y-43588D01*
X47365Y-43588D02*
X46578Y-43588D01*
X46578Y-43213D01*
G54D12*
X35976Y-47609D02*
X35995Y-47553D01*
X36014Y-47534D01*
X36051Y-47515D01*
X36107Y-47515D01*
X36145Y-47534D01*
X36164Y-47553D01*
X36182Y-47590D01*
X36182Y-47740D01*
X35789Y-47740D01*
X35789Y-47609D01*
X35808Y-47572D01*
X35826Y-47553D01*
X35864Y-47534D01*
X35901Y-47534D01*
X35939Y-47553D01*
X35958Y-47572D01*
X35976Y-47609D01*
X35976Y-47740D01*
X36032Y-47347D02*
X36032Y-47047D01*
X36182Y-47197D02*
X35883Y-47197D01*
X35976Y-46128D02*
X35995Y-46072D01*
X36014Y-46053D01*
X36051Y-46034D01*
X36107Y-46034D01*
X36145Y-46053D01*
X36164Y-46072D01*
X36182Y-46109D01*
X36182Y-46259D01*
X35789Y-46259D01*
X35789Y-46128D01*
X35808Y-46091D01*
X35826Y-46072D01*
X35864Y-46053D01*
X35901Y-46053D01*
X35939Y-46072D01*
X35958Y-46091D01*
X35976Y-46128D01*
X35976Y-46259D01*
X36032Y-45866D02*
X36032Y-45566D01*
X36070Y-51640D02*
X36070Y-51452D01*
X36182Y-51677D02*
X35789Y-51546D01*
X36182Y-51415D01*
X36032Y-51284D02*
X36032Y-50984D01*
X36182Y-51134D02*
X35883Y-51134D01*
X36070Y-50215D02*
X36070Y-50028D01*
X36182Y-50253D02*
X35789Y-50121D01*
X36182Y-49990D01*
X36032Y-49859D02*
X36032Y-49559D01*
X46597Y-53712D02*
X46616Y-53655D01*
X46616Y-53562D01*
X46597Y-53524D01*
X46578Y-53505D01*
X46541Y-53487D01*
X46503Y-53487D01*
X46466Y-53505D01*
X46447Y-53524D01*
X46428Y-53562D01*
X46409Y-53637D01*
X46391Y-53674D01*
X46372Y-53693D01*
X46334Y-53712D01*
X46297Y-53712D01*
X46259Y-53693D01*
X46241Y-53674D01*
X46222Y-53637D01*
X46222Y-53543D01*
X46241Y-53487D01*
X46616Y-53318D02*
X46222Y-53318D01*
X46616Y-53149D02*
X46409Y-53149D01*
X46372Y-53168D01*
X46353Y-53205D01*
X46353Y-53262D01*
X46372Y-53299D01*
X46391Y-53318D01*
X46353Y-52793D02*
X46616Y-52793D01*
X46353Y-52962D02*
X46559Y-52962D01*
X46597Y-52943D01*
X46616Y-52905D01*
X46616Y-52849D01*
X46597Y-52812D01*
X46578Y-52793D01*
X46353Y-52605D02*
X46616Y-52605D01*
X46391Y-52605D02*
X46372Y-52587D01*
X46353Y-52549D01*
X46353Y-52493D01*
X46372Y-52455D01*
X46409Y-52437D01*
X46616Y-52437D01*
X46353Y-52305D02*
X46353Y-52155D01*
X46222Y-52249D02*
X46559Y-52249D01*
X46597Y-52230D01*
X46616Y-52193D01*
X46616Y-52155D01*
X47228Y-53712D02*
X47246Y-53730D01*
X47265Y-53787D01*
X47265Y-53824D01*
X47246Y-53880D01*
X47209Y-53918D01*
X47171Y-53937D01*
X47096Y-53955D01*
X47040Y-53955D01*
X46965Y-53937D01*
X46928Y-53918D01*
X46890Y-53880D01*
X46871Y-53824D01*
X46871Y-53787D01*
X46890Y-53730D01*
X46909Y-53712D01*
X47003Y-53374D02*
X47265Y-53374D01*
X47003Y-53543D02*
X47209Y-53543D01*
X47246Y-53524D01*
X47265Y-53487D01*
X47265Y-53430D01*
X47246Y-53393D01*
X47228Y-53374D01*
X47265Y-53187D02*
X47003Y-53187D01*
X47078Y-53187D02*
X47040Y-53168D01*
X47021Y-53149D01*
X47003Y-53112D01*
X47003Y-53074D01*
X47265Y-52943D02*
X47003Y-52943D01*
X47078Y-52943D02*
X47040Y-52924D01*
X47021Y-52905D01*
X47003Y-52868D01*
X47003Y-52830D01*
X47246Y-52549D02*
X47265Y-52587D01*
X47265Y-52662D01*
X47246Y-52699D01*
X47209Y-52718D01*
X47059Y-52718D01*
X47021Y-52699D01*
X47003Y-52662D01*
X47003Y-52587D01*
X47021Y-52549D01*
X47059Y-52530D01*
X47096Y-52530D01*
X47134Y-52718D01*
X47003Y-52362D02*
X47265Y-52362D01*
X47040Y-52362D02*
X47021Y-52343D01*
X47003Y-52305D01*
X47003Y-52249D01*
X47021Y-52212D01*
X47059Y-52193D01*
X47265Y-52193D01*
X47003Y-52062D02*
X47003Y-51912D01*
X46871Y-52005D02*
X47209Y-52005D01*
X47246Y-51987D01*
X47265Y-51949D01*
X47265Y-51912D01*
X47802Y-53487D02*
X47802Y-53299D01*
X47915Y-53524D02*
X47521Y-53393D01*
X47915Y-53262D01*
X47915Y-53130D02*
X47652Y-53130D01*
X47690Y-53130D02*
X47671Y-53112D01*
X47652Y-53074D01*
X47652Y-53018D01*
X47671Y-52980D01*
X47709Y-52962D01*
X47915Y-52962D01*
X47709Y-52962D02*
X47671Y-52943D01*
X47652Y-52905D01*
X47652Y-52849D01*
X47671Y-52812D01*
X47709Y-52793D01*
X47915Y-52793D01*
X47652Y-52605D02*
X48046Y-52605D01*
X47671Y-52605D02*
X47652Y-52568D01*
X47652Y-52493D01*
X47671Y-52455D01*
X47690Y-52437D01*
X47727Y-52418D01*
X47840Y-52418D01*
X47877Y-52437D01*
X47896Y-52455D01*
X47915Y-52493D01*
X47915Y-52568D01*
X47896Y-52605D01*
X45631Y-53852D02*
X45238Y-53852D01*
X45631Y-53665D02*
X45238Y-53665D01*
X45631Y-53440D01*
X45238Y-53440D01*
X45519Y-53271D02*
X45519Y-53083D01*
X45631Y-53308D02*
X45238Y-53177D01*
X45631Y-53046D01*
X45631Y-52709D02*
X45631Y-52934D01*
X45631Y-52821D02*
X45238Y-52821D01*
X45294Y-52859D01*
X45331Y-52896D01*
X45350Y-52934D01*
X45631Y-52521D02*
X45631Y-52446D01*
X45613Y-52409D01*
X45594Y-52390D01*
X45538Y-52352D01*
X45463Y-52334D01*
X45313Y-52334D01*
X45275Y-52352D01*
X45256Y-52371D01*
X45238Y-52409D01*
X45238Y-52484D01*
X45256Y-52521D01*
X45275Y-52540D01*
X45313Y-52559D01*
X45406Y-52559D01*
X45444Y-52540D01*
X45463Y-52521D01*
X45481Y-52484D01*
X45481Y-52409D01*
X45463Y-52371D01*
X45444Y-52352D01*
X45406Y-52334D01*
X45238Y-52109D02*
X45331Y-52109D01*
X45294Y-52202D02*
X45331Y-52109D01*
X45294Y-52015D01*
X45406Y-52165D02*
X45331Y-52109D01*
X45406Y-52052D01*
G54D13*
X51196Y-46122D02*
X51196Y-51122D01*
X51196Y-51122D02*
X49196Y-51122D01*
X49196Y-51122D02*
X49196Y-46122D01*
X49196Y-46122D02*
X51196Y-46122D01*
X39188Y-48590D02*
X39188Y-52590D01*
X39688Y-48590D02*
X36688Y-48590D01*
X36688Y-48590D02*
X36688Y-52590D01*
X36688Y-52590D02*
X39688Y-52590D01*
X39688Y-52590D02*
X39688Y-48590D01*
X39188Y-44653D02*
X39188Y-48653D01*
X39688Y-44653D02*
X36688Y-44653D01*
X36688Y-44653D02*
X36688Y-48653D01*
X36688Y-48653D02*
X39688Y-48653D01*
X39688Y-48653D02*
X39688Y-44653D01*
G54D14*
X36136Y-52952D02*
G75*
G03X36136Y-52952I-900J0D01*
G74*
G01*
X51884Y-52952D02*
G75*
G03X51884Y-52952I-900J0D01*
G74*
G01*
X36136Y-44094D02*
G75*
G03X36136Y-44094I-900J0D01*
G74*
G01*
X51884Y-44094D02*
G75*
G03X51884Y-44094I-900J0D01*
G74*
G01*
G54D15*
X51858Y-49167D02*
X51458Y-49167D01*
X51458Y-49014D01*
X51477Y-48976D01*
X51496Y-48957D01*
X51534Y-48938D01*
X51592Y-48938D01*
X51630Y-48957D01*
X51649Y-48976D01*
X51668Y-49014D01*
X51668Y-49167D01*
X51496Y-48786D02*
X51477Y-48767D01*
X51458Y-48729D01*
X51458Y-48633D01*
X51477Y-48595D01*
X51496Y-48576D01*
X51534Y-48557D01*
X51573Y-48557D01*
X51630Y-48576D01*
X51858Y-48805D01*
X51858Y-48557D01*
G54D13*
X38431Y-53789D02*
X37831Y-53789D01*
X37831Y-53560D01*
X37860Y-53503D01*
X37888Y-53475D01*
X37946Y-53446D01*
X38031Y-53446D01*
X38088Y-53475D01*
X38117Y-53503D01*
X38146Y-53560D01*
X38146Y-53789D01*
X38431Y-52875D02*
X38431Y-53217D01*
X38431Y-53046D02*
X37831Y-53046D01*
X37917Y-53103D01*
X37974Y-53160D01*
X38003Y-53217D01*
X38431Y-44143D02*
X37831Y-44143D01*
X37831Y-43915D01*
X37860Y-43857D01*
X37888Y-43829D01*
X37946Y-43800D01*
X38031Y-43800D01*
X38088Y-43829D01*
X38117Y-43857D01*
X38146Y-43915D01*
X38146Y-44143D01*
X37831Y-43600D02*
X37831Y-43229D01*
X38060Y-43429D01*
X38060Y-43343D01*
X38088Y-43286D01*
X38117Y-43257D01*
X38174Y-43229D01*
X38317Y-43229D01*
X38374Y-43257D01*
X38403Y-43286D01*
X38431Y-43343D01*
X38431Y-43515D01*
X38403Y-43572D01*
X38374Y-43600D01*
G54D16*
X34198Y-53343D02*
X34198Y-53571D01*
X34198Y-53457D02*
X33798Y-53457D01*
X33855Y-53495D01*
X33893Y-53533D01*
X33912Y-53571D01*
X34198Y-53171D02*
X33798Y-53171D01*
X33798Y-53019D01*
X33817Y-52981D01*
X33836Y-52962D01*
X33874Y-52943D01*
X33931Y-52943D01*
X33969Y-52962D01*
X33988Y-52981D01*
X34007Y-53019D01*
X34007Y-53171D01*
X34198Y-52771D02*
X33798Y-52771D01*
X34198Y-52581D02*
X33798Y-52581D01*
X34198Y-52352D01*
X33798Y-52352D01*
X49946Y-53343D02*
X49946Y-53571D01*
X49946Y-53457D02*
X49546Y-53457D01*
X49603Y-53495D01*
X49641Y-53533D01*
X49660Y-53571D01*
X49946Y-53171D02*
X49546Y-53171D01*
X49546Y-53019D01*
X49565Y-52981D01*
X49584Y-52962D01*
X49622Y-52943D01*
X49679Y-52943D01*
X49717Y-52962D01*
X49736Y-52981D01*
X49755Y-53019D01*
X49755Y-53171D01*
X49946Y-52771D02*
X49546Y-52771D01*
X49946Y-52581D02*
X49546Y-52581D01*
X49946Y-52352D01*
X49546Y-52352D01*
X34198Y-44484D02*
X34198Y-44713D01*
X34198Y-44599D02*
X33798Y-44599D01*
X33855Y-44637D01*
X33893Y-44675D01*
X33912Y-44713D01*
X34198Y-44313D02*
X33798Y-44313D01*
X33798Y-44161D01*
X33817Y-44123D01*
X33836Y-44104D01*
X33874Y-44084D01*
X33931Y-44084D01*
X33969Y-44104D01*
X33988Y-44123D01*
X34007Y-44161D01*
X34007Y-44313D01*
X34198Y-43913D02*
X33798Y-43913D01*
X34198Y-43723D02*
X33798Y-43723D01*
X34198Y-43494D01*
X33798Y-43494D01*
X49946Y-44484D02*
X49946Y-44713D01*
X49946Y-44599D02*
X49546Y-44599D01*
X49603Y-44637D01*
X49641Y-44675D01*
X49660Y-44713D01*
X49946Y-44313D02*
X49546Y-44313D01*
X49546Y-44161D01*
X49565Y-44123D01*
X49584Y-44104D01*
X49622Y-44084D01*
X49679Y-44084D01*
X49717Y-44104D01*
X49736Y-44123D01*
X49755Y-44161D01*
X49755Y-44313D01*
X49946Y-43913D02*
X49546Y-43913D01*
X49946Y-43723D02*
X49546Y-43723D01*
X49946Y-43494D01*
X49546Y-43494D01*
M02*
