G04 (created by PCBNEW (2013-mar-13)-testing) date Thu 04 Apr 2013 06:59:13 PM CEST*
%MOIN*%
G04 Gerber Fmt 3.4, Leading zero omitted, Abs format*
%FSLAX34Y34*%
G01*
G70*
G90*
G04 APERTURE LIST*
%ADD10C,0.006*%
%ADD11C,0.011811*%
%ADD12C,0.00984252*%
%ADD13C,0.012*%
%ADD14C,0.015*%
%ADD15C,0.008*%
%ADD16C,0.01*%
%ADD17R,0.06X0.06*%
%ADD18C,0.06*%
%ADD19R,0.1X0.1*%
%ADD20C,0.1*%
%ADD21C,0.16*%
G04 APERTURE END LIST*
G54D10*
G54D11*
X51608Y-47780D02*
X51608Y-47517D01*
X52020Y-47405D02*
X52020Y-47780D01*
X51233Y-47780D01*
X51233Y-47405D01*
X51233Y-47180D02*
X51233Y-46730D01*
X52020Y-46955D02*
X51233Y-46955D01*
X51608Y-46205D02*
X51608Y-46468D01*
X52020Y-46468D02*
X51233Y-46468D01*
X51233Y-46093D01*
G54D12*
X34135Y-45961D02*
X34154Y-45905D01*
X34173Y-45886D01*
X34210Y-45868D01*
X34266Y-45868D01*
X34304Y-45886D01*
X34323Y-45905D01*
X34341Y-45943D01*
X34341Y-46093D01*
X33948Y-46093D01*
X33948Y-45961D01*
X33966Y-45924D01*
X33985Y-45905D01*
X34023Y-45886D01*
X34060Y-45886D01*
X34098Y-45905D01*
X34116Y-45924D01*
X34135Y-45961D01*
X34135Y-46093D01*
X34191Y-45699D02*
X34191Y-45399D01*
X34341Y-45549D02*
X34041Y-45549D01*
X34135Y-44480D02*
X34154Y-44424D01*
X34173Y-44405D01*
X34210Y-44387D01*
X34266Y-44387D01*
X34304Y-44405D01*
X34323Y-44424D01*
X34341Y-44462D01*
X34341Y-44612D01*
X33948Y-44612D01*
X33948Y-44480D01*
X33966Y-44443D01*
X33985Y-44424D01*
X34023Y-44405D01*
X34060Y-44405D01*
X34098Y-44424D01*
X34116Y-44443D01*
X34135Y-44480D01*
X34135Y-44612D01*
X34191Y-44218D02*
X34191Y-43918D01*
X34229Y-49992D02*
X34229Y-49805D01*
X34341Y-50030D02*
X33948Y-49898D01*
X34341Y-49767D01*
X34191Y-49636D02*
X34191Y-49336D01*
X34341Y-49486D02*
X34041Y-49486D01*
X34229Y-48567D02*
X34229Y-48380D01*
X34341Y-48605D02*
X33948Y-48474D01*
X34341Y-48342D01*
X34191Y-48211D02*
X34191Y-47911D01*
X44756Y-52064D02*
X44774Y-52007D01*
X44774Y-51914D01*
X44756Y-51876D01*
X44737Y-51857D01*
X44699Y-51839D01*
X44662Y-51839D01*
X44624Y-51857D01*
X44606Y-51876D01*
X44587Y-51914D01*
X44568Y-51989D01*
X44549Y-52026D01*
X44531Y-52045D01*
X44493Y-52064D01*
X44456Y-52064D01*
X44418Y-52045D01*
X44399Y-52026D01*
X44381Y-51989D01*
X44381Y-51895D01*
X44399Y-51839D01*
X44774Y-51670D02*
X44381Y-51670D01*
X44774Y-51501D02*
X44568Y-51501D01*
X44531Y-51520D01*
X44512Y-51558D01*
X44512Y-51614D01*
X44531Y-51651D01*
X44549Y-51670D01*
X44512Y-51145D02*
X44774Y-51145D01*
X44512Y-51314D02*
X44718Y-51314D01*
X44756Y-51295D01*
X44774Y-51258D01*
X44774Y-51201D01*
X44756Y-51164D01*
X44737Y-51145D01*
X44512Y-50958D02*
X44774Y-50958D01*
X44549Y-50958D02*
X44531Y-50939D01*
X44512Y-50901D01*
X44512Y-50845D01*
X44531Y-50808D01*
X44568Y-50789D01*
X44774Y-50789D01*
X44512Y-50658D02*
X44512Y-50508D01*
X44381Y-50601D02*
X44718Y-50601D01*
X44756Y-50583D01*
X44774Y-50545D01*
X44774Y-50508D01*
X45387Y-52064D02*
X45405Y-52082D01*
X45424Y-52139D01*
X45424Y-52176D01*
X45405Y-52232D01*
X45368Y-52270D01*
X45330Y-52289D01*
X45255Y-52307D01*
X45199Y-52307D01*
X45124Y-52289D01*
X45087Y-52270D01*
X45049Y-52232D01*
X45030Y-52176D01*
X45030Y-52139D01*
X45049Y-52082D01*
X45068Y-52064D01*
X45162Y-51726D02*
X45424Y-51726D01*
X45162Y-51895D02*
X45368Y-51895D01*
X45405Y-51876D01*
X45424Y-51839D01*
X45424Y-51782D01*
X45405Y-51745D01*
X45387Y-51726D01*
X45424Y-51539D02*
X45162Y-51539D01*
X45237Y-51539D02*
X45199Y-51520D01*
X45180Y-51501D01*
X45162Y-51464D01*
X45162Y-51426D01*
X45424Y-51295D02*
X45162Y-51295D01*
X45237Y-51295D02*
X45199Y-51276D01*
X45180Y-51258D01*
X45162Y-51220D01*
X45162Y-51183D01*
X45405Y-50901D02*
X45424Y-50939D01*
X45424Y-51014D01*
X45405Y-51051D01*
X45368Y-51070D01*
X45218Y-51070D01*
X45180Y-51051D01*
X45162Y-51014D01*
X45162Y-50939D01*
X45180Y-50901D01*
X45218Y-50883D01*
X45255Y-50883D01*
X45293Y-51070D01*
X45162Y-50714D02*
X45424Y-50714D01*
X45199Y-50714D02*
X45180Y-50695D01*
X45162Y-50658D01*
X45162Y-50601D01*
X45180Y-50564D01*
X45218Y-50545D01*
X45424Y-50545D01*
X45162Y-50414D02*
X45162Y-50264D01*
X45030Y-50358D02*
X45368Y-50358D01*
X45405Y-50339D01*
X45424Y-50301D01*
X45424Y-50264D01*
X45961Y-51839D02*
X45961Y-51651D01*
X46074Y-51876D02*
X45680Y-51745D01*
X46074Y-51614D01*
X46074Y-51483D02*
X45811Y-51483D01*
X45849Y-51483D02*
X45830Y-51464D01*
X45811Y-51426D01*
X45811Y-51370D01*
X45830Y-51333D01*
X45867Y-51314D01*
X46074Y-51314D01*
X45867Y-51314D02*
X45830Y-51295D01*
X45811Y-51258D01*
X45811Y-51201D01*
X45830Y-51164D01*
X45867Y-51145D01*
X46074Y-51145D01*
X45811Y-50958D02*
X46205Y-50958D01*
X45830Y-50958D02*
X45811Y-50920D01*
X45811Y-50845D01*
X45830Y-50808D01*
X45849Y-50789D01*
X45886Y-50770D01*
X45999Y-50770D01*
X46036Y-50789D01*
X46055Y-50808D01*
X46074Y-50845D01*
X46074Y-50920D01*
X46055Y-50958D01*
X43790Y-52204D02*
X43396Y-52204D01*
X43790Y-52017D02*
X43396Y-52017D01*
X43790Y-51792D01*
X43396Y-51792D01*
X43678Y-51623D02*
X43678Y-51436D01*
X43790Y-51661D02*
X43396Y-51529D01*
X43790Y-51398D01*
X43790Y-51061D02*
X43790Y-51286D01*
X43790Y-51173D02*
X43396Y-51173D01*
X43453Y-51211D01*
X43490Y-51248D01*
X43509Y-51286D01*
X43790Y-50873D02*
X43790Y-50798D01*
X43771Y-50761D01*
X43753Y-50742D01*
X43696Y-50704D01*
X43621Y-50686D01*
X43471Y-50686D01*
X43434Y-50704D01*
X43415Y-50723D01*
X43396Y-50761D01*
X43396Y-50836D01*
X43415Y-50873D01*
X43434Y-50892D01*
X43471Y-50911D01*
X43565Y-50911D01*
X43603Y-50892D01*
X43621Y-50873D01*
X43640Y-50836D01*
X43640Y-50761D01*
X43621Y-50723D01*
X43603Y-50704D01*
X43565Y-50686D01*
X43396Y-50461D02*
X43490Y-50461D01*
X43453Y-50555D02*
X43490Y-50461D01*
X43453Y-50367D01*
X43565Y-50517D02*
X43490Y-50461D01*
X43565Y-50405D01*
G54D13*
X49355Y-44474D02*
X49355Y-49474D01*
X49355Y-49474D02*
X47355Y-49474D01*
X47355Y-49474D02*
X47355Y-44474D01*
X47355Y-44474D02*
X49355Y-44474D01*
X37347Y-46942D02*
X37347Y-50942D01*
X37847Y-46942D02*
X34847Y-46942D01*
X34847Y-46942D02*
X34847Y-50942D01*
X34847Y-50942D02*
X37847Y-50942D01*
X37847Y-50942D02*
X37847Y-46942D01*
X37347Y-43005D02*
X37347Y-47005D01*
X37847Y-43005D02*
X34847Y-43005D01*
X34847Y-43005D02*
X34847Y-47005D01*
X34847Y-47005D02*
X37847Y-47005D01*
X37847Y-47005D02*
X37847Y-43005D01*
G54D14*
X34295Y-51304D02*
G75*
G03X34295Y-51304I-900J0D01*
G74*
G01*
X52011Y-51304D02*
G75*
G03X52011Y-51304I-900J0D01*
G74*
G01*
X34295Y-42446D02*
G75*
G03X34295Y-42446I-900J0D01*
G74*
G01*
X52011Y-42446D02*
G75*
G03X52011Y-42446I-900J0D01*
G74*
G01*
G54D15*
X50017Y-47519D02*
X49617Y-47519D01*
X49617Y-47367D01*
X49636Y-47328D01*
X49655Y-47309D01*
X49693Y-47290D01*
X49750Y-47290D01*
X49789Y-47309D01*
X49808Y-47328D01*
X49827Y-47367D01*
X49827Y-47519D01*
X49655Y-47138D02*
X49636Y-47119D01*
X49617Y-47081D01*
X49617Y-46986D01*
X49636Y-46948D01*
X49655Y-46928D01*
X49693Y-46909D01*
X49731Y-46909D01*
X49789Y-46928D01*
X50017Y-47157D01*
X50017Y-46909D01*
G54D13*
X36590Y-52141D02*
X35990Y-52141D01*
X35990Y-51912D01*
X36019Y-51855D01*
X36047Y-51827D01*
X36104Y-51798D01*
X36190Y-51798D01*
X36247Y-51827D01*
X36276Y-51855D01*
X36304Y-51912D01*
X36304Y-52141D01*
X36590Y-51227D02*
X36590Y-51570D01*
X36590Y-51398D02*
X35990Y-51398D01*
X36076Y-51455D01*
X36133Y-51512D01*
X36162Y-51570D01*
X36590Y-42495D02*
X35990Y-42495D01*
X35990Y-42267D01*
X36019Y-42210D01*
X36047Y-42181D01*
X36104Y-42152D01*
X36190Y-42152D01*
X36247Y-42181D01*
X36276Y-42210D01*
X36304Y-42267D01*
X36304Y-42495D01*
X35990Y-41952D02*
X35990Y-41581D01*
X36219Y-41781D01*
X36219Y-41695D01*
X36247Y-41638D01*
X36276Y-41610D01*
X36333Y-41581D01*
X36476Y-41581D01*
X36533Y-41610D01*
X36562Y-41638D01*
X36590Y-41695D01*
X36590Y-41867D01*
X36562Y-41924D01*
X36533Y-41952D01*
G54D16*
X32356Y-51695D02*
X32356Y-51923D01*
X32356Y-51809D02*
X31956Y-51809D01*
X32014Y-51847D01*
X32052Y-51885D01*
X32071Y-51923D01*
X32356Y-51523D02*
X31956Y-51523D01*
X31956Y-51371D01*
X31976Y-51333D01*
X31995Y-51314D01*
X32033Y-51295D01*
X32090Y-51295D01*
X32128Y-51314D01*
X32147Y-51333D01*
X32166Y-51371D01*
X32166Y-51523D01*
X32356Y-51123D02*
X31956Y-51123D01*
X32356Y-50933D02*
X31956Y-50933D01*
X32356Y-50704D01*
X31956Y-50704D01*
X50073Y-51695D02*
X50073Y-51923D01*
X50073Y-51809D02*
X49673Y-51809D01*
X49730Y-51847D01*
X49768Y-51885D01*
X49787Y-51923D01*
X50073Y-51523D02*
X49673Y-51523D01*
X49673Y-51371D01*
X49692Y-51333D01*
X49711Y-51314D01*
X49749Y-51295D01*
X49806Y-51295D01*
X49844Y-51314D01*
X49863Y-51333D01*
X49883Y-51371D01*
X49883Y-51523D01*
X50073Y-51123D02*
X49673Y-51123D01*
X50073Y-50933D02*
X49673Y-50933D01*
X50073Y-50704D01*
X49673Y-50704D01*
X32356Y-42837D02*
X32356Y-43065D01*
X32356Y-42951D02*
X31956Y-42951D01*
X32014Y-42989D01*
X32052Y-43027D01*
X32071Y-43065D01*
X32356Y-42665D02*
X31956Y-42665D01*
X31956Y-42513D01*
X31976Y-42475D01*
X31995Y-42456D01*
X32033Y-42437D01*
X32090Y-42437D01*
X32128Y-42456D01*
X32147Y-42475D01*
X32166Y-42513D01*
X32166Y-42665D01*
X32356Y-42265D02*
X31956Y-42265D01*
X32356Y-42075D02*
X31956Y-42075D01*
X32356Y-41846D01*
X31956Y-41846D01*
X50073Y-42837D02*
X50073Y-43065D01*
X50073Y-42951D02*
X49673Y-42951D01*
X49730Y-42989D01*
X49768Y-43027D01*
X49787Y-43065D01*
X50073Y-42665D02*
X49673Y-42665D01*
X49673Y-42513D01*
X49692Y-42475D01*
X49711Y-42456D01*
X49749Y-42437D01*
X49806Y-42437D01*
X49844Y-42456D01*
X49863Y-42475D01*
X49883Y-42513D01*
X49883Y-42665D01*
X50073Y-42265D02*
X49673Y-42265D01*
X50073Y-42075D02*
X49673Y-42075D01*
X50073Y-41846D01*
X49673Y-41846D01*
%LPC*%
G54D17*
X47855Y-44974D03*
G54D18*
X48855Y-44974D03*
X47855Y-45974D03*
X48855Y-45974D03*
X47855Y-46974D03*
X48855Y-46974D03*
X47855Y-47974D03*
X48855Y-47974D03*
X47855Y-48974D03*
X48855Y-48974D03*
G54D19*
X36347Y-49942D03*
G54D20*
X36347Y-47942D03*
G54D19*
X36347Y-46005D03*
G54D20*
X36347Y-44005D03*
G54D21*
X33395Y-51304D03*
X51111Y-51304D03*
X33395Y-42446D03*
X51111Y-42446D03*
M02*
