G04 (created by PCBNEW (2013-mar-13)-testing) date Thu 04 Apr 2013 07:07:45 PM CEST*
%MOIN*%
G04 Gerber Fmt 3.4, Leading zero omitted, Abs format*
%FSLAX34Y34*%
G01*
G70*
G90*
G04 APERTURE LIST*
%ADD10C,0.006*%
%ADD11R,0.02X0.03*%
%ADD12R,0.1181X0.0787*%
%ADD13R,0.055X0.035*%
%ADD14R,0.035X0.055*%
%ADD15R,0.06X0.06*%
%ADD16C,0.06*%
%ADD17R,0.1X0.1*%
%ADD18C,0.1*%
%ADD19C,0.16*%
G04 APERTURE END LIST*
G54D10*
G54D11*
X43288Y-47153D03*
X42538Y-47153D03*
X43288Y-46153D03*
X42913Y-47153D03*
X42538Y-46153D03*
X43288Y-51090D03*
X42538Y-51090D03*
X43288Y-50090D03*
X42913Y-51090D03*
X42538Y-50090D03*
G54D12*
X39763Y-45472D03*
X39763Y-47834D03*
X39763Y-49409D03*
X39763Y-51771D03*
G54D13*
X41732Y-47028D03*
X41732Y-46278D03*
X41732Y-50965D03*
X41732Y-50215D03*
G54D14*
X40963Y-51771D03*
X41713Y-51771D03*
X40963Y-49409D03*
X41713Y-49409D03*
X40963Y-47834D03*
X41713Y-47834D03*
X40963Y-45472D03*
X41713Y-45472D03*
X42932Y-45275D03*
X43682Y-45275D03*
X42932Y-49212D03*
X43682Y-49212D03*
G54D15*
X49696Y-46622D03*
G54D16*
X50696Y-46622D03*
X49696Y-47622D03*
X50696Y-47622D03*
X49696Y-48622D03*
X50696Y-48622D03*
X49696Y-49622D03*
X50696Y-49622D03*
X49696Y-50622D03*
X50696Y-50622D03*
G54D17*
X38188Y-51590D03*
G54D18*
X38188Y-49590D03*
G54D17*
X38188Y-47653D03*
G54D18*
X38188Y-45653D03*
G54D19*
X35236Y-52952D03*
X50984Y-52952D03*
X35236Y-44094D03*
X50984Y-44094D03*
M02*
