G04 (created by PCBNEW (2013-mar-13)-testing) date Thu 04 Apr 2013 06:27:01 PM CEST*
%MOIN*%
G04 Gerber Fmt 3.4, Leading zero omitted, Abs format*
%FSLAX34Y34*%
G01*
G70*
G90*
G04 APERTURE LIST*
%ADD10C,0.006*%
%ADD11R,0.03X0.02*%
%ADD12R,0.0787X0.1181*%
%ADD13R,0.035X0.055*%
%ADD14R,0.055X0.035*%
%ADD15R,0.06X0.06*%
%ADD16C,0.06*%
%ADD17R,0.1X0.1*%
%ADD18C,0.1*%
%ADD19C,0.16*%
%ADD20C,0.035*%
%ADD21C,0.02*%
%ADD22C,0.01*%
G04 APERTURE END LIST*
G54D10*
G54D11*
X45169Y-47422D03*
X45169Y-46672D03*
X46169Y-47422D03*
X45169Y-47047D03*
X46169Y-46672D03*
X41232Y-47422D03*
X41232Y-46672D03*
X42232Y-47422D03*
X41232Y-47047D03*
X42232Y-46672D03*
G54D12*
X46850Y-43897D03*
X44488Y-43897D03*
X42913Y-43897D03*
X40551Y-43897D03*
G54D13*
X45294Y-45866D03*
X46044Y-45866D03*
X41357Y-45866D03*
X42107Y-45866D03*
G54D14*
X40551Y-45097D03*
X40551Y-45847D03*
X42913Y-45097D03*
X42913Y-45847D03*
X44488Y-45097D03*
X44488Y-45847D03*
X46850Y-45097D03*
X46850Y-45847D03*
X47047Y-47065D03*
X47047Y-47815D03*
X43110Y-47065D03*
X43110Y-47815D03*
G54D15*
X45700Y-53830D03*
G54D16*
X45700Y-54830D03*
X44700Y-53830D03*
X44700Y-54830D03*
X43700Y-53830D03*
X43700Y-54830D03*
X42700Y-53830D03*
X42700Y-54830D03*
X41700Y-53830D03*
X41700Y-54830D03*
G54D17*
X40732Y-42322D03*
G54D18*
X42732Y-42322D03*
G54D17*
X44669Y-42322D03*
G54D18*
X46669Y-42322D03*
G54D19*
X39370Y-39370D03*
X39370Y-57086D03*
X48228Y-39370D03*
X48228Y-57086D03*
G54D20*
X46259Y-48425D03*
X43307Y-48425D03*
X43307Y-49803D03*
G54D21*
X47047Y-47065D02*
X45187Y-47065D01*
X45187Y-47065D02*
X45169Y-47047D01*
X43110Y-47065D02*
X45150Y-47065D01*
X45150Y-47065D02*
X45169Y-47047D01*
X45238Y-47047D02*
X45169Y-47047D01*
X45256Y-47065D02*
X45238Y-47047D01*
X41232Y-47047D02*
X43091Y-47047D01*
X43091Y-47047D02*
X43110Y-47065D01*
X42913Y-45097D02*
X42913Y-43897D01*
X42913Y-43897D02*
X42913Y-43897D01*
X46850Y-45097D02*
X46850Y-43897D01*
X46850Y-43897D02*
X46850Y-43897D01*
X42232Y-46672D02*
X42232Y-45991D01*
X42232Y-45991D02*
X42107Y-45866D01*
X42107Y-45866D02*
X42894Y-45866D01*
X42894Y-45866D02*
X42913Y-45847D01*
X41232Y-46672D02*
X41232Y-45991D01*
X41232Y-45991D02*
X41357Y-45866D01*
X41357Y-45866D02*
X40569Y-45866D01*
X40569Y-45866D02*
X40551Y-45847D01*
X46169Y-46672D02*
X46169Y-45991D01*
X46169Y-45991D02*
X46044Y-45866D01*
X46850Y-45847D02*
X46062Y-45847D01*
X46062Y-45847D02*
X46044Y-45866D01*
X46259Y-48425D02*
X46259Y-47834D01*
X42700Y-53830D02*
X42700Y-50409D01*
X43110Y-48228D02*
X43110Y-47815D01*
X43307Y-48425D02*
X43110Y-48228D01*
X42700Y-50409D02*
X43307Y-49803D01*
X46169Y-47422D02*
X46169Y-47744D01*
X46241Y-47815D02*
X47047Y-47815D01*
X46169Y-47744D02*
X46241Y-47815D01*
X42232Y-47422D02*
X42232Y-47547D01*
X42500Y-47815D02*
X43110Y-47815D01*
X42232Y-47547D02*
X42500Y-47815D01*
X45169Y-46672D02*
X45169Y-45991D01*
X45169Y-45991D02*
X45294Y-45866D01*
X45294Y-45866D02*
X44506Y-45866D01*
X44506Y-45866D02*
X44488Y-45847D01*
X41232Y-47422D02*
X41232Y-48515D01*
X44700Y-49818D02*
X44700Y-53830D01*
X43897Y-49015D02*
X44700Y-49818D01*
X41732Y-49015D02*
X43897Y-49015D01*
X41232Y-48515D02*
X41732Y-49015D01*
X45169Y-47422D02*
X45169Y-51862D01*
X45700Y-52393D02*
X45700Y-53830D01*
X45169Y-51862D02*
X45700Y-52393D01*
X44488Y-45097D02*
X44488Y-43897D01*
X44488Y-43897D02*
X44488Y-43897D01*
X40551Y-45097D02*
X40551Y-43897D01*
X40551Y-43897D02*
X40551Y-43897D01*
G54D10*
G36*
X41485Y-44635D02*
X40010Y-44635D01*
X40010Y-41388D01*
X41485Y-41388D01*
X41485Y-44635D01*
X41485Y-44635D01*
G37*
G54D22*
X41485Y-44635D02*
X40010Y-44635D01*
X40010Y-41388D01*
X41485Y-41388D01*
X41485Y-44635D01*
G54D10*
G36*
X43453Y-44635D02*
X41979Y-44635D01*
X41979Y-41388D01*
X43453Y-41388D01*
X43453Y-44635D01*
X43453Y-44635D01*
G37*
G54D22*
X43453Y-44635D02*
X41979Y-44635D01*
X41979Y-41388D01*
X43453Y-41388D01*
X43453Y-44635D01*
G54D10*
G36*
X45422Y-44635D02*
X43947Y-44635D01*
X43947Y-41388D01*
X45422Y-41388D01*
X45422Y-44635D01*
X45422Y-44635D01*
G37*
G54D22*
X45422Y-44635D02*
X43947Y-44635D01*
X43947Y-41388D01*
X45422Y-41388D01*
X45422Y-44635D01*
G54D10*
G36*
X47390Y-44635D02*
X45916Y-44635D01*
X45916Y-41388D01*
X47390Y-41388D01*
X47390Y-44635D01*
X47390Y-44635D01*
G37*
G54D22*
X47390Y-44635D02*
X45916Y-44635D01*
X45916Y-41388D01*
X47390Y-41388D01*
X47390Y-44635D01*
G54D10*
G36*
X49426Y-58088D02*
X49178Y-58088D01*
X49178Y-56898D01*
X49034Y-56549D01*
X48767Y-56281D01*
X48418Y-56136D01*
X48040Y-56136D01*
X47690Y-56280D01*
X47472Y-56499D01*
X47472Y-47961D01*
X47472Y-47611D01*
X47449Y-47556D01*
X47407Y-47513D01*
X47352Y-47490D01*
X47292Y-47490D01*
X47275Y-47490D01*
X47275Y-45992D01*
X47275Y-45642D01*
X47252Y-45587D01*
X47210Y-45545D01*
X47155Y-45522D01*
X47095Y-45522D01*
X46545Y-45522D01*
X46490Y-45545D01*
X46448Y-45587D01*
X46444Y-45597D01*
X46369Y-45597D01*
X46369Y-45561D01*
X46346Y-45506D01*
X46304Y-45464D01*
X46249Y-45441D01*
X46189Y-45441D01*
X45839Y-45441D01*
X45784Y-45463D01*
X45742Y-45506D01*
X45719Y-45561D01*
X45719Y-45620D01*
X45719Y-46170D01*
X45742Y-46225D01*
X45784Y-46268D01*
X45839Y-46291D01*
X45898Y-46291D01*
X45919Y-46291D01*
X45919Y-46460D01*
X45892Y-46487D01*
X45869Y-46542D01*
X45869Y-46601D01*
X45869Y-46801D01*
X45892Y-46857D01*
X45934Y-46899D01*
X45989Y-46922D01*
X46048Y-46922D01*
X46348Y-46922D01*
X46404Y-46899D01*
X46446Y-46857D01*
X46469Y-46802D01*
X46469Y-46742D01*
X46469Y-46542D01*
X46446Y-46487D01*
X46419Y-46460D01*
X46419Y-46097D01*
X46444Y-46097D01*
X46448Y-46107D01*
X46490Y-46149D01*
X46545Y-46172D01*
X46605Y-46172D01*
X47155Y-46172D01*
X47210Y-46149D01*
X47252Y-46107D01*
X47275Y-46052D01*
X47275Y-45992D01*
X47275Y-47490D01*
X46742Y-47490D01*
X46687Y-47513D01*
X46645Y-47555D01*
X46640Y-47565D01*
X46463Y-47565D01*
X46469Y-47552D01*
X46469Y-47492D01*
X46469Y-47292D01*
X46446Y-47237D01*
X46404Y-47195D01*
X46349Y-47172D01*
X46289Y-47172D01*
X45989Y-47172D01*
X45934Y-47195D01*
X45892Y-47237D01*
X45869Y-47292D01*
X45869Y-47351D01*
X45869Y-47551D01*
X45892Y-47607D01*
X45919Y-47634D01*
X45919Y-47744D01*
X45938Y-47839D01*
X45992Y-47920D01*
X46009Y-47938D01*
X46009Y-48215D01*
X45984Y-48240D01*
X45934Y-48360D01*
X45934Y-48489D01*
X45984Y-48609D01*
X46075Y-48700D01*
X46194Y-48750D01*
X46324Y-48750D01*
X46443Y-48700D01*
X46535Y-48609D01*
X46584Y-48490D01*
X46584Y-48360D01*
X46535Y-48241D01*
X46509Y-48215D01*
X46509Y-48065D01*
X46640Y-48065D01*
X46645Y-48075D01*
X46687Y-48118D01*
X46742Y-48140D01*
X46801Y-48140D01*
X47351Y-48140D01*
X47407Y-48118D01*
X47449Y-48076D01*
X47472Y-48020D01*
X47472Y-47961D01*
X47472Y-56499D01*
X47423Y-56547D01*
X47278Y-56896D01*
X47278Y-57274D01*
X47422Y-57624D01*
X47689Y-57891D01*
X48038Y-58036D01*
X48416Y-58036D01*
X48765Y-57892D01*
X49033Y-57625D01*
X49178Y-57276D01*
X49178Y-56898D01*
X49178Y-58088D01*
X46150Y-58088D01*
X46150Y-54101D01*
X46150Y-53501D01*
X46128Y-53445D01*
X46085Y-53403D01*
X46030Y-53380D01*
X45971Y-53380D01*
X45950Y-53380D01*
X45950Y-52393D01*
X45931Y-52298D01*
X45931Y-52298D01*
X45877Y-52216D01*
X45619Y-51958D01*
X45619Y-46111D01*
X45619Y-45561D01*
X45596Y-45506D01*
X45554Y-45464D01*
X45499Y-45441D01*
X45439Y-45441D01*
X45089Y-45441D01*
X45034Y-45463D01*
X44992Y-45506D01*
X44969Y-45561D01*
X44969Y-45616D01*
X44902Y-45616D01*
X44890Y-45587D01*
X44848Y-45545D01*
X44793Y-45522D01*
X44733Y-45522D01*
X44183Y-45522D01*
X44128Y-45545D01*
X44086Y-45587D01*
X44063Y-45642D01*
X44063Y-45702D01*
X44063Y-46052D01*
X44085Y-46107D01*
X44128Y-46149D01*
X44183Y-46172D01*
X44242Y-46172D01*
X44792Y-46172D01*
X44848Y-46149D01*
X44881Y-46116D01*
X44919Y-46116D01*
X44919Y-46460D01*
X44892Y-46487D01*
X44869Y-46542D01*
X44869Y-46601D01*
X44869Y-46801D01*
X44892Y-46857D01*
X44934Y-46899D01*
X44989Y-46922D01*
X45048Y-46922D01*
X45348Y-46922D01*
X45404Y-46899D01*
X45446Y-46857D01*
X45469Y-46802D01*
X45469Y-46742D01*
X45469Y-46542D01*
X45446Y-46487D01*
X45419Y-46460D01*
X45419Y-46291D01*
X45498Y-46291D01*
X45554Y-46268D01*
X45596Y-46226D01*
X45619Y-46171D01*
X45619Y-46111D01*
X45619Y-51958D01*
X45419Y-51758D01*
X45419Y-47634D01*
X45446Y-47607D01*
X45469Y-47552D01*
X45469Y-47492D01*
X45469Y-47292D01*
X45446Y-47237D01*
X45404Y-47195D01*
X45349Y-47172D01*
X45289Y-47172D01*
X44989Y-47172D01*
X44934Y-47195D01*
X44892Y-47237D01*
X44869Y-47292D01*
X44869Y-47351D01*
X44869Y-47551D01*
X44892Y-47607D01*
X44919Y-47634D01*
X44919Y-49704D01*
X44877Y-49642D01*
X44877Y-49642D01*
X44074Y-48838D01*
X43993Y-48784D01*
X43897Y-48765D01*
X43632Y-48765D01*
X43632Y-48360D01*
X43582Y-48241D01*
X43491Y-48149D01*
X43442Y-48129D01*
X43470Y-48118D01*
X43512Y-48076D01*
X43535Y-48020D01*
X43535Y-47961D01*
X43535Y-47611D01*
X43512Y-47556D01*
X43470Y-47513D01*
X43415Y-47490D01*
X43355Y-47490D01*
X43338Y-47490D01*
X43338Y-45992D01*
X43338Y-45642D01*
X43315Y-45587D01*
X43273Y-45545D01*
X43218Y-45522D01*
X43158Y-45522D01*
X42608Y-45522D01*
X42553Y-45545D01*
X42511Y-45587D01*
X42499Y-45616D01*
X42432Y-45616D01*
X42432Y-45561D01*
X42409Y-45506D01*
X42367Y-45464D01*
X42312Y-45441D01*
X42252Y-45441D01*
X41902Y-45441D01*
X41847Y-45463D01*
X41805Y-45506D01*
X41782Y-45561D01*
X41782Y-45620D01*
X41782Y-46170D01*
X41805Y-46225D01*
X41847Y-46268D01*
X41902Y-46291D01*
X41961Y-46291D01*
X41982Y-46291D01*
X41982Y-46460D01*
X41955Y-46487D01*
X41932Y-46542D01*
X41932Y-46601D01*
X41932Y-46801D01*
X41955Y-46857D01*
X41997Y-46899D01*
X42052Y-46922D01*
X42111Y-46922D01*
X42411Y-46922D01*
X42467Y-46899D01*
X42509Y-46857D01*
X42532Y-46802D01*
X42532Y-46742D01*
X42532Y-46542D01*
X42509Y-46487D01*
X42482Y-46460D01*
X42482Y-46116D01*
X42519Y-46116D01*
X42553Y-46149D01*
X42608Y-46172D01*
X42668Y-46172D01*
X43218Y-46172D01*
X43273Y-46149D01*
X43315Y-46107D01*
X43338Y-46052D01*
X43338Y-45992D01*
X43338Y-47490D01*
X42805Y-47490D01*
X42750Y-47513D01*
X42708Y-47555D01*
X42703Y-47565D01*
X42604Y-47565D01*
X42532Y-47493D01*
X42532Y-47492D01*
X42532Y-47292D01*
X42509Y-47237D01*
X42467Y-47195D01*
X42412Y-47172D01*
X42352Y-47172D01*
X42052Y-47172D01*
X41997Y-47195D01*
X41955Y-47237D01*
X41932Y-47292D01*
X41932Y-47351D01*
X41932Y-47551D01*
X41955Y-47607D01*
X41997Y-47649D01*
X42008Y-47654D01*
X42055Y-47724D01*
X42324Y-47992D01*
X42324Y-47992D01*
X42405Y-48046D01*
X42405Y-48046D01*
X42481Y-48062D01*
X42500Y-48065D01*
X42500Y-48065D01*
X42500Y-48065D01*
X42703Y-48065D01*
X42707Y-48075D01*
X42750Y-48118D01*
X42805Y-48140D01*
X42860Y-48140D01*
X42860Y-48228D01*
X42879Y-48324D01*
X42933Y-48405D01*
X42982Y-48453D01*
X42982Y-48489D01*
X43031Y-48609D01*
X43122Y-48700D01*
X43242Y-48750D01*
X43371Y-48750D01*
X43490Y-48700D01*
X43582Y-48609D01*
X43632Y-48490D01*
X43632Y-48360D01*
X43632Y-48765D01*
X41835Y-48765D01*
X41682Y-48612D01*
X41682Y-46111D01*
X41682Y-45561D01*
X41659Y-45506D01*
X41617Y-45464D01*
X41562Y-45441D01*
X41502Y-45441D01*
X41152Y-45441D01*
X41097Y-45463D01*
X41055Y-45506D01*
X41032Y-45561D01*
X41032Y-45616D01*
X40965Y-45616D01*
X40953Y-45587D01*
X40911Y-45545D01*
X40856Y-45522D01*
X40796Y-45522D01*
X40246Y-45522D01*
X40191Y-45545D01*
X40149Y-45587D01*
X40126Y-45642D01*
X40126Y-45702D01*
X40126Y-46052D01*
X40148Y-46107D01*
X40191Y-46149D01*
X40246Y-46172D01*
X40305Y-46172D01*
X40855Y-46172D01*
X40911Y-46149D01*
X40944Y-46116D01*
X40982Y-46116D01*
X40982Y-46460D01*
X40955Y-46487D01*
X40932Y-46542D01*
X40932Y-46601D01*
X40932Y-46801D01*
X40955Y-46857D01*
X40997Y-46899D01*
X41052Y-46922D01*
X41111Y-46922D01*
X41411Y-46922D01*
X41467Y-46899D01*
X41509Y-46857D01*
X41532Y-46802D01*
X41532Y-46742D01*
X41532Y-46542D01*
X41509Y-46487D01*
X41482Y-46460D01*
X41482Y-46291D01*
X41561Y-46291D01*
X41617Y-46268D01*
X41659Y-46226D01*
X41682Y-46171D01*
X41682Y-46111D01*
X41682Y-48612D01*
X41482Y-48412D01*
X41482Y-47634D01*
X41509Y-47607D01*
X41532Y-47552D01*
X41532Y-47492D01*
X41532Y-47292D01*
X41509Y-47237D01*
X41467Y-47195D01*
X41412Y-47172D01*
X41352Y-47172D01*
X41052Y-47172D01*
X40997Y-47195D01*
X40955Y-47237D01*
X40932Y-47292D01*
X40932Y-47351D01*
X40932Y-47551D01*
X40955Y-47607D01*
X40982Y-47634D01*
X40982Y-48515D01*
X41001Y-48611D01*
X41055Y-48692D01*
X41555Y-49192D01*
X41636Y-49246D01*
X41732Y-49265D01*
X43794Y-49265D01*
X44450Y-49922D01*
X44450Y-53447D01*
X44446Y-53448D01*
X44319Y-53575D01*
X44250Y-53740D01*
X44250Y-53919D01*
X44319Y-54085D01*
X44445Y-54211D01*
X44610Y-54280D01*
X44789Y-54280D01*
X44955Y-54212D01*
X45082Y-54085D01*
X45150Y-53920D01*
X45150Y-53741D01*
X45082Y-53576D01*
X44956Y-53449D01*
X44950Y-53447D01*
X44950Y-51976D01*
X44992Y-52038D01*
X45450Y-52497D01*
X45450Y-53380D01*
X45371Y-53380D01*
X45315Y-53403D01*
X45273Y-53445D01*
X45250Y-53500D01*
X45250Y-53560D01*
X45250Y-54160D01*
X45273Y-54215D01*
X45315Y-54257D01*
X45370Y-54280D01*
X45430Y-54280D01*
X46030Y-54280D01*
X46085Y-54257D01*
X46127Y-54215D01*
X46150Y-54160D01*
X46150Y-54101D01*
X46150Y-58088D01*
X44150Y-58088D01*
X44150Y-53741D01*
X44082Y-53576D01*
X43956Y-53449D01*
X43790Y-53380D01*
X43632Y-53380D01*
X43632Y-49738D01*
X43582Y-49619D01*
X43491Y-49527D01*
X43372Y-49478D01*
X43242Y-49478D01*
X43123Y-49527D01*
X43031Y-49618D01*
X42982Y-49738D01*
X42982Y-49774D01*
X42524Y-50232D01*
X42469Y-50313D01*
X42450Y-50409D01*
X42450Y-53447D01*
X42446Y-53448D01*
X42319Y-53575D01*
X42250Y-53740D01*
X42250Y-53919D01*
X42319Y-54085D01*
X42445Y-54211D01*
X42610Y-54280D01*
X42789Y-54280D01*
X42955Y-54212D01*
X43082Y-54085D01*
X43150Y-53920D01*
X43150Y-53741D01*
X43082Y-53576D01*
X42956Y-53449D01*
X42950Y-53447D01*
X42950Y-50513D01*
X43335Y-50128D01*
X43371Y-50128D01*
X43490Y-50078D01*
X43582Y-49987D01*
X43632Y-49868D01*
X43632Y-49738D01*
X43632Y-53380D01*
X43611Y-53380D01*
X43446Y-53448D01*
X43319Y-53575D01*
X43250Y-53740D01*
X43250Y-53919D01*
X43319Y-54085D01*
X43445Y-54211D01*
X43610Y-54280D01*
X43789Y-54280D01*
X43955Y-54212D01*
X44082Y-54085D01*
X44150Y-53920D01*
X44150Y-53741D01*
X44150Y-58088D01*
X42150Y-58088D01*
X42150Y-53741D01*
X42082Y-53576D01*
X41956Y-53449D01*
X41790Y-53380D01*
X41611Y-53380D01*
X41446Y-53448D01*
X41319Y-53575D01*
X41250Y-53740D01*
X41250Y-53919D01*
X41319Y-54085D01*
X41445Y-54211D01*
X41610Y-54280D01*
X41789Y-54280D01*
X41955Y-54212D01*
X42082Y-54085D01*
X42150Y-53920D01*
X42150Y-53741D01*
X42150Y-58088D01*
X40320Y-58088D01*
X40320Y-56898D01*
X40175Y-56549D01*
X39908Y-56281D01*
X39559Y-56136D01*
X39181Y-56136D01*
X38832Y-56280D01*
X38565Y-56547D01*
X38420Y-56896D01*
X38419Y-57274D01*
X38564Y-57624D01*
X38831Y-57891D01*
X39180Y-58036D01*
X39558Y-58036D01*
X39907Y-57892D01*
X40174Y-57625D01*
X40319Y-57276D01*
X40320Y-56898D01*
X40320Y-58088D01*
X37974Y-58088D01*
X37974Y-44931D01*
X40126Y-44931D01*
X40126Y-44952D01*
X40126Y-45302D01*
X40148Y-45357D01*
X40191Y-45399D01*
X40246Y-45422D01*
X40305Y-45422D01*
X40855Y-45422D01*
X40911Y-45399D01*
X40953Y-45357D01*
X40976Y-45302D01*
X40976Y-45242D01*
X40976Y-44931D01*
X42488Y-44931D01*
X42488Y-44952D01*
X42488Y-45302D01*
X42511Y-45357D01*
X42553Y-45399D01*
X42608Y-45422D01*
X42668Y-45422D01*
X43218Y-45422D01*
X43273Y-45399D01*
X43315Y-45357D01*
X43338Y-45302D01*
X43338Y-45242D01*
X43338Y-44931D01*
X44063Y-44931D01*
X44063Y-44952D01*
X44063Y-45302D01*
X44085Y-45357D01*
X44128Y-45399D01*
X44183Y-45422D01*
X44242Y-45422D01*
X44792Y-45422D01*
X44848Y-45399D01*
X44890Y-45357D01*
X44913Y-45302D01*
X44913Y-45242D01*
X44913Y-44931D01*
X46425Y-44931D01*
X46425Y-44952D01*
X46425Y-45302D01*
X46448Y-45357D01*
X46490Y-45399D01*
X46545Y-45422D01*
X46605Y-45422D01*
X47155Y-45422D01*
X47210Y-45399D01*
X47252Y-45357D01*
X47275Y-45302D01*
X47275Y-45242D01*
X47275Y-44931D01*
X49426Y-44931D01*
X49426Y-58088D01*
X49426Y-58088D01*
G37*
G54D22*
X49426Y-58088D02*
X49178Y-58088D01*
X49178Y-56898D01*
X49034Y-56549D01*
X48767Y-56281D01*
X48418Y-56136D01*
X48040Y-56136D01*
X47690Y-56280D01*
X47472Y-56499D01*
X47472Y-47961D01*
X47472Y-47611D01*
X47449Y-47556D01*
X47407Y-47513D01*
X47352Y-47490D01*
X47292Y-47490D01*
X47275Y-47490D01*
X47275Y-45992D01*
X47275Y-45642D01*
X47252Y-45587D01*
X47210Y-45545D01*
X47155Y-45522D01*
X47095Y-45522D01*
X46545Y-45522D01*
X46490Y-45545D01*
X46448Y-45587D01*
X46444Y-45597D01*
X46369Y-45597D01*
X46369Y-45561D01*
X46346Y-45506D01*
X46304Y-45464D01*
X46249Y-45441D01*
X46189Y-45441D01*
X45839Y-45441D01*
X45784Y-45463D01*
X45742Y-45506D01*
X45719Y-45561D01*
X45719Y-45620D01*
X45719Y-46170D01*
X45742Y-46225D01*
X45784Y-46268D01*
X45839Y-46291D01*
X45898Y-46291D01*
X45919Y-46291D01*
X45919Y-46460D01*
X45892Y-46487D01*
X45869Y-46542D01*
X45869Y-46601D01*
X45869Y-46801D01*
X45892Y-46857D01*
X45934Y-46899D01*
X45989Y-46922D01*
X46048Y-46922D01*
X46348Y-46922D01*
X46404Y-46899D01*
X46446Y-46857D01*
X46469Y-46802D01*
X46469Y-46742D01*
X46469Y-46542D01*
X46446Y-46487D01*
X46419Y-46460D01*
X46419Y-46097D01*
X46444Y-46097D01*
X46448Y-46107D01*
X46490Y-46149D01*
X46545Y-46172D01*
X46605Y-46172D01*
X47155Y-46172D01*
X47210Y-46149D01*
X47252Y-46107D01*
X47275Y-46052D01*
X47275Y-45992D01*
X47275Y-47490D01*
X46742Y-47490D01*
X46687Y-47513D01*
X46645Y-47555D01*
X46640Y-47565D01*
X46463Y-47565D01*
X46469Y-47552D01*
X46469Y-47492D01*
X46469Y-47292D01*
X46446Y-47237D01*
X46404Y-47195D01*
X46349Y-47172D01*
X46289Y-47172D01*
X45989Y-47172D01*
X45934Y-47195D01*
X45892Y-47237D01*
X45869Y-47292D01*
X45869Y-47351D01*
X45869Y-47551D01*
X45892Y-47607D01*
X45919Y-47634D01*
X45919Y-47744D01*
X45938Y-47839D01*
X45992Y-47920D01*
X46009Y-47938D01*
X46009Y-48215D01*
X45984Y-48240D01*
X45934Y-48360D01*
X45934Y-48489D01*
X45984Y-48609D01*
X46075Y-48700D01*
X46194Y-48750D01*
X46324Y-48750D01*
X46443Y-48700D01*
X46535Y-48609D01*
X46584Y-48490D01*
X46584Y-48360D01*
X46535Y-48241D01*
X46509Y-48215D01*
X46509Y-48065D01*
X46640Y-48065D01*
X46645Y-48075D01*
X46687Y-48118D01*
X46742Y-48140D01*
X46801Y-48140D01*
X47351Y-48140D01*
X47407Y-48118D01*
X47449Y-48076D01*
X47472Y-48020D01*
X47472Y-47961D01*
X47472Y-56499D01*
X47423Y-56547D01*
X47278Y-56896D01*
X47278Y-57274D01*
X47422Y-57624D01*
X47689Y-57891D01*
X48038Y-58036D01*
X48416Y-58036D01*
X48765Y-57892D01*
X49033Y-57625D01*
X49178Y-57276D01*
X49178Y-56898D01*
X49178Y-58088D01*
X46150Y-58088D01*
X46150Y-54101D01*
X46150Y-53501D01*
X46128Y-53445D01*
X46085Y-53403D01*
X46030Y-53380D01*
X45971Y-53380D01*
X45950Y-53380D01*
X45950Y-52393D01*
X45931Y-52298D01*
X45931Y-52298D01*
X45877Y-52216D01*
X45619Y-51958D01*
X45619Y-46111D01*
X45619Y-45561D01*
X45596Y-45506D01*
X45554Y-45464D01*
X45499Y-45441D01*
X45439Y-45441D01*
X45089Y-45441D01*
X45034Y-45463D01*
X44992Y-45506D01*
X44969Y-45561D01*
X44969Y-45616D01*
X44902Y-45616D01*
X44890Y-45587D01*
X44848Y-45545D01*
X44793Y-45522D01*
X44733Y-45522D01*
X44183Y-45522D01*
X44128Y-45545D01*
X44086Y-45587D01*
X44063Y-45642D01*
X44063Y-45702D01*
X44063Y-46052D01*
X44085Y-46107D01*
X44128Y-46149D01*
X44183Y-46172D01*
X44242Y-46172D01*
X44792Y-46172D01*
X44848Y-46149D01*
X44881Y-46116D01*
X44919Y-46116D01*
X44919Y-46460D01*
X44892Y-46487D01*
X44869Y-46542D01*
X44869Y-46601D01*
X44869Y-46801D01*
X44892Y-46857D01*
X44934Y-46899D01*
X44989Y-46922D01*
X45048Y-46922D01*
X45348Y-46922D01*
X45404Y-46899D01*
X45446Y-46857D01*
X45469Y-46802D01*
X45469Y-46742D01*
X45469Y-46542D01*
X45446Y-46487D01*
X45419Y-46460D01*
X45419Y-46291D01*
X45498Y-46291D01*
X45554Y-46268D01*
X45596Y-46226D01*
X45619Y-46171D01*
X45619Y-46111D01*
X45619Y-51958D01*
X45419Y-51758D01*
X45419Y-47634D01*
X45446Y-47607D01*
X45469Y-47552D01*
X45469Y-47492D01*
X45469Y-47292D01*
X45446Y-47237D01*
X45404Y-47195D01*
X45349Y-47172D01*
X45289Y-47172D01*
X44989Y-47172D01*
X44934Y-47195D01*
X44892Y-47237D01*
X44869Y-47292D01*
X44869Y-47351D01*
X44869Y-47551D01*
X44892Y-47607D01*
X44919Y-47634D01*
X44919Y-49704D01*
X44877Y-49642D01*
X44877Y-49642D01*
X44074Y-48838D01*
X43993Y-48784D01*
X43897Y-48765D01*
X43632Y-48765D01*
X43632Y-48360D01*
X43582Y-48241D01*
X43491Y-48149D01*
X43442Y-48129D01*
X43470Y-48118D01*
X43512Y-48076D01*
X43535Y-48020D01*
X43535Y-47961D01*
X43535Y-47611D01*
X43512Y-47556D01*
X43470Y-47513D01*
X43415Y-47490D01*
X43355Y-47490D01*
X43338Y-47490D01*
X43338Y-45992D01*
X43338Y-45642D01*
X43315Y-45587D01*
X43273Y-45545D01*
X43218Y-45522D01*
X43158Y-45522D01*
X42608Y-45522D01*
X42553Y-45545D01*
X42511Y-45587D01*
X42499Y-45616D01*
X42432Y-45616D01*
X42432Y-45561D01*
X42409Y-45506D01*
X42367Y-45464D01*
X42312Y-45441D01*
X42252Y-45441D01*
X41902Y-45441D01*
X41847Y-45463D01*
X41805Y-45506D01*
X41782Y-45561D01*
X41782Y-45620D01*
X41782Y-46170D01*
X41805Y-46225D01*
X41847Y-46268D01*
X41902Y-46291D01*
X41961Y-46291D01*
X41982Y-46291D01*
X41982Y-46460D01*
X41955Y-46487D01*
X41932Y-46542D01*
X41932Y-46601D01*
X41932Y-46801D01*
X41955Y-46857D01*
X41997Y-46899D01*
X42052Y-46922D01*
X42111Y-46922D01*
X42411Y-46922D01*
X42467Y-46899D01*
X42509Y-46857D01*
X42532Y-46802D01*
X42532Y-46742D01*
X42532Y-46542D01*
X42509Y-46487D01*
X42482Y-46460D01*
X42482Y-46116D01*
X42519Y-46116D01*
X42553Y-46149D01*
X42608Y-46172D01*
X42668Y-46172D01*
X43218Y-46172D01*
X43273Y-46149D01*
X43315Y-46107D01*
X43338Y-46052D01*
X43338Y-45992D01*
X43338Y-47490D01*
X42805Y-47490D01*
X42750Y-47513D01*
X42708Y-47555D01*
X42703Y-47565D01*
X42604Y-47565D01*
X42532Y-47493D01*
X42532Y-47492D01*
X42532Y-47292D01*
X42509Y-47237D01*
X42467Y-47195D01*
X42412Y-47172D01*
X42352Y-47172D01*
X42052Y-47172D01*
X41997Y-47195D01*
X41955Y-47237D01*
X41932Y-47292D01*
X41932Y-47351D01*
X41932Y-47551D01*
X41955Y-47607D01*
X41997Y-47649D01*
X42008Y-47654D01*
X42055Y-47724D01*
X42324Y-47992D01*
X42324Y-47992D01*
X42405Y-48046D01*
X42405Y-48046D01*
X42481Y-48062D01*
X42500Y-48065D01*
X42500Y-48065D01*
X42500Y-48065D01*
X42703Y-48065D01*
X42707Y-48075D01*
X42750Y-48118D01*
X42805Y-48140D01*
X42860Y-48140D01*
X42860Y-48228D01*
X42879Y-48324D01*
X42933Y-48405D01*
X42982Y-48453D01*
X42982Y-48489D01*
X43031Y-48609D01*
X43122Y-48700D01*
X43242Y-48750D01*
X43371Y-48750D01*
X43490Y-48700D01*
X43582Y-48609D01*
X43632Y-48490D01*
X43632Y-48360D01*
X43632Y-48765D01*
X41835Y-48765D01*
X41682Y-48612D01*
X41682Y-46111D01*
X41682Y-45561D01*
X41659Y-45506D01*
X41617Y-45464D01*
X41562Y-45441D01*
X41502Y-45441D01*
X41152Y-45441D01*
X41097Y-45463D01*
X41055Y-45506D01*
X41032Y-45561D01*
X41032Y-45616D01*
X40965Y-45616D01*
X40953Y-45587D01*
X40911Y-45545D01*
X40856Y-45522D01*
X40796Y-45522D01*
X40246Y-45522D01*
X40191Y-45545D01*
X40149Y-45587D01*
X40126Y-45642D01*
X40126Y-45702D01*
X40126Y-46052D01*
X40148Y-46107D01*
X40191Y-46149D01*
X40246Y-46172D01*
X40305Y-46172D01*
X40855Y-46172D01*
X40911Y-46149D01*
X40944Y-46116D01*
X40982Y-46116D01*
X40982Y-46460D01*
X40955Y-46487D01*
X40932Y-46542D01*
X40932Y-46601D01*
X40932Y-46801D01*
X40955Y-46857D01*
X40997Y-46899D01*
X41052Y-46922D01*
X41111Y-46922D01*
X41411Y-46922D01*
X41467Y-46899D01*
X41509Y-46857D01*
X41532Y-46802D01*
X41532Y-46742D01*
X41532Y-46542D01*
X41509Y-46487D01*
X41482Y-46460D01*
X41482Y-46291D01*
X41561Y-46291D01*
X41617Y-46268D01*
X41659Y-46226D01*
X41682Y-46171D01*
X41682Y-46111D01*
X41682Y-48612D01*
X41482Y-48412D01*
X41482Y-47634D01*
X41509Y-47607D01*
X41532Y-47552D01*
X41532Y-47492D01*
X41532Y-47292D01*
X41509Y-47237D01*
X41467Y-47195D01*
X41412Y-47172D01*
X41352Y-47172D01*
X41052Y-47172D01*
X40997Y-47195D01*
X40955Y-47237D01*
X40932Y-47292D01*
X40932Y-47351D01*
X40932Y-47551D01*
X40955Y-47607D01*
X40982Y-47634D01*
X40982Y-48515D01*
X41001Y-48611D01*
X41055Y-48692D01*
X41555Y-49192D01*
X41636Y-49246D01*
X41732Y-49265D01*
X43794Y-49265D01*
X44450Y-49922D01*
X44450Y-53447D01*
X44446Y-53448D01*
X44319Y-53575D01*
X44250Y-53740D01*
X44250Y-53919D01*
X44319Y-54085D01*
X44445Y-54211D01*
X44610Y-54280D01*
X44789Y-54280D01*
X44955Y-54212D01*
X45082Y-54085D01*
X45150Y-53920D01*
X45150Y-53741D01*
X45082Y-53576D01*
X44956Y-53449D01*
X44950Y-53447D01*
X44950Y-51976D01*
X44992Y-52038D01*
X45450Y-52497D01*
X45450Y-53380D01*
X45371Y-53380D01*
X45315Y-53403D01*
X45273Y-53445D01*
X45250Y-53500D01*
X45250Y-53560D01*
X45250Y-54160D01*
X45273Y-54215D01*
X45315Y-54257D01*
X45370Y-54280D01*
X45430Y-54280D01*
X46030Y-54280D01*
X46085Y-54257D01*
X46127Y-54215D01*
X46150Y-54160D01*
X46150Y-54101D01*
X46150Y-58088D01*
X44150Y-58088D01*
X44150Y-53741D01*
X44082Y-53576D01*
X43956Y-53449D01*
X43790Y-53380D01*
X43632Y-53380D01*
X43632Y-49738D01*
X43582Y-49619D01*
X43491Y-49527D01*
X43372Y-49478D01*
X43242Y-49478D01*
X43123Y-49527D01*
X43031Y-49618D01*
X42982Y-49738D01*
X42982Y-49774D01*
X42524Y-50232D01*
X42469Y-50313D01*
X42450Y-50409D01*
X42450Y-53447D01*
X42446Y-53448D01*
X42319Y-53575D01*
X42250Y-53740D01*
X42250Y-53919D01*
X42319Y-54085D01*
X42445Y-54211D01*
X42610Y-54280D01*
X42789Y-54280D01*
X42955Y-54212D01*
X43082Y-54085D01*
X43150Y-53920D01*
X43150Y-53741D01*
X43082Y-53576D01*
X42956Y-53449D01*
X42950Y-53447D01*
X42950Y-50513D01*
X43335Y-50128D01*
X43371Y-50128D01*
X43490Y-50078D01*
X43582Y-49987D01*
X43632Y-49868D01*
X43632Y-49738D01*
X43632Y-53380D01*
X43611Y-53380D01*
X43446Y-53448D01*
X43319Y-53575D01*
X43250Y-53740D01*
X43250Y-53919D01*
X43319Y-54085D01*
X43445Y-54211D01*
X43610Y-54280D01*
X43789Y-54280D01*
X43955Y-54212D01*
X44082Y-54085D01*
X44150Y-53920D01*
X44150Y-53741D01*
X44150Y-58088D01*
X42150Y-58088D01*
X42150Y-53741D01*
X42082Y-53576D01*
X41956Y-53449D01*
X41790Y-53380D01*
X41611Y-53380D01*
X41446Y-53448D01*
X41319Y-53575D01*
X41250Y-53740D01*
X41250Y-53919D01*
X41319Y-54085D01*
X41445Y-54211D01*
X41610Y-54280D01*
X41789Y-54280D01*
X41955Y-54212D01*
X42082Y-54085D01*
X42150Y-53920D01*
X42150Y-53741D01*
X42150Y-58088D01*
X40320Y-58088D01*
X40320Y-56898D01*
X40175Y-56549D01*
X39908Y-56281D01*
X39559Y-56136D01*
X39181Y-56136D01*
X38832Y-56280D01*
X38565Y-56547D01*
X38420Y-56896D01*
X38419Y-57274D01*
X38564Y-57624D01*
X38831Y-57891D01*
X39180Y-58036D01*
X39558Y-58036D01*
X39907Y-57892D01*
X40174Y-57625D01*
X40319Y-57276D01*
X40320Y-56898D01*
X40320Y-58088D01*
X37974Y-58088D01*
X37974Y-44931D01*
X40126Y-44931D01*
X40126Y-44952D01*
X40126Y-45302D01*
X40148Y-45357D01*
X40191Y-45399D01*
X40246Y-45422D01*
X40305Y-45422D01*
X40855Y-45422D01*
X40911Y-45399D01*
X40953Y-45357D01*
X40976Y-45302D01*
X40976Y-45242D01*
X40976Y-44931D01*
X42488Y-44931D01*
X42488Y-44952D01*
X42488Y-45302D01*
X42511Y-45357D01*
X42553Y-45399D01*
X42608Y-45422D01*
X42668Y-45422D01*
X43218Y-45422D01*
X43273Y-45399D01*
X43315Y-45357D01*
X43338Y-45302D01*
X43338Y-45242D01*
X43338Y-44931D01*
X44063Y-44931D01*
X44063Y-44952D01*
X44063Y-45302D01*
X44085Y-45357D01*
X44128Y-45399D01*
X44183Y-45422D01*
X44242Y-45422D01*
X44792Y-45422D01*
X44848Y-45399D01*
X44890Y-45357D01*
X44913Y-45302D01*
X44913Y-45242D01*
X44913Y-44931D01*
X46425Y-44931D01*
X46425Y-44952D01*
X46425Y-45302D01*
X46448Y-45357D01*
X46490Y-45399D01*
X46545Y-45422D01*
X46605Y-45422D01*
X47155Y-45422D01*
X47210Y-45399D01*
X47252Y-45357D01*
X47275Y-45302D01*
X47275Y-45242D01*
X47275Y-44931D01*
X49426Y-44931D01*
X49426Y-58088D01*
M02*
