G04 (created by PCBNEW (2013-mar-13)-testing) date Thu 04 Apr 2013 06:27:01 PM CEST*
%MOIN*%
G04 Gerber Fmt 3.4, Leading zero omitted, Abs format*
%FSLAX34Y34*%
G01*
G70*
G90*
G04 APERTURE LIST*
%ADD10C,0.006*%
%ADD11R,0.03X0.02*%
%ADD12R,0.0787X0.1181*%
%ADD13R,0.035X0.055*%
%ADD14R,0.055X0.035*%
%ADD15R,0.06X0.06*%
%ADD16C,0.06*%
%ADD17R,0.1X0.1*%
%ADD18C,0.1*%
%ADD19C,0.16*%
G04 APERTURE END LIST*
G54D10*
G54D11*
X45169Y-47422D03*
X45169Y-46672D03*
X46169Y-47422D03*
X45169Y-47047D03*
X46169Y-46672D03*
X41232Y-47422D03*
X41232Y-46672D03*
X42232Y-47422D03*
X41232Y-47047D03*
X42232Y-46672D03*
G54D12*
X46850Y-43897D03*
X44488Y-43897D03*
X42913Y-43897D03*
X40551Y-43897D03*
G54D13*
X45294Y-45866D03*
X46044Y-45866D03*
X41357Y-45866D03*
X42107Y-45866D03*
G54D14*
X40551Y-45097D03*
X40551Y-45847D03*
X42913Y-45097D03*
X42913Y-45847D03*
X44488Y-45097D03*
X44488Y-45847D03*
X46850Y-45097D03*
X46850Y-45847D03*
X47047Y-47065D03*
X47047Y-47815D03*
X43110Y-47065D03*
X43110Y-47815D03*
G54D15*
X45700Y-53830D03*
G54D16*
X45700Y-54830D03*
X44700Y-53830D03*
X44700Y-54830D03*
X43700Y-53830D03*
X43700Y-54830D03*
X42700Y-53830D03*
X42700Y-54830D03*
X41700Y-53830D03*
X41700Y-54830D03*
G54D17*
X40732Y-42322D03*
G54D18*
X42732Y-42322D03*
G54D17*
X44669Y-42322D03*
G54D18*
X46669Y-42322D03*
G54D19*
X39370Y-39370D03*
X39370Y-57086D03*
X48228Y-39370D03*
X48228Y-57086D03*
M02*
