G04 (created by PCBNEW (2013-mar-13)-testing) date Thu 04 Apr 2013 08:37:25 PM CEST*
%MOIN*%
G04 Gerber Fmt 3.4, Leading zero omitted, Abs format*
%FSLAX34Y34*%
G01*
G70*
G90*
G04 APERTURE LIST*
%ADD10C,0.006*%
%ADD11R,0.06X0.06*%
%ADD12C,0.06*%
%ADD13R,0.1X0.1*%
%ADD14C,0.1*%
%ADD15C,0.16*%
%ADD16C,0.035*%
%ADD17C,0.02*%
%ADD18C,0.01*%
G04 APERTURE END LIST*
G54D10*
G54D11*
X49696Y-46622D03*
G54D12*
X50696Y-46622D03*
X49696Y-47622D03*
X50696Y-47622D03*
X49696Y-48622D03*
X50696Y-48622D03*
X49696Y-49622D03*
X50696Y-49622D03*
X49696Y-50622D03*
X50696Y-50622D03*
G54D13*
X38188Y-51590D03*
G54D14*
X38188Y-49590D03*
G54D13*
X38188Y-47653D03*
G54D14*
X38188Y-45653D03*
G54D15*
X35236Y-52952D03*
X50984Y-52952D03*
X35236Y-44094D03*
X50984Y-44094D03*
G54D16*
X44291Y-46062D03*
X44291Y-49015D03*
X45669Y-49015D03*
G54D17*
X44291Y-49015D02*
X44291Y-46062D01*
X45669Y-49015D02*
X44291Y-49015D01*
G54D10*
G36*
X52115Y-54477D02*
X51934Y-54477D01*
X51934Y-52764D01*
X51934Y-43906D01*
X51790Y-43557D01*
X51523Y-43289D01*
X51174Y-43144D01*
X50796Y-43144D01*
X50446Y-43288D01*
X50179Y-43555D01*
X50034Y-43904D01*
X50034Y-44282D01*
X50178Y-44631D01*
X50445Y-44899D01*
X50794Y-45044D01*
X51172Y-45044D01*
X51521Y-44900D01*
X51789Y-44633D01*
X51934Y-44284D01*
X51934Y-43906D01*
X51934Y-52764D01*
X51790Y-52415D01*
X51523Y-52147D01*
X51174Y-52002D01*
X50796Y-52002D01*
X50446Y-52146D01*
X50179Y-52413D01*
X50146Y-52492D01*
X50146Y-50532D01*
X50146Y-49532D01*
X50146Y-48532D01*
X50146Y-47532D01*
X50146Y-47532D01*
X50146Y-46892D01*
X50146Y-46292D01*
X50124Y-46237D01*
X50081Y-46194D01*
X50026Y-46172D01*
X49967Y-46172D01*
X49367Y-46172D01*
X49311Y-46194D01*
X49269Y-46236D01*
X49246Y-46292D01*
X49246Y-46351D01*
X49246Y-46951D01*
X49269Y-47006D01*
X49311Y-47049D01*
X49366Y-47072D01*
X49426Y-47072D01*
X50026Y-47072D01*
X50081Y-47049D01*
X50123Y-47007D01*
X50146Y-46952D01*
X50146Y-46892D01*
X50146Y-47532D01*
X50078Y-47367D01*
X49952Y-47240D01*
X49786Y-47172D01*
X49607Y-47171D01*
X49442Y-47240D01*
X49315Y-47366D01*
X49246Y-47532D01*
X49246Y-47711D01*
X49315Y-47876D01*
X49441Y-48003D01*
X49606Y-48071D01*
X49785Y-48072D01*
X49951Y-48003D01*
X50078Y-47877D01*
X50146Y-47711D01*
X50146Y-47532D01*
X50146Y-48532D01*
X50078Y-48367D01*
X49952Y-48240D01*
X49786Y-48172D01*
X49607Y-48171D01*
X49442Y-48240D01*
X49315Y-48366D01*
X49246Y-48532D01*
X49246Y-48711D01*
X49315Y-48876D01*
X49441Y-49003D01*
X49606Y-49071D01*
X49785Y-49072D01*
X49951Y-49003D01*
X50078Y-48877D01*
X50146Y-48711D01*
X50146Y-48532D01*
X50146Y-49532D01*
X50078Y-49367D01*
X49952Y-49240D01*
X49786Y-49172D01*
X49607Y-49171D01*
X49442Y-49240D01*
X49315Y-49366D01*
X49246Y-49532D01*
X49246Y-49711D01*
X49315Y-49876D01*
X49441Y-50003D01*
X49606Y-50071D01*
X49785Y-50072D01*
X49951Y-50003D01*
X50078Y-49877D01*
X50146Y-49711D01*
X50146Y-49532D01*
X50146Y-50532D01*
X50078Y-50367D01*
X49952Y-50240D01*
X49786Y-50172D01*
X49607Y-50171D01*
X49442Y-50240D01*
X49315Y-50366D01*
X49246Y-50532D01*
X49246Y-50711D01*
X49315Y-50876D01*
X49441Y-51003D01*
X49606Y-51071D01*
X49785Y-51072D01*
X49951Y-51003D01*
X50078Y-50877D01*
X50146Y-50711D01*
X50146Y-50532D01*
X50146Y-52492D01*
X50034Y-52762D01*
X50034Y-53140D01*
X50178Y-53490D01*
X50445Y-53757D01*
X50794Y-53902D01*
X51172Y-53902D01*
X51521Y-53758D01*
X51789Y-53491D01*
X51934Y-53142D01*
X51934Y-52764D01*
X51934Y-54477D01*
X45994Y-54477D01*
X45994Y-48951D01*
X45944Y-48831D01*
X45853Y-48740D01*
X45734Y-48690D01*
X45604Y-48690D01*
X45485Y-48740D01*
X45459Y-48765D01*
X44541Y-48765D01*
X44541Y-46272D01*
X44566Y-46247D01*
X44616Y-46127D01*
X44616Y-45998D01*
X44567Y-45879D01*
X44475Y-45787D01*
X44356Y-45738D01*
X44226Y-45737D01*
X44107Y-45787D01*
X44015Y-45878D01*
X43966Y-45998D01*
X43966Y-46127D01*
X44015Y-46246D01*
X44041Y-46272D01*
X44041Y-48806D01*
X44015Y-48831D01*
X43966Y-48950D01*
X43966Y-49080D01*
X44015Y-49199D01*
X44107Y-49291D01*
X44226Y-49340D01*
X44355Y-49340D01*
X44475Y-49291D01*
X44500Y-49265D01*
X45459Y-49265D01*
X45484Y-49291D01*
X45604Y-49340D01*
X45733Y-49340D01*
X45853Y-49291D01*
X45944Y-49200D01*
X45994Y-49080D01*
X45994Y-48951D01*
X45994Y-54477D01*
X38839Y-54477D01*
X38839Y-49461D01*
X38839Y-45524D01*
X38740Y-45285D01*
X38557Y-45102D01*
X38318Y-45003D01*
X38060Y-45003D01*
X37821Y-45102D01*
X37638Y-45284D01*
X37539Y-45523D01*
X37538Y-45782D01*
X37637Y-46021D01*
X37820Y-46204D01*
X38059Y-46303D01*
X38317Y-46303D01*
X38556Y-46204D01*
X38739Y-46022D01*
X38838Y-45783D01*
X38839Y-45524D01*
X38839Y-49461D01*
X38839Y-49461D01*
X38839Y-48123D01*
X38839Y-47123D01*
X38816Y-47068D01*
X38774Y-47026D01*
X38718Y-47003D01*
X38659Y-47003D01*
X37659Y-47003D01*
X37604Y-47026D01*
X37561Y-47068D01*
X37539Y-47123D01*
X37538Y-47183D01*
X37538Y-48183D01*
X37561Y-48238D01*
X37603Y-48280D01*
X37659Y-48303D01*
X37718Y-48303D01*
X38718Y-48303D01*
X38773Y-48280D01*
X38816Y-48238D01*
X38838Y-48183D01*
X38839Y-48123D01*
X38839Y-49461D01*
X38740Y-49222D01*
X38557Y-49039D01*
X38318Y-48940D01*
X38060Y-48940D01*
X37821Y-49039D01*
X37638Y-49221D01*
X37539Y-49460D01*
X37538Y-49719D01*
X37637Y-49958D01*
X37820Y-50141D01*
X38059Y-50240D01*
X38317Y-50240D01*
X38556Y-50141D01*
X38739Y-49959D01*
X38838Y-49720D01*
X38839Y-49461D01*
X38839Y-54477D01*
X38839Y-54477D01*
X38839Y-52060D01*
X38839Y-51060D01*
X38816Y-51005D01*
X38774Y-50963D01*
X38718Y-50940D01*
X38659Y-50940D01*
X37659Y-50940D01*
X37604Y-50963D01*
X37561Y-51005D01*
X37539Y-51060D01*
X37538Y-51120D01*
X37538Y-52120D01*
X37561Y-52175D01*
X37603Y-52217D01*
X37659Y-52240D01*
X37718Y-52240D01*
X38718Y-52240D01*
X38773Y-52217D01*
X38816Y-52175D01*
X38838Y-52120D01*
X38839Y-52060D01*
X38839Y-54477D01*
X36186Y-54477D01*
X36186Y-52764D01*
X36186Y-43906D01*
X36042Y-43557D01*
X35775Y-43289D01*
X35426Y-43144D01*
X35048Y-43144D01*
X34698Y-43288D01*
X34431Y-43555D01*
X34286Y-43904D01*
X34286Y-44282D01*
X34430Y-44631D01*
X34697Y-44899D01*
X35046Y-45044D01*
X35424Y-45044D01*
X35773Y-44900D01*
X36041Y-44633D01*
X36186Y-44284D01*
X36186Y-43906D01*
X36186Y-52764D01*
X36042Y-52415D01*
X35775Y-52147D01*
X35426Y-52002D01*
X35048Y-52002D01*
X34698Y-52146D01*
X34431Y-52413D01*
X34286Y-52762D01*
X34286Y-53140D01*
X34430Y-53490D01*
X34697Y-53757D01*
X35046Y-53902D01*
X35424Y-53902D01*
X35773Y-53758D01*
X36041Y-53491D01*
X36186Y-53142D01*
X36186Y-52764D01*
X36186Y-54477D01*
X33711Y-54477D01*
X33711Y-42766D01*
X52115Y-42766D01*
X52115Y-54477D01*
X52115Y-54477D01*
G37*
G54D18*
X52115Y-54477D02*
X51934Y-54477D01*
X51934Y-52764D01*
X51934Y-43906D01*
X51790Y-43557D01*
X51523Y-43289D01*
X51174Y-43144D01*
X50796Y-43144D01*
X50446Y-43288D01*
X50179Y-43555D01*
X50034Y-43904D01*
X50034Y-44282D01*
X50178Y-44631D01*
X50445Y-44899D01*
X50794Y-45044D01*
X51172Y-45044D01*
X51521Y-44900D01*
X51789Y-44633D01*
X51934Y-44284D01*
X51934Y-43906D01*
X51934Y-52764D01*
X51790Y-52415D01*
X51523Y-52147D01*
X51174Y-52002D01*
X50796Y-52002D01*
X50446Y-52146D01*
X50179Y-52413D01*
X50146Y-52492D01*
X50146Y-50532D01*
X50146Y-49532D01*
X50146Y-48532D01*
X50146Y-47532D01*
X50146Y-47532D01*
X50146Y-46892D01*
X50146Y-46292D01*
X50124Y-46237D01*
X50081Y-46194D01*
X50026Y-46172D01*
X49967Y-46172D01*
X49367Y-46172D01*
X49311Y-46194D01*
X49269Y-46236D01*
X49246Y-46292D01*
X49246Y-46351D01*
X49246Y-46951D01*
X49269Y-47006D01*
X49311Y-47049D01*
X49366Y-47072D01*
X49426Y-47072D01*
X50026Y-47072D01*
X50081Y-47049D01*
X50123Y-47007D01*
X50146Y-46952D01*
X50146Y-46892D01*
X50146Y-47532D01*
X50078Y-47367D01*
X49952Y-47240D01*
X49786Y-47172D01*
X49607Y-47171D01*
X49442Y-47240D01*
X49315Y-47366D01*
X49246Y-47532D01*
X49246Y-47711D01*
X49315Y-47876D01*
X49441Y-48003D01*
X49606Y-48071D01*
X49785Y-48072D01*
X49951Y-48003D01*
X50078Y-47877D01*
X50146Y-47711D01*
X50146Y-47532D01*
X50146Y-48532D01*
X50078Y-48367D01*
X49952Y-48240D01*
X49786Y-48172D01*
X49607Y-48171D01*
X49442Y-48240D01*
X49315Y-48366D01*
X49246Y-48532D01*
X49246Y-48711D01*
X49315Y-48876D01*
X49441Y-49003D01*
X49606Y-49071D01*
X49785Y-49072D01*
X49951Y-49003D01*
X50078Y-48877D01*
X50146Y-48711D01*
X50146Y-48532D01*
X50146Y-49532D01*
X50078Y-49367D01*
X49952Y-49240D01*
X49786Y-49172D01*
X49607Y-49171D01*
X49442Y-49240D01*
X49315Y-49366D01*
X49246Y-49532D01*
X49246Y-49711D01*
X49315Y-49876D01*
X49441Y-50003D01*
X49606Y-50071D01*
X49785Y-50072D01*
X49951Y-50003D01*
X50078Y-49877D01*
X50146Y-49711D01*
X50146Y-49532D01*
X50146Y-50532D01*
X50078Y-50367D01*
X49952Y-50240D01*
X49786Y-50172D01*
X49607Y-50171D01*
X49442Y-50240D01*
X49315Y-50366D01*
X49246Y-50532D01*
X49246Y-50711D01*
X49315Y-50876D01*
X49441Y-51003D01*
X49606Y-51071D01*
X49785Y-51072D01*
X49951Y-51003D01*
X50078Y-50877D01*
X50146Y-50711D01*
X50146Y-50532D01*
X50146Y-52492D01*
X50034Y-52762D01*
X50034Y-53140D01*
X50178Y-53490D01*
X50445Y-53757D01*
X50794Y-53902D01*
X51172Y-53902D01*
X51521Y-53758D01*
X51789Y-53491D01*
X51934Y-53142D01*
X51934Y-52764D01*
X51934Y-54477D01*
X45994Y-54477D01*
X45994Y-48951D01*
X45944Y-48831D01*
X45853Y-48740D01*
X45734Y-48690D01*
X45604Y-48690D01*
X45485Y-48740D01*
X45459Y-48765D01*
X44541Y-48765D01*
X44541Y-46272D01*
X44566Y-46247D01*
X44616Y-46127D01*
X44616Y-45998D01*
X44567Y-45879D01*
X44475Y-45787D01*
X44356Y-45738D01*
X44226Y-45737D01*
X44107Y-45787D01*
X44015Y-45878D01*
X43966Y-45998D01*
X43966Y-46127D01*
X44015Y-46246D01*
X44041Y-46272D01*
X44041Y-48806D01*
X44015Y-48831D01*
X43966Y-48950D01*
X43966Y-49080D01*
X44015Y-49199D01*
X44107Y-49291D01*
X44226Y-49340D01*
X44355Y-49340D01*
X44475Y-49291D01*
X44500Y-49265D01*
X45459Y-49265D01*
X45484Y-49291D01*
X45604Y-49340D01*
X45733Y-49340D01*
X45853Y-49291D01*
X45944Y-49200D01*
X45994Y-49080D01*
X45994Y-48951D01*
X45994Y-54477D01*
X38839Y-54477D01*
X38839Y-49461D01*
X38839Y-45524D01*
X38740Y-45285D01*
X38557Y-45102D01*
X38318Y-45003D01*
X38060Y-45003D01*
X37821Y-45102D01*
X37638Y-45284D01*
X37539Y-45523D01*
X37538Y-45782D01*
X37637Y-46021D01*
X37820Y-46204D01*
X38059Y-46303D01*
X38317Y-46303D01*
X38556Y-46204D01*
X38739Y-46022D01*
X38838Y-45783D01*
X38839Y-45524D01*
X38839Y-49461D01*
X38839Y-49461D01*
X38839Y-48123D01*
X38839Y-47123D01*
X38816Y-47068D01*
X38774Y-47026D01*
X38718Y-47003D01*
X38659Y-47003D01*
X37659Y-47003D01*
X37604Y-47026D01*
X37561Y-47068D01*
X37539Y-47123D01*
X37538Y-47183D01*
X37538Y-48183D01*
X37561Y-48238D01*
X37603Y-48280D01*
X37659Y-48303D01*
X37718Y-48303D01*
X38718Y-48303D01*
X38773Y-48280D01*
X38816Y-48238D01*
X38838Y-48183D01*
X38839Y-48123D01*
X38839Y-49461D01*
X38740Y-49222D01*
X38557Y-49039D01*
X38318Y-48940D01*
X38060Y-48940D01*
X37821Y-49039D01*
X37638Y-49221D01*
X37539Y-49460D01*
X37538Y-49719D01*
X37637Y-49958D01*
X37820Y-50141D01*
X38059Y-50240D01*
X38317Y-50240D01*
X38556Y-50141D01*
X38739Y-49959D01*
X38838Y-49720D01*
X38839Y-49461D01*
X38839Y-54477D01*
X38839Y-54477D01*
X38839Y-52060D01*
X38839Y-51060D01*
X38816Y-51005D01*
X38774Y-50963D01*
X38718Y-50940D01*
X38659Y-50940D01*
X37659Y-50940D01*
X37604Y-50963D01*
X37561Y-51005D01*
X37539Y-51060D01*
X37538Y-51120D01*
X37538Y-52120D01*
X37561Y-52175D01*
X37603Y-52217D01*
X37659Y-52240D01*
X37718Y-52240D01*
X38718Y-52240D01*
X38773Y-52217D01*
X38816Y-52175D01*
X38838Y-52120D01*
X38839Y-52060D01*
X38839Y-54477D01*
X36186Y-54477D01*
X36186Y-52764D01*
X36186Y-43906D01*
X36042Y-43557D01*
X35775Y-43289D01*
X35426Y-43144D01*
X35048Y-43144D01*
X34698Y-43288D01*
X34431Y-43555D01*
X34286Y-43904D01*
X34286Y-44282D01*
X34430Y-44631D01*
X34697Y-44899D01*
X35046Y-45044D01*
X35424Y-45044D01*
X35773Y-44900D01*
X36041Y-44633D01*
X36186Y-44284D01*
X36186Y-43906D01*
X36186Y-52764D01*
X36042Y-52415D01*
X35775Y-52147D01*
X35426Y-52002D01*
X35048Y-52002D01*
X34698Y-52146D01*
X34431Y-52413D01*
X34286Y-52762D01*
X34286Y-53140D01*
X34430Y-53490D01*
X34697Y-53757D01*
X35046Y-53902D01*
X35424Y-53902D01*
X35773Y-53758D01*
X36041Y-53491D01*
X36186Y-53142D01*
X36186Y-52764D01*
X36186Y-54477D01*
X33711Y-54477D01*
X33711Y-42766D01*
X52115Y-42766D01*
X52115Y-54477D01*
M02*
