G04 (created by PCBNEW (2013-mar-13)-testing) date Thu 04 Apr 2013 06:27:01 PM CEST*
%MOIN*%
G04 Gerber Fmt 3.4, Leading zero omitted, Abs format*
%FSLAX34Y34*%
G01*
G70*
G90*
G04 APERTURE LIST*
%ADD10C,0.006*%
%ADD11R,0.06X0.06*%
%ADD12C,0.06*%
%ADD13R,0.1X0.1*%
%ADD14C,0.1*%
%ADD15C,0.16*%
%ADD16C,0.035*%
%ADD17C,0.02*%
%ADD18C,0.01*%
G04 APERTURE END LIST*
G54D10*
G54D11*
X45700Y-53830D03*
G54D12*
X45700Y-54830D03*
X44700Y-53830D03*
X44700Y-54830D03*
X43700Y-53830D03*
X43700Y-54830D03*
X42700Y-53830D03*
X42700Y-54830D03*
X41700Y-53830D03*
X41700Y-54830D03*
G54D13*
X40732Y-42322D03*
G54D14*
X42732Y-42322D03*
G54D13*
X44669Y-42322D03*
G54D14*
X46669Y-42322D03*
G54D15*
X39370Y-39370D03*
X39370Y-57086D03*
X48228Y-39370D03*
X48228Y-57086D03*
G54D16*
X46259Y-48425D03*
X43307Y-48425D03*
X43307Y-49803D03*
G54D17*
X43307Y-48425D02*
X46259Y-48425D01*
X43307Y-49803D02*
X43307Y-48425D01*
G54D10*
G36*
X49426Y-58088D02*
X49178Y-58088D01*
X49178Y-56898D01*
X49178Y-39181D01*
X49034Y-38832D01*
X48767Y-38565D01*
X48418Y-38420D01*
X48040Y-38419D01*
X47690Y-38564D01*
X47423Y-38831D01*
X47278Y-39180D01*
X47278Y-39558D01*
X47422Y-39907D01*
X47689Y-40174D01*
X48038Y-40319D01*
X48416Y-40320D01*
X48765Y-40175D01*
X49033Y-39908D01*
X49178Y-39559D01*
X49178Y-39181D01*
X49178Y-56898D01*
X49034Y-56549D01*
X48767Y-56281D01*
X48418Y-56136D01*
X48040Y-56136D01*
X47690Y-56280D01*
X47423Y-56547D01*
X47319Y-56798D01*
X47319Y-42194D01*
X47220Y-41955D01*
X47037Y-41772D01*
X46799Y-41672D01*
X46540Y-41672D01*
X46301Y-41771D01*
X46118Y-41954D01*
X46019Y-42192D01*
X46019Y-42451D01*
X46117Y-42690D01*
X46300Y-42873D01*
X46539Y-42972D01*
X46798Y-42972D01*
X47037Y-42874D01*
X47220Y-42691D01*
X47319Y-42452D01*
X47319Y-42194D01*
X47319Y-56798D01*
X47278Y-56896D01*
X47278Y-57274D01*
X47422Y-57624D01*
X47689Y-57891D01*
X48038Y-58036D01*
X48416Y-58036D01*
X48765Y-57892D01*
X49033Y-57625D01*
X49178Y-57276D01*
X49178Y-56898D01*
X49178Y-58088D01*
X46584Y-58088D01*
X46584Y-48360D01*
X46535Y-48241D01*
X46444Y-48149D01*
X46324Y-48100D01*
X46195Y-48100D01*
X46075Y-48149D01*
X46050Y-48175D01*
X45319Y-48175D01*
X45319Y-42793D01*
X45319Y-41793D01*
X45296Y-41737D01*
X45254Y-41695D01*
X45199Y-41672D01*
X45139Y-41672D01*
X44139Y-41672D01*
X44084Y-41695D01*
X44042Y-41737D01*
X44019Y-41792D01*
X44019Y-41852D01*
X44019Y-42852D01*
X44042Y-42907D01*
X44084Y-42949D01*
X44139Y-42972D01*
X44198Y-42972D01*
X45198Y-42972D01*
X45254Y-42950D01*
X45296Y-42907D01*
X45319Y-42852D01*
X45319Y-42793D01*
X45319Y-48175D01*
X43516Y-48175D01*
X43491Y-48149D01*
X43382Y-48104D01*
X43382Y-42194D01*
X43283Y-41955D01*
X43100Y-41772D01*
X42862Y-41672D01*
X42603Y-41672D01*
X42364Y-41771D01*
X42181Y-41954D01*
X42082Y-42192D01*
X42082Y-42451D01*
X42180Y-42690D01*
X42363Y-42873D01*
X42602Y-42972D01*
X42861Y-42972D01*
X43099Y-42874D01*
X43283Y-42691D01*
X43382Y-42452D01*
X43382Y-42194D01*
X43382Y-48104D01*
X43372Y-48100D01*
X43242Y-48100D01*
X43123Y-48149D01*
X43031Y-48240D01*
X42982Y-48360D01*
X42982Y-48489D01*
X43031Y-48609D01*
X43057Y-48634D01*
X43057Y-49593D01*
X43031Y-49618D01*
X42982Y-49738D01*
X42982Y-49867D01*
X43031Y-49987D01*
X43122Y-50078D01*
X43242Y-50128D01*
X43371Y-50128D01*
X43490Y-50078D01*
X43582Y-49987D01*
X43632Y-49868D01*
X43632Y-49738D01*
X43582Y-49619D01*
X43557Y-49593D01*
X43557Y-48675D01*
X46050Y-48675D01*
X46075Y-48700D01*
X46194Y-48750D01*
X46324Y-48750D01*
X46443Y-48700D01*
X46535Y-48609D01*
X46584Y-48490D01*
X46584Y-48360D01*
X46584Y-58088D01*
X46150Y-58088D01*
X46150Y-54101D01*
X46150Y-53501D01*
X46128Y-53445D01*
X46085Y-53403D01*
X46030Y-53380D01*
X45971Y-53380D01*
X45371Y-53380D01*
X45315Y-53403D01*
X45273Y-53445D01*
X45250Y-53500D01*
X45250Y-53560D01*
X45250Y-54160D01*
X45273Y-54215D01*
X45315Y-54257D01*
X45370Y-54280D01*
X45430Y-54280D01*
X46030Y-54280D01*
X46085Y-54257D01*
X46127Y-54215D01*
X46150Y-54160D01*
X46150Y-54101D01*
X46150Y-58088D01*
X45150Y-58088D01*
X45150Y-53741D01*
X45082Y-53576D01*
X44956Y-53449D01*
X44790Y-53380D01*
X44611Y-53380D01*
X44446Y-53448D01*
X44319Y-53575D01*
X44250Y-53740D01*
X44250Y-53919D01*
X44319Y-54085D01*
X44445Y-54211D01*
X44610Y-54280D01*
X44789Y-54280D01*
X44955Y-54212D01*
X45082Y-54085D01*
X45150Y-53920D01*
X45150Y-53741D01*
X45150Y-58088D01*
X44150Y-58088D01*
X44150Y-53741D01*
X44082Y-53576D01*
X43956Y-53449D01*
X43790Y-53380D01*
X43611Y-53380D01*
X43446Y-53448D01*
X43319Y-53575D01*
X43250Y-53740D01*
X43250Y-53919D01*
X43319Y-54085D01*
X43445Y-54211D01*
X43610Y-54280D01*
X43789Y-54280D01*
X43955Y-54212D01*
X44082Y-54085D01*
X44150Y-53920D01*
X44150Y-53741D01*
X44150Y-58088D01*
X43150Y-58088D01*
X43150Y-53741D01*
X43082Y-53576D01*
X42956Y-53449D01*
X42790Y-53380D01*
X42611Y-53380D01*
X42446Y-53448D01*
X42319Y-53575D01*
X42250Y-53740D01*
X42250Y-53919D01*
X42319Y-54085D01*
X42445Y-54211D01*
X42610Y-54280D01*
X42789Y-54280D01*
X42955Y-54212D01*
X43082Y-54085D01*
X43150Y-53920D01*
X43150Y-53741D01*
X43150Y-58088D01*
X42150Y-58088D01*
X42150Y-53741D01*
X42082Y-53576D01*
X41956Y-53449D01*
X41790Y-53380D01*
X41611Y-53380D01*
X41446Y-53448D01*
X41382Y-53512D01*
X41382Y-42793D01*
X41382Y-41793D01*
X41359Y-41737D01*
X41317Y-41695D01*
X41262Y-41672D01*
X41202Y-41672D01*
X40320Y-41672D01*
X40320Y-39181D01*
X40175Y-38832D01*
X39908Y-38565D01*
X39559Y-38420D01*
X39181Y-38419D01*
X38832Y-38564D01*
X38565Y-38831D01*
X38420Y-39180D01*
X38419Y-39558D01*
X38564Y-39907D01*
X38831Y-40174D01*
X39180Y-40319D01*
X39558Y-40320D01*
X39907Y-40175D01*
X40174Y-39908D01*
X40319Y-39559D01*
X40320Y-39181D01*
X40320Y-41672D01*
X40202Y-41672D01*
X40147Y-41695D01*
X40105Y-41737D01*
X40082Y-41792D01*
X40082Y-41852D01*
X40082Y-42852D01*
X40105Y-42907D01*
X40147Y-42949D01*
X40202Y-42972D01*
X40261Y-42972D01*
X41261Y-42972D01*
X41317Y-42950D01*
X41359Y-42907D01*
X41382Y-42852D01*
X41382Y-42793D01*
X41382Y-53512D01*
X41319Y-53575D01*
X41250Y-53740D01*
X41250Y-53919D01*
X41319Y-54085D01*
X41445Y-54211D01*
X41610Y-54280D01*
X41789Y-54280D01*
X41955Y-54212D01*
X42082Y-54085D01*
X42150Y-53920D01*
X42150Y-53741D01*
X42150Y-58088D01*
X40320Y-58088D01*
X40320Y-56898D01*
X40175Y-56549D01*
X39908Y-56281D01*
X39559Y-56136D01*
X39181Y-56136D01*
X38832Y-56280D01*
X38565Y-56547D01*
X38420Y-56896D01*
X38419Y-57274D01*
X38564Y-57624D01*
X38831Y-57891D01*
X39180Y-58036D01*
X39558Y-58036D01*
X39907Y-57892D01*
X40174Y-57625D01*
X40319Y-57276D01*
X40320Y-56898D01*
X40320Y-58088D01*
X37974Y-58088D01*
X37974Y-37974D01*
X49426Y-37974D01*
X49426Y-58088D01*
X49426Y-58088D01*
G37*
G54D18*
X49426Y-58088D02*
X49178Y-58088D01*
X49178Y-56898D01*
X49178Y-39181D01*
X49034Y-38832D01*
X48767Y-38565D01*
X48418Y-38420D01*
X48040Y-38419D01*
X47690Y-38564D01*
X47423Y-38831D01*
X47278Y-39180D01*
X47278Y-39558D01*
X47422Y-39907D01*
X47689Y-40174D01*
X48038Y-40319D01*
X48416Y-40320D01*
X48765Y-40175D01*
X49033Y-39908D01*
X49178Y-39559D01*
X49178Y-39181D01*
X49178Y-56898D01*
X49034Y-56549D01*
X48767Y-56281D01*
X48418Y-56136D01*
X48040Y-56136D01*
X47690Y-56280D01*
X47423Y-56547D01*
X47319Y-56798D01*
X47319Y-42194D01*
X47220Y-41955D01*
X47037Y-41772D01*
X46799Y-41672D01*
X46540Y-41672D01*
X46301Y-41771D01*
X46118Y-41954D01*
X46019Y-42192D01*
X46019Y-42451D01*
X46117Y-42690D01*
X46300Y-42873D01*
X46539Y-42972D01*
X46798Y-42972D01*
X47037Y-42874D01*
X47220Y-42691D01*
X47319Y-42452D01*
X47319Y-42194D01*
X47319Y-56798D01*
X47278Y-56896D01*
X47278Y-57274D01*
X47422Y-57624D01*
X47689Y-57891D01*
X48038Y-58036D01*
X48416Y-58036D01*
X48765Y-57892D01*
X49033Y-57625D01*
X49178Y-57276D01*
X49178Y-56898D01*
X49178Y-58088D01*
X46584Y-58088D01*
X46584Y-48360D01*
X46535Y-48241D01*
X46444Y-48149D01*
X46324Y-48100D01*
X46195Y-48100D01*
X46075Y-48149D01*
X46050Y-48175D01*
X45319Y-48175D01*
X45319Y-42793D01*
X45319Y-41793D01*
X45296Y-41737D01*
X45254Y-41695D01*
X45199Y-41672D01*
X45139Y-41672D01*
X44139Y-41672D01*
X44084Y-41695D01*
X44042Y-41737D01*
X44019Y-41792D01*
X44019Y-41852D01*
X44019Y-42852D01*
X44042Y-42907D01*
X44084Y-42949D01*
X44139Y-42972D01*
X44198Y-42972D01*
X45198Y-42972D01*
X45254Y-42950D01*
X45296Y-42907D01*
X45319Y-42852D01*
X45319Y-42793D01*
X45319Y-48175D01*
X43516Y-48175D01*
X43491Y-48149D01*
X43382Y-48104D01*
X43382Y-42194D01*
X43283Y-41955D01*
X43100Y-41772D01*
X42862Y-41672D01*
X42603Y-41672D01*
X42364Y-41771D01*
X42181Y-41954D01*
X42082Y-42192D01*
X42082Y-42451D01*
X42180Y-42690D01*
X42363Y-42873D01*
X42602Y-42972D01*
X42861Y-42972D01*
X43099Y-42874D01*
X43283Y-42691D01*
X43382Y-42452D01*
X43382Y-42194D01*
X43382Y-48104D01*
X43372Y-48100D01*
X43242Y-48100D01*
X43123Y-48149D01*
X43031Y-48240D01*
X42982Y-48360D01*
X42982Y-48489D01*
X43031Y-48609D01*
X43057Y-48634D01*
X43057Y-49593D01*
X43031Y-49618D01*
X42982Y-49738D01*
X42982Y-49867D01*
X43031Y-49987D01*
X43122Y-50078D01*
X43242Y-50128D01*
X43371Y-50128D01*
X43490Y-50078D01*
X43582Y-49987D01*
X43632Y-49868D01*
X43632Y-49738D01*
X43582Y-49619D01*
X43557Y-49593D01*
X43557Y-48675D01*
X46050Y-48675D01*
X46075Y-48700D01*
X46194Y-48750D01*
X46324Y-48750D01*
X46443Y-48700D01*
X46535Y-48609D01*
X46584Y-48490D01*
X46584Y-48360D01*
X46584Y-58088D01*
X46150Y-58088D01*
X46150Y-54101D01*
X46150Y-53501D01*
X46128Y-53445D01*
X46085Y-53403D01*
X46030Y-53380D01*
X45971Y-53380D01*
X45371Y-53380D01*
X45315Y-53403D01*
X45273Y-53445D01*
X45250Y-53500D01*
X45250Y-53560D01*
X45250Y-54160D01*
X45273Y-54215D01*
X45315Y-54257D01*
X45370Y-54280D01*
X45430Y-54280D01*
X46030Y-54280D01*
X46085Y-54257D01*
X46127Y-54215D01*
X46150Y-54160D01*
X46150Y-54101D01*
X46150Y-58088D01*
X45150Y-58088D01*
X45150Y-53741D01*
X45082Y-53576D01*
X44956Y-53449D01*
X44790Y-53380D01*
X44611Y-53380D01*
X44446Y-53448D01*
X44319Y-53575D01*
X44250Y-53740D01*
X44250Y-53919D01*
X44319Y-54085D01*
X44445Y-54211D01*
X44610Y-54280D01*
X44789Y-54280D01*
X44955Y-54212D01*
X45082Y-54085D01*
X45150Y-53920D01*
X45150Y-53741D01*
X45150Y-58088D01*
X44150Y-58088D01*
X44150Y-53741D01*
X44082Y-53576D01*
X43956Y-53449D01*
X43790Y-53380D01*
X43611Y-53380D01*
X43446Y-53448D01*
X43319Y-53575D01*
X43250Y-53740D01*
X43250Y-53919D01*
X43319Y-54085D01*
X43445Y-54211D01*
X43610Y-54280D01*
X43789Y-54280D01*
X43955Y-54212D01*
X44082Y-54085D01*
X44150Y-53920D01*
X44150Y-53741D01*
X44150Y-58088D01*
X43150Y-58088D01*
X43150Y-53741D01*
X43082Y-53576D01*
X42956Y-53449D01*
X42790Y-53380D01*
X42611Y-53380D01*
X42446Y-53448D01*
X42319Y-53575D01*
X42250Y-53740D01*
X42250Y-53919D01*
X42319Y-54085D01*
X42445Y-54211D01*
X42610Y-54280D01*
X42789Y-54280D01*
X42955Y-54212D01*
X43082Y-54085D01*
X43150Y-53920D01*
X43150Y-53741D01*
X43150Y-58088D01*
X42150Y-58088D01*
X42150Y-53741D01*
X42082Y-53576D01*
X41956Y-53449D01*
X41790Y-53380D01*
X41611Y-53380D01*
X41446Y-53448D01*
X41382Y-53512D01*
X41382Y-42793D01*
X41382Y-41793D01*
X41359Y-41737D01*
X41317Y-41695D01*
X41262Y-41672D01*
X41202Y-41672D01*
X40320Y-41672D01*
X40320Y-39181D01*
X40175Y-38832D01*
X39908Y-38565D01*
X39559Y-38420D01*
X39181Y-38419D01*
X38832Y-38564D01*
X38565Y-38831D01*
X38420Y-39180D01*
X38419Y-39558D01*
X38564Y-39907D01*
X38831Y-40174D01*
X39180Y-40319D01*
X39558Y-40320D01*
X39907Y-40175D01*
X40174Y-39908D01*
X40319Y-39559D01*
X40320Y-39181D01*
X40320Y-41672D01*
X40202Y-41672D01*
X40147Y-41695D01*
X40105Y-41737D01*
X40082Y-41792D01*
X40082Y-41852D01*
X40082Y-42852D01*
X40105Y-42907D01*
X40147Y-42949D01*
X40202Y-42972D01*
X40261Y-42972D01*
X41261Y-42972D01*
X41317Y-42950D01*
X41359Y-42907D01*
X41382Y-42852D01*
X41382Y-42793D01*
X41382Y-53512D01*
X41319Y-53575D01*
X41250Y-53740D01*
X41250Y-53919D01*
X41319Y-54085D01*
X41445Y-54211D01*
X41610Y-54280D01*
X41789Y-54280D01*
X41955Y-54212D01*
X42082Y-54085D01*
X42150Y-53920D01*
X42150Y-53741D01*
X42150Y-58088D01*
X40320Y-58088D01*
X40320Y-56898D01*
X40175Y-56549D01*
X39908Y-56281D01*
X39559Y-56136D01*
X39181Y-56136D01*
X38832Y-56280D01*
X38565Y-56547D01*
X38420Y-56896D01*
X38419Y-57274D01*
X38564Y-57624D01*
X38831Y-57891D01*
X39180Y-58036D01*
X39558Y-58036D01*
X39907Y-57892D01*
X40174Y-57625D01*
X40319Y-57276D01*
X40320Y-56898D01*
X40320Y-58088D01*
X37974Y-58088D01*
X37974Y-37974D01*
X49426Y-37974D01*
X49426Y-58088D01*
M02*
