G04 This is an RS-274x file exported by *
G04 gerbv version 2.6.0 *
G04 More information is available about gerbv at *
G04 http://gerbv.gpleda.org/ *
G04 --End of header info--*
%MOIN*%
%FSLAX34Y34*%
%IPPOS*%
G04 --Define apertures--*
%ADD10C,0.0000*%
%ADD11R,0.0178X0.0788*%
%ADD12R,0.0788X0.0178*%
%ADD13C,0.0551*%
%ADD14R,0.0552X0.0237*%
%ADD15R,0.0237X0.0552*%
%ADD16R,0.0801X0.0601*%
%ADD17R,0.0601X0.0801*%
%ADD18R,0.0351X0.0551*%
%ADD19R,0.0551X0.0351*%
%ADD20O,0.1188X0.0594*%
%ADD21R,0.0601X0.0601*%
%ADD22C,0.0601*%
%ADD23R,0.0315X0.0315*%
%ADD24R,0.0592X0.0107*%
%ADD25R,0.0099X0.0592*%
%ADD26C,0.0473*%
%ADD27R,0.2166X0.0788*%
%ADD28C,0.0592*%
%ADD29C,0.1576*%
%ADD30C,0.0060*%
%ADD31R,0.0600X0.0600*%
%ADD32C,0.0600*%
%ADD33R,0.1000X0.1000*%
%ADD34C,0.1000*%
%ADD35C,0.1600*%
%ADD36C,0.0059*%
%ADD37R,0.0750X0.0250*%
%ADD38R,0.0350X0.0550*%
%ADD39R,0.0800X0.1400*%
G04 --Start main section--*
G54D11*
G01X0060957Y-046904D03*
G01X0061272Y-046904D03*
G01X0061587Y-046904D03*
G01X0061902Y-046904D03*
G01X0062217Y-046904D03*
G01X0062532Y-046904D03*
G01X0062847Y-046904D03*
G01X0063162Y-046904D03*
G01X0063160Y-050670D03*
G01X0060950Y-050670D03*
G01X0061270Y-050670D03*
G01X0061590Y-050670D03*
G01X0061900Y-050670D03*
G01X0062220Y-050670D03*
G01X0062530Y-050670D03*
G01X0062850Y-050670D03*
G54D12*
G01X0063950Y-047688D03*
G01X0063950Y-048002D03*
G01X0063950Y-048318D03*
G01X0063950Y-048632D03*
G01X0063950Y-048948D03*
G01X0063950Y-049262D03*
G01X0063950Y-049578D03*
G01X0063950Y-049892D03*
G01X0060170Y-047690D03*
G01X0060170Y-048000D03*
G01X0060170Y-048320D03*
G01X0060170Y-048630D03*
G01X0060170Y-048940D03*
G01X0060170Y-049260D03*
G01X0060170Y-049580D03*
G01X0060170Y-049900D03*
G54D13*
G01X0070000Y-051075D03*
G01X0070000Y-053075D03*
G01X0067000Y-051075D03*
G01X0067000Y-053075D03*
G01X0070000Y-047850D03*
G01X0070000Y-049850D03*
G01X0067000Y-047850D03*
G01X0067000Y-049850D03*
G54D14*
G01X0041674Y-056250D03*
G01X0043774Y-056250D03*
G01X0041674Y-055750D03*
G01X0041674Y-055250D03*
G01X0041674Y-054750D03*
G01X0043774Y-055750D03*
G01X0043774Y-055250D03*
G01X0043774Y-054750D03*
G54D15*
G01X0068575Y-044475D03*
G01X0068575Y-042375D03*
G01X0068075Y-044475D03*
G01X0067575Y-044475D03*
G01X0067075Y-044475D03*
G01X0068075Y-042375D03*
G01X0067575Y-042375D03*
G01X0067075Y-042375D03*
G54D14*
G01X0064357Y-056661D03*
G01X0066457Y-056661D03*
G01X0064357Y-056161D03*
G01X0064357Y-055661D03*
G01X0064357Y-055161D03*
G01X0066457Y-056161D03*
G01X0066457Y-055661D03*
G01X0066457Y-055161D03*
G01X0057368Y-056718D03*
G01X0059468Y-056718D03*
G01X0057368Y-056218D03*
G01X0057368Y-055718D03*
G01X0057368Y-055218D03*
G01X0059468Y-056218D03*
G01X0059468Y-055718D03*
G01X0059468Y-055218D03*
G01X0050416Y-056707D03*
G01X0052516Y-056707D03*
G01X0050416Y-056207D03*
G01X0050416Y-055707D03*
G01X0050416Y-055207D03*
G01X0052516Y-056207D03*
G01X0052516Y-055707D03*
G01X0052516Y-055207D03*
G54D16*
G01X0052900Y-041950D03*
G01X0052900Y-043250D03*
G01X0052900Y-045350D03*
G01X0052900Y-044050D03*
G01X0053950Y-045350D03*
G01X0053950Y-044050D03*
G01X0053800Y-046300D03*
G01X0053800Y-047600D03*
G54D17*
G01X0056100Y-042775D03*
G01X0057400Y-042775D03*
G54D16*
G01X0054800Y-046300D03*
G01X0054800Y-047600D03*
G01X0055100Y-043300D03*
G01X0055100Y-042000D03*
G01X0053950Y-041950D03*
G01X0053950Y-043250D03*
G01X0051900Y-050650D03*
G01X0051900Y-049350D03*
G54D17*
G01X0049350Y-052600D03*
G01X0050650Y-052600D03*
G54D16*
G01X0047200Y-053850D03*
G01X0047200Y-052550D03*
G01X0044150Y-051400D03*
G01X0044150Y-050100D03*
G54D18*
G01X0049398Y-058123D03*
G01X0050148Y-058123D03*
G54D19*
G01X0052057Y-054482D03*
G01X0052057Y-053732D03*
G01X0052687Y-054482D03*
G01X0052687Y-053732D03*
G01X0051387Y-054482D03*
G01X0051387Y-053732D03*
G01X0050718Y-054482D03*
G01X0050718Y-053732D03*
G54D18*
G01X0063971Y-058785D03*
G01X0063221Y-058785D03*
G01X0063221Y-057288D03*
G01X0063971Y-057288D03*
G01X0067671Y-058037D03*
G01X0066921Y-058037D03*
G54D19*
G01X0049498Y-060309D03*
G01X0049498Y-059559D03*
G54D18*
G01X0048965Y-055170D03*
G01X0049715Y-055170D03*
G01X0048965Y-055957D03*
G01X0049715Y-055957D03*
G01X0050148Y-058871D03*
G01X0049398Y-058871D03*
G01X0049398Y-057375D03*
G01X0050148Y-057375D03*
G01X0053967Y-058123D03*
G01X0053217Y-058123D03*
G01X0055956Y-055850D03*
G01X0056706Y-055850D03*
G54D19*
G01X0053946Y-060269D03*
G01X0053946Y-059519D03*
G54D18*
G01X0053967Y-055682D03*
G01X0053217Y-055682D03*
G01X0053967Y-056430D03*
G01X0053217Y-056430D03*
G01X0053217Y-058871D03*
G01X0053967Y-058871D03*
G01X0053967Y-057375D03*
G01X0053217Y-057375D03*
G01X0062787Y-056068D03*
G01X0063537Y-056068D03*
G01X0067947Y-055320D03*
G01X0067197Y-055320D03*
G01X0067986Y-056147D03*
G01X0067236Y-056147D03*
G01X0066921Y-058785D03*
G01X0067671Y-058785D03*
G01X0067671Y-057288D03*
G01X0066921Y-057288D03*
G54D19*
G01X0067769Y-060183D03*
G01X0067769Y-059433D03*
G01X0057237Y-054256D03*
G01X0057237Y-053506D03*
G01X0057945Y-054256D03*
G01X0057945Y-053506D03*
G01X0059323Y-054256D03*
G01X0059323Y-053506D03*
G01X0058614Y-054256D03*
G01X0058614Y-053506D03*
G54D18*
G01X0056232Y-057976D03*
G01X0056982Y-057976D03*
G01X0060682Y-057346D03*
G01X0059932Y-057346D03*
G54D19*
G01X0056174Y-060162D03*
G01X0056174Y-059412D03*
G54D18*
G01X0055956Y-055062D03*
G01X0056706Y-055062D03*
G01X0041288Y-058453D03*
G01X0040538Y-058453D03*
G01X0056982Y-058685D03*
G01X0056232Y-058685D03*
G01X0056232Y-057267D03*
G01X0056982Y-057267D03*
G01X0060682Y-058094D03*
G01X0059932Y-058094D03*
G54D19*
G01X0060622Y-060241D03*
G01X0060622Y-059491D03*
G54D18*
G01X0060958Y-055614D03*
G01X0060208Y-055614D03*
G01X0060958Y-056362D03*
G01X0060208Y-056362D03*
G01X0059932Y-058842D03*
G01X0060682Y-058842D03*
G54D19*
G01X0066025Y-043825D03*
G01X0066025Y-043075D03*
G54D18*
G01X0062787Y-055320D03*
G01X0063537Y-055320D03*
G54D19*
G01X0063202Y-060183D03*
G01X0063202Y-059433D03*
G54D18*
G01X0063221Y-058037D03*
G01X0063971Y-058037D03*
G54D19*
G01X0065643Y-054435D03*
G01X0065643Y-053685D03*
G01X0066391Y-054435D03*
G01X0066391Y-053685D03*
G01X0066150Y-045250D03*
G01X0066150Y-044500D03*
G54D18*
G01X0064675Y-050925D03*
G01X0065425Y-050925D03*
G54D19*
G01X0064895Y-054435D03*
G01X0064895Y-053685D03*
G01X0065375Y-047675D03*
G01X0065375Y-048425D03*
G01X0064147Y-054435D03*
G01X0064147Y-053685D03*
G54D18*
G01X0063400Y-042975D03*
G01X0064150Y-042975D03*
G01X0059700Y-042975D03*
G01X0060450Y-042975D03*
G54D19*
G01X0048200Y-053100D03*
G01X0048200Y-052350D03*
G01X0052950Y-046275D03*
G01X0052950Y-047025D03*
G54D18*
G01X0040144Y-055500D03*
G01X0040894Y-055500D03*
G54D19*
G01X0041543Y-054025D03*
G01X0041543Y-053275D03*
G01X0042291Y-054025D03*
G01X0042291Y-053275D03*
G01X0043866Y-054025D03*
G01X0043866Y-053275D03*
G01X0043118Y-054025D03*
G01X0043118Y-053275D03*
G54D18*
G01X0040538Y-057705D03*
G01X0041288Y-057705D03*
G54D19*
G01X0040519Y-059969D03*
G01X0040519Y-059219D03*
G54D18*
G01X0040144Y-054752D03*
G01X0040894Y-054752D03*
G01X0044989Y-056957D03*
G01X0044239Y-056957D03*
G01X0044239Y-058453D03*
G01X0044989Y-058453D03*
G01X0045304Y-056012D03*
G01X0044554Y-056012D03*
G01X0045304Y-055264D03*
G01X0044554Y-055264D03*
G54D19*
G01X0044968Y-059930D03*
G01X0044968Y-059180D03*
G54D18*
G01X0044989Y-057705D03*
G01X0044239Y-057705D03*
G01X0040538Y-056957D03*
G01X0041288Y-056957D03*
G54D20*
G01X0038300Y-047150D03*
G01X0038300Y-046150D03*
G54D21*
G01X0067485Y-061311D03*
G54D22*
G01X0067485Y-062311D03*
G01X0066485Y-061311D03*
G01X0066485Y-062311D03*
G01X0065485Y-061311D03*
G01X0065485Y-062311D03*
G01X0064485Y-061311D03*
G01X0064485Y-062311D03*
G01X0063485Y-061311D03*
G01X0063485Y-062311D03*
G54D21*
G01X0053702Y-061311D03*
G54D22*
G01X0053702Y-062311D03*
G01X0052702Y-061311D03*
G01X0052702Y-062311D03*
G01X0051702Y-061311D03*
G01X0051702Y-062311D03*
G01X0050702Y-061311D03*
G01X0050702Y-062311D03*
G01X0049702Y-061311D03*
G01X0049702Y-062311D03*
G54D21*
G01X0060496Y-061311D03*
G54D22*
G01X0060496Y-062311D03*
G01X0059496Y-061311D03*
G01X0059496Y-062311D03*
G01X0058496Y-061311D03*
G01X0058496Y-062311D03*
G01X0057496Y-061311D03*
G01X0057496Y-062311D03*
G01X0056496Y-061311D03*
G01X0056496Y-062311D03*
G54D21*
G01X0044800Y-061311D03*
G54D22*
G01X0044800Y-062311D03*
G01X0043800Y-061311D03*
G01X0043800Y-062311D03*
G01X0042800Y-061311D03*
G01X0042800Y-062311D03*
G01X0041800Y-061311D03*
G01X0041800Y-062311D03*
G01X0040800Y-061311D03*
G01X0040800Y-062311D03*
G54D21*
G01X0057250Y-047750D03*
G54D22*
G01X0056250Y-047750D03*
G01X0057250Y-046750D03*
G01X0056250Y-046750D03*
G01X0057250Y-045750D03*
G01X0056250Y-045750D03*
G01X0057250Y-044750D03*
G01X0056250Y-044750D03*
G54D21*
G01X0040800Y-047000D03*
G54D22*
G01X0041800Y-047000D03*
G01X0042800Y-047000D03*
G54D21*
G01X0066025Y-057700D03*
G54D22*
G01X0066025Y-058700D03*
G01X0066025Y-059700D03*
G54D21*
G01X0064875Y-057700D03*
G54D22*
G01X0064875Y-058700D03*
G01X0064875Y-059700D03*
G54D21*
G01X0042950Y-051350D03*
G54D22*
G01X0041950Y-051350D03*
G01X0040950Y-051350D03*
G54D21*
G01X0042212Y-057256D03*
G54D22*
G01X0042212Y-058256D03*
G01X0042212Y-059256D03*
G54D21*
G01X0043354Y-057256D03*
G54D22*
G01X0043354Y-058256D03*
G01X0043354Y-059256D03*
G54D21*
G01X0051112Y-057831D03*
G54D22*
G01X0051112Y-058831D03*
G01X0051112Y-059831D03*
G54D21*
G01X0052253Y-057831D03*
G54D22*
G01X0052253Y-058831D03*
G01X0052253Y-059831D03*
G54D21*
G01X0057827Y-057881D03*
G54D22*
G01X0057827Y-058881D03*
G01X0057827Y-059881D03*
G54D21*
G01X0058969Y-057881D03*
G54D22*
G01X0058969Y-058881D03*
G01X0058969Y-059881D03*
G54D23*
G01X0065275Y-046895D03*
G01X0065275Y-046305D03*
G01X0063975Y-046945D03*
G01X0063975Y-046355D03*
G54D24*
G01X0050462Y-048948D03*
G01X0050462Y-049145D03*
G01X0050462Y-049342D03*
G01X0050462Y-049539D03*
G01X0050462Y-049736D03*
G01X0050462Y-049933D03*
G01X0050462Y-050130D03*
G01X0050462Y-050326D03*
G01X0050462Y-047374D03*
G01X0045738Y-047374D03*
G01X0045738Y-050326D03*
G01X0050462Y-048752D03*
G01X0050462Y-048555D03*
G01X0050462Y-048358D03*
G01X0050462Y-048161D03*
G01X0050462Y-047964D03*
G01X0050462Y-047767D03*
G01X0050462Y-047570D03*
G01X0045738Y-047570D03*
G01X0045738Y-047767D03*
G01X0045738Y-047964D03*
G01X0045738Y-048161D03*
G01X0045738Y-048358D03*
G01X0045738Y-048555D03*
G01X0045738Y-048752D03*
G01X0045738Y-048948D03*
G01X0045738Y-049145D03*
G01X0045738Y-049342D03*
G01X0045738Y-049539D03*
G01X0045738Y-049736D03*
G01X0045738Y-049933D03*
G01X0045738Y-050130D03*
G54D25*
G01X0049576Y-051212D03*
G01X0049380Y-051212D03*
G01X0049183Y-051212D03*
G01X0048986Y-051212D03*
G01X0048789Y-051212D03*
G01X0048592Y-051212D03*
G01X0048002Y-051212D03*
G01X0047608Y-051212D03*
G01X0047411Y-051212D03*
G01X0048395Y-051212D03*
G01X0048198Y-051212D03*
G01X0047805Y-051212D03*
G01X0047214Y-051212D03*
G01X0047017Y-051212D03*
G01X0046820Y-051212D03*
G01X0046624Y-051212D03*
G01X0049576Y-046488D03*
G01X0049380Y-046488D03*
G01X0049183Y-046488D03*
G01X0048986Y-046488D03*
G01X0048789Y-046488D03*
G01X0048592Y-046488D03*
G01X0048395Y-046488D03*
G01X0048198Y-046488D03*
G01X0048002Y-046488D03*
G01X0047805Y-046488D03*
G01X0047608Y-046488D03*
G01X0047411Y-046488D03*
G01X0047214Y-046488D03*
G01X0047017Y-046488D03*
G01X0046820Y-046488D03*
G01X0046624Y-046488D03*
G54D26*
G01X0038250Y-048600D03*
G01X0038250Y-049600D03*
G01X0038250Y-051600D03*
G01X0038250Y-052600D03*
G01X0038250Y-053600D03*
G54D21*
G01X0057050Y-051850D03*
G54D22*
G01X0056050Y-051850D03*
G01X0057050Y-050850D03*
G01X0056050Y-050850D03*
G01X0057050Y-049850D03*
G01X0056050Y-049850D03*
G54D27*
G01X0064125Y-044350D03*
G01X0060425Y-044350D03*
G54D21*
G01X0066150Y-042075D03*
G54D22*
G01X0065150Y-042075D03*
G01X0064150Y-042075D03*
G01X0063150Y-042075D03*
G54D21*
G01X0069725Y-044800D03*
G54D22*
G01X0069725Y-043800D03*
G01X0069725Y-042800D03*
G01X0069725Y-041800D03*
G54D28*
G01X0037716Y-043047D03*
G01X0037716Y-042047D03*
G01X0038716Y-043047D03*
G01X0038716Y-042047D03*
G01X0039716Y-043047D03*
G01X0039716Y-042047D03*
G01X0040716Y-043047D03*
G01X0040716Y-042047D03*
G01X0041716Y-043047D03*
G01X0041716Y-042047D03*
G01X0042716Y-043047D03*
G01X0042716Y-042047D03*
G01X0043716Y-043047D03*
G01X0043716Y-042047D03*
G01X0044716Y-043047D03*
G01X0044716Y-042047D03*
G01X0045716Y-043047D03*
G01X0045716Y-042047D03*
G01X0046716Y-043047D03*
G01X0046716Y-042047D03*
G01X0047716Y-043047D03*
G01X0047716Y-042047D03*
G01X0048716Y-043047D03*
G01X0048716Y-042047D03*
G01X0049716Y-043047D03*
G01X0049716Y-042047D03*
G01X0039716Y-044047D03*
G01X0039716Y-045047D03*
G01X0040716Y-044047D03*
G01X0040716Y-045047D03*
G01X0041716Y-044047D03*
G01X0041716Y-045047D03*
G01X0042716Y-044047D03*
G01X0042716Y-045047D03*
G54D29*
G01X0046968Y-056417D03*
G01X0068425Y-046181D03*
G01X0023622Y-023622D02*
G54D31*
G01X0073318Y-070244D03*
G54D32*
G01X0074318Y-070244D03*
G01X0073318Y-071244D03*
G01X0074318Y-071244D03*
G01X0073318Y-072244D03*
G01X0074318Y-072244D03*
G01X0073318Y-073244D03*
G01X0074318Y-073244D03*
G01X0073318Y-074244D03*
G01X0074318Y-074244D03*
G54D33*
G01X0061810Y-075212D03*
G54D34*
G01X0061810Y-073212D03*
G54D33*
G01X0061810Y-071275D03*
G54D34*
G01X0061810Y-069275D03*
G54D35*
G01X0058858Y-076574D03*
G01X0074606Y-076574D03*
G01X0058858Y-067716D03*
G01X0074606Y-067716D03*
G01X-032677Y-013386D02*
G54D36*
G01X0057323Y-077636D02*
G01X0057323Y-066386D01*
G01X0037073Y-077636D02*
G01X0037073Y-066386D01*
G01X0057323Y-066386D02*
G01X0037073Y-066386D01*
G01X0037073Y-077636D02*
G01X0057323Y-077636D01*
G54D37*
G01X0044573Y-072386D03*
G01X0044573Y-072886D03*
G01X0044573Y-073386D03*
G01X0044573Y-073886D03*
G01X0044573Y-074386D03*
G01X0044573Y-074886D03*
G01X0044573Y-075386D03*
G01X0044573Y-075886D03*
G01X0048573Y-075886D03*
G01X0048573Y-075386D03*
G01X0048573Y-074886D03*
G01X0048573Y-074386D03*
G01X0048573Y-073886D03*
G01X0048573Y-073386D03*
G01X0048573Y-072886D03*
G01X0048573Y-072386D03*
G01X0044573Y-067386D03*
G01X0044573Y-067886D03*
G01X0044573Y-068386D03*
G01X0044573Y-068886D03*
G01X0044573Y-069386D03*
G01X0044573Y-069886D03*
G01X0044573Y-070386D03*
G01X0044573Y-070886D03*
G01X0048573Y-070886D03*
G01X0048573Y-070386D03*
G01X0048573Y-069886D03*
G01X0048573Y-069386D03*
G01X0048573Y-068886D03*
G01X0048573Y-068386D03*
G01X0048573Y-067886D03*
G01X0048573Y-067386D03*
G54D38*
G01X0049948Y-069636D03*
G01X0050698Y-069636D03*
G01X0049948Y-070386D03*
G01X0050698Y-070386D03*
G01X0049948Y-074886D03*
G01X0050698Y-074886D03*
G01X0049948Y-075636D03*
G01X0050698Y-075636D03*
G01X0047698Y-076636D03*
G01X0048448Y-076636D03*
G01X0047698Y-071636D03*
G01X0048448Y-071636D03*
G54D31*
G01X0052823Y-069386D03*
G54D32*
G01X0053823Y-069386D03*
G01X0052823Y-070386D03*
G01X0053823Y-070386D03*
G01X0052823Y-071386D03*
G01X0053823Y-071386D03*
G01X0052823Y-072386D03*
G01X0053823Y-072386D03*
G01X0052823Y-073386D03*
G01X0053823Y-073386D03*
G54D31*
G01X0050573Y-073636D03*
G54D32*
G01X0050573Y-072636D03*
G01X0050573Y-071636D03*
G54D33*
G01X0042323Y-068136D03*
G54D34*
G01X0042323Y-070136D03*
G54D33*
G01X0042323Y-073136D03*
G54D34*
G01X0042323Y-075136D03*
G54D35*
G01X0038189Y-076378D03*
G01X0038189Y-067519D03*
G01X0055905Y-067519D03*
G01X0055905Y-076378D03*
G54D39*
G01X0052073Y-075136D03*
G01X0054073Y-075136D03*
M02*
