G04 (created by PCBNEW (2013-mar-13)-testing) date Thu 04 Apr 2013 06:28:06 PM CEST*
%MOIN*%
G04 Gerber Fmt 3.4, Leading zero omitted, Abs format*
%FSLAX34Y34*%
G01*
G70*
G90*
G04 APERTURE LIST*
%ADD10C,0.006*%
%ADD11C,0.00590551*%
%ADD12R,0.075X0.025*%
%ADD13R,0.035X0.055*%
%ADD14R,0.06X0.06*%
%ADD15C,0.06*%
%ADD16R,0.1X0.1*%
%ADD17C,0.1*%
%ADD18C,0.16*%
%ADD19R,0.08X0.14*%
%ADD20C,0.035*%
%ADD21C,0.01*%
%ADD22C,0.05*%
%ADD23C,0.02*%
G04 APERTURE END LIST*
G54D10*
G54D11*
X90000Y-64250D02*
X90000Y-53000D01*
X69750Y-64250D02*
X69750Y-53000D01*
X90000Y-53000D02*
X69750Y-53000D01*
X69750Y-64250D02*
X90000Y-64250D01*
G54D12*
X77250Y-59000D03*
X77250Y-59500D03*
X77250Y-60000D03*
X77250Y-60500D03*
X77250Y-61000D03*
X77250Y-61500D03*
X77250Y-62000D03*
X77250Y-62500D03*
X81250Y-62500D03*
X81250Y-62000D03*
X81250Y-61500D03*
X81250Y-61000D03*
X81250Y-60500D03*
X81250Y-60000D03*
X81250Y-59500D03*
X81250Y-59000D03*
X77250Y-54000D03*
X77250Y-54500D03*
X77250Y-55000D03*
X77250Y-55500D03*
X77250Y-56000D03*
X77250Y-56500D03*
X77250Y-57000D03*
X77250Y-57500D03*
X81250Y-57500D03*
X81250Y-57000D03*
X81250Y-56500D03*
X81250Y-56000D03*
X81250Y-55500D03*
X81250Y-55000D03*
X81250Y-54500D03*
X81250Y-54000D03*
G54D13*
X82625Y-56250D03*
X83375Y-56250D03*
X82625Y-57000D03*
X83375Y-57000D03*
X82625Y-61500D03*
X83375Y-61500D03*
X82625Y-62250D03*
X83375Y-62250D03*
X80375Y-63250D03*
X81125Y-63250D03*
X80375Y-58250D03*
X81125Y-58250D03*
G54D14*
X85500Y-56000D03*
G54D15*
X86500Y-56000D03*
X85500Y-57000D03*
X86500Y-57000D03*
X85500Y-58000D03*
X86500Y-58000D03*
X85500Y-59000D03*
X86500Y-59000D03*
X85500Y-60000D03*
X86500Y-60000D03*
G54D14*
X83250Y-60250D03*
G54D15*
X83250Y-59250D03*
X83250Y-58250D03*
G54D16*
X75000Y-54750D03*
G54D17*
X75000Y-56750D03*
G54D16*
X75000Y-59750D03*
G54D17*
X75000Y-61750D03*
G54D18*
X70866Y-62992D03*
X70866Y-54133D03*
X88582Y-54133D03*
X88582Y-62992D03*
G54D19*
X84750Y-61750D03*
X86750Y-61750D03*
G54D20*
X82000Y-57000D03*
X84000Y-57000D03*
X82000Y-62500D03*
X82000Y-59000D03*
X82000Y-57500D03*
X84500Y-63250D03*
X80000Y-63250D03*
X80000Y-58250D03*
G54D21*
X81250Y-56000D02*
X82000Y-56000D01*
X84500Y-56000D02*
X85500Y-56000D01*
X84000Y-55500D02*
X84500Y-56000D01*
X82500Y-55500D02*
X84000Y-55500D01*
X82000Y-56000D02*
X82500Y-55500D01*
X81250Y-61000D02*
X81750Y-61000D01*
X82500Y-60250D02*
X83250Y-60250D01*
X81750Y-61000D02*
X82500Y-60250D01*
X82000Y-57000D02*
X82625Y-57000D01*
X81250Y-57000D02*
X82625Y-57000D01*
X81250Y-62000D02*
X82000Y-62000D01*
X82250Y-62250D02*
X82625Y-62250D01*
X82000Y-62000D02*
X82250Y-62250D01*
X83375Y-57000D02*
X84000Y-57000D01*
X81250Y-62500D02*
X82000Y-62500D01*
X81250Y-59000D02*
X82000Y-59000D01*
X81250Y-57500D02*
X82000Y-57500D01*
X81250Y-56500D02*
X82000Y-56500D01*
X82250Y-56250D02*
X82625Y-56250D01*
X82000Y-56500D02*
X82250Y-56250D01*
X83250Y-59250D02*
X83750Y-59250D01*
X84750Y-57000D02*
X85500Y-57000D01*
X84250Y-57500D02*
X84750Y-57000D01*
X84250Y-58750D02*
X84250Y-57500D01*
X83750Y-59250D02*
X84250Y-58750D01*
X81250Y-61500D02*
X82625Y-61500D01*
G54D22*
X85500Y-60000D02*
X85000Y-60000D01*
X84550Y-63200D02*
X84550Y-62000D01*
X84500Y-63250D02*
X84550Y-63200D01*
X84550Y-62000D02*
X84550Y-60950D01*
X84550Y-60450D02*
X84550Y-60950D01*
X85000Y-60000D02*
X84550Y-60450D01*
G54D23*
X80000Y-63250D02*
X80375Y-63250D01*
X80000Y-58250D02*
X80375Y-58250D01*
X81250Y-60000D02*
X80750Y-60000D01*
X80750Y-60000D02*
X80375Y-60375D01*
X80375Y-60375D02*
X80375Y-63250D01*
X81250Y-55000D02*
X80750Y-55000D01*
X80750Y-55000D02*
X80375Y-55375D01*
X80375Y-55375D02*
X80375Y-58250D01*
G54D10*
G36*
X89720Y-63970D02*
X88964Y-63970D01*
X89176Y-63882D01*
X89472Y-63587D01*
X89632Y-63201D01*
X89632Y-62784D01*
X89473Y-62398D01*
X89178Y-62102D01*
X88792Y-61942D01*
X88374Y-61941D01*
X87988Y-62101D01*
X87693Y-62396D01*
X87532Y-62782D01*
X87532Y-63200D01*
X87692Y-63586D01*
X87987Y-63881D01*
X88200Y-63970D01*
X87400Y-63970D01*
X87400Y-62400D01*
X87400Y-61099D01*
X87399Y-61000D01*
X87361Y-60908D01*
X87291Y-60837D01*
X87199Y-60799D01*
X87054Y-60799D01*
X87054Y-60081D01*
X87054Y-59081D01*
X87054Y-58081D01*
X87054Y-57081D01*
X87054Y-56081D01*
X87043Y-55863D01*
X86981Y-55712D01*
X86885Y-55684D01*
X86815Y-55755D01*
X86815Y-55614D01*
X86787Y-55518D01*
X86581Y-55445D01*
X86363Y-55456D01*
X86212Y-55518D01*
X86184Y-55614D01*
X86500Y-55929D01*
X86815Y-55614D01*
X86815Y-55755D01*
X86570Y-56000D01*
X86885Y-56315D01*
X86981Y-56287D01*
X87054Y-56081D01*
X87054Y-57081D01*
X87043Y-56863D01*
X86981Y-56712D01*
X86885Y-56684D01*
X86815Y-56755D01*
X86815Y-56614D01*
X86787Y-56518D01*
X86739Y-56501D01*
X86787Y-56481D01*
X86815Y-56385D01*
X86500Y-56070D01*
X86184Y-56385D01*
X86212Y-56481D01*
X86260Y-56498D01*
X86212Y-56518D01*
X86184Y-56614D01*
X86500Y-56929D01*
X86815Y-56614D01*
X86815Y-56755D01*
X86570Y-57000D01*
X86885Y-57315D01*
X86981Y-57287D01*
X87054Y-57081D01*
X87054Y-58081D01*
X87043Y-57863D01*
X86981Y-57712D01*
X86885Y-57684D01*
X86815Y-57755D01*
X86815Y-57614D01*
X86787Y-57518D01*
X86739Y-57501D01*
X86787Y-57481D01*
X86815Y-57385D01*
X86500Y-57070D01*
X86184Y-57385D01*
X86212Y-57481D01*
X86260Y-57498D01*
X86212Y-57518D01*
X86184Y-57614D01*
X86500Y-57929D01*
X86815Y-57614D01*
X86815Y-57755D01*
X86570Y-58000D01*
X86885Y-58315D01*
X86981Y-58287D01*
X87054Y-58081D01*
X87054Y-59081D01*
X87043Y-58863D01*
X86981Y-58712D01*
X86885Y-58684D01*
X86815Y-58755D01*
X86815Y-58614D01*
X86787Y-58518D01*
X86739Y-58501D01*
X86787Y-58481D01*
X86815Y-58385D01*
X86500Y-58070D01*
X86184Y-58385D01*
X86212Y-58481D01*
X86260Y-58498D01*
X86212Y-58518D01*
X86184Y-58614D01*
X86500Y-58929D01*
X86815Y-58614D01*
X86815Y-58755D01*
X86570Y-59000D01*
X86885Y-59315D01*
X86981Y-59287D01*
X87054Y-59081D01*
X87054Y-60081D01*
X87043Y-59863D01*
X86981Y-59712D01*
X86885Y-59684D01*
X86815Y-59755D01*
X86815Y-59614D01*
X86787Y-59518D01*
X86739Y-59501D01*
X86787Y-59481D01*
X86815Y-59385D01*
X86500Y-59070D01*
X86184Y-59385D01*
X86212Y-59481D01*
X86260Y-59498D01*
X86212Y-59518D01*
X86184Y-59614D01*
X86500Y-59929D01*
X86815Y-59614D01*
X86815Y-59755D01*
X86570Y-60000D01*
X86885Y-60315D01*
X86981Y-60287D01*
X87054Y-60081D01*
X87054Y-60799D01*
X86862Y-60800D01*
X86815Y-60847D01*
X86815Y-60385D01*
X86500Y-60070D01*
X86429Y-60141D01*
X86429Y-60000D01*
X86114Y-59684D01*
X86018Y-59712D01*
X85999Y-59767D01*
X85966Y-59688D01*
X85811Y-59534D01*
X85730Y-59500D01*
X85811Y-59466D01*
X85965Y-59311D01*
X85997Y-59236D01*
X86018Y-59287D01*
X86114Y-59315D01*
X86429Y-59000D01*
X86114Y-58684D01*
X86018Y-58712D01*
X85999Y-58767D01*
X85966Y-58688D01*
X85811Y-58534D01*
X85730Y-58500D01*
X85811Y-58466D01*
X85965Y-58311D01*
X85997Y-58236D01*
X86018Y-58287D01*
X86114Y-58315D01*
X86429Y-58000D01*
X86114Y-57684D01*
X86018Y-57712D01*
X85999Y-57767D01*
X85966Y-57688D01*
X85811Y-57534D01*
X85730Y-57500D01*
X85811Y-57466D01*
X85965Y-57311D01*
X85997Y-57236D01*
X86018Y-57287D01*
X86114Y-57315D01*
X86429Y-57000D01*
X86114Y-56684D01*
X86018Y-56712D01*
X85999Y-56767D01*
X85966Y-56688D01*
X85827Y-56550D01*
X85849Y-56550D01*
X85941Y-56512D01*
X86011Y-56441D01*
X86049Y-56349D01*
X86050Y-56296D01*
X86114Y-56315D01*
X86429Y-56000D01*
X86114Y-55684D01*
X86050Y-55703D01*
X86050Y-55650D01*
X86012Y-55558D01*
X85941Y-55488D01*
X85849Y-55450D01*
X85750Y-55449D01*
X85150Y-55449D01*
X85058Y-55487D01*
X84988Y-55558D01*
X84950Y-55650D01*
X84950Y-55700D01*
X84624Y-55700D01*
X84212Y-55287D01*
X84114Y-55222D01*
X84000Y-55200D01*
X82500Y-55200D01*
X82385Y-55222D01*
X82287Y-55287D01*
X81875Y-55700D01*
X81864Y-55700D01*
X81874Y-55674D01*
X81875Y-55575D01*
X81875Y-55325D01*
X81843Y-55249D01*
X81874Y-55174D01*
X81875Y-55075D01*
X81875Y-54825D01*
X81843Y-54750D01*
X81875Y-54674D01*
X81875Y-54325D01*
X81843Y-54250D01*
X81875Y-54174D01*
X81875Y-53825D01*
X81837Y-53733D01*
X81766Y-53663D01*
X81674Y-53625D01*
X81575Y-53624D01*
X81362Y-53625D01*
X81300Y-53687D01*
X81300Y-53950D01*
X81812Y-53950D01*
X81875Y-53887D01*
X81875Y-53825D01*
X81875Y-54174D01*
X81875Y-54112D01*
X81812Y-54050D01*
X81300Y-54050D01*
X81300Y-54187D01*
X81300Y-54312D01*
X81300Y-54450D01*
X81812Y-54450D01*
X81875Y-54387D01*
X81875Y-54325D01*
X81875Y-54674D01*
X81875Y-54612D01*
X81812Y-54550D01*
X81300Y-54550D01*
X81300Y-54557D01*
X81200Y-54557D01*
X81200Y-54550D01*
X81200Y-54450D01*
X81200Y-54312D01*
X81200Y-54187D01*
X81200Y-54050D01*
X81200Y-53950D01*
X81200Y-53687D01*
X81137Y-53625D01*
X80924Y-53624D01*
X80825Y-53625D01*
X80733Y-53663D01*
X80662Y-53733D01*
X80624Y-53825D01*
X80625Y-53887D01*
X80687Y-53950D01*
X81200Y-53950D01*
X81200Y-54050D01*
X80687Y-54050D01*
X80625Y-54112D01*
X80624Y-54174D01*
X80656Y-54250D01*
X80624Y-54325D01*
X80625Y-54387D01*
X80687Y-54450D01*
X81200Y-54450D01*
X81200Y-54550D01*
X80687Y-54550D01*
X80625Y-54612D01*
X80624Y-54674D01*
X80625Y-54674D01*
X80616Y-54676D01*
X80502Y-54752D01*
X80127Y-55127D01*
X80051Y-55241D01*
X80025Y-55375D01*
X80025Y-57796D01*
X79996Y-57824D01*
X79915Y-57824D01*
X79759Y-57889D01*
X79639Y-58008D01*
X79575Y-58165D01*
X79574Y-58334D01*
X79639Y-58490D01*
X79758Y-58610D01*
X79915Y-58674D01*
X79996Y-58674D01*
X80058Y-58736D01*
X80150Y-58774D01*
X80249Y-58775D01*
X80599Y-58775D01*
X80655Y-58751D01*
X80624Y-58825D01*
X80625Y-58887D01*
X80687Y-58950D01*
X81200Y-58950D01*
X81200Y-58942D01*
X81300Y-58942D01*
X81300Y-58950D01*
X81812Y-58950D01*
X81875Y-58887D01*
X81875Y-58825D01*
X81837Y-58733D01*
X81766Y-58663D01*
X81674Y-58625D01*
X81575Y-58624D01*
X81529Y-58624D01*
X81549Y-58574D01*
X81550Y-58475D01*
X81550Y-58362D01*
X81487Y-58300D01*
X81175Y-58300D01*
X81175Y-58307D01*
X81075Y-58307D01*
X81075Y-58300D01*
X81067Y-58300D01*
X81067Y-58200D01*
X81075Y-58200D01*
X81075Y-58192D01*
X81175Y-58192D01*
X81175Y-58200D01*
X81487Y-58200D01*
X81550Y-58137D01*
X81550Y-58024D01*
X81549Y-57925D01*
X81529Y-57875D01*
X81575Y-57875D01*
X81674Y-57874D01*
X81766Y-57836D01*
X81837Y-57766D01*
X81875Y-57674D01*
X81875Y-57612D01*
X81812Y-57550D01*
X81300Y-57550D01*
X81300Y-57557D01*
X81200Y-57557D01*
X81200Y-57550D01*
X81192Y-57550D01*
X81192Y-57450D01*
X81200Y-57450D01*
X81200Y-57442D01*
X81300Y-57442D01*
X81300Y-57450D01*
X81812Y-57450D01*
X81860Y-57402D01*
X81915Y-57424D01*
X82084Y-57425D01*
X82218Y-57369D01*
X82237Y-57416D01*
X82308Y-57486D01*
X82400Y-57524D01*
X82499Y-57525D01*
X82849Y-57525D01*
X82941Y-57487D01*
X83000Y-57428D01*
X83058Y-57487D01*
X83150Y-57525D01*
X83262Y-57525D01*
X83325Y-57462D01*
X83325Y-57050D01*
X83317Y-57050D01*
X83317Y-56950D01*
X83325Y-56950D01*
X83325Y-56712D01*
X83325Y-56537D01*
X83325Y-56300D01*
X83317Y-56300D01*
X83317Y-56200D01*
X83325Y-56200D01*
X83325Y-56192D01*
X83425Y-56192D01*
X83425Y-56200D01*
X83737Y-56200D01*
X83800Y-56137D01*
X83800Y-56024D01*
X83799Y-55925D01*
X83761Y-55833D01*
X83728Y-55800D01*
X83875Y-55800D01*
X84287Y-56212D01*
X84287Y-56212D01*
X84385Y-56277D01*
X84500Y-56300D01*
X84949Y-56300D01*
X84949Y-56349D01*
X84987Y-56441D01*
X85058Y-56511D01*
X85150Y-56549D01*
X85172Y-56549D01*
X85034Y-56688D01*
X85029Y-56700D01*
X84750Y-56700D01*
X84635Y-56722D01*
X84537Y-56787D01*
X84037Y-57287D01*
X83972Y-57385D01*
X83950Y-57500D01*
X83950Y-58625D01*
X83676Y-58898D01*
X83561Y-58784D01*
X83480Y-58750D01*
X83561Y-58716D01*
X83715Y-58561D01*
X83799Y-58359D01*
X83800Y-58141D01*
X83800Y-58140D01*
X83800Y-57225D01*
X83800Y-56774D01*
X83799Y-56675D01*
X83779Y-56625D01*
X83799Y-56574D01*
X83800Y-56475D01*
X83800Y-56362D01*
X83737Y-56300D01*
X83425Y-56300D01*
X83425Y-56537D01*
X83425Y-56712D01*
X83425Y-56950D01*
X83737Y-56950D01*
X83800Y-56887D01*
X83800Y-56774D01*
X83800Y-57225D01*
X83800Y-57112D01*
X83737Y-57050D01*
X83425Y-57050D01*
X83425Y-57462D01*
X83487Y-57525D01*
X83599Y-57525D01*
X83691Y-57487D01*
X83761Y-57416D01*
X83799Y-57324D01*
X83800Y-57225D01*
X83800Y-58140D01*
X83716Y-57938D01*
X83561Y-57784D01*
X83359Y-57700D01*
X83141Y-57699D01*
X82938Y-57783D01*
X82784Y-57938D01*
X82700Y-58140D01*
X82699Y-58358D01*
X82783Y-58561D01*
X82938Y-58715D01*
X83019Y-58749D01*
X82938Y-58783D01*
X82784Y-58938D01*
X82700Y-59140D01*
X82699Y-59358D01*
X82783Y-59561D01*
X82922Y-59699D01*
X82900Y-59699D01*
X82808Y-59737D01*
X82738Y-59808D01*
X82700Y-59900D01*
X82700Y-59950D01*
X82500Y-59950D01*
X82385Y-59972D01*
X82287Y-60037D01*
X81875Y-60450D01*
X81875Y-60325D01*
X81843Y-60249D01*
X81874Y-60174D01*
X81875Y-60075D01*
X81875Y-59825D01*
X81843Y-59750D01*
X81875Y-59674D01*
X81875Y-59325D01*
X81843Y-59250D01*
X81875Y-59174D01*
X81875Y-59112D01*
X81812Y-59050D01*
X81300Y-59050D01*
X81300Y-59187D01*
X81300Y-59312D01*
X81300Y-59450D01*
X81812Y-59450D01*
X81875Y-59387D01*
X81875Y-59325D01*
X81875Y-59674D01*
X81875Y-59612D01*
X81812Y-59550D01*
X81300Y-59550D01*
X81300Y-59557D01*
X81200Y-59557D01*
X81200Y-59550D01*
X81200Y-59450D01*
X81200Y-59312D01*
X81200Y-59187D01*
X81200Y-59050D01*
X80687Y-59050D01*
X80625Y-59112D01*
X80624Y-59174D01*
X80656Y-59250D01*
X80624Y-59325D01*
X80625Y-59387D01*
X80687Y-59450D01*
X81200Y-59450D01*
X81200Y-59550D01*
X80687Y-59550D01*
X80625Y-59612D01*
X80624Y-59674D01*
X80625Y-59674D01*
X80616Y-59676D01*
X80502Y-59752D01*
X80127Y-60127D01*
X80051Y-60241D01*
X80025Y-60375D01*
X80025Y-62796D01*
X79996Y-62824D01*
X79915Y-62824D01*
X79759Y-62889D01*
X79639Y-63008D01*
X79575Y-63165D01*
X79574Y-63334D01*
X79639Y-63490D01*
X79758Y-63610D01*
X79915Y-63674D01*
X79996Y-63674D01*
X80058Y-63736D01*
X80150Y-63774D01*
X80249Y-63775D01*
X80599Y-63775D01*
X80691Y-63737D01*
X80750Y-63678D01*
X80808Y-63737D01*
X80900Y-63775D01*
X81012Y-63775D01*
X81075Y-63712D01*
X81075Y-63300D01*
X81067Y-63300D01*
X81067Y-63200D01*
X81075Y-63200D01*
X81075Y-63192D01*
X81175Y-63192D01*
X81175Y-63200D01*
X81487Y-63200D01*
X81550Y-63137D01*
X81550Y-63024D01*
X81549Y-62925D01*
X81529Y-62875D01*
X81575Y-62875D01*
X81674Y-62874D01*
X81766Y-62836D01*
X81837Y-62766D01*
X81875Y-62674D01*
X81875Y-62612D01*
X81812Y-62550D01*
X81300Y-62550D01*
X81300Y-62557D01*
X81200Y-62557D01*
X81200Y-62550D01*
X81192Y-62550D01*
X81192Y-62450D01*
X81200Y-62450D01*
X81200Y-62442D01*
X81300Y-62442D01*
X81300Y-62450D01*
X81812Y-62450D01*
X81875Y-62387D01*
X81875Y-62325D01*
X81864Y-62300D01*
X81875Y-62300D01*
X82037Y-62462D01*
X82037Y-62462D01*
X82135Y-62527D01*
X82199Y-62540D01*
X82199Y-62574D01*
X82237Y-62666D01*
X82308Y-62736D01*
X82400Y-62774D01*
X82499Y-62775D01*
X82849Y-62775D01*
X82941Y-62737D01*
X83000Y-62678D01*
X83058Y-62737D01*
X83150Y-62775D01*
X83262Y-62775D01*
X83325Y-62712D01*
X83325Y-62300D01*
X83317Y-62300D01*
X83317Y-62200D01*
X83325Y-62200D01*
X83325Y-61962D01*
X83325Y-61787D01*
X83325Y-61550D01*
X83317Y-61550D01*
X83317Y-61450D01*
X83325Y-61450D01*
X83325Y-61037D01*
X83262Y-60975D01*
X83150Y-60974D01*
X83058Y-61012D01*
X82999Y-61071D01*
X82941Y-61013D01*
X82849Y-60975D01*
X82750Y-60974D01*
X82400Y-60974D01*
X82308Y-61012D01*
X82238Y-61083D01*
X82200Y-61175D01*
X82200Y-61200D01*
X81974Y-61200D01*
X82624Y-60550D01*
X82699Y-60550D01*
X82699Y-60599D01*
X82737Y-60691D01*
X82808Y-60761D01*
X82900Y-60799D01*
X82999Y-60800D01*
X83599Y-60800D01*
X83691Y-60762D01*
X83761Y-60691D01*
X83799Y-60599D01*
X83800Y-60500D01*
X83800Y-59900D01*
X83762Y-59808D01*
X83691Y-59738D01*
X83599Y-59700D01*
X83577Y-59700D01*
X83715Y-59561D01*
X83720Y-59550D01*
X83750Y-59550D01*
X83750Y-59549D01*
X83864Y-59527D01*
X83864Y-59527D01*
X83962Y-59462D01*
X84462Y-58962D01*
X84462Y-58962D01*
X84527Y-58864D01*
X84549Y-58750D01*
X84550Y-58750D01*
X84550Y-57624D01*
X84874Y-57300D01*
X85028Y-57300D01*
X85033Y-57311D01*
X85188Y-57465D01*
X85269Y-57499D01*
X85188Y-57533D01*
X85034Y-57688D01*
X84950Y-57890D01*
X84949Y-58108D01*
X85033Y-58311D01*
X85188Y-58465D01*
X85269Y-58499D01*
X85188Y-58533D01*
X85034Y-58688D01*
X84950Y-58890D01*
X84949Y-59108D01*
X85033Y-59311D01*
X85188Y-59465D01*
X85269Y-59499D01*
X85269Y-59500D01*
X85000Y-59500D01*
X84808Y-59538D01*
X84646Y-59646D01*
X84196Y-60096D01*
X84088Y-60258D01*
X84049Y-60450D01*
X84050Y-60450D01*
X84050Y-60950D01*
X84050Y-62000D01*
X84050Y-63040D01*
X84038Y-63058D01*
X83999Y-63250D01*
X84038Y-63441D01*
X84146Y-63603D01*
X84308Y-63711D01*
X84500Y-63750D01*
X84691Y-63711D01*
X84853Y-63603D01*
X84903Y-63553D01*
X85011Y-63391D01*
X85050Y-63200D01*
X85050Y-62700D01*
X85199Y-62700D01*
X85291Y-62662D01*
X85361Y-62591D01*
X85399Y-62499D01*
X85400Y-62400D01*
X85400Y-61000D01*
X85362Y-60908D01*
X85291Y-60838D01*
X85199Y-60800D01*
X85100Y-60799D01*
X85050Y-60799D01*
X85050Y-60657D01*
X85207Y-60500D01*
X85269Y-60500D01*
X85390Y-60549D01*
X85608Y-60550D01*
X85811Y-60466D01*
X85965Y-60311D01*
X85997Y-60236D01*
X86018Y-60287D01*
X86114Y-60315D01*
X86429Y-60000D01*
X86429Y-60141D01*
X86184Y-60385D01*
X86212Y-60481D01*
X86418Y-60554D01*
X86636Y-60543D01*
X86787Y-60481D01*
X86815Y-60385D01*
X86815Y-60847D01*
X86800Y-60862D01*
X86800Y-61700D01*
X87337Y-61700D01*
X87400Y-61637D01*
X87400Y-61099D01*
X87400Y-62400D01*
X87400Y-61862D01*
X87337Y-61800D01*
X86800Y-61800D01*
X86800Y-62637D01*
X86862Y-62700D01*
X87199Y-62700D01*
X87291Y-62662D01*
X87361Y-62591D01*
X87399Y-62499D01*
X87400Y-62400D01*
X87400Y-63970D01*
X86700Y-63970D01*
X86700Y-62637D01*
X86700Y-61800D01*
X86700Y-61700D01*
X86700Y-60862D01*
X86637Y-60800D01*
X86300Y-60799D01*
X86208Y-60837D01*
X86138Y-60908D01*
X86100Y-61000D01*
X86099Y-61099D01*
X86100Y-61637D01*
X86162Y-61700D01*
X86700Y-61700D01*
X86700Y-61800D01*
X86162Y-61800D01*
X86100Y-61862D01*
X86099Y-62400D01*
X86100Y-62499D01*
X86138Y-62591D01*
X86208Y-62662D01*
X86300Y-62700D01*
X86637Y-62700D01*
X86700Y-62637D01*
X86700Y-63970D01*
X83800Y-63970D01*
X83800Y-62475D01*
X83800Y-62024D01*
X83799Y-61925D01*
X83779Y-61875D01*
X83799Y-61824D01*
X83800Y-61725D01*
X83800Y-61274D01*
X83799Y-61175D01*
X83761Y-61083D01*
X83691Y-61012D01*
X83599Y-60974D01*
X83487Y-60975D01*
X83425Y-61037D01*
X83425Y-61450D01*
X83737Y-61450D01*
X83800Y-61387D01*
X83800Y-61274D01*
X83800Y-61725D01*
X83800Y-61612D01*
X83737Y-61550D01*
X83425Y-61550D01*
X83425Y-61787D01*
X83425Y-61962D01*
X83425Y-62200D01*
X83737Y-62200D01*
X83800Y-62137D01*
X83800Y-62024D01*
X83800Y-62475D01*
X83800Y-62362D01*
X83737Y-62300D01*
X83425Y-62300D01*
X83425Y-62712D01*
X83487Y-62775D01*
X83599Y-62775D01*
X83691Y-62737D01*
X83761Y-62666D01*
X83799Y-62574D01*
X83800Y-62475D01*
X83800Y-63970D01*
X81550Y-63970D01*
X81550Y-63475D01*
X81550Y-63362D01*
X81487Y-63300D01*
X81175Y-63300D01*
X81175Y-63712D01*
X81237Y-63775D01*
X81349Y-63775D01*
X81441Y-63737D01*
X81511Y-63666D01*
X81549Y-63574D01*
X81550Y-63475D01*
X81550Y-63970D01*
X79300Y-63970D01*
X79300Y-53279D01*
X87952Y-53279D01*
X87693Y-53538D01*
X87532Y-53924D01*
X87532Y-54341D01*
X87692Y-54727D01*
X87987Y-55023D01*
X88372Y-55183D01*
X88790Y-55184D01*
X89176Y-55024D01*
X89472Y-54729D01*
X89632Y-54343D01*
X89632Y-53925D01*
X89473Y-53539D01*
X89213Y-53279D01*
X89720Y-53279D01*
X89720Y-63970D01*
X89720Y-63970D01*
G37*
G54D21*
X89720Y-63970D02*
X88964Y-63970D01*
X89176Y-63882D01*
X89472Y-63587D01*
X89632Y-63201D01*
X89632Y-62784D01*
X89473Y-62398D01*
X89178Y-62102D01*
X88792Y-61942D01*
X88374Y-61941D01*
X87988Y-62101D01*
X87693Y-62396D01*
X87532Y-62782D01*
X87532Y-63200D01*
X87692Y-63586D01*
X87987Y-63881D01*
X88200Y-63970D01*
X87400Y-63970D01*
X87400Y-62400D01*
X87400Y-61099D01*
X87399Y-61000D01*
X87361Y-60908D01*
X87291Y-60837D01*
X87199Y-60799D01*
X87054Y-60799D01*
X87054Y-60081D01*
X87054Y-59081D01*
X87054Y-58081D01*
X87054Y-57081D01*
X87054Y-56081D01*
X87043Y-55863D01*
X86981Y-55712D01*
X86885Y-55684D01*
X86815Y-55755D01*
X86815Y-55614D01*
X86787Y-55518D01*
X86581Y-55445D01*
X86363Y-55456D01*
X86212Y-55518D01*
X86184Y-55614D01*
X86500Y-55929D01*
X86815Y-55614D01*
X86815Y-55755D01*
X86570Y-56000D01*
X86885Y-56315D01*
X86981Y-56287D01*
X87054Y-56081D01*
X87054Y-57081D01*
X87043Y-56863D01*
X86981Y-56712D01*
X86885Y-56684D01*
X86815Y-56755D01*
X86815Y-56614D01*
X86787Y-56518D01*
X86739Y-56501D01*
X86787Y-56481D01*
X86815Y-56385D01*
X86500Y-56070D01*
X86184Y-56385D01*
X86212Y-56481D01*
X86260Y-56498D01*
X86212Y-56518D01*
X86184Y-56614D01*
X86500Y-56929D01*
X86815Y-56614D01*
X86815Y-56755D01*
X86570Y-57000D01*
X86885Y-57315D01*
X86981Y-57287D01*
X87054Y-57081D01*
X87054Y-58081D01*
X87043Y-57863D01*
X86981Y-57712D01*
X86885Y-57684D01*
X86815Y-57755D01*
X86815Y-57614D01*
X86787Y-57518D01*
X86739Y-57501D01*
X86787Y-57481D01*
X86815Y-57385D01*
X86500Y-57070D01*
X86184Y-57385D01*
X86212Y-57481D01*
X86260Y-57498D01*
X86212Y-57518D01*
X86184Y-57614D01*
X86500Y-57929D01*
X86815Y-57614D01*
X86815Y-57755D01*
X86570Y-58000D01*
X86885Y-58315D01*
X86981Y-58287D01*
X87054Y-58081D01*
X87054Y-59081D01*
X87043Y-58863D01*
X86981Y-58712D01*
X86885Y-58684D01*
X86815Y-58755D01*
X86815Y-58614D01*
X86787Y-58518D01*
X86739Y-58501D01*
X86787Y-58481D01*
X86815Y-58385D01*
X86500Y-58070D01*
X86184Y-58385D01*
X86212Y-58481D01*
X86260Y-58498D01*
X86212Y-58518D01*
X86184Y-58614D01*
X86500Y-58929D01*
X86815Y-58614D01*
X86815Y-58755D01*
X86570Y-59000D01*
X86885Y-59315D01*
X86981Y-59287D01*
X87054Y-59081D01*
X87054Y-60081D01*
X87043Y-59863D01*
X86981Y-59712D01*
X86885Y-59684D01*
X86815Y-59755D01*
X86815Y-59614D01*
X86787Y-59518D01*
X86739Y-59501D01*
X86787Y-59481D01*
X86815Y-59385D01*
X86500Y-59070D01*
X86184Y-59385D01*
X86212Y-59481D01*
X86260Y-59498D01*
X86212Y-59518D01*
X86184Y-59614D01*
X86500Y-59929D01*
X86815Y-59614D01*
X86815Y-59755D01*
X86570Y-60000D01*
X86885Y-60315D01*
X86981Y-60287D01*
X87054Y-60081D01*
X87054Y-60799D01*
X86862Y-60800D01*
X86815Y-60847D01*
X86815Y-60385D01*
X86500Y-60070D01*
X86429Y-60141D01*
X86429Y-60000D01*
X86114Y-59684D01*
X86018Y-59712D01*
X85999Y-59767D01*
X85966Y-59688D01*
X85811Y-59534D01*
X85730Y-59500D01*
X85811Y-59466D01*
X85965Y-59311D01*
X85997Y-59236D01*
X86018Y-59287D01*
X86114Y-59315D01*
X86429Y-59000D01*
X86114Y-58684D01*
X86018Y-58712D01*
X85999Y-58767D01*
X85966Y-58688D01*
X85811Y-58534D01*
X85730Y-58500D01*
X85811Y-58466D01*
X85965Y-58311D01*
X85997Y-58236D01*
X86018Y-58287D01*
X86114Y-58315D01*
X86429Y-58000D01*
X86114Y-57684D01*
X86018Y-57712D01*
X85999Y-57767D01*
X85966Y-57688D01*
X85811Y-57534D01*
X85730Y-57500D01*
X85811Y-57466D01*
X85965Y-57311D01*
X85997Y-57236D01*
X86018Y-57287D01*
X86114Y-57315D01*
X86429Y-57000D01*
X86114Y-56684D01*
X86018Y-56712D01*
X85999Y-56767D01*
X85966Y-56688D01*
X85827Y-56550D01*
X85849Y-56550D01*
X85941Y-56512D01*
X86011Y-56441D01*
X86049Y-56349D01*
X86050Y-56296D01*
X86114Y-56315D01*
X86429Y-56000D01*
X86114Y-55684D01*
X86050Y-55703D01*
X86050Y-55650D01*
X86012Y-55558D01*
X85941Y-55488D01*
X85849Y-55450D01*
X85750Y-55449D01*
X85150Y-55449D01*
X85058Y-55487D01*
X84988Y-55558D01*
X84950Y-55650D01*
X84950Y-55700D01*
X84624Y-55700D01*
X84212Y-55287D01*
X84114Y-55222D01*
X84000Y-55200D01*
X82500Y-55200D01*
X82385Y-55222D01*
X82287Y-55287D01*
X81875Y-55700D01*
X81864Y-55700D01*
X81874Y-55674D01*
X81875Y-55575D01*
X81875Y-55325D01*
X81843Y-55249D01*
X81874Y-55174D01*
X81875Y-55075D01*
X81875Y-54825D01*
X81843Y-54750D01*
X81875Y-54674D01*
X81875Y-54325D01*
X81843Y-54250D01*
X81875Y-54174D01*
X81875Y-53825D01*
X81837Y-53733D01*
X81766Y-53663D01*
X81674Y-53625D01*
X81575Y-53624D01*
X81362Y-53625D01*
X81300Y-53687D01*
X81300Y-53950D01*
X81812Y-53950D01*
X81875Y-53887D01*
X81875Y-53825D01*
X81875Y-54174D01*
X81875Y-54112D01*
X81812Y-54050D01*
X81300Y-54050D01*
X81300Y-54187D01*
X81300Y-54312D01*
X81300Y-54450D01*
X81812Y-54450D01*
X81875Y-54387D01*
X81875Y-54325D01*
X81875Y-54674D01*
X81875Y-54612D01*
X81812Y-54550D01*
X81300Y-54550D01*
X81300Y-54557D01*
X81200Y-54557D01*
X81200Y-54550D01*
X81200Y-54450D01*
X81200Y-54312D01*
X81200Y-54187D01*
X81200Y-54050D01*
X81200Y-53950D01*
X81200Y-53687D01*
X81137Y-53625D01*
X80924Y-53624D01*
X80825Y-53625D01*
X80733Y-53663D01*
X80662Y-53733D01*
X80624Y-53825D01*
X80625Y-53887D01*
X80687Y-53950D01*
X81200Y-53950D01*
X81200Y-54050D01*
X80687Y-54050D01*
X80625Y-54112D01*
X80624Y-54174D01*
X80656Y-54250D01*
X80624Y-54325D01*
X80625Y-54387D01*
X80687Y-54450D01*
X81200Y-54450D01*
X81200Y-54550D01*
X80687Y-54550D01*
X80625Y-54612D01*
X80624Y-54674D01*
X80625Y-54674D01*
X80616Y-54676D01*
X80502Y-54752D01*
X80127Y-55127D01*
X80051Y-55241D01*
X80025Y-55375D01*
X80025Y-57796D01*
X79996Y-57824D01*
X79915Y-57824D01*
X79759Y-57889D01*
X79639Y-58008D01*
X79575Y-58165D01*
X79574Y-58334D01*
X79639Y-58490D01*
X79758Y-58610D01*
X79915Y-58674D01*
X79996Y-58674D01*
X80058Y-58736D01*
X80150Y-58774D01*
X80249Y-58775D01*
X80599Y-58775D01*
X80655Y-58751D01*
X80624Y-58825D01*
X80625Y-58887D01*
X80687Y-58950D01*
X81200Y-58950D01*
X81200Y-58942D01*
X81300Y-58942D01*
X81300Y-58950D01*
X81812Y-58950D01*
X81875Y-58887D01*
X81875Y-58825D01*
X81837Y-58733D01*
X81766Y-58663D01*
X81674Y-58625D01*
X81575Y-58624D01*
X81529Y-58624D01*
X81549Y-58574D01*
X81550Y-58475D01*
X81550Y-58362D01*
X81487Y-58300D01*
X81175Y-58300D01*
X81175Y-58307D01*
X81075Y-58307D01*
X81075Y-58300D01*
X81067Y-58300D01*
X81067Y-58200D01*
X81075Y-58200D01*
X81075Y-58192D01*
X81175Y-58192D01*
X81175Y-58200D01*
X81487Y-58200D01*
X81550Y-58137D01*
X81550Y-58024D01*
X81549Y-57925D01*
X81529Y-57875D01*
X81575Y-57875D01*
X81674Y-57874D01*
X81766Y-57836D01*
X81837Y-57766D01*
X81875Y-57674D01*
X81875Y-57612D01*
X81812Y-57550D01*
X81300Y-57550D01*
X81300Y-57557D01*
X81200Y-57557D01*
X81200Y-57550D01*
X81192Y-57550D01*
X81192Y-57450D01*
X81200Y-57450D01*
X81200Y-57442D01*
X81300Y-57442D01*
X81300Y-57450D01*
X81812Y-57450D01*
X81860Y-57402D01*
X81915Y-57424D01*
X82084Y-57425D01*
X82218Y-57369D01*
X82237Y-57416D01*
X82308Y-57486D01*
X82400Y-57524D01*
X82499Y-57525D01*
X82849Y-57525D01*
X82941Y-57487D01*
X83000Y-57428D01*
X83058Y-57487D01*
X83150Y-57525D01*
X83262Y-57525D01*
X83325Y-57462D01*
X83325Y-57050D01*
X83317Y-57050D01*
X83317Y-56950D01*
X83325Y-56950D01*
X83325Y-56712D01*
X83325Y-56537D01*
X83325Y-56300D01*
X83317Y-56300D01*
X83317Y-56200D01*
X83325Y-56200D01*
X83325Y-56192D01*
X83425Y-56192D01*
X83425Y-56200D01*
X83737Y-56200D01*
X83800Y-56137D01*
X83800Y-56024D01*
X83799Y-55925D01*
X83761Y-55833D01*
X83728Y-55800D01*
X83875Y-55800D01*
X84287Y-56212D01*
X84287Y-56212D01*
X84385Y-56277D01*
X84500Y-56300D01*
X84949Y-56300D01*
X84949Y-56349D01*
X84987Y-56441D01*
X85058Y-56511D01*
X85150Y-56549D01*
X85172Y-56549D01*
X85034Y-56688D01*
X85029Y-56700D01*
X84750Y-56700D01*
X84635Y-56722D01*
X84537Y-56787D01*
X84037Y-57287D01*
X83972Y-57385D01*
X83950Y-57500D01*
X83950Y-58625D01*
X83676Y-58898D01*
X83561Y-58784D01*
X83480Y-58750D01*
X83561Y-58716D01*
X83715Y-58561D01*
X83799Y-58359D01*
X83800Y-58141D01*
X83800Y-58140D01*
X83800Y-57225D01*
X83800Y-56774D01*
X83799Y-56675D01*
X83779Y-56625D01*
X83799Y-56574D01*
X83800Y-56475D01*
X83800Y-56362D01*
X83737Y-56300D01*
X83425Y-56300D01*
X83425Y-56537D01*
X83425Y-56712D01*
X83425Y-56950D01*
X83737Y-56950D01*
X83800Y-56887D01*
X83800Y-56774D01*
X83800Y-57225D01*
X83800Y-57112D01*
X83737Y-57050D01*
X83425Y-57050D01*
X83425Y-57462D01*
X83487Y-57525D01*
X83599Y-57525D01*
X83691Y-57487D01*
X83761Y-57416D01*
X83799Y-57324D01*
X83800Y-57225D01*
X83800Y-58140D01*
X83716Y-57938D01*
X83561Y-57784D01*
X83359Y-57700D01*
X83141Y-57699D01*
X82938Y-57783D01*
X82784Y-57938D01*
X82700Y-58140D01*
X82699Y-58358D01*
X82783Y-58561D01*
X82938Y-58715D01*
X83019Y-58749D01*
X82938Y-58783D01*
X82784Y-58938D01*
X82700Y-59140D01*
X82699Y-59358D01*
X82783Y-59561D01*
X82922Y-59699D01*
X82900Y-59699D01*
X82808Y-59737D01*
X82738Y-59808D01*
X82700Y-59900D01*
X82700Y-59950D01*
X82500Y-59950D01*
X82385Y-59972D01*
X82287Y-60037D01*
X81875Y-60450D01*
X81875Y-60325D01*
X81843Y-60249D01*
X81874Y-60174D01*
X81875Y-60075D01*
X81875Y-59825D01*
X81843Y-59750D01*
X81875Y-59674D01*
X81875Y-59325D01*
X81843Y-59250D01*
X81875Y-59174D01*
X81875Y-59112D01*
X81812Y-59050D01*
X81300Y-59050D01*
X81300Y-59187D01*
X81300Y-59312D01*
X81300Y-59450D01*
X81812Y-59450D01*
X81875Y-59387D01*
X81875Y-59325D01*
X81875Y-59674D01*
X81875Y-59612D01*
X81812Y-59550D01*
X81300Y-59550D01*
X81300Y-59557D01*
X81200Y-59557D01*
X81200Y-59550D01*
X81200Y-59450D01*
X81200Y-59312D01*
X81200Y-59187D01*
X81200Y-59050D01*
X80687Y-59050D01*
X80625Y-59112D01*
X80624Y-59174D01*
X80656Y-59250D01*
X80624Y-59325D01*
X80625Y-59387D01*
X80687Y-59450D01*
X81200Y-59450D01*
X81200Y-59550D01*
X80687Y-59550D01*
X80625Y-59612D01*
X80624Y-59674D01*
X80625Y-59674D01*
X80616Y-59676D01*
X80502Y-59752D01*
X80127Y-60127D01*
X80051Y-60241D01*
X80025Y-60375D01*
X80025Y-62796D01*
X79996Y-62824D01*
X79915Y-62824D01*
X79759Y-62889D01*
X79639Y-63008D01*
X79575Y-63165D01*
X79574Y-63334D01*
X79639Y-63490D01*
X79758Y-63610D01*
X79915Y-63674D01*
X79996Y-63674D01*
X80058Y-63736D01*
X80150Y-63774D01*
X80249Y-63775D01*
X80599Y-63775D01*
X80691Y-63737D01*
X80750Y-63678D01*
X80808Y-63737D01*
X80900Y-63775D01*
X81012Y-63775D01*
X81075Y-63712D01*
X81075Y-63300D01*
X81067Y-63300D01*
X81067Y-63200D01*
X81075Y-63200D01*
X81075Y-63192D01*
X81175Y-63192D01*
X81175Y-63200D01*
X81487Y-63200D01*
X81550Y-63137D01*
X81550Y-63024D01*
X81549Y-62925D01*
X81529Y-62875D01*
X81575Y-62875D01*
X81674Y-62874D01*
X81766Y-62836D01*
X81837Y-62766D01*
X81875Y-62674D01*
X81875Y-62612D01*
X81812Y-62550D01*
X81300Y-62550D01*
X81300Y-62557D01*
X81200Y-62557D01*
X81200Y-62550D01*
X81192Y-62550D01*
X81192Y-62450D01*
X81200Y-62450D01*
X81200Y-62442D01*
X81300Y-62442D01*
X81300Y-62450D01*
X81812Y-62450D01*
X81875Y-62387D01*
X81875Y-62325D01*
X81864Y-62300D01*
X81875Y-62300D01*
X82037Y-62462D01*
X82037Y-62462D01*
X82135Y-62527D01*
X82199Y-62540D01*
X82199Y-62574D01*
X82237Y-62666D01*
X82308Y-62736D01*
X82400Y-62774D01*
X82499Y-62775D01*
X82849Y-62775D01*
X82941Y-62737D01*
X83000Y-62678D01*
X83058Y-62737D01*
X83150Y-62775D01*
X83262Y-62775D01*
X83325Y-62712D01*
X83325Y-62300D01*
X83317Y-62300D01*
X83317Y-62200D01*
X83325Y-62200D01*
X83325Y-61962D01*
X83325Y-61787D01*
X83325Y-61550D01*
X83317Y-61550D01*
X83317Y-61450D01*
X83325Y-61450D01*
X83325Y-61037D01*
X83262Y-60975D01*
X83150Y-60974D01*
X83058Y-61012D01*
X82999Y-61071D01*
X82941Y-61013D01*
X82849Y-60975D01*
X82750Y-60974D01*
X82400Y-60974D01*
X82308Y-61012D01*
X82238Y-61083D01*
X82200Y-61175D01*
X82200Y-61200D01*
X81974Y-61200D01*
X82624Y-60550D01*
X82699Y-60550D01*
X82699Y-60599D01*
X82737Y-60691D01*
X82808Y-60761D01*
X82900Y-60799D01*
X82999Y-60800D01*
X83599Y-60800D01*
X83691Y-60762D01*
X83761Y-60691D01*
X83799Y-60599D01*
X83800Y-60500D01*
X83800Y-59900D01*
X83762Y-59808D01*
X83691Y-59738D01*
X83599Y-59700D01*
X83577Y-59700D01*
X83715Y-59561D01*
X83720Y-59550D01*
X83750Y-59550D01*
X83750Y-59549D01*
X83864Y-59527D01*
X83864Y-59527D01*
X83962Y-59462D01*
X84462Y-58962D01*
X84462Y-58962D01*
X84527Y-58864D01*
X84549Y-58750D01*
X84550Y-58750D01*
X84550Y-57624D01*
X84874Y-57300D01*
X85028Y-57300D01*
X85033Y-57311D01*
X85188Y-57465D01*
X85269Y-57499D01*
X85188Y-57533D01*
X85034Y-57688D01*
X84950Y-57890D01*
X84949Y-58108D01*
X85033Y-58311D01*
X85188Y-58465D01*
X85269Y-58499D01*
X85188Y-58533D01*
X85034Y-58688D01*
X84950Y-58890D01*
X84949Y-59108D01*
X85033Y-59311D01*
X85188Y-59465D01*
X85269Y-59499D01*
X85269Y-59500D01*
X85000Y-59500D01*
X84808Y-59538D01*
X84646Y-59646D01*
X84196Y-60096D01*
X84088Y-60258D01*
X84049Y-60450D01*
X84050Y-60450D01*
X84050Y-60950D01*
X84050Y-62000D01*
X84050Y-63040D01*
X84038Y-63058D01*
X83999Y-63250D01*
X84038Y-63441D01*
X84146Y-63603D01*
X84308Y-63711D01*
X84500Y-63750D01*
X84691Y-63711D01*
X84853Y-63603D01*
X84903Y-63553D01*
X85011Y-63391D01*
X85050Y-63200D01*
X85050Y-62700D01*
X85199Y-62700D01*
X85291Y-62662D01*
X85361Y-62591D01*
X85399Y-62499D01*
X85400Y-62400D01*
X85400Y-61000D01*
X85362Y-60908D01*
X85291Y-60838D01*
X85199Y-60800D01*
X85100Y-60799D01*
X85050Y-60799D01*
X85050Y-60657D01*
X85207Y-60500D01*
X85269Y-60500D01*
X85390Y-60549D01*
X85608Y-60550D01*
X85811Y-60466D01*
X85965Y-60311D01*
X85997Y-60236D01*
X86018Y-60287D01*
X86114Y-60315D01*
X86429Y-60000D01*
X86429Y-60141D01*
X86184Y-60385D01*
X86212Y-60481D01*
X86418Y-60554D01*
X86636Y-60543D01*
X86787Y-60481D01*
X86815Y-60385D01*
X86815Y-60847D01*
X86800Y-60862D01*
X86800Y-61700D01*
X87337Y-61700D01*
X87400Y-61637D01*
X87400Y-61099D01*
X87400Y-62400D01*
X87400Y-61862D01*
X87337Y-61800D01*
X86800Y-61800D01*
X86800Y-62637D01*
X86862Y-62700D01*
X87199Y-62700D01*
X87291Y-62662D01*
X87361Y-62591D01*
X87399Y-62499D01*
X87400Y-62400D01*
X87400Y-63970D01*
X86700Y-63970D01*
X86700Y-62637D01*
X86700Y-61800D01*
X86700Y-61700D01*
X86700Y-60862D01*
X86637Y-60800D01*
X86300Y-60799D01*
X86208Y-60837D01*
X86138Y-60908D01*
X86100Y-61000D01*
X86099Y-61099D01*
X86100Y-61637D01*
X86162Y-61700D01*
X86700Y-61700D01*
X86700Y-61800D01*
X86162Y-61800D01*
X86100Y-61862D01*
X86099Y-62400D01*
X86100Y-62499D01*
X86138Y-62591D01*
X86208Y-62662D01*
X86300Y-62700D01*
X86637Y-62700D01*
X86700Y-62637D01*
X86700Y-63970D01*
X83800Y-63970D01*
X83800Y-62475D01*
X83800Y-62024D01*
X83799Y-61925D01*
X83779Y-61875D01*
X83799Y-61824D01*
X83800Y-61725D01*
X83800Y-61274D01*
X83799Y-61175D01*
X83761Y-61083D01*
X83691Y-61012D01*
X83599Y-60974D01*
X83487Y-60975D01*
X83425Y-61037D01*
X83425Y-61450D01*
X83737Y-61450D01*
X83800Y-61387D01*
X83800Y-61274D01*
X83800Y-61725D01*
X83800Y-61612D01*
X83737Y-61550D01*
X83425Y-61550D01*
X83425Y-61787D01*
X83425Y-61962D01*
X83425Y-62200D01*
X83737Y-62200D01*
X83800Y-62137D01*
X83800Y-62024D01*
X83800Y-62475D01*
X83800Y-62362D01*
X83737Y-62300D01*
X83425Y-62300D01*
X83425Y-62712D01*
X83487Y-62775D01*
X83599Y-62775D01*
X83691Y-62737D01*
X83761Y-62666D01*
X83799Y-62574D01*
X83800Y-62475D01*
X83800Y-63970D01*
X81550Y-63970D01*
X81550Y-63475D01*
X81550Y-63362D01*
X81487Y-63300D01*
X81175Y-63300D01*
X81175Y-63712D01*
X81237Y-63775D01*
X81349Y-63775D01*
X81441Y-63737D01*
X81511Y-63666D01*
X81549Y-63574D01*
X81550Y-63475D01*
X81550Y-63970D01*
X79300Y-63970D01*
X79300Y-53279D01*
X87952Y-53279D01*
X87693Y-53538D01*
X87532Y-53924D01*
X87532Y-54341D01*
X87692Y-54727D01*
X87987Y-55023D01*
X88372Y-55183D01*
X88790Y-55184D01*
X89176Y-55024D01*
X89472Y-54729D01*
X89632Y-54343D01*
X89632Y-53925D01*
X89473Y-53539D01*
X89213Y-53279D01*
X89720Y-53279D01*
X89720Y-63970D01*
G54D10*
G36*
X77307Y-55550D02*
X77300Y-55550D01*
X77300Y-55557D01*
X77200Y-55557D01*
X77200Y-55550D01*
X77200Y-55450D01*
X77200Y-55312D01*
X77200Y-55187D01*
X77200Y-55050D01*
X77200Y-54950D01*
X77200Y-54812D01*
X77200Y-54687D01*
X77200Y-54550D01*
X77200Y-54450D01*
X77200Y-54312D01*
X77200Y-54187D01*
X77200Y-54050D01*
X76687Y-54050D01*
X76625Y-54112D01*
X76624Y-54174D01*
X76656Y-54250D01*
X76624Y-54325D01*
X76625Y-54387D01*
X76687Y-54450D01*
X77200Y-54450D01*
X77200Y-54550D01*
X76687Y-54550D01*
X76625Y-54612D01*
X76624Y-54674D01*
X76656Y-54750D01*
X76624Y-54825D01*
X76625Y-54887D01*
X76687Y-54950D01*
X77200Y-54950D01*
X77200Y-55050D01*
X76687Y-55050D01*
X76625Y-55112D01*
X76624Y-55174D01*
X76656Y-55250D01*
X76624Y-55325D01*
X76625Y-55387D01*
X76687Y-55450D01*
X77200Y-55450D01*
X77200Y-55550D01*
X76687Y-55550D01*
X76637Y-55600D01*
X73550Y-55600D01*
X73550Y-53800D01*
X76635Y-53800D01*
X76624Y-53825D01*
X76625Y-53887D01*
X76687Y-53950D01*
X77200Y-53950D01*
X77200Y-53942D01*
X77300Y-53942D01*
X77300Y-53950D01*
X77307Y-53950D01*
X77307Y-54050D01*
X77300Y-54050D01*
X77300Y-54187D01*
X77300Y-54312D01*
X77300Y-54450D01*
X77307Y-54450D01*
X77307Y-54550D01*
X77300Y-54550D01*
X77300Y-54687D01*
X77300Y-54812D01*
X77300Y-54950D01*
X77307Y-54950D01*
X77307Y-55050D01*
X77300Y-55050D01*
X77300Y-55187D01*
X77300Y-55312D01*
X77300Y-55450D01*
X77307Y-55450D01*
X77307Y-55550D01*
X77307Y-55550D01*
G37*
G54D21*
X77307Y-55550D02*
X77300Y-55550D01*
X77300Y-55557D01*
X77200Y-55557D01*
X77200Y-55550D01*
X77200Y-55450D01*
X77200Y-55312D01*
X77200Y-55187D01*
X77200Y-55050D01*
X77200Y-54950D01*
X77200Y-54812D01*
X77200Y-54687D01*
X77200Y-54550D01*
X77200Y-54450D01*
X77200Y-54312D01*
X77200Y-54187D01*
X77200Y-54050D01*
X76687Y-54050D01*
X76625Y-54112D01*
X76624Y-54174D01*
X76656Y-54250D01*
X76624Y-54325D01*
X76625Y-54387D01*
X76687Y-54450D01*
X77200Y-54450D01*
X77200Y-54550D01*
X76687Y-54550D01*
X76625Y-54612D01*
X76624Y-54674D01*
X76656Y-54750D01*
X76624Y-54825D01*
X76625Y-54887D01*
X76687Y-54950D01*
X77200Y-54950D01*
X77200Y-55050D01*
X76687Y-55050D01*
X76625Y-55112D01*
X76624Y-55174D01*
X76656Y-55250D01*
X76624Y-55325D01*
X76625Y-55387D01*
X76687Y-55450D01*
X77200Y-55450D01*
X77200Y-55550D01*
X76687Y-55550D01*
X76637Y-55600D01*
X73550Y-55600D01*
X73550Y-53800D01*
X76635Y-53800D01*
X76624Y-53825D01*
X76625Y-53887D01*
X76687Y-53950D01*
X77200Y-53950D01*
X77200Y-53942D01*
X77300Y-53942D01*
X77300Y-53950D01*
X77307Y-53950D01*
X77307Y-54050D01*
X77300Y-54050D01*
X77300Y-54187D01*
X77300Y-54312D01*
X77300Y-54450D01*
X77307Y-54450D01*
X77307Y-54550D01*
X77300Y-54550D01*
X77300Y-54687D01*
X77300Y-54812D01*
X77300Y-54950D01*
X77307Y-54950D01*
X77307Y-55050D01*
X77300Y-55050D01*
X77300Y-55187D01*
X77300Y-55312D01*
X77300Y-55450D01*
X77307Y-55450D01*
X77307Y-55550D01*
G54D10*
G36*
X77307Y-57550D02*
X77300Y-57550D01*
X77300Y-57557D01*
X77200Y-57557D01*
X77200Y-57550D01*
X77200Y-57450D01*
X77200Y-57312D01*
X77200Y-57187D01*
X77200Y-57050D01*
X77200Y-56950D01*
X77200Y-56812D01*
X77200Y-56687D01*
X77200Y-56550D01*
X77200Y-56450D01*
X77200Y-56312D01*
X77200Y-56187D01*
X77200Y-56050D01*
X76687Y-56050D01*
X76625Y-56112D01*
X76624Y-56174D01*
X76656Y-56250D01*
X76624Y-56325D01*
X76625Y-56387D01*
X76687Y-56450D01*
X77200Y-56450D01*
X77200Y-56550D01*
X76687Y-56550D01*
X76625Y-56612D01*
X76624Y-56674D01*
X76656Y-56750D01*
X76624Y-56825D01*
X76625Y-56887D01*
X76687Y-56950D01*
X77200Y-56950D01*
X77200Y-57050D01*
X76687Y-57050D01*
X76625Y-57112D01*
X76624Y-57174D01*
X76656Y-57250D01*
X76624Y-57325D01*
X76625Y-57387D01*
X76687Y-57450D01*
X77200Y-57450D01*
X77200Y-57550D01*
X76687Y-57550D01*
X76625Y-57612D01*
X76624Y-57674D01*
X76656Y-57750D01*
X73550Y-57750D01*
X73550Y-55950D01*
X76687Y-55950D01*
X77200Y-55950D01*
X77300Y-55950D01*
X77307Y-55950D01*
X77307Y-56050D01*
X77300Y-56050D01*
X77300Y-56187D01*
X77300Y-56312D01*
X77300Y-56450D01*
X77307Y-56450D01*
X77307Y-56550D01*
X77300Y-56550D01*
X77300Y-56687D01*
X77300Y-56812D01*
X77300Y-56950D01*
X77307Y-56950D01*
X77307Y-57050D01*
X77300Y-57050D01*
X77300Y-57187D01*
X77300Y-57312D01*
X77300Y-57450D01*
X77307Y-57450D01*
X77307Y-57550D01*
X77307Y-57550D01*
G37*
G54D21*
X77307Y-57550D02*
X77300Y-57550D01*
X77300Y-57557D01*
X77200Y-57557D01*
X77200Y-57550D01*
X77200Y-57450D01*
X77200Y-57312D01*
X77200Y-57187D01*
X77200Y-57050D01*
X77200Y-56950D01*
X77200Y-56812D01*
X77200Y-56687D01*
X77200Y-56550D01*
X77200Y-56450D01*
X77200Y-56312D01*
X77200Y-56187D01*
X77200Y-56050D01*
X76687Y-56050D01*
X76625Y-56112D01*
X76624Y-56174D01*
X76656Y-56250D01*
X76624Y-56325D01*
X76625Y-56387D01*
X76687Y-56450D01*
X77200Y-56450D01*
X77200Y-56550D01*
X76687Y-56550D01*
X76625Y-56612D01*
X76624Y-56674D01*
X76656Y-56750D01*
X76624Y-56825D01*
X76625Y-56887D01*
X76687Y-56950D01*
X77200Y-56950D01*
X77200Y-57050D01*
X76687Y-57050D01*
X76625Y-57112D01*
X76624Y-57174D01*
X76656Y-57250D01*
X76624Y-57325D01*
X76625Y-57387D01*
X76687Y-57450D01*
X77200Y-57450D01*
X77200Y-57550D01*
X76687Y-57550D01*
X76625Y-57612D01*
X76624Y-57674D01*
X76656Y-57750D01*
X73550Y-57750D01*
X73550Y-55950D01*
X76687Y-55950D01*
X77200Y-55950D01*
X77300Y-55950D01*
X77307Y-55950D01*
X77307Y-56050D01*
X77300Y-56050D01*
X77300Y-56187D01*
X77300Y-56312D01*
X77300Y-56450D01*
X77307Y-56450D01*
X77307Y-56550D01*
X77300Y-56550D01*
X77300Y-56687D01*
X77300Y-56812D01*
X77300Y-56950D01*
X77307Y-56950D01*
X77307Y-57050D01*
X77300Y-57050D01*
X77300Y-57187D01*
X77300Y-57312D01*
X77300Y-57450D01*
X77307Y-57450D01*
X77307Y-57550D01*
G54D10*
G36*
X77307Y-62550D02*
X77300Y-62550D01*
X77300Y-62557D01*
X77200Y-62557D01*
X77200Y-62550D01*
X77200Y-62450D01*
X77200Y-62312D01*
X77200Y-62187D01*
X77200Y-62050D01*
X77200Y-61950D01*
X77200Y-61812D01*
X77200Y-61687D01*
X77200Y-61550D01*
X77200Y-61450D01*
X77200Y-61312D01*
X77200Y-61187D01*
X77200Y-61050D01*
X76687Y-61050D01*
X76625Y-61112D01*
X76624Y-61174D01*
X76656Y-61250D01*
X76624Y-61325D01*
X76625Y-61387D01*
X76687Y-61450D01*
X77200Y-61450D01*
X77200Y-61550D01*
X76687Y-61550D01*
X76625Y-61612D01*
X76624Y-61674D01*
X76656Y-61750D01*
X76624Y-61825D01*
X76625Y-61887D01*
X76687Y-61950D01*
X77200Y-61950D01*
X77200Y-62050D01*
X76687Y-62050D01*
X76625Y-62112D01*
X76624Y-62174D01*
X76656Y-62250D01*
X76624Y-62325D01*
X76625Y-62387D01*
X76687Y-62450D01*
X77200Y-62450D01*
X77200Y-62550D01*
X76687Y-62550D01*
X76625Y-62612D01*
X76624Y-62674D01*
X76656Y-62750D01*
X73550Y-62750D01*
X73550Y-60950D01*
X76687Y-60950D01*
X77200Y-60950D01*
X77300Y-60950D01*
X77307Y-60950D01*
X77307Y-61050D01*
X77300Y-61050D01*
X77300Y-61187D01*
X77300Y-61312D01*
X77300Y-61450D01*
X77307Y-61450D01*
X77307Y-61550D01*
X77300Y-61550D01*
X77300Y-61687D01*
X77300Y-61812D01*
X77300Y-61950D01*
X77307Y-61950D01*
X77307Y-62050D01*
X77300Y-62050D01*
X77300Y-62187D01*
X77300Y-62312D01*
X77300Y-62450D01*
X77307Y-62450D01*
X77307Y-62550D01*
X77307Y-62550D01*
G37*
G54D21*
X77307Y-62550D02*
X77300Y-62550D01*
X77300Y-62557D01*
X77200Y-62557D01*
X77200Y-62550D01*
X77200Y-62450D01*
X77200Y-62312D01*
X77200Y-62187D01*
X77200Y-62050D01*
X77200Y-61950D01*
X77200Y-61812D01*
X77200Y-61687D01*
X77200Y-61550D01*
X77200Y-61450D01*
X77200Y-61312D01*
X77200Y-61187D01*
X77200Y-61050D01*
X76687Y-61050D01*
X76625Y-61112D01*
X76624Y-61174D01*
X76656Y-61250D01*
X76624Y-61325D01*
X76625Y-61387D01*
X76687Y-61450D01*
X77200Y-61450D01*
X77200Y-61550D01*
X76687Y-61550D01*
X76625Y-61612D01*
X76624Y-61674D01*
X76656Y-61750D01*
X76624Y-61825D01*
X76625Y-61887D01*
X76687Y-61950D01*
X77200Y-61950D01*
X77200Y-62050D01*
X76687Y-62050D01*
X76625Y-62112D01*
X76624Y-62174D01*
X76656Y-62250D01*
X76624Y-62325D01*
X76625Y-62387D01*
X76687Y-62450D01*
X77200Y-62450D01*
X77200Y-62550D01*
X76687Y-62550D01*
X76625Y-62612D01*
X76624Y-62674D01*
X76656Y-62750D01*
X73550Y-62750D01*
X73550Y-60950D01*
X76687Y-60950D01*
X77200Y-60950D01*
X77300Y-60950D01*
X77307Y-60950D01*
X77307Y-61050D01*
X77300Y-61050D01*
X77300Y-61187D01*
X77300Y-61312D01*
X77300Y-61450D01*
X77307Y-61450D01*
X77307Y-61550D01*
X77300Y-61550D01*
X77300Y-61687D01*
X77300Y-61812D01*
X77300Y-61950D01*
X77307Y-61950D01*
X77307Y-62050D01*
X77300Y-62050D01*
X77300Y-62187D01*
X77300Y-62312D01*
X77300Y-62450D01*
X77307Y-62450D01*
X77307Y-62550D01*
G54D10*
G36*
X77307Y-60550D02*
X77300Y-60550D01*
X77300Y-60557D01*
X77200Y-60557D01*
X77200Y-60550D01*
X77200Y-60450D01*
X77200Y-60312D01*
X77200Y-60187D01*
X77200Y-60050D01*
X77200Y-59950D01*
X77200Y-59812D01*
X77200Y-59687D01*
X77200Y-59550D01*
X77200Y-59450D01*
X77200Y-59312D01*
X77200Y-59187D01*
X77200Y-59050D01*
X76687Y-59050D01*
X76625Y-59112D01*
X76624Y-59174D01*
X76656Y-59250D01*
X76624Y-59325D01*
X76625Y-59387D01*
X76687Y-59450D01*
X77200Y-59450D01*
X77200Y-59550D01*
X76687Y-59550D01*
X76625Y-59612D01*
X76624Y-59674D01*
X76656Y-59750D01*
X76624Y-59825D01*
X76625Y-59887D01*
X76687Y-59950D01*
X77200Y-59950D01*
X77200Y-60050D01*
X76687Y-60050D01*
X76625Y-60112D01*
X76624Y-60174D01*
X76656Y-60250D01*
X76624Y-60325D01*
X76625Y-60387D01*
X76687Y-60450D01*
X77200Y-60450D01*
X77200Y-60550D01*
X76687Y-60550D01*
X76637Y-60600D01*
X73550Y-60600D01*
X73550Y-58800D01*
X76635Y-58800D01*
X76624Y-58825D01*
X76625Y-58887D01*
X76687Y-58950D01*
X77200Y-58950D01*
X77200Y-58942D01*
X77300Y-58942D01*
X77300Y-58950D01*
X77307Y-58950D01*
X77307Y-59050D01*
X77300Y-59050D01*
X77300Y-59187D01*
X77300Y-59312D01*
X77300Y-59450D01*
X77307Y-59450D01*
X77307Y-59550D01*
X77300Y-59550D01*
X77300Y-59687D01*
X77300Y-59812D01*
X77300Y-59950D01*
X77307Y-59950D01*
X77307Y-60050D01*
X77300Y-60050D01*
X77300Y-60187D01*
X77300Y-60312D01*
X77300Y-60450D01*
X77307Y-60450D01*
X77307Y-60550D01*
X77307Y-60550D01*
G37*
G54D21*
X77307Y-60550D02*
X77300Y-60550D01*
X77300Y-60557D01*
X77200Y-60557D01*
X77200Y-60550D01*
X77200Y-60450D01*
X77200Y-60312D01*
X77200Y-60187D01*
X77200Y-60050D01*
X77200Y-59950D01*
X77200Y-59812D01*
X77200Y-59687D01*
X77200Y-59550D01*
X77200Y-59450D01*
X77200Y-59312D01*
X77200Y-59187D01*
X77200Y-59050D01*
X76687Y-59050D01*
X76625Y-59112D01*
X76624Y-59174D01*
X76656Y-59250D01*
X76624Y-59325D01*
X76625Y-59387D01*
X76687Y-59450D01*
X77200Y-59450D01*
X77200Y-59550D01*
X76687Y-59550D01*
X76625Y-59612D01*
X76624Y-59674D01*
X76656Y-59750D01*
X76624Y-59825D01*
X76625Y-59887D01*
X76687Y-59950D01*
X77200Y-59950D01*
X77200Y-60050D01*
X76687Y-60050D01*
X76625Y-60112D01*
X76624Y-60174D01*
X76656Y-60250D01*
X76624Y-60325D01*
X76625Y-60387D01*
X76687Y-60450D01*
X77200Y-60450D01*
X77200Y-60550D01*
X76687Y-60550D01*
X76637Y-60600D01*
X73550Y-60600D01*
X73550Y-58800D01*
X76635Y-58800D01*
X76624Y-58825D01*
X76625Y-58887D01*
X76687Y-58950D01*
X77200Y-58950D01*
X77200Y-58942D01*
X77300Y-58942D01*
X77300Y-58950D01*
X77307Y-58950D01*
X77307Y-59050D01*
X77300Y-59050D01*
X77300Y-59187D01*
X77300Y-59312D01*
X77300Y-59450D01*
X77307Y-59450D01*
X77307Y-59550D01*
X77300Y-59550D01*
X77300Y-59687D01*
X77300Y-59812D01*
X77300Y-59950D01*
X77307Y-59950D01*
X77307Y-60050D01*
X77300Y-60050D01*
X77300Y-60187D01*
X77300Y-60312D01*
X77300Y-60450D01*
X77307Y-60450D01*
X77307Y-60550D01*
M02*
