M48
;DRILL file {Pcbnew (2013-mar-13)-testing} date Thu 04 Apr 2013 06:28:11 PM CEST
;FORMAT={-:-/ absolute / inch / decimal}
FMAT,2
INCH,TZ
T1C0.025
T2C0.040
T3C0.060
T4C0.120
%
G90
G05
M72
T1
X8.Y-5.825
X8.Y-6.325
X8.2Y-5.7
X8.2Y-5.75
X8.2Y-5.9
X8.2Y-6.25
X8.4Y-5.7
X8.45Y-6.325
T2
X8.325Y-5.825
X8.325Y-5.925
X8.325Y-6.025
X8.55Y-5.6
X8.55Y-5.7
X8.55Y-5.8
X8.55Y-5.9
X8.55Y-6.
X8.65Y-5.6
X8.65Y-5.7
X8.65Y-5.8
X8.65Y-5.9
X8.65Y-6.
T3
X7.5Y-5.475
X7.5Y-5.675
X7.5Y-5.975
X7.5Y-6.175
T4
X7.0866Y-5.4134
X7.0866Y-6.2992
X8.8583Y-5.4134
X8.8583Y-6.2992
T0
M30
